<svg xmlns="http://www.w3.org/2000/svg" width="111.872" height="113.87" viewBox="0 0 111.872 113.87">
  <defs>
    <style>
      .cls-1 {
        fill: #007c4c;
      }

      .cls-2, .cls-4 {
        fill: #272727;
      }

      .cls-2 {
        opacity: 0.2;
      }

      .cls-3, .cls-4 {
        stroke: none;
      }
    </style>
  </defs>
  <g id="Group_79" data-name="Group 79" transform="translate(-1360.064 -877.518)">
    <g id="Path_33" data-name="Path 33" class="cls-1" transform="matrix(0.966, -0.259, 0.259, 0.966, 1386.222, 938.036)">
      <path class="cls-3" d="M 14.77777576446533 51.34470748901367 C 14.66591548919678 51.34470748901367 14.55200576782227 51.34245681762695 14.43921566009521 51.33803939819336 L 12.46001529693604 51.26037979125977 C 10.49652576446533 51.18332672119141 8.628205299377441 50.45685958862305 7.199225425720215 49.21479797363281 C 5.882625579833984 48.07040786743164 5.121135711669922 46.63851928710938 5.055025577545166 45.18289947509766 L 3.385235548019409 8.414658546447754 C 3.31708550453186 6.913958072662354 4.008305549621582 5.860648155212402 4.600175380706787 5.241288185119629 C 5.730945587158203 4.057998180389404 7.494905471801758 3.379348039627075 9.439755439758301 3.379348039627075 C 9.551615715026855 3.379348039627075 9.665525436401367 3.381598234176636 9.778315544128418 3.386018037796021 L 11.7575159072876 3.463678121566772 C 13.7210054397583 3.540728092193604 15.58933544158936 4.267198085784912 17.0183048248291 5.509258270263672 C 18.33490562438965 6.653647899627686 19.09639549255371 8.085537910461426 19.16250610351562 9.541168212890625 L 20.83229637145996 46.30940628051758 C 20.90044593811035 47.81010818481445 20.20922470092773 48.86341857910156 19.61736488342285 49.48276901245117 C 18.48659515380859 50.66605758666992 16.72263526916504 51.34470748901367 14.77777576446533 51.34470748901367 Z"/>
      <path class="cls-4" d="M 9.439765930175781 0.3793487548828125 L 9.439765930175781 6.379348754882812 C 8.326699256896973 6.379348754882812 7.328311920166016 6.728721618652344 6.769084930419922 7.313922882080078 C 6.404619216918945 7.695320129394531 6.370845794677734 8.029773712158203 6.382152557373047 8.278549194335938 L 8.051939010620117 45.04678726196289 C 8.11585807800293 46.4543342590332 10.10672569274902 48.16572189331055 12.57765865325928 48.26268005371094 L 14.77776527404785 48.34470748901367 C 15.89083194732666 48.34470748901367 16.88921928405762 47.99533462524414 17.44844627380371 47.41013336181641 C 17.81291198730469 47.02873611450195 17.8466854095459 46.69428253173828 17.83537864685059 46.44550704956055 L 16.16557884216309 9.677253723144531 C 16.10165786743164 8.269721984863281 14.11080551147461 6.558334350585938 11.63987255096436 6.461376190185547 L 9.66049861907959 6.383693695068359 L 9.439765930175781 0.3793487548828125 M 9.439767837524414 0.3793449401855469 C 9.590911865234375 0.3793449401855469 9.742838859558105 0.3823127746582031 9.895952224731445 0.3883209228515625 L 11.8751392364502 0.4659881591796875 C 17.34052658081055 0.6804542541503906 21.9449520111084 4.682613372802734 22.15940475463867 9.405067443847656 L 23.8292064666748 46.17330932617188 C 24.03766441345215 50.76344680786133 20.0217227935791 54.34471130371094 14.77776336669922 54.34471130371094 C 14.62661933898926 54.34471130371094 14.47469234466553 54.34174346923828 14.32157897949219 54.33573532104492 L 12.34239196777344 54.2580680847168 C 6.877006530761719 54.04360198974609 2.272579193115234 50.04144287109375 2.058113098144531 45.31898880004883 L 0.3883247375488281 8.550746917724609 C 0.1798667907714844 3.960609436035156 4.195808410644531 0.3793449401855469 9.439767837524414 0.3793449401855469 Z"/>
    </g>
    <path id="Intersection_5" data-name="Intersection 5" class="cls-2" d="M872.251,179.045l-11.128-35.083a7.373,7.373,0,0,1,1.455-7.017c4.844-.473,9.5,2.109,10.795,6.207L884.5,178.236a7.374,7.374,0,0,1-1.456,7.016c-.382.037-.764.056-1.143.056C877.489,185.308,873.449,182.819,872.251,179.045Z" transform="translate(536.688 797.233)"/>
    <g id="Path_32" data-name="Path 32" class="cls-1" transform="translate(1430.612 916.472) rotate(22)">
      <path class="cls-3" d="M 6.11797046661377 70.39113616943359 C 4.46323299407959 70.39113616943359 3.312645196914673 69.55719757080078 2.638795375823975 68.85760498046875 C 1.285170316696167 67.4522705078125 0.5595952868461609 65.29261016845703 0.6480953097343445 62.93238067626953 L 2.580632925033569 11.3968448638916 C 2.667282819747925 9.086207389831543 3.499345302581787 6.87647008895874 4.923545360565186 5.174695014953613 C 6.237982749938965 3.604069948196411 7.882720470428467 2.683019876480103 9.554770469665527 2.581207513809204 C 9.656620025634766 2.575007438659668 9.759270668029785 2.571869850158691 9.859857559204102 2.571869850158691 C 11.51459503173828 2.571869850158691 12.66518306732178 3.405794858932495 13.33902072906494 4.105382442474365 C 14.69264507293701 5.510719776153564 15.41822052001953 7.670382499694824 15.32972049713135 10.03060722351074 L 13.39718246459961 61.56614303588867 C 13.31053256988525 63.87678146362305 12.47846984863281 66.08651733398438 11.05427074432373 67.78829193115234 C 9.739832878112793 69.35891723632812 8.095095634460449 70.27998352050781 6.42304515838623 70.38179779052734 C 6.321208000183105 70.38799285888672 6.218570232391357 70.39113616943359 6.11797046661377 70.39113616943359 Z"/>
      <path class="cls-4" d="M 9.859861373901367 -0.4281387329101562 L 9.737092971801758 5.575660705566406 C 7.874831199645996 5.689064025878906 5.700723648071289 8.250709533691406 5.578523635864258 11.5092658996582 L 3.645984649658203 63.0447883605957 C 3.58870792388916 64.57206726074219 4.019938468933105 65.96706390380859 4.799508094787598 66.77642059326172 C 5.348464965820312 67.34634399414062 5.858382225036621 67.38787841796875 6.170753479003906 67.38787841796875 C 6.195307731628418 67.38787841796875 6.218656539916992 67.38761901855469 6.240692138671875 67.38734436035156 C 8.102969169616699 67.27394104003906 10.27709197998047 64.71229553222656 10.39927673339844 61.45371246337891 L 12.33183097839355 9.918216705322266 C 12.38909244537354 8.390922546386719 11.95787715911865 6.99591064453125 11.17830848693848 6.186553955078125 C 10.58621597290039 5.571861267089844 10.03950786590576 5.571861267089844 9.859861373901367 5.571861267089844 L 9.859861373901367 -0.4281387329101562 M 9.859857559204102 -0.4281387329101562 C 14.7980375289917 -0.4281387329101562 18.55076026916504 4.192062377929688 18.32761573791504 10.14303207397461 L 16.39506149291992 61.67855834960938 C 16.16463088989258 67.82382202148438 11.78163146972656 73.06105041503906 6.605384826660156 73.37625122070312 C 6.441731452941895 73.38621520996094 6.279205322265625 73.39114379882812 6.117981910705566 73.39114379882812 C 1.179814338684082 73.39114379882812 -2.572959899902344 68.77092742919922 -2.349800109863281 62.8199577331543 L -0.4172611236572266 11.2844352722168 C -0.1868152618408203 5.139175415039062 4.196185111999512 -0.09806060791015625 9.372430801391602 -0.4132461547851562 C 9.53608512878418 -0.4232101440429688 9.698634147644043 -0.4281387329101562 9.859857559204102 -0.4281387329101562 Z"/>
    </g>
    <path id="Path_35" data-name="Path 35" class="cls-2" d="M9.372-.413C14.549-.728,18.558,4,18.328,10.143L16.4,61.679c-.23,6.145-4.613,11.382-9.79,11.7S-2.58,68.965-2.35,62.82L-.417,11.284C-.187,5.139,4.2-.1,9.372-.413Z" transform="translate(1430.612 916.472) rotate(22)"/>
    <g id="Union_7" data-name="Union 7" class="cls-1" transform="matrix(0.996, 0.087, -0.087, 0.996, 1366.339, 877.518)">
      <path class="cls-3" d="M 57.99960327148438 69 C 54.37913513183594 69 50.81095123291016 68.06439971923828 47.68082046508789 66.29436492919922 C 44.6421012878418 64.57603454589844 42.05430221557617 62.10343170166016 40.19718551635742 59.14388275146484 L 38.52790451049805 56.48369979858398 L 35.9468879699707 58.27293395996094 C 32.4298210144043 60.71106719970703 28.29875373840332 61.99980163574219 24.00030326843262 61.99980163574219 C 21.16390228271484 61.99980163574219 18.41395378112793 61.44498443603516 15.82685279846191 60.35074996948242 C 13.32650279998779 59.29323196411133 11.08033657073975 57.77864837646484 9.150753021240234 55.84911727905273 C 7.221169471740723 53.91958236694336 5.706586360931396 51.67351531982422 4.649036407470703 49.17328262329102 C 3.554819583892822 46.58633422851562 3.000003099441528 43.83656692504883 3.000003099441528 41.00040054321289 C 3.000003099441528 38.16400146484375 3.554819583892822 35.4140510559082 4.64905309677124 32.82695007324219 C 5.706603050231934 30.32661628723145 7.22118616104126 28.0804500579834 9.150769233703613 26.1508674621582 C 11.08035278320312 24.22128295898438 13.32651996612549 22.70669937133789 15.82685279846191 21.64915084838867 C 18.41395378112793 20.55491638183594 21.16390228271484 20.00009918212891 24.00030326843262 20.00009918212891 C 24.30070304870605 20.00009918212891 24.6047191619873 20.00651741027832 24.90390205383301 20.01914978027344 L 27.22646903991699 20.11731719970703 L 27.90136909484863 17.89279937744141 C 28.54703712463379 15.76461696624756 29.52613639831543 13.75918292999268 30.81147003173828 11.93220043182373 C 32.08060455322266 10.12825012207031 33.61785125732422 8.540450096130371 35.3805046081543 7.212950229644775 C 39.04008483886719 4.456816673278809 43.40372085571289 3 47.99970245361328 3 C 52.41040420532227 3 56.63047027587891 4.35123348236084 60.20367050170898 6.907633304595947 C 61.92630386352539 8.140083312988281 63.44980239868164 9.620400428771973 64.73184967041016 11.30749988555908 C 66.02630615234375 13.01089954376221 67.04790496826172 14.89061641693115 67.76827239990234 16.89448356628418 L 68.94930267333984 20.17973327636719 L 72.01947021484375 18.51786613464355 C 75.06304931640625 16.87039947509766 78.51422119140625 15.99960041046143 81.99990081787109 15.99960041046143 C 84.83625030517578 15.99960041046143 87.58618927001953 16.5544490814209 90.17328643798828 17.64875030517578 C 92.67362213134766 18.70635032653809 94.91978454589844 20.22101593017578 96.84940338134766 22.15068244934082 C 98.77898406982422 24.0803165435791 100.2936019897461 26.32649993896484 101.3511505126953 28.82685089111328 C 102.4453887939453 31.41390037536621 103.0002059936523 34.16371536254883 103.0002059936523 36.99990081787109 C 103.0002059936523 39.83629989624023 102.4453887939453 42.58625030517578 101.3511505126953 45.1733512878418 C 100.2936019897461 47.67368316650391 98.77902221679688 49.91984939575195 96.84943389892578 51.84943389892578 C 94.91985321044922 53.77901840209961 92.67368316650391 55.29359817504883 90.17335510253906 56.35115051269531 C 87.58625030517578 57.44538497924805 84.8363037109375 58.00019836425781 81.99990081787109 58.00019836425781 C 80.92890167236328 58.00019836425781 79.85391998291016 57.91908264160156 78.80480194091797 57.75908279418945 L 76.85670471191406 57.46200180053711 L 75.81037139892578 59.13188171386719 C 73.95388793945312 62.09469985961914 71.36551666259766 64.57021331787109 68.32511901855469 66.29081726074219 C 65.1932373046875 68.06318664550781 61.62273788452148 69 57.99960327148438 69 Z"/>
      <path class="cls-4" d="M 57.99960327148438 66 C 64.2406005859375 66 69.948486328125 62.83700180053711 73.26820373535156 57.53897857666016 L 75.36088562011719 54.19919967651367 L 79.257080078125 54.79338073730469 C 80.15158081054688 54.92977905273438 81.06730651855469 55.00019836425781 81.99990081787109 55.00019836425781 C 91.92530059814453 55.00019836425781 100.0002059936523 46.92530059814453 100.0002059936523 36.99990081787109 C 100.0002059936523 27.07449913024902 91.92530059814453 18.99959945678711 81.99990081787109 18.99959945678711 C 79.01132202148438 18.99959945678711 76.05396270751953 19.74531936645508 73.44756317138672 21.15616035461426 L 67.30720520019531 24.47987937927246 L 64.94514465332031 17.90937995910645 C 62.38434219360352 10.78600025177002 55.57448196411133 6 47.99970245361328 6 C 40.13638305664062 6 33.05216217041016 11.24866008758545 30.77216339111328 18.76378059387207 L 28.64558219909668 23.19658088684082 L 24.00030326843262 23.00009918212891 C 14.07490253448486 23.00009918212891 6.000002861022949 31.07500076293945 6.000002861022949 41.00040054321289 C 6.000002861022949 50.92530059814453 14.07490253448486 58.99980163574219 24.00030326843262 58.99980163574219 C 27.68500328063965 58.99980163574219 31.22504234313965 57.89590072631836 34.23772430419922 55.80744171142578 L 39.39974212646484 52.22895812988281 L 42.73830413818359 57.54932022094727 C 46.05878448486328 62.84085845947266 51.76394271850586 66 57.99960327148438 66 M 57.99960327148438 72 C 49.42524337768555 72 41.90054321289062 67.50254058837891 37.65604400634766 60.73846054077148 C 33.77960205078125 63.42572021484375 29.07422256469727 64.99980163574219 24.00030326843262 64.99980163574219 C 10.74510288238525 64.99980163574219 2.996826196977054e-06 54.25469970703125 2.996826196977054e-06 41.00040054321289 C 2.996826196977054e-06 27.74519920349121 10.74510288238525 17.00009918212891 24.00030326843262 17.00009918212891 C 24.34574317932129 17.00009918212891 24.6887035369873 17.00737953186035 25.03058242797852 17.0218391418457 C 28.01946258544922 7.170199871063232 37.17234420776367 0 47.99970245361328 0 C 58.40468215942383 0 67.26292419433594 6.62086009979248 70.59138488769531 15.87957954406738 C 73.98451995849609 14.04290008544922 77.87088012695312 12.99960041046143 81.99990081787109 12.99960041046143 C 95.25510406494141 12.99960041046143 106.0002059936523 23.7455997467041 106.0002059936523 36.99990081787109 C 106.0002059936523 50.25510025024414 95.25510406494141 61.00019836425781 81.99990081787109 61.00019836425781 C 80.75974273681641 61.00019836425781 79.54204559326172 60.90620040893555 78.35254669189453 60.72480010986328 C 74.10951995849609 67.496337890625 66.5802001953125 72 57.99960327148438 72 Z"/>
    </g>
    <path id="Subtraction_6" data-name="Subtraction 6" class="cls-2" d="M924.872,206.873v0c.331-.514.645-1.046.936-1.581.66.485,1.354.945,2.065,1.367a24.045,24.045,0,0,1-3,.215Zm39.874-14.33v0a25.045,25.045,0,0,0,1.008-5.174,24.855,24.855,0,0,0-5.792-18.252A25.12,25.12,0,0,0,942.9,160.27c-.741-.065-1.491-.1-2.23-.1a25.012,25.012,0,0,0-9.033,1.678,24.9,24.9,0,0,0-3.092-6.814,25.15,25.15,0,0,0-18.933-11.359c-.741-.065-1.492-.1-2.231-.1a25.212,25.212,0,0,0-11.585,2.83,24.007,24.007,0,0,1,20.942-12.318c.7,0,1.416.031,2.12.093a23.832,23.832,0,0,1,13.507,5.666,24.066,24.066,0,0,1,7.615,12.121,23.761,23.761,0,0,1,9.5-1.967c.7,0,1.415.031,2.118.093a23.993,23.993,0,0,1,13.155,42.445Zm-75.245-41.5h0a25.145,25.145,0,0,0-2.94-1.629,23.97,23.97,0,0,1,4.786-.483c.172,0,.346,0,.518.006a25.3,25.3,0,0,0-2.363,2.106Z" transform="translate(494.301 748.518)"/>
  </g>
</svg>
