<svg xmlns="http://www.w3.org/2000/svg" xmlns:xlink="http://www.w3.org/1999/xlink" width="1920" height="1080" viewBox="0 0 1920 1080">
  <defs>
    <style>
      .cls-1 {
        clip-path: url(#clip-Web_1920_3);
      }

      .cls-2 {
        fill: rgba(54,73,84,0.67);
      }

      .cls-17, .cls-18, .cls-3, .cls-35 {
        fill: #fff;
      }

      .cls-11, .cls-13, .cls-14, .cls-15, .cls-18, .cls-21, .cls-22, .cls-24, .cls-25, .cls-28, .cls-3, .cls-31, .cls-32, .cls-33, .cls-35, .cls-39, .cls-4, .cls-40, .cls-41, .cls-42 {
        stroke: #272727;
      }

      .cls-15, .cls-21, .cls-22, .cls-24, .cls-25, .cls-28, .cls-3, .cls-31, .cls-39, .cls-42 {
        stroke-width: 8px;
      }

      .cls-30, .cls-4 {
        fill: #84b1cb;
      }

      .cls-11, .cls-13, .cls-20, .cls-4, .cls-40, .cls-41 {
        stroke-width: 6px;
      }

      .cls-36, .cls-37, .cls-38, .cls-45, .cls-5 {
        fill: #272727;
      }

      .cls-6 {
        fill: rgba(255,255,255,0.51);
      }

      .cls-7 {
        fill: rgba(39,39,39,0.25);
      }

      .cls-16, .cls-31, .cls-8 {
        fill: #8e7258;
      }

      .cls-22, .cls-9 {
        fill: #ffebcd;
      }

      .cls-10, .cls-21, .cls-32 {
        fill: #ee982b;
      }

      .cls-11, .cls-13, .cls-14, .cls-15, .cls-19, .cls-20, .cls-27, .cls-41, .cls-42, .cls-44 {
        fill: none;
      }

      .cls-11, .cls-14, .cls-19, .cls-20, .cls-41, .cls-42 {
        stroke-linecap: round;
      }

      .cls-11, .cls-14, .cls-42 {
        stroke-linejoin: bevel;
      }

      .cls-12 {
        fill: rgba(255,255,255,0.25);
      }

      .cls-14, .cls-18, .cls-33 {
        stroke-width: 5px;
      }

      .cls-19 {
        stroke: rgba(39,39,39,0.2);
        stroke-width: 10px;
      }

      .cls-20 {
        stroke: rgba(255,255,255,0.2);
      }

      .cls-23, .cls-24, .cls-29, .cls-33, .cls-34 {
        fill: #576b76;
      }

      .cls-25 {
        fill: #85b9d8;
      }

      .cls-26 {
        fill: #7a8e9b;
      }

      .cls-28 {
        fill: #9aaebb;
      }

      .cls-32 {
        stroke-width: 3px;
      }

      .cls-34 {
        opacity: 0.95;
      }

      .cls-35 {
        stroke-width: 7px;
        font-size: 125px;
        font-family: Quicksand-Bold, Quicksand;
        font-weight: 700;
      }

      .cls-35, .cls-36, .cls-37 {
        letter-spacing: 0.02em;
      }

      .cls-36 {
        font-size: 48px;
      }

      .cls-36, .cls-37 {
        font-family: Quicksand-Medium, Quicksand;
        font-weight: 500;
      }

      .cls-37 {
        font-size: 36px;
      }

      .cls-38 {
        opacity: 0.2;
      }

      .cls-39 {
        fill: #007c4c;
      }

      .cls-40 {
        fill: #b72020;
      }

      .cls-43, .cls-45 {
        stroke: none;
      }
    </style>
    <clipPath id="clip-Web_1920_3">
      <rect width="1920" height="1080"/>
    </clipPath>
  </defs>
  <g id="Web_1920_3" data-name="Web 1920 – 3" class="cls-1">
    <rect class="cls-17" width="1920" height="1080"/>
    <rect id="Rectangle_1" data-name="Rectangle 1" class="cls-2" width="1924" height="1080" transform="translate(-4)"/>
    <g id="Group_23" data-name="Group 23" transform="translate(-2 6)">
      <g id="Rectangle_21" data-name="Rectangle 21" class="cls-3" transform="translate(1034 437)">
        <rect class="cls-43" width="195" height="110" rx="14"/>
        <rect class="cls-44" x="4" y="4" width="187" height="102" rx="10"/>
      </g>
      <g id="Rectangle_22" data-name="Rectangle 22" class="cls-4" transform="translate(1049 451)">
        <rect class="cls-43" width="136" height="82" rx="14"/>
        <rect class="cls-44" x="3" y="3" width="130" height="76" rx="11"/>
      </g>
      <rect id="Rectangle_76" data-name="Rectangle 76" class="cls-5" width="13" height="27" rx="6.5" transform="translate(1217 515) rotate(90)"/>
      <rect id="Rectangle_77" data-name="Rectangle 77" class="cls-5" width="16" height="16" rx="8" transform="translate(1212 487) rotate(90)"/>
      <rect id="Rectangle_118" data-name="Rectangle 118" class="cls-6" width="59.229" height="6.651" rx="3.326" transform="matrix(0.629, -0.777, 0.777, 0.629, 1131.651, 521.013)"/>
      <rect id="Rectangle_119" data-name="Rectangle 119" class="cls-6" width="29.773" height="6.651" rx="3.326" transform="matrix(0.629, -0.777, 0.777, 0.629, 1148.121, 514.045)"/>
      <rect id="Rectangle_122" data-name="Rectangle 122" class="cls-7" width="4" height="95" transform="translate(1041 444)"/>
    </g>
    <rect id="Rectangle_20" data-name="Rectangle 20" class="cls-5" width="1408" height="6" rx="3" transform="translate(256 798)"/>
    <g id="szafka" transform="translate(1260.546 267.013)">
      <rect id="Rectangle_133" data-name="Rectangle 133" class="cls-7" width="236" height="76" rx="7" transform="translate(0.454 103.987)"/>
      <g id="Group_36" data-name="Group 36">
        <g id="Group_9" data-name="Group 9">
          <g id="Path_7" data-name="Path 7" class="cls-8" transform="translate(0 0)">
            <path class="cls-43" d="M 230.7993927001953 166.0914611816406 L 5.944408416748047 166.0914611816406 C 5.679316520690918 165.7365875244141 5.247920036315918 164.9798278808594 4.848461627960205 163.6644287109375 C 4.301328182220459 161.8625946044922 3.99999475479126 159.5983581542969 3.99999475479126 157.2888488769531 L 3.99999475479126 12.80258941650391 C 3.99999475479126 10.49308967590332 4.301328182220459 8.228856086730957 4.848461627960205 6.427022933959961 C 5.247920036315918 5.111625194549561 5.679316520690918 4.354855537414551 5.944408416748047 3.99998950958252 L 230.7993927001953 3.99998950958252 C 231.0644989013672 4.354855537414551 231.4958953857422 5.111625194549561 231.8953247070312 6.427022933959961 C 232.4424591064453 8.228856086730957 232.7437896728516 10.49305629730225 232.7437896728516 12.80258941650391 L 232.7437896728516 157.2888488769531 C 232.7437896728516 159.598388671875 232.4424591064453 161.8625946044922 231.8953247070312 163.6644287109375 C 231.4958953857422 164.9798278808594 231.0644989013672 165.7365875244141 230.7993927001953 166.0914611816406 Z"/>
            <path class="cls-45" d="M 8.556671142578125 7.999984741210938 C 8.261932373046875 9.130386352539062 8.000015258789062 10.76666259765625 8.000015258789062 12.80256652832031 L 8.000015258789062 157.2888793945312 C 8.000015258789062 159.3247833251953 8.261932373046875 160.9610595703125 8.556671142578125 162.0914611816406 L 228.1871185302734 162.0914611816406 C 228.4818572998047 160.9610748291016 228.7437744140625 159.3247833251953 228.7437744140625 157.2888793945312 L 228.7437744140625 12.80256652832031 C 228.7437744140625 10.76666259765625 228.4818572998047 9.13037109375 228.1871185302734 7.999984741210938 L 8.556671142578125 7.999984741210938 M 5.328628540039062 -1.52587890625e-05 L 231.4151306152344 -1.52587890625e-05 C 234.3580932617188 -1.52587890625e-05 236.7437744140625 5.731918334960938 236.7437744140625 12.80256652832031 L 236.7437744140625 157.2888793945312 C 236.7437744140625 164.3595275878906 234.3580932617188 170.0914611816406 231.4151306152344 170.0914611816406 L 5.328628540039062 170.0914611816406 C 2.385696411132812 170.0914611816406 1.52587890625e-05 164.3595275878906 1.52587890625e-05 157.2888793945312 L 1.52587890625e-05 12.80256652832031 C 1.52587890625e-05 5.731918334960938 2.385696411132812 -1.52587890625e-05 5.328628540039062 -1.52587890625e-05 Z"/>
          </g>
        </g>
        <g id="Group_10" data-name="Group 10" transform="translate(12.583 12.823)">
          <g id="Path_7-2" data-name="Path 7" class="cls-9">
            <path class="cls-43" d="M 103.650390625 140.1759490966797 L 4.628387451171875 140.1759490966797 C 4.321430683135986 138.8129730224609 4.000011920928955 136.4788818359375 4.000011920928955 133.3239593505859 L 4.000011920928955 10.85194492340088 C 4.000011920928955 7.697037696838379 4.321429252624512 5.362980842590332 4.6283860206604 4.00001049041748 L 103.6503982543945 4.00001049041748 C 103.9573516845703 5.362985610961914 104.2787704467773 7.697052001953125 104.2787704467773 10.85194492340088 L 104.2787704467773 133.3239593505859 C 104.2787704467773 136.4788818359375 103.9573516845703 138.8129730224609 103.650390625 140.1759490966797 Z"/>
            <path class="cls-45" d="M 8.103927612304688 8 C 8.040794372558594 8.834274291992188 7.999984741210938 9.790130615234375 7.999984741210938 10.85197448730469 L 7.999984741210938 133.323974609375 C 7.999984741210938 134.3858032226562 8.040794372558594 135.3416595458984 8.103927612304688 136.1759338378906 L 100.1748046875 136.1759338378906 C 100.2379455566406 135.3416442871094 100.2787475585938 134.3858184814453 100.2787475585938 133.323974609375 L 100.2787475585938 10.85197448730469 C 100.2787475585938 9.790115356445312 100.2379455566406 8.83428955078125 100.1748046875 8 L 8.103927612304688 8 M 2.437141418457031 0 L 105.8416213989258 0 C 107.1876220703125 0 108.2787475585938 4.858566284179688 108.2787475585938 10.85197448730469 L 108.2787475585938 133.323974609375 C 108.2787475585938 139.3173675537109 107.1876220703125 144.1759338378906 105.8416213989258 144.1759338378906 L 2.437141418457031 144.1759338378906 C 1.091148376464844 144.1759338378906 -1.52587890625e-05 139.3173675537109 -1.52587890625e-05 133.323974609375 L -1.52587890625e-05 10.85197448730469 C -1.52587890625e-05 4.858566284179688 1.091148376464844 0 2.437141418457031 0 Z"/>
          </g>
        </g>
        <g id="Group_11" data-name="Group 11" transform="translate(114.581 12.823)">
          <g id="Path_7-3" data-name="Path 7" class="cls-9" transform="translate(0)">
            <path class="cls-43" d="M 103.4533157348633 140.1759490966797 L 4.627063751220703 140.1759490966797 C 4.320649147033691 138.8122253417969 4.000010013580322 136.4783172607422 4.000010013580322 133.3239593505859 L 4.000010013580322 10.85194492340088 C 4.000010013580322 7.69762659072876 4.320648670196533 5.363721370697021 4.627063274383545 4.00001049041748 L 103.4533233642578 4.00001049041748 C 103.7597427368164 5.363721370697021 104.0803833007812 7.69762659072876 104.0803833007812 10.85194492340088 L 104.0803833007812 133.3239593505859 C 104.0803833007812 136.4783020019531 103.7597427368164 138.8122253417969 103.4533157348633 140.1759490966797 Z"/>
            <path class="cls-45" d="M 8.103713989257812 8 C 8.04071044921875 8.834396362304688 8 9.790176391601562 8 10.85197448730469 L 8 133.323974609375 C 8 134.3857574462891 8.04071044921875 135.3415374755859 8.103713989257812 136.1759338378906 L 99.97665405273438 136.1759338378906 C 100.0396575927734 135.3415374755859 100.0803680419922 134.3857574462891 100.0803680419922 133.323974609375 L 100.0803680419922 10.85197448730469 C 100.0803680419922 9.790176391601562 100.0396575927734 8.834396362304688 99.97665405273438 8 L 8.103713989257812 8 M 2.432685852050781 0 L 105.6476821899414 0 C 106.9912109375 0 108.0803680419922 4.858566284179688 108.0803680419922 10.85197448730469 L 108.0803680419922 133.323974609375 C 108.0803680419922 139.3173675537109 106.9912109375 144.1759338378906 105.6476821899414 144.1759338378906 L 2.432685852050781 144.1759338378906 C 1.089157104492188 144.1759338378906 0 139.3173675537109 0 133.323974609375 L 0 10.85197448730469 C 0 4.858566284179688 1.089157104492188 0 2.432685852050781 0 Z"/>
          </g>
        </g>
        <rect id="Rectangle_39" data-name="Rectangle 39" class="cls-5" width="13" height="36" rx="6.5" transform="translate(93.454 66.987)"/>
        <rect id="Rectangle_40" data-name="Rectangle 40" class="cls-5" width="13" height="36" rx="6.5" transform="translate(127.454 66.987)"/>
        <rect id="Rectangle_135" data-name="Rectangle 135" class="cls-7" width="13" height="36" rx="6" transform="translate(89.954 67.487)"/>
        <rect id="Rectangle_136" data-name="Rectangle 136" class="cls-7" width="13" height="36" rx="6" transform="translate(124.954 67.487)"/>
      </g>
    </g>
    <g id="garnek" transform="translate(843.244 499.813)">
      <g id="Path_12" data-name="Path 12" class="cls-10" transform="translate(61.66 5.806)">
        <path class="cls-43" d="M.955,0H41.478c.527,0,.955.257.955.573V7.039c0,.316-.428.573-.955.573H.955C.428,7.612,0,7.356,0,7.039V.573C0,.257.428,0,.955,0Z"/>
        <path class="cls-45" d="M 0.9550704956054688 -3.337860107421875e-06 L 41.47750091552734 -3.337860107421875e-06 C 42.00497817993164 -3.337860107421875e-06 42.43256759643555 0.2565302848815918 42.43256759643555 0.5729703903198242 L 42.43256759643555 7.039370059967041 C 42.43256759643555 7.355810165405273 42.00497817993164 7.612343788146973 41.47750091552734 7.612343788146973 L 0.9550704956054688 7.612343788146973 C 0.4276046752929688 7.612343788146973 3.814697265625e-06 7.355810165405273 3.814697265625e-06 7.039370059967041 L 3.814697265625e-06 0.5729703903198242 C 3.814697265625e-06 0.2565302848815918 0.4276046752929688 -3.337860107421875e-06 0.9550704956054688 -3.337860107421875e-06 Z"/>
      </g>
      <g id="Rectangle_95" data-name="Rectangle 95" class="cls-4" transform="translate(-1.244 -0.813)">
        <rect class="cls-43" width="64" height="50" rx="7"/>
        <rect class="cls-44" x="3" y="3" width="58" height="44" rx="4"/>
      </g>
      <g id="Group_29" data-name="Group 29" transform="translate(-901.244 -499.813)">
        <path id="Path_18" data-name="Path 18" class="cls-11" d="M899.726,347.448s10.466-2.221,9.667-9.058-13.948-4.926-13.585-11.793a7.142,7.142,0,0,1,6.782-7.1" transform="translate(12.939 142.56)"/>
        <path id="Path_19" data-name="Path 19" class="cls-11" d="M899.726,347.448s10.466-2.221,9.667-9.058-13.948-4.926-13.585-11.793a7.142,7.142,0,0,1,6.782-7.1" transform="translate(28.325 142.56)"/>
        <path id="Path_22" data-name="Path 22" class="cls-11" d="M899.726,347.448s10.466-2.221,9.667-9.058-13.948-4.926-13.585-11.793a7.142,7.142,0,0,1,6.782-7.1" transform="translate(43.711 142.56)"/>
      </g>
      <rect id="Rectangle_96" data-name="Rectangle 96" class="cls-7" width="17" height="42" transform="translate(3.756 3.187)"/>
      <rect id="Rectangle_97" data-name="Rectangle 97" class="cls-12" width="5" height="42" transform="translate(46.756 3.187)"/>
      <g id="Rectangle_111" data-name="Rectangle 111" class="cls-13" transform="translate(-1.244 -0.813)">
        <rect class="cls-43" width="64" height="50" rx="7"/>
        <rect class="cls-44" x="3" y="3" width="58" height="44" rx="4"/>
      </g>
    </g>
    <g id="Group_24" data-name="Group 24" transform="translate(-870 12)">
      <path id="Path_21" data-name="Path 21" class="cls-14" d="M897.785,336.259s5.29-1.332,4.886-5.432-7.049-2.954-6.866-7.072,3.428-4.256,3.428-4.256" transform="translate(535.116 140.33)"/>
      <path id="Path_20" data-name="Path 20" class="cls-14" d="M897.785,336.259s5.29-1.332,4.886-5.432-7.049-2.954-6.866-7.072,3.428-4.256,3.428-4.256" transform="translate(548.302 140.33)"/>
      <g id="Group_12" data-name="Group 12" transform="translate(1413.554 481.866)">
        <g id="Rectangle_43" data-name="Rectangle 43" class="cls-15" transform="translate(40.446 14.134)">
          <rect class="cls-43" width="30" height="32" rx="6"/>
          <rect class="cls-44" x="4" y="4" width="22" height="24" rx="2"/>
        </g>
        <path id="Subtraction_1" data-name="Subtraction 1" class="cls-16" d="M28,28a27.824,27.824,0,0,1-10.9-2.2,27.907,27.907,0,0,1-8.9-6,27.907,27.907,0,0,1-6-8.9A27.824,27.824,0,0,1,0,0H56a27.824,27.824,0,0,1-2.2,10.9,27.907,27.907,0,0,1-6,8.9,27.907,27.907,0,0,1-8.9,6A27.824,27.824,0,0,1,28,28Z" transform="translate(0.446 30.134)"/>
        <path id="Subtraction_2" data-name="Subtraction 2" class="cls-17" d="M28,0A29.683,29.683,0,0,0,17.1,2.043,28.118,28.118,0,0,0,8.2,7.615a25.9,25.9,0,0,0-6,8.264A24.252,24.252,0,0,0,0,26H56a24.252,24.252,0,0,0-2.2-10.12,25.9,25.9,0,0,0-6-8.264,28.118,28.118,0,0,0-8.9-5.572A29.683,29.683,0,0,0,28,0Z" transform="translate(0.446 4.134)"/>
        <g id="Ellipse_1" data-name="Ellipse 1" class="cls-13" transform="translate(0.446 2.134)">
          <circle class="cls-43" cx="28" cy="28" r="28"/>
          <circle class="cls-44" cx="28" cy="28" r="25"/>
        </g>
        <rect id="Rectangle_38" data-name="Rectangle 38" class="cls-5" width="10" height="56" rx="5" transform="translate(56.446 49.134) rotate(90)"/>
        <g id="Rectangle_42" data-name="Rectangle 42" class="cls-18" transform="translate(5.446 0.134)">
          <path class="cls-43" d="M1,0H41a2,2,0,0,1,2,2V12a2,2,0,0,1-2,2H9A9,9,0,0,1,0,5V1A1,1,0,0,1,1,0Z"/>
          <path class="cls-44" d="M4,2.5H40a.5.5,0,0,1,.5.5v8a.5.5,0,0,1-.5.5H9A6.5,6.5,0,0,1,2.5,5V4A1.5,1.5,0,0,1,4,2.5Z"/>
        </g>
        <rect id="Rectangle_134" data-name="Rectangle 134" class="cls-7" width="14" height="8" transform="translate(8.446 3.134)"/>
      </g>
      <path id="Path_29" data-name="Path 29" class="cls-19" d="M1422.926,512.415a21.768,21.768,0,0,0-7.5,16.256s0,.01,0,.114c-.121,4.816,1.687,11.565,7.505,19.554" transform="translate(9.882 -16.184)"/>
      <path id="Path_30" data-name="Path 30" class="cls-20" d="M1415.416,512.415s2.333,3.191,2.416,9.487a30.186,30.186,0,0,1-2.416,11.478" transform="translate(43 -11)"/>
    </g>
    <g id="zegar">
      <g id="Group_25" data-name="Group 25" transform="translate(3)">
        <g id="Ellipse_4" data-name="Ellipse 4" class="cls-21" transform="translate(578 297)">
          <ellipse class="cls-43" cx="56" cy="55.5" rx="56" ry="55.5"/>
          <ellipse class="cls-44" cx="56" cy="55.5" rx="52" ry="51.5"/>
        </g>
        <ellipse id="Ellipse_17" data-name="Ellipse 17" class="cls-7" cx="56" cy="55.5" rx="56" ry="55.5" transform="translate(576 300)"/>
        <g id="Ellipse_5" data-name="Ellipse 5" class="cls-22" transform="translate(588 307)">
          <ellipse class="cls-43" cx="45.5" cy="45" rx="45.5" ry="45"/>
          <ellipse class="cls-44" cx="45.5" cy="45" rx="41.5" ry="41"/>
        </g>
        <g id="Group_13" data-name="Group 13" transform="translate(608.168 322.007)">
          <rect id="Rectangle_46" data-name="Rectangle 46" class="cls-5" width="7" height="30" rx="3.5" transform="translate(29.832 29.993) rotate(90)"/>
          <rect id="Rectangle_47" data-name="Rectangle 47" class="cls-5" width="7" height="37" rx="3.5" transform="translate(22.832 -0.007)"/>
        </g>
        <rect id="Rectangle_107" data-name="Rectangle 107" class="cls-6" width="42.018" height="8.039" rx="4.019" transform="matrix(0.629, -0.777, 0.777, 0.629, 631, 376.437)"/>
        <rect id="Rectangle_108" data-name="Rectangle 108" class="cls-6" width="22.406" height="4.519" rx="2.259" transform="matrix(0.629, -0.777, 0.777, 0.629, 645.302, 375.635)"/>
      </g>
    </g>
    <g id="sloik" transform="translate(717)">
      <g id="Group_14" data-name="Group 14" transform="translate(687.716 495.717)">
        <path id="Path_24" data-name="Path 24" class="cls-23" d="M5.329,0H31.211a5.329,5.329,0,0,1,5.329,5.329V44.913a5.329,5.329,0,0,1-5.329,5.329H5.329A5.329,5.329,0,0,1,0,44.913V5.329A5.329,5.329,0,0,1,5.329,0Z" transform="translate(2.284 3.806)"/>
        <rect id="Rectangle_51" data-name="Rectangle 51" class="cls-17" width="37" height="9" transform="translate(2.284 12.283)"/>
        <g id="Rectangle_48" data-name="Rectangle 48" class="cls-15" transform="translate(2.284 4.283)">
          <rect class="cls-43" width="37" height="50" rx="7"/>
          <rect class="cls-44" x="4" y="4" width="29" height="42" rx="3"/>
        </g>
        <g id="Rectangle_49" data-name="Rectangle 49" class="cls-18" transform="translate(0.284 1.283)">
          <rect class="cls-43" width="41" height="10" rx="5"/>
          <rect class="cls-44" x="2.5" y="2.5" width="36" height="5" rx="2.5"/>
        </g>
      </g>
      <rect id="Rectangle_105" data-name="Rectangle 105" class="cls-7" width="7" height="36" transform="translate(695 506)"/>
      <rect id="Rectangle_106" data-name="Rectangle 106" class="cls-12" width="2" height="34" transform="translate(716 508)"/>
    </g>
    <g id="okap" transform="translate(-3 -12)">
      <g id="Rectangle_53" data-name="Rectangle 53" class="cls-24" transform="translate(930.932 194.5) rotate(90)">
        <rect class="cls-43" width="199.443" height="86.781" rx="13"/>
        <rect class="cls-44" x="4" y="4" width="191.443" height="78.781" rx="9"/>
      </g>
      <rect id="Rectangle_30" data-name="Rectangle 30" class="cls-6" width="170.351" height="8.986" rx="4.493" transform="translate(908.662 370.031) rotate(-90)"/>
      <rect id="Rectangle_109" data-name="Rectangle 109" class="cls-7" width="23" height="172" transform="translate(851 195)"/>
      <g id="Rectangle_110" data-name="Rectangle 110" class="cls-15" transform="translate(930.932 194.5) rotate(90)">
        <rect class="cls-43" width="199.443" height="86.781" rx="13"/>
        <rect class="cls-44" x="4" y="4" width="191.443" height="78.781" rx="9"/>
      </g>
      <g id="Rectangle_52" data-name="Rectangle 52" class="cls-24" transform="translate(760 367)">
        <rect class="cls-43" width="254" height="41" rx="13"/>
        <rect class="cls-44" x="4" y="4" width="246" height="33" rx="9"/>
      </g>
      <rect id="Rectangle_120" data-name="Rectangle 120" class="cls-7" width="107" height="38" transform="translate(767 370)"/>
      <rect id="Rectangle_121" data-name="Rectangle 121" class="cls-6" width="25.351" height="14.986" transform="translate(965.662 400.031) rotate(-90)"/>
    </g>
    <g id="szafka1">
      <path id="Path_6" data-name="Path 6" class="cls-16" d="M10.535,0H240.041a10.6,10.6,0,0,1,10.535,10.657V242.834a10.6,10.6,0,0,1-10.535,10.657H10.535A10.6,10.6,0,0,1,0,242.834V10.657A10.6,10.6,0,0,1,10.535,0Z" transform="translate(506.924 550.377)"/>
      <g id="Rectangle_4" data-name="Rectangle 4" class="cls-15" transform="translate(507 550)">
        <rect class="cls-43" width="253" height="254"/>
        <rect class="cls-44" x="4" y="4" width="245" height="246"/>
      </g>
      <path id="Union_4" data-name="Union 4" class="cls-7" d="M6.5,237.5V8H0V0H249V8H13.5V237.5Z" transform="translate(508.5 558.5)"/>
      <rect id="Rectangle_87" data-name="Rectangle 87" class="cls-7" width="18" height="223" rx="6" transform="translate(744.5 617.5) rotate(90)"/>
      <rect id="Rectangle_88" data-name="Rectangle 88" class="cls-7" width="18" height="222" rx="9" transform="translate(744.5 773.5) rotate(90)"/>
      <g id="Group_4" data-name="Group 4" transform="translate(521.731 561.795)">
        <g id="Path_1" data-name="Path 1" class="cls-9" transform="translate(0)">
          <path class="cls-43" d="M 218.0312042236328 67.29476165771484 L 5.020450592041016 67.29476165771484 C 4.182075500488281 67.29476165771484 3.500013113021851 66.47444915771484 3.500013113021851 65.46613311767578 L 3.500013113021851 5.328634738922119 C 3.500013113021851 4.320322036743164 4.182075500488281 3.500009536743164 5.020450592041016 3.500009536743164 L 218.0312042236328 3.500009536743164 C 218.8695678710938 3.500009536743164 219.5516662597656 4.320322036743164 219.5516662597656 5.328634738922119 L 219.5516662597656 65.46613311767578 C 219.5516662597656 66.47444915771484 218.8695678710938 67.29476165771484 218.0312042236328 67.29476165771484 Z"/>
          <path class="cls-45" d="M 7 6.999992370605469 L 7 63.79477691650391 L 216.0516510009766 63.79477691650391 L 216.0516510009766 6.999992370605469 L 7 6.999992370605469 M 5.020462036132812 -7.62939453125e-06 L 218.0311889648438 -7.62939453125e-06 C 220.8039398193359 -7.62939453125e-06 223.0516510009766 2.385704040527344 223.0516510009766 5.328636169433594 L 223.0516510009766 65.46613311767578 C 223.0516510009766 68.40906524658203 220.8039398193359 70.79477691650391 218.0311889648438 70.79477691650391 L 5.020462036132812 70.79477691650391 C 2.247756958007812 70.79477691650391 0 68.40906524658203 0 65.46613311767578 L 0 5.328636169433594 C 0 2.385704040527344 2.247756958007812 -7.62939453125e-06 5.020462036132812 -7.62939453125e-06 Z"/>
        </g>
      </g>
      <rect id="Rectangle_24" data-name="Rectangle 24" class="cls-5" width="13" height="36" rx="6.5" transform="translate(652 591) rotate(90)"/>
      <rect id="Rectangle_89" data-name="Rectangle 89" class="cls-7" width="13" height="36" rx="6" transform="translate(651 593) rotate(90)"/>
      <g id="Group_27" data-name="Group 27" transform="translate(-1)">
        <g id="Path_3" data-name="Path 3" class="cls-9" transform="translate(632.005 641.725)">
          <path class="cls-43" d="M 108.7362823486328 143.2945556640625 L 5.040758609771729 143.2945556640625 C 4.191171646118164 143.2945556640625 3.499997615814209 142.5365600585938 3.499997615814209 141.6048583984375 L 3.499997615814209 5.189712524414062 C 3.499997615814209 4.257995128631592 4.191171646118164 3.499995231628418 5.040758609771729 3.499995231628418 L 108.7362823486328 3.499995231628418 C 109.5858688354492 3.499995231628418 110.2770385742188 4.257995128631592 110.2770385742188 5.189712524414062 L 110.2770385742188 141.6048583984375 C 110.2770385742188 142.5365600585938 109.5858688354492 143.2945556640625 108.7362823486328 143.2945556640625 Z"/>
          <path class="cls-45" d="M 6.999992370605469 7 L 6.999992370605469 139.7945556640625 L 106.7770462036133 139.7945556640625 L 106.7770462036133 7 L 6.999992370605469 7 M 5.040740966796875 0 L 108.7362670898438 0 C 111.5202178955078 0 113.7770462036133 2.323501586914062 113.7770462036133 5.189697265625 L 113.7770462036133 141.6048583984375 C 113.7770462036133 144.4710540771484 111.5202178955078 146.7945556640625 108.7362670898438 146.7945556640625 L 5.040740966796875 146.7945556640625 C 2.256820678710938 146.7945556640625 -7.62939453125e-06 144.4710540771484 -7.62939453125e-06 141.6048583984375 L -7.62939453125e-06 5.189697265625 C -7.62939453125e-06 2.323501586914062 2.256820678710938 0 5.040740966796875 0 Z"/>
        </g>
        <g id="Path_2" data-name="Path 2" class="cls-9" transform="translate(522.731 641.725)">
          <path class="cls-43" d="M 109.5258712768555 143.2945556640625 L 5.077352046966553 143.2945556640625 C 4.20759105682373 143.2945556640625 3.500004053115845 142.5365600585938 3.500004053115845 141.6048583984375 L 3.500004053115845 5.189712524414062 C 3.500004053115845 4.257995128631592 4.20759105682373 3.499995231628418 5.077352046966553 3.499995231628418 L 109.5258712768555 3.499995231628418 C 110.395637512207 3.499995231628418 111.1032180786133 4.257995128631592 111.1032180786133 5.189712524414062 L 111.1032180786133 141.6048583984375 C 111.1032180786133 142.5365600585938 110.395637512207 143.2945556640625 109.5258712768555 143.2945556640625 Z"/>
          <path class="cls-45" d="M 6.999984741210938 7 L 6.999984741210938 139.7945556640625 L 107.6032104492188 139.7945556640625 L 107.6032104492188 7 L 6.999984741210938 7 M 5.077362060546875 0 L 109.5258636474609 0 C 112.3300094604492 0 114.6032104492188 2.323501586914062 114.6032104492188 5.189697265625 L 114.6032104492188 141.6048583984375 C 114.6032104492188 144.4710540771484 112.3300094604492 146.7945556640625 109.5258636474609 146.7945556640625 L 5.077362060546875 146.7945556640625 C 2.273216247558594 146.7945556640625 -1.52587890625e-05 144.4710540771484 -1.52587890625e-05 141.6048583984375 L -1.52587890625e-05 5.189697265625 C -1.52587890625e-05 2.323501586914062 2.273216247558594 0 5.077362060546875 0 Z"/>
        </g>
        <rect id="Rectangle_25" data-name="Rectangle 25" class="cls-5" width="13" height="35" rx="6.5" transform="translate(647 700)"/>
        <rect id="Rectangle_26" data-name="Rectangle 26" class="cls-5" width="13" height="35" rx="6.5" transform="translate(610 700)"/>
        <rect id="Rectangle_90" data-name="Rectangle 90" class="cls-7" width="13" height="35" rx="6" transform="translate(608 702)"/>
        <rect id="Rectangle_91" data-name="Rectangle 91" class="cls-7" width="13" height="35" rx="6" transform="translate(645 702)"/>
      </g>
      <g id="Path_4" data-name="Path 4" class="cls-9" transform="translate(499.031 546.287)">
        <path class="cls-43" d="M 271.5283203125 8.179690361022949 L 8.600468635559082 8.179690361022949 C 7.1453537940979 8.179690361022949 5.771276473999023 7.797651290893555 4.830545902252197 7.13153600692749 C 4.256814956665039 6.725305080413818 4.000007629394531 6.31561279296875 4.000007629394531 6.08984375 C 4.000007629394531 5.86407470703125 4.256814956665039 5.454382419586182 4.830545902252197 5.04815149307251 C 5.771276473999023 4.382036209106445 7.1453537940979 3.999997615814209 8.600468635559082 3.999997615814209 L 271.5283203125 3.999997615814209 C 272.9834289550781 3.999997615814209 274.3575134277344 4.382036209106445 275.2982482910156 5.04815149307251 C 275.8719787597656 5.454420566558838 276.1287841796875 5.86407470703125 276.1287841796875 6.08984375 C 276.1287841796875 6.31561279296875 275.8719787597656 6.725266933441162 275.2982482910156 7.13153600692749 C 274.3575134277344 7.797651290893555 272.9834289550781 8.179690361022949 271.5283203125 8.179690361022949 Z"/>
        <path class="cls-45" d="M 8.600433349609375 -2.002716064453125e-05 L 271.5282897949219 -2.002716064453125e-05 C 276.2781982421875 -2.002716064453125e-05 280.1288146972656 2.72652530670166 280.1288146972656 6.08984375 C 280.1288146972656 9.45316219329834 276.2781982421875 12.17970752716064 271.5282897949219 12.17970752716064 L 8.600433349609375 12.17970752716064 C 3.85052490234375 12.17970752716064 -3.0517578125e-05 9.45316219329834 -3.0517578125e-05 6.08984375 C -3.0517578125e-05 2.72652530670166 3.85052490234375 -2.002716064453125e-05 8.600433349609375 -2.002716064453125e-05 Z"/>
      </g>
    </g>
    <g id="lodowka">
      <g id="Group_28" data-name="Group 28" transform="translate(-1)">
        <g id="Rectangle_9" data-name="Rectangle 9" class="cls-25" transform="translate(308 289)">
          <path class="cls-43" d="M30,0H173a30,30,0,0,1,30,30V501a14,14,0,0,1-14,14H14A14,14,0,0,1,0,501V30A30,30,0,0,1,30,0Z"/>
          <path class="cls-44" d="M30,4H173a26,26,0,0,1,26,26V501a10,10,0,0,1-10,10H14A10,10,0,0,1,4,501V30A26,26,0,0,1,30,4Z"/>
        </g>
        <rect id="Rectangle_18" data-name="Rectangle 18" class="cls-5" width="13" height="51" rx="6.5" transform="translate(472 652)"/>
        <rect id="Rectangle_93" data-name="Rectangle 93" class="cls-7" width="13" height="51" rx="6" transform="translate(470 654)"/>
        <rect id="Rectangle_19" data-name="Rectangle 19" class="cls-5" width="13" height="73" rx="6.5" transform="translate(472 477)"/>
        <rect id="Rectangle_94" data-name="Rectangle 94" class="cls-7" width="13" height="73" rx="6" transform="translate(470 479)"/>
        <g id="Path_9" data-name="Path 9" class="cls-26" transform="translate(308 587.872)">
          <path class="cls-43" d="M 197.8700561523438 28.12835502624512 L 5.129970550537109 28.12835502624512 C 4.720913410186768 28.12835502624512 4.343257427215576 28.11928939819336 4 28.10421752929688 L 4 4.024139881134033 C 4.343257427215576 4.009067058563232 4.720913410186768 4.000001907348633 5.129970550537109 4.000001907348633 L 197.8700561523438 4.000001907348633 C 198.2791137695312 4.000001907348633 198.65673828125 4.009065628051758 199 4.024138450622559 L 199 28.10421752929688 C 198.65673828125 28.11929130554199 198.2791137695312 28.12835502624512 197.8700561523438 28.12835502624512 Z"/>
          <path class="cls-45" d="M 8 8.000011444091797 L 8 24.12834548950195 L 195 24.12834548950195 L 195 8.000011444091797 L 8 8.000011444091797 M 5.129959106445312 1.1444091796875e-05 L 197.8700256347656 1.1444091796875e-05 C 200.7032623291016 1.1444091796875e-05 203 0.3828449249267578 203 0.8551120758056641 L 203 31.27321243286133 C 203 31.74551200866699 200.7032623291016 32.12834548950195 197.8700256347656 32.12834548950195 L 5.129959106445312 32.12834548950195 C 2.296768188476562 32.12834548950195 0 31.74551200866699 0 31.27321243286133 L 0 0.8551120758056641 C 0 0.3828449249267578 2.296768188476562 1.1444091796875e-05 5.129959106445312 1.1444091796875e-05 Z"/>
        </g>
        <path id="Rectangle_83" data-name="Rectangle 83" class="cls-7" d="M30,0h3a0,0,0,0,1,0,0V512a0,0,0,0,1,0,0H0a0,0,0,0,1,0,0V30A30,30,0,0,1,30,0Z" transform="translate(316 289)"/>
        <path id="Rectangle_84" data-name="Rectangle 84" class="cls-12" d="M0,0H0A14,14,0,0,1,14,14V499a0,0,0,0,1,0,0H0a0,0,0,0,1,0,0V0A0,0,0,0,1,0,0Z" transform="translate(489 298)"/>
        <g id="Path_28" data-name="Path 28" class="cls-27" transform="translate(308 587.872)">
          <path class="cls-43" d="M5.13,0H197.87C200.7,0,203,.383,203,.855V31.273c0,.472-2.3.855-5.13.855H5.13C2.3,32.128,0,31.746,0,31.273V.855C0,.383,2.3,0,5.13,0Z"/>
          <path class="cls-45" d="M 8 8.000011444091797 L 8 24.12834548950195 L 195 24.12834548950195 L 195 8.000011444091797 L 8 8.000011444091797 M 5.129959106445312 1.1444091796875e-05 L 197.8700256347656 1.1444091796875e-05 C 200.7032623291016 1.1444091796875e-05 203 0.3828449249267578 203 0.8551120758056641 L 203 31.27321243286133 C 203 31.74551200866699 200.7032623291016 32.12834548950195 197.8700256347656 32.12834548950195 L 5.129959106445312 32.12834548950195 C 2.296768188476562 32.12834548950195 0 31.74551200866699 0 31.27321243286133 L 0 0.8551120758056641 C 0 0.3828449249267578 2.296768188476562 1.1444091796875e-05 5.129959106445312 1.1444091796875e-05 Z"/>
        </g>
        <g id="Rectangle_92" data-name="Rectangle 92" class="cls-15" transform="translate(308 289)">
          <path class="cls-43" d="M30,0H173a30,30,0,0,1,30,30V501a14,14,0,0,1-14,14H14A14,14,0,0,1,0,501V30A30,30,0,0,1,30,0Z"/>
          <path class="cls-44" d="M30,4H173a26,26,0,0,1,26,26V501a10,10,0,0,1-10,10H14A10,10,0,0,1,4,501V30A26,26,0,0,1,30,4Z"/>
        </g>
      </g>
    </g>
    <g id="piekarnik" transform="translate(-5)">
      <g id="Rectangle_23" data-name="Rectangle 23" class="cls-28" transform="translate(757 550)">
        <rect class="cls-43" width="253" height="254"/>
        <rect class="cls-44" x="4" y="4" width="245" height="246"/>
      </g>
      <g id="Path_10" data-name="Path 10" class="cls-29" transform="translate(753.564 546.287)">
        <path class="cls-43" d="M 252.3490905761719 8.17970085144043 L 7.99294900894165 8.17970085144043 C 6.746949195861816 8.17970085144043 5.570520401000977 7.827807903289795 4.765270709991455 7.214308261871338 C 4.286091804504395 6.84920072555542 4.000020503997803 6.428843975067139 4.000020503997803 6.08984375 C 4.000020503997803 5.750843524932861 4.286091804504395 5.33048677444458 4.765270709991455 4.965379238128662 C 5.570520401000977 4.351879596710205 6.746949195861816 3.99998664855957 7.99294900894165 3.99998664855957 L 252.3490905761719 3.99998664855957 C 253.5950622558594 3.99998664855957 254.7715148925781 4.351879596710205 255.5768127441406 4.965415000915527 C 256.0559997558594 5.33048677444458 256.342041015625 5.750843524932861 256.342041015625 6.08984375 C 256.342041015625 6.428843975067139 256.0559997558594 6.84920072555542 255.5768127441406 7.214272499084473 C 254.7715148925781 7.827807903289795 253.5950622558594 8.17970085144043 252.3490905761719 8.17970085144043 Z"/>
        <path class="cls-45" d="M 7.992935180664062 1.049041748046875e-05 L 252.3491058349609 1.049041748046875e-05 C 256.763427734375 1.049041748046875e-05 260.3420104980469 2.726510047912598 260.3420104980469 6.08984375 C 260.3420104980469 9.453176498413086 256.763427734375 12.17967700958252 252.3491058349609 12.17967700958252 L 7.992935180664062 12.17967700958252 C 3.57855224609375 12.17967700958252 -3.0517578125e-05 9.453176498413086 -3.0517578125e-05 6.08984375 C -3.0517578125e-05 2.726510047912598 3.57855224609375 1.049041748046875e-05 7.992935180664062 1.049041748046875e-05 Z"/>
      </g>
      <rect id="Rectangle_100" data-name="Rectangle 100" class="cls-7" width="8" height="249" transform="translate(1005.5 558.5) rotate(90)"/>
      <rect id="Rectangle_104" data-name="Rectangle 104" class="cls-7" width="23" height="220" rx="4" transform="translate(990.5 588.5) rotate(90)"/>
      <rect id="Rectangle_101" data-name="Rectangle 101" class="cls-7" width="28" height="197" rx="10" transform="translate(981.5 752.5) rotate(90)"/>
      <g id="Group_31" data-name="Group 31">
        <g id="Group_6" data-name="Group 6" transform="translate(784.251 625.739)">
          <g id="Path_7-4" data-name="Path 7" class="cls-30">
            <path class="cls-43" d="M 192.2523193359375 146.7243347167969 L 5.385573863983154 146.7243347167969 C 4.84985876083374 145.7524871826172 4.000002384185791 143.2552185058594 4.000002384185791 139.3795013427734 L 4.000002384185791 11.34484195709229 C 4.000002384185791 7.469137668609619 4.84985876083374 4.971861362457275 5.385573863983154 4.000008106231689 L 192.2523193359375 4.000008106231689 C 192.7880401611328 4.971861362457275 193.6378936767578 7.469137668609619 193.6378936767578 11.34484195709229 L 193.6378936767578 139.3795013427734 C 193.6378936767578 143.2552185058594 192.7880401611328 145.7524871826172 192.2523193359375 146.7243347167969 Z"/>
            <path class="cls-45" d="M 8.283889770507812 8.000015258789062 C 8.122879028320312 8.887298583984375 7.999984741210938 10.01931762695312 7.999984741210938 11.3448486328125 L 7.999984741210938 139.3795013427734 C 7.999984741210938 140.7050323486328 8.122879028320312 141.8370513916016 8.283889770507812 142.7243347167969 L 189.3539733886719 142.7243347167969 C 189.5149841308594 141.8370513916016 189.6378784179688 140.7050476074219 189.6378784179688 139.3795013427734 L 189.6378784179688 11.3448486328125 C 189.6378784179688 10.01930236816406 189.5149841308594 8.887298583984375 189.3539733886719 8.000015258789062 L 8.283889770507812 8.000015258789062 M 4.448440551757812 1.52587890625e-05 L 193.189453125 1.52587890625e-05 C 195.646240234375 1.52587890625e-05 197.6378784179688 5.079238891601562 197.6378784179688 11.3448486328125 L 197.6378784179688 139.3795013427734 C 197.6378784179688 145.6451110839844 195.646240234375 150.7243347167969 193.189453125 150.7243347167969 L 4.448440551757812 150.7243347167969 C 1.991653442382812 150.7243347167969 -1.52587890625e-05 145.6451110839844 -1.52587890625e-05 139.3795013427734 L -1.52587890625e-05 11.3448486328125 C -1.52587890625e-05 5.079238891601562 1.991653442382812 1.52587890625e-05 4.448440551757812 1.52587890625e-05 Z"/>
          </g>
        </g>
        <g id="Rectangle_78" data-name="Rectangle 78" class="cls-31" transform="translate(921 643) rotate(90)">
          <rect class="cls-43" width="16" height="76" rx="8"/>
          <rect class="cls-44" x="4" y="4" width="8" height="68" rx="4"/>
        </g>
        <rect id="Rectangle_102" data-name="Rectangle 102" class="cls-7" width="16" height="76" rx="8" transform="translate(920 646) rotate(90)"/>
        <rect id="Rectangle_31" data-name="Rectangle 31" class="cls-6" width="83.556" height="15.986" rx="7.993" transform="matrix(0.629, -0.777, 0.777, 0.629, 904.683, 752.718)"/>
        <rect id="Rectangle_99" data-name="Rectangle 99" class="cls-6" width="44.556" height="8.986" rx="4.493" transform="matrix(0.629, -0.777, 0.777, 0.629, 933.123, 751.123)"/>
      </g>
      <g id="Group_30" data-name="Group 30" transform="translate(-3 5)">
        <g id="Group_5" data-name="Group 5" transform="translate(773.055 561.795)">
          <g id="Path_7-5" data-name="Path 7" class="cls-9" transform="translate(0)">
            <path class="cls-43" d="M 216.0926818847656 38.36787414550781 L 4.975803375244141 38.36787414550781 C 4.308988571166992 38.36787414550781 3.796532869338989 38.21825790405273 3.499990701675415 38.08100891113281 L 3.499990701675415 3.78685998916626 C 3.796532869338989 3.649610757827759 4.308988571166992 3.499997615814209 4.975803375244141 3.499997615814209 L 216.0926818847656 3.499997615814209 C 216.7594909667969 3.499997615814209 217.2719421386719 3.649610757827759 217.5684967041016 3.78685998916626 L 217.5684967041016 38.08100891113281 C 217.2719421386719 38.21825790405273 216.7594909667969 38.36787414550781 216.0926818847656 38.36787414550781 Z"/>
            <path class="cls-45" d="M 6.999984741210938 7.000007629394531 L 6.999984741210938 34.86776351928711 L 214.0684967041016 34.85768127441406 L 214.0684967041016 7.000007629394531 L 6.999984741210938 7.000007629394531 M 4.975814819335938 7.62939453125e-06 L 216.0926666259766 7.62939453125e-06 C 218.8406982421875 7.62939453125e-06 221.0684967041016 1.410900115966797 221.0684967041016 3.151329040527344 L 221.0684967041016 38.7165412902832 C 221.0684967041016 40.45697021484375 218.8406982421875 41.86786270141602 216.0926666259766 41.86786270141602 L 4.975814819335938 41.86786270141602 C 2.227737426757812 41.86786270141602 -1.52587890625e-05 40.45697021484375 -1.52587890625e-05 38.7165412902832 L -1.52587890625e-05 3.151329040527344 C -1.52587890625e-05 1.410900115966797 2.227737426757812 7.62939453125e-06 4.975814819335938 7.62939453125e-06 Z"/>
          </g>
        </g>
        <rect id="Rectangle_112" data-name="Rectangle 112" class="cls-7" width="16" height="16" rx="8" transform="translate(805 576) rotate(90)"/>
        <rect id="Rectangle_113" data-name="Rectangle 113" class="cls-7" width="16" height="16" rx="8" transform="translate(831 576) rotate(90)"/>
        <rect id="Rectangle_114" data-name="Rectangle 114" class="cls-7" width="16" height="16" rx="8" transform="translate(950 576) rotate(90)"/>
        <rect id="Rectangle_115" data-name="Rectangle 115" class="cls-7" width="16" height="16" rx="8" transform="translate(975 576) rotate(90)"/>
        <g id="Rectangle_33" data-name="Rectangle 33" class="cls-32" transform="translate(976 575) rotate(90)">
          <rect class="cls-43" width="16" height="16" rx="8"/>
          <rect class="cls-44" x="1.5" y="1.5" width="13" height="13" rx="6.5"/>
        </g>
        <g id="Rectangle_80" data-name="Rectangle 80" class="cls-32" transform="translate(951 575) rotate(90)">
          <rect class="cls-43" width="16" height="16" rx="8"/>
          <rect class="cls-44" x="1.5" y="1.5" width="13" height="13" rx="6.5"/>
        </g>
        <g id="Rectangle_34" data-name="Rectangle 34" class="cls-33" transform="translate(921 575) rotate(90)">
          <rect class="cls-43" width="16" height="76" rx="8"/>
          <rect class="cls-44" x="2.5" y="2.5" width="11" height="71" rx="5.5"/>
        </g>
        <g id="Rectangle_79" data-name="Rectangle 79" class="cls-32" transform="translate(808 575) rotate(90)">
          <rect class="cls-43" width="16" height="16" rx="8"/>
          <rect class="cls-44" x="1.5" y="1.5" width="13" height="13" rx="6.5"/>
        </g>
        <g id="Rectangle_32" data-name="Rectangle 32" class="cls-32" transform="translate(833 575) rotate(90)">
          <rect class="cls-43" width="16" height="16" rx="8"/>
          <rect class="cls-44" x="1.5" y="1.5" width="13" height="13" rx="6.5"/>
        </g>
      </g>
    </g>
    <g id="Group_32" data-name="Group 32" transform="translate(-70 3)">
      <path id="Path_8" data-name="Path 8" class="cls-16" d="M10.657,0H242.834a10.657,10.657,0,0,1,10.657,10.657V242.834a10.657,10.657,0,0,1-10.657,10.657H10.657A10.657,10.657,0,0,1,0,242.834V10.657A10.657,10.657,0,0,1,10.657,0Z" transform="translate(1312.411 547.377)"/>
      <g id="Rectangle_12" data-name="Rectangle 12" class="cls-15" transform="translate(1312 547)">
        <rect class="cls-43" width="254" height="254"/>
        <rect class="cls-44" x="4" y="4" width="246" height="246"/>
      </g>
      <g id="Path_5" data-name="Path 5" class="cls-9" transform="translate(1309.366 543.287)">
        <path class="cls-43" d="M 257.0484924316406 8.179690361022949 L 8.141807556152344 8.179690361022949 C 5.572499752044678 8.179690361022949 4 6.826612949371338 4 6.08984375 C 4 5.353074550628662 5.572499752044678 3.999997615814209 8.141807556152344 3.999997615814209 L 257.0484924316406 3.999997615814209 C 259.6177978515625 3.999997615814209 261.1903076171875 5.353074550628662 261.1903076171875 6.08984375 C 261.1903076171875 6.826612949371338 259.6177978515625 8.179690361022949 257.0484924316406 8.179690361022949 Z"/>
        <path class="cls-45" d="M 8.141815185546875 1.049041748046875e-05 L 257.0484924316406 1.049041748046875e-05 C 261.5450744628906 1.049041748046875e-05 265.1903076171875 2.726510047912598 265.1903076171875 6.08984375 C 265.1903076171875 9.453176498413086 261.5450744628906 12.17967700958252 257.0484924316406 12.17967700958252 L 8.141815185546875 12.17967700958252 C 3.64520263671875 12.17967700958252 0 9.453176498413086 0 6.08984375 C 0 2.726510047912598 3.64520263671875 1.049041748046875e-05 8.141815185546875 1.049041748046875e-05 Z"/>
      </g>
      <rect id="Rectangle_117" data-name="Rectangle 117" class="cls-7" width="8" height="249" transform="translate(1564.5 555.5) rotate(90)"/>
      <rect id="Rectangle_127" data-name="Rectangle 127" class="cls-7" width="18" height="222" rx="6" transform="translate(1550.5 617.5) rotate(90)"/>
      <rect id="Rectangle_128" data-name="Rectangle 128" class="cls-7" width="18" height="222" rx="6" transform="translate(1550.5 694.5) rotate(90)"/>
      <rect id="Rectangle_129" data-name="Rectangle 129" class="cls-7" width="18" height="222" rx="6" transform="translate(1550.5 772.5) rotate(90)"/>
      <g id="Group_35" data-name="Group 35">
        <g id="Group_2" data-name="Group 2" transform="translate(1328.776 561.594)">
          <g id="Path_7-6" data-name="Path 7" class="cls-9">
            <path class="cls-43" d="M 215.6586608886719 66.79476165771484 L 4.965841770172119 66.79476165771484 C 4.508998394012451 66.79476165771484 3.999998331069946 66.24909973144531 3.999998331069946 65.46613311767578 L 3.999998331069946 5.328634738922119 C 3.999998331069946 4.545665740966797 4.508998394012451 4.000009536743164 4.965841770172119 4.000009536743164 L 215.6586608886719 4.000009536743164 C 216.1154937744141 4.000009536743164 216.6244964599609 4.545665740966797 216.6244964599609 5.328634738922119 L 216.6244964599609 65.46613311767578 C 216.6244964599609 66.24909973144531 216.1154937744141 66.79476165771484 215.6586608886719 66.79476165771484 Z"/>
            <path class="cls-45" d="M 8 7.999992370605469 L 8 62.79477691650391 L 212.6244964599609 62.79477691650391 L 212.6244964599609 7.999992370605469 L 8 7.999992370605469 M 4.9658203125 -7.62939453125e-06 L 215.6586456298828 -7.62939453125e-06 C 218.4012145996094 -7.62939453125e-06 220.6244964599609 2.385704040527344 220.6244964599609 5.328636169433594 L 220.6244964599609 65.46613311767578 C 220.6244964599609 68.40906524658203 218.4012145996094 70.79477691650391 215.6586456298828 70.79477691650391 L 4.9658203125 70.79477691650391 C 2.223281860351562 70.79477691650391 0 68.40906524658203 0 65.46613311767578 L 0 5.328636169433594 C 0 2.385704040527344 2.223281860351562 -7.62939453125e-06 4.9658203125 -7.62939453125e-06 Z"/>
          </g>
        </g>
        <rect id="Rectangle_27" data-name="Rectangle 27" class="cls-5" width="13" height="36" rx="6.5" transform="translate(1458 590) rotate(90)"/>
        <rect id="Rectangle_130" data-name="Rectangle 130" class="cls-7" width="13" height="36" rx="6" transform="translate(1458 592) rotate(90)"/>
      </g>
      <g id="Group_33" data-name="Group 33">
        <g id="Group_3" data-name="Group 3" transform="translate(1329 638)">
          <g id="Rectangle_15" data-name="Rectangle 15" class="cls-22">
            <rect class="cls-43" width="221" height="71" rx="7"/>
            <rect class="cls-44" x="4" y="4" width="213" height="63" rx="3"/>
          </g>
        </g>
        <rect id="Rectangle_28" data-name="Rectangle 28" class="cls-5" width="13" height="36" rx="6.5" transform="translate(1458 668) rotate(90)"/>
        <rect id="Rectangle_131" data-name="Rectangle 131" class="cls-7" width="13" height="36" rx="6" transform="translate(1458 670) rotate(90)"/>
      </g>
      <g id="Group_34" data-name="Group 34">
        <g id="Group_1" data-name="Group 1" transform="translate(1329 715)">
          <g id="Rectangle_16" data-name="Rectangle 16" class="cls-22">
            <rect class="cls-43" width="221" height="70" rx="7"/>
            <rect class="cls-44" x="4" y="4" width="213" height="62" rx="3"/>
          </g>
        </g>
        <rect id="Rectangle_29" data-name="Rectangle 29" class="cls-5" width="13" height="36" rx="6.5" transform="translate(1458 744) rotate(90)"/>
        <rect id="Rectangle_132" data-name="Rectangle 132" class="cls-7" width="13" height="36" rx="6" transform="translate(1458 747) rotate(90)"/>
      </g>
    </g>
    <g id="szafka_z_mikrofala" data-name="szafka z mikrofala" transform="translate(-7)">
      <path id="Path_14" data-name="Path 14" class="cls-16" d="M10.657,0H242.834a10.657,10.657,0,0,1,10.657,10.657V242.834a10.657,10.657,0,0,1-10.657,10.657H10.657A10.657,10.657,0,0,1,0,242.834V10.657A10.657,10.657,0,0,1,10.657,0Z" transform="translate(1004.01 550.377)"/>
      <g id="Rectangle_35" data-name="Rectangle 35" class="cls-15" transform="translate(1004 550)">
        <rect class="cls-43" width="254" height="254"/>
        <rect class="cls-44" x="4" y="4" width="246" height="246"/>
      </g>
      <g id="Path_17" data-name="Path 17" class="cls-9" transform="translate(1001.726 546.287)">
        <path class="cls-43" d="M 252.3490905761719 8.17970085144043 L 7.99294900894165 8.17970085144043 C 6.746949195861816 8.17970085144043 5.570520401000977 7.827807903289795 4.765270709991455 7.214308261871338 C 4.286091804504395 6.84920072555542 4.000020503997803 6.428843975067139 4.000020503997803 6.08984375 C 4.000020503997803 5.750843524932861 4.286091804504395 5.33048677444458 4.765270709991455 4.965379238128662 C 5.570520401000977 4.351879596710205 6.746949195861816 3.99998664855957 7.99294900894165 3.99998664855957 L 252.3490905761719 3.99998664855957 C 253.5950622558594 3.99998664855957 254.7715148925781 4.351879596710205 255.5768127441406 4.965415000915527 C 256.0559997558594 5.33048677444458 256.342041015625 5.750843524932861 256.342041015625 6.08984375 C 256.342041015625 6.428843975067139 256.0559997558594 6.84920072555542 255.5768127441406 7.214272499084473 C 254.7715148925781 7.827807903289795 253.5950622558594 8.17970085144043 252.3490905761719 8.17970085144043 Z"/>
        <path class="cls-45" d="M 7.992935180664062 1.049041748046875e-05 L 252.3491058349609 1.049041748046875e-05 C 256.763427734375 1.049041748046875e-05 260.3420104980469 2.726510047912598 260.3420104980469 6.08984375 C 260.3420104980469 9.453176498413086 256.763427734375 12.17967700958252 252.3491058349609 12.17967700958252 L 7.992935180664062 12.17967700958252 C 3.57855224609375 12.17967700958252 -3.0517578125e-05 9.453176498413086 -3.0517578125e-05 6.08984375 C -3.0517578125e-05 2.726510047912598 3.57855224609375 1.049041748046875e-05 7.992935180664062 1.049041748046875e-05 Z"/>
      </g>
      <rect id="Rectangle_116" data-name="Rectangle 116" class="cls-7" width="8" height="249" transform="translate(1254.5 558.5) rotate(90)"/>
      <g id="szafka_z_mikrofala-2" data-name="szafka z mikrofala">
        <rect id="Rectangle_126" data-name="Rectangle 126" class="cls-7" width="18" height="222" rx="6" transform="translate(1242.5 773.5) rotate(90)"/>
        <rect id="Rectangle_125" data-name="Rectangle 125" class="cls-7" width="18" height="222" rx="6" transform="translate(1242.5 617.5) rotate(90)"/>
        <g id="Group_8" data-name="Group 8" transform="translate(1020.198 564.594)">
          <g id="Path_1-2" data-name="Path 1" class="cls-9">
            <path class="cls-43" d="M 216.9341278076172 63.9965705871582 L 4.995192050933838 63.9965705871582 C 4.446442127227783 63.9965705871582 4.000004291534424 63.49504089355469 4.000004291534424 62.8785400390625 L 4.000004291534424 5.118009567260742 C 4.000004291534424 4.501541137695312 4.446442127227783 4.000009536743164 4.995192050933838 4.000009536743164 L 216.9341278076172 4.000009536743164 C 217.4828796386719 4.000009536743164 217.9293212890625 4.501541137695312 217.9293212890625 5.118009567260742 L 217.9293212890625 62.8785400390625 C 217.9293212890625 63.49504089355469 217.4828796386719 63.9965705871582 216.9341278076172 63.9965705871582 Z"/>
            <path class="cls-45" d="M 7.999984741210938 8.000003814697266 L 7.999984741210938 59.99657440185547 L 213.9293060302734 59.99657440185547 L 213.9293060302734 8.000003814697266 L 7.999984741210938 8.000003814697266 M 4.995193481445312 7.62939453125e-06 L 216.9341278076172 7.62939453125e-06 C 219.6929168701172 7.62939453125e-06 221.9293060302734 2.291435241699219 221.9293060302734 5.118003845214844 L 221.9293060302734 62.8785400390625 C 221.9293060302734 65.70518493652344 219.6929168701172 67.99657440185547 216.9341278076172 67.99657440185547 L 4.995193481445312 67.99657440185547 C 2.236404418945312 67.99657440185547 -1.52587890625e-05 65.70518493652344 -1.52587890625e-05 62.8785400390625 L -1.52587890625e-05 5.118003845214844 C -1.52587890625e-05 2.291435241699219 2.236404418945312 7.62939453125e-06 4.995193481445312 7.62939453125e-06 Z"/>
          </g>
        </g>
        <rect id="Rectangle_75" data-name="Rectangle 75" class="cls-5" width="13" height="36" rx="6.5" transform="translate(1150 591) rotate(90)"/>
        <rect id="Rectangle_123" data-name="Rectangle 123" class="cls-7" width="13" height="36" rx="6" transform="translate(1149 593) rotate(90)"/>
      </g>
      <g id="Path_16" data-name="Path 16" class="cls-9" transform="translate(1020.198 637.552)">
        <path class="cls-43" d="M 212.0970001220703 146.7243194580078 L 9.832317352294922 146.7243194580078 C 8.257972717285156 146.7243194580078 6.72594165802002 146.4618225097656 5.518441677093506 145.9852294921875 C 4.658814907073975 145.6459045410156 4.190348148345947 145.2856140136719 4.000004291534424 145.0931091308594 L 4.000004291534424 5.631242275238037 C 4.190348148345947 5.43873119354248 4.658814907073975 5.078454494476318 5.518441677093506 4.739136219024658 C 6.725973129272461 4.262511253356934 8.257972717285156 4.000010967254639 9.832317352294922 4.000010967254639 L 212.0970001220703 4.000010967254639 C 213.6713409423828 4.000010967254639 215.2033538818359 4.262511253356934 216.4108734130859 4.739136219024658 C 217.2705078125 5.078454494476318 217.7389678955078 5.43873119354248 217.9293212890625 5.631242275238037 L 217.9293212890625 145.0931091308594 C 217.7389678955078 145.2856140136719 217.2705078125 145.6459045410156 216.4108734130859 145.9852294921875 C 215.2033843994141 146.4618225097656 213.6713409423828 146.7243194580078 212.0970001220703 146.7243194580078 Z"/>
        <path class="cls-45" d="M 9.832305908203125 7.999984741210938 C 9.105377197265625 7.999984741210938 8.49151611328125 8.072708129882812 7.999984741210938 8.170623779296875 L 7.999984741210938 142.5537109375 C 8.49151611328125 142.6516265869141 9.105377197265625 142.7243499755859 9.832305908203125 142.7243499755859 L 212.0970153808594 142.7243499755859 C 212.8239288330078 142.7243499755859 213.4377746582031 142.6516265869141 213.9293060302734 142.5537109375 L 213.9293060302734 8.170608520507812 C 213.4377746582031 8.072708129882812 212.8239288330078 7.999984741210938 212.0970153808594 7.999984741210938 L 9.832305908203125 7.999984741210938 M 9.832305908203125 -1.52587890625e-05 L 212.0970153808594 -1.52587890625e-05 C 217.5272369384766 -1.52587890625e-05 221.9293060302734 2.385696411132812 221.9293060302734 5.328628540039062 L 221.9293060302734 145.3957061767578 C 221.9293060302734 148.3386383056641 217.5272369384766 150.7243499755859 212.0970153808594 150.7243499755859 L 9.832305908203125 150.7243499755859 C 4.402053833007812 150.7243499755859 -1.52587890625e-05 148.3386383056641 -1.52587890625e-05 145.3957061767578 L -1.52587890625e-05 5.328628540039062 C -1.52587890625e-05 2.385696411132812 4.402053833007812 -1.52587890625e-05 9.832305908203125 -1.52587890625e-05 Z"/>
      </g>
      <rect id="Rectangle_36" data-name="Rectangle 36" class="cls-5" width="12" height="35" rx="6" transform="translate(1215 697)"/>
      <rect id="Rectangle_124" data-name="Rectangle 124" class="cls-7" width="13" height="36" rx="6" transform="translate(1212.5 697.5)"/>
    </g>
    <rect id="Rectangle_74" data-name="Rectangle 74" class="cls-34" width="1920" height="1080" transform="translate(-9)"/>
    <text id="Koniec_gry_" data-name="Koniec gry! " class="cls-35" transform="translate(592.5 296)"><tspan x="0" y="0">Koniec gry! </tspan></text>
    <text id="Twój_czas_to_7373_sekund" data-name="Twój czas to 7373 sekund" class="cls-36" transform="translate(666 375)"><tspan x="0" y="0">Twój czas to 7373 sekund</tspan></text>
    <text id="Vitamen_się_najadł_niezdrowego_jedzenia_i_teraz_boli_go_brzuch._Czy_ktoś_ma_jakąś_miętową_herbatę_" data-name="Vitamen się najadł niezdrowego jedzenia i teraz boli go brzuch. Czy ktoś ma jakąś miętową herbatę?" class="cls-37" transform="translate(335 419)"><tspan x="8.498" y="36">Vitamen się najadł niezdrowego jedzenia i teraz boli go brzuch. Czy </tspan><tspan x="311.24" y="81">ktoś ma jakąś miętową herbatę?</tspan></text>
    <g id="Group_77" data-name="Group 77" transform="translate(-2164.986 -2128.071)">
      <g id="Rectangle_208" data-name="Rectangle 208" class="cls-22" transform="translate(2677.986 2860.071)">
        <rect class="cls-43" width="92" height="50"/>
        <rect class="cls-44" x="4" y="4" width="84" height="42"/>
      </g>
      <rect id="Rectangle_210" data-name="Rectangle 210" class="cls-38" width="91" height="30" transform="translate(2698.986 2880.071)"/>
      <path id="Rectangle_209" data-name="Rectangle 209" class="cls-5" d="M8.526,0h0a42.63,42.63,0,0,1,42.63,42.63V112.3A17.052,17.052,0,0,1,34.1,129.353H21.315A21.315,21.315,0,0,1,0,108.038V8.526A8.526,8.526,0,0,1,8.526,0Z" transform="matrix(0.951, -0.309, 0.309, 0.951, 2625.887, 2814.896)"/>
      <g id="Group_75" data-name="Group 75" transform="translate(3672.148 2656.757) rotate(90)">
        <g id="Group_23-2" data-name="Group 23" transform="translate(128.056 280.96)">
          <g id="Rectangle_21-2" data-name="Rectangle 21" class="cls-3" transform="translate(0 0)">
            <rect class="cls-43" width="142.508" height="80.389" rx="14"/>
            <rect class="cls-44" x="4" y="4" width="134.508" height="72.389" rx="10"/>
          </g>
          <g id="Rectangle_22-2" data-name="Rectangle 22" class="cls-4" transform="translate(10.962 10.231)">
            <rect class="cls-43" width="99.39" height="59.926" rx="14"/>
            <rect class="cls-44" x="3" y="3" width="93.39" height="53.926" rx="11"/>
          </g>
          <rect id="Rectangle_76-2" data-name="Rectangle 76" class="cls-5" width="9.501" height="19.732" rx="4.75" transform="translate(133.738 57.003) rotate(90)"/>
          <rect id="Rectangle_77-2" data-name="Rectangle 77" class="cls-5" width="11.693" height="11.693" rx="5.846" transform="translate(130.084 36.54) rotate(90)"/>
          <rect id="Rectangle_118-2" data-name="Rectangle 118" class="cls-6" width="43.285" height="4.861" rx="2.43" transform="matrix(0.629, -0.777, 0.777, 0.629, 71.364, 61.398)"/>
          <rect id="Rectangle_119-2" data-name="Rectangle 119" class="cls-6" width="21.758" height="4.861" rx="2.43" transform="matrix(0.629, -0.777, 0.777, 0.629, 83.401, 56.305)"/>
          <rect id="Rectangle_122-2" data-name="Rectangle 122" class="cls-7" width="2.923" height="69.427" transform="translate(5.116 5.116)"/>
        </g>
        <g id="Path_39" data-name="Path 39" class="cls-9" transform="translate(209.015 128.623) rotate(7)">
          <path class="cls-43" d="M 34.43330764770508 168.2189025878906 C 17.10092735290527 168.2189025878906 2.999998092651367 156.3975219726562 2.999998092651367 141.8670959472656 L 2.999998092651367 29.35180854797363 C 2.999998092651367 14.82137966156006 17.10092735290527 2.999998807907104 34.43330764770508 2.999998807907104 C 51.58478927612305 2.999998807907104 65.57193756103516 14.57676315307617 65.86203765869141 28.89859771728516 C 65.23184204101562 30.89094924926758 62.77775573730469 38.84929275512695 60.29168701171875 49.59878540039062 C 58.632568359375 56.77264022827148 57.30995178222656 63.68942642211914 56.36054611206055 70.15699768066406 C 55.16740417480469 78.28488159179688 54.56245040893555 85.73294830322266 54.56245040893555 92.29433441162109 C 54.56245040893555 98.88583374023438 55.17226028442383 105.6609954833984 56.37497329711914 112.4316177368164 C 57.33566665649414 117.8398818969727 58.67504501342773 123.2592163085938 60.35590362548828 128.5390777587891 C 62.67465972900391 135.8227081298828 64.98630523681641 140.7918090820312 65.85592651367188 142.5593872070312 C 65.41653442382812 156.7711181640625 51.48958206176758 168.2189025878906 34.43330764770508 168.2189025878906 Z"/>
          <path class="cls-45" d="M 34.43330764770508 6 C 18.75514221191406 6 6.000003814697266 16.4755859375 6.000003814697266 29.351806640625 L 6.000003814697266 141.8670959472656 C 6.000003814697266 154.7433166503906 18.75514221191406 165.2189025878906 34.43330764770508 165.2189025878906 C 49.57464218139648 165.2189025878906 61.9897346496582 155.4477996826172 62.82218551635742 143.1803894042969 C 60.19099807739258 137.6658935546875 51.56244659423828 117.6470794677734 51.56244659423828 92.29434204101562 C 51.56244659423828 65.87299346923828 60.95866012573242 34.51768493652344 62.84720993041992 28.48324584960938 C 62.28902435302734 16.0078125 49.75741577148438 6 34.43330764770508 6 M 34.43330764770508 0 C 53.45030975341797 0 68.86661529541016 13.14125061035156 68.86661529541016 29.351806640625 C 68.86661529541016 29.351806640625 57.56244659423828 64.16550445556641 57.56244659423828 92.29434204101562 C 57.56244659423828 120.4231414794922 68.86661529541016 141.8670959472656 68.86661529541016 141.8670959472656 C 68.86661529541016 158.0776519775391 53.45030975341797 171.2189025878906 34.43330764770508 171.2189025878906 C 15.41630935668945 171.2189025878906 0 158.0776519775391 0 141.8670959472656 L 0 29.351806640625 C 0 13.14125061035156 15.41630935668945 0 34.43330764770508 0 Z"/>
        </g>
        <path id="Subtraction_22" data-name="Subtraction 22" class="cls-38" d="M17.635,170.552a40.766,40.766,0,0,1-4.953-.3A39.461,39.461,0,0,1,0,166.494a33.381,33.381,0,0,0,15.319-8.837,26.208,26.208,0,0,0,7.335-15.065,97.56,97.56,0,0,1-3.875-14.821,122.845,122.845,0,0,1-1.941-16.078,112.513,112.513,0,0,1,.637-19.682,151.517,151.517,0,0,1,4.4-21.325c1.709-6.225,3.84-12.851,6.333-19.693,4.259-11.689,8.121-20,8.16-20.078a26.282,26.282,0,0,0-3.927-17.152,31.92,31.92,0,0,0-5.951-7.036A36.075,36.075,0,0,0,18.45,1.339,38.661,38.661,0,0,1,28.6,0a40.785,40.785,0,0,1,4.951.3A39.392,39.392,0,0,1,46.57,4.227a35.164,35.164,0,0,1,10.1,7.577,29.483,29.483,0,0,1,6.187,10.16,25.5,25.5,0,0,1,1.294,11.67c-.039.083-3.9,8.387-8.16,20.078C53.5,60.554,51.365,67.18,49.656,73.405a151.514,151.514,0,0,0-4.4,21.325,112.512,112.512,0,0,0-.637,19.682,122.838,122.838,0,0,0,1.941,16.078,96.673,96.673,0,0,0,3.875,14.821,25.452,25.452,0,0,1-3.523,10.131,28.8,28.8,0,0,1-7.255,7.989A36.43,36.43,0,0,1,17.635,170.552Z" transform="matrix(1, 0.017, -0.017, 1, 207.483, 128.275)"/>
        <g id="Group_55" data-name="Group 55" transform="matrix(1, -0.017, 0.017, 1, 134.296, 2.417)">
          <g id="ludek2" transform="translate(0 206.453) rotate(-90)">
            <g id="Union_2" data-name="Union 2" class="cls-9" transform="translate(0 6.943)">
              <path class="cls-43" d="M 118.5471038818359 127.5458068847656 L 51.00030517578125 127.5458068847656 C 44.65317916870117 127.5458068847656 38.49850463867188 126.3037567138672 32.70727920532227 123.8541259765625 C 27.11120414733887 121.4873046875 22.08448028564453 118.0979309082031 17.76663017272949 113.7800750732422 C 13.44817924499512 109.4616317749023 10.05850410461426 104.4346008300781 7.691754341125488 98.83867645263672 C 5.242054462432861 93.04730224609375 4.000004291534424 86.89263153076172 4.000004291534424 80.54550170898438 L 4.000004291534424 61.96230316162109 C 4.000004291534424 50.11615371704102 8.420754432678223 38.80102920532227 16.44787979125977 30.10130310058594 C 23.430908203125 22.53339385986328 32.59117126464844 17.51843452453613 42.5930061340332 15.71197605133057 L 42.5930061340332 61.14780426025391 C 42.5930061340332 63.88887786865234 44.82302856445312 66.11890411376953 47.56410598754883 66.11890411376953 C 50.30467987060547 66.11890411376953 52.53430557250977 63.88887786865234 52.53430557250977 61.14780426025391 L 52.53430557250977 14.96200370788574 L 91.24470520019531 14.96200370788574 L 95.24470520019531 14.96200370788574 L 95.24470520019531 10.96200370788574 L 95.24470520019531 9.706503868103027 C 95.24470520019531 6.559928417205811 97.80503082275391 4.000003337860107 100.9521026611328 4.000003337860107 C 104.0986785888672 4.000003337860107 106.6586074829102 6.559928417205811 106.6586074829102 9.706503868103027 L 106.6586074829102 10.96200370788574 L 106.6586074829102 14.96200370788574 L 110.6586074829102 14.96200370788574 L 118.5471038818359 14.96200370788574 C 124.8940048217773 14.96200370788574 131.0490264892578 16.20410346984863 136.8412017822266 18.65377807617188 C 142.4375 21.02067756652832 147.4641265869141 24.41025352478027 151.7814025878906 28.72835350036621 C 156.0995330810547 33.04647827148438 159.4889068603516 38.07320404052734 161.8556518554688 43.66912841796875 C 164.3053588867188 49.46050262451172 165.5474090576172 55.61517715454102 165.5474090576172 61.96230316162109 L 165.5474090576172 80.54550170898438 C 165.5474090576172 86.89263153076172 164.3053588867188 93.04730224609375 161.8557281494141 98.83853149414062 C 159.4890747070312 104.4342041015625 156.099609375 109.4613037109375 151.7814025878906 113.7803497314453 C 147.4638366699219 118.0979309082031 142.4371032714844 121.4873046875 136.8411865234375 123.8540496826172 C 131.0490264892578 126.3037033081055 124.8940048217773 127.5458068847656 118.5471038818359 127.5458068847656 Z"/>
              <path class="cls-45" d="M 118.547119140625 123.5458145141602 C 124.3557891845703 123.5458145141602 129.9866180419922 122.4100189208984 135.2830505371094 120.1700210571289 C 140.4021453857422 118.0049591064453 145.00146484375 114.903434753418 148.9526977539062 110.9522247314453 C 152.9049682617188 106.9991683959961 156.0066680908203 102.3993453979492 158.1717376708984 97.28025817871094 C 160.4116821289062 91.98475646972656 161.5474090576172 86.35434722900391 161.5474090576172 80.54549407958984 L 161.5474090576172 61.96231460571289 C 161.5474090576172 56.15346145629883 160.4116821289062 50.52305221557617 158.1716156005859 45.22725677490234 C 156.0065612792969 40.10816955566406 152.905029296875 35.50884628295898 148.9527282714844 31.55652046203613 C 145.0016174316406 27.60463905334473 140.4024353027344 24.50302124023438 135.2831420898438 22.33784484863281 C 129.9866180419922 20.09778594970703 124.3557891845703 18.96199226379395 118.547119140625 18.96199226379395 L 110.6585845947266 18.96199226379395 L 102.6585845947266 18.96199226379395 L 102.6585845947266 10.96199131011963 L 102.6585845947266 9.706491470336914 C 102.6585845947266 8.765521049499512 101.8930587768555 7.999991893768311 100.9521179199219 7.999991893768311 C 100.0106430053711 7.999991893768311 99.24470520019531 8.765521049499512 99.24470520019531 9.706491470336914 L 99.24470520019531 10.96199131011963 L 99.24470520019531 18.96199226379395 L 91.24470520019531 18.96199226379395 L 56.53429412841797 18.96199226379395 L 56.53429412841797 61.1478157043457 C 56.53429412841797 66.09449005126953 52.51029205322266 70.11890411376953 47.56411743164062 70.11890411376953 C 42.61743927001953 70.11890411376953 38.59299850463867 66.09449005126953 38.59299850463867 61.1478157043457 L 38.59299850463867 20.77821350097656 C 31.29325294494629 22.9731559753418 24.66211318969727 27.09757995605469 19.38767433166504 32.81381607055664 C 12.04423427581787 40.77257919311523 7.999998569488525 51.12437438964844 7.999998569488525 61.96231460571289 L 7.999998569488525 80.54549407958984 C 7.999998569488525 86.35434722900391 9.135733604431152 91.98475646972656 11.37579250335693 97.28054809570312 C 13.54085159301758 102.3996353149414 16.64267539978027 106.9992599487305 20.59505653381348 110.9516677856445 C 24.54685211181641 114.9034652709961 29.14614486694336 118.0049362182617 34.26555633544922 120.1701354980469 C 39.56105804443359 122.4100799560547 45.19144058227539 123.5458145141602 51.00029373168945 123.5458145141602 L 118.547119140625 123.5458145141602 M 118.547119140625 131.5458221435547 L 51.00029373168945 131.5458221435547 C 44.11529159545898 131.5458221435547 37.43640899658203 130.1976165771484 31.14899826049805 127.5381088256836 C 25.07579231262207 124.9695205688477 19.62179183959961 121.292106628418 14.93820476531982 116.6085205078125 C 10.25370407104492 111.9239883422852 6.576292991638184 106.4699935913086 4.007704734802246 100.3968124389648 C 1.348204493522644 94.10940551757812 -1.353544348603464e-06 87.43048858642578 -1.353544348603464e-06 80.54549407958984 L -1.353544348603464e-06 61.96231460571289 C -1.353544348603464e-06 49.10848999023438 4.796998500823975 36.82981491088867 13.50811672210693 27.38881492614746 C 22.16879272460938 18.0026969909668 33.91829299926758 12.23549175262451 46.59299850463867 11.15010929107666 L 46.59299850463867 61.1478157043457 C 46.59299850463867 61.68328475952148 47.02861785888672 62.11890411376953 47.56411743164062 62.11890411376953 C 48.09870529174805 62.11890411376953 48.53429412841797 61.68328475952148 48.53429412841797 61.1478157043457 L 48.53429412841797 11.02049160003662 C 49.35779190063477 10.98181533813477 50.18670272827148 10.96199131011963 51.00029373168945 10.96199131011963 L 91.24470520019531 10.96199131011963 L 91.24470520019531 9.706491470336914 C 91.24470520019531 4.346109390258789 95.59078979492188 -8.322323083120864e-06 100.9521179199219 -8.322323083120864e-06 C 106.3125 -8.322323083120864e-06 110.6585845947266 4.346109390258789 110.6585845947266 9.706491470336914 L 110.6585845947266 10.96199131011963 L 118.547119140625 10.96199131011963 C 125.4321136474609 10.96199131011963 132.1109924316406 12.3101978302002 138.3993225097656 14.96969795227051 C 144.4725036621094 17.53831481933594 149.9264984130859 21.2156982421875 154.6101226806641 25.90019798278809 C 159.293701171875 30.58381462097168 162.9711151123047 36.03781509399414 165.5397033691406 42.11099243164062 C 168.1992034912109 48.39840316772461 169.5474090576172 55.07731628417969 169.5474090576172 61.96231460571289 L 169.5474090576172 80.54549407958984 C 169.5474090576172 87.43048858642578 168.1992034912109 94.10940551757812 165.5397033691406 100.3968124389648 C 162.9711151123047 106.4699935913086 159.293701171875 111.9239883422852 154.6101226806641 116.6085205078125 C 149.9264984130859 121.292106628418 144.4725036621094 124.9695205688477 138.3993225097656 127.5381088256836 C 132.1109924316406 130.1976165771484 125.4321136474609 131.5458221435547 118.547119140625 131.5458221435547 Z"/>
            </g>
            <g id="Group_17" data-name="Group 17" transform="translate(176.856 19.366) rotate(90)">
              <circle id="Ellipse_6" data-name="Ellipse 6" class="cls-5" cx="12.424" cy="12.424" r="12.424" transform="translate(22.655 0)"/>
              <circle id="Ellipse_11" data-name="Ellipse 11" class="cls-5" cx="12.424" cy="12.424" r="12.424" transform="translate(10.231 0)"/>
              <circle id="Ellipse_12" data-name="Ellipse 12" class="cls-5" cx="12.424" cy="12.424" r="12.424" transform="translate(0 3.654)"/>
              <circle id="Ellipse_7" data-name="Ellipse 7" class="cls-5" cx="12.424" cy="12.424" r="12.424" transform="translate(37.271 0)"/>
              <circle id="Ellipse_8" data-name="Ellipse 8" class="cls-5" cx="12.424" cy="12.424" r="12.424" transform="translate(49.695 0)"/>
              <circle id="Ellipse_9" data-name="Ellipse 9" class="cls-5" cx="12.424" cy="12.424" r="12.424" transform="translate(60.657 0)"/>
              <circle id="Ellipse_10" data-name="Ellipse 10" class="cls-5" cx="12.424" cy="12.424" r="12.424" transform="translate(75.273 0)"/>
              <circle id="Ellipse_13" data-name="Ellipse 13" class="cls-5" cx="12.424" cy="12.424" r="12.424" transform="translate(91.351 3.654)"/>
            </g>
            <path id="Union_36" data-name="Union 36" class="cls-38" d="M50.081,120.576A50.957,50.957,0,0,1,0,69.584V51a51.635,51.635,0,0,1,.383-6.267v2.93A50.955,50.955,0,0,0,50.468,98.654c.3.005.611.008.914.008H118.93a50.839,50.839,0,0,0,28.647-8.794,12.344,12.344,0,0,1,1.651-5.389,12.451,12.451,0,0,1-.588-11.344,12.455,12.455,0,0,1,.332-10.882,12.438,12.438,0,0,1,.6-12.581,12.443,12.443,0,0,1-.781-12.227,12.371,12.371,0,0,1-1.244-5.426,12.54,12.54,0,0,1,.073-1.358,12.424,12.424,0,1,1,21.12-8.873,12.556,12.556,0,0,1-.074,1.359,12.432,12.432,0,0,1,2.483,14.3,12.439,12.439,0,0,1-.78,12.227,12.435,12.435,0,0,1,.6,12.581,12.447,12.447,0,0,1,.332,10.882,12.444,12.444,0,0,1-.588,11.344,12.429,12.429,0,0,1-3.5,16.34A12.426,12.426,0,0,1,145.491,112.9a50.832,50.832,0,0,1-26.944,7.685H50.884C50.618,120.583,50.348,120.58,50.081,120.576ZM48.534,29.035V.059l.189-.009.194-.008V28.265a.962.962,0,0,1-.382.771v0Z" transform="translate(0.808 13.534)"/>
            <g id="Group_16" data-name="Group 16" transform="translate(206.453 0) rotate(90)">
              <g id="Rectangle_70" data-name="Rectangle 70" class="cls-39" transform="translate(0 23.386)">
                <rect class="cls-43" width="54.08" height="19.001" rx="9.501"/>
                <rect class="cls-44" x="4" y="4" width="46.08" height="11.001" rx="5.501"/>
              </g>
              <g id="Rectangle_69" data-name="Rectangle 69" class="cls-39" transform="translate(36.54)">
                <rect class="cls-43" width="97.655" height="42.387" rx="13"/>
                <rect class="cls-44" x="4" y="4" width="89.655" height="34.387" rx="9"/>
              </g>
            </g>
            <g id="Ellipse_33" data-name="Ellipse 33" class="cls-40" transform="translate(80.389 61.388)">
              <circle class="cls-43" cx="12.789" cy="12.789" r="12.789"/>
              <circle class="cls-44" cx="12.789" cy="12.789" r="9.789"/>
            </g>
          </g>
          <rect id="Rectangle_162" data-name="Rectangle 162" class="cls-5" width="15.347" height="5.116" rx="2.558" transform="translate(44.228 78.18) rotate(34)"/>
          <path id="Path_34" data-name="Path 34" class="cls-41" d="M0,0A16.843,16.843,0,0,0,10.808,3.83C17.5,3.83,24.428,0,24.428,0" transform="translate(49.072 67.675) rotate(34)"/>
          <rect id="Rectangle_216" data-name="Rectangle 216" class="cls-38" width="24.117" height="36.54" transform="translate(106.372 3.11)"/>
        </g>
        <path id="Path_38" data-name="Path 38" class="cls-5" d="M75.273,0H195.732c42.422,1.539,100.13,33.427,112.014,75.273s-25.831,88.954-75.273,75.273H75.273A75.273,75.273,0,0,1,75.273,0Z" transform="translate(120.017 523.847) rotate(-90)"/>
        <rect id="Rectangle_204" data-name="Rectangle 204" class="cls-5" width="501.41" height="101.582" rx="46" transform="translate(173.366 940.407) rotate(-90)"/>
        <rect id="Rectangle_205" data-name="Rectangle 205" class="cls-5" width="286.552" height="108.89" rx="54.445" transform="translate(0 626.454) rotate(-47)"/>
        <rect id="Rectangle_206" data-name="Rectangle 206" class="cls-5" width="316.516" height="108.89" rx="54.445" transform="translate(85.356 550.879) rotate(49)"/>
        <rect id="Rectangle_203" data-name="Rectangle 203" class="cls-5" width="151.353" height="139.584" rx="69.792" transform="translate(128.018 427.342)"/>
        <ellipse id="Ellipse_111" data-name="Ellipse 111" class="cls-5" cx="106.698" cy="97.563" rx="106.698" ry="97.563" transform="translate(82.015 538.463) rotate(-90)"/>
        <g id="Rectangle_201" data-name="Rectangle 201" class="cls-22" transform="matrix(0.358, 0.934, -0.934, 0.358, 218.451, 354.165)">
          <rect class="cls-43" width="59.926" height="182.702" rx="29.963"/>
          <rect class="cls-44" x="4" y="4" width="51.926" height="174.702" rx="25.963"/>
        </g>
        <rect id="Rectangle_211" data-name="Rectangle 211" class="cls-38" width="59.926" height="195.857" rx="29.963" transform="matrix(0.358, 0.934, -0.934, 0.358, 230.875, 349.78)"/>
        <g id="Rectangle_200" data-name="Rectangle 200" class="cls-22" transform="translate(187.783 234.059) rotate(8)">
          <rect class="cls-43" width="59.926" height="191.472" rx="29.963"/>
          <rect class="cls-44" x="4" y="4" width="51.926" height="183.472" rx="25.963"/>
        </g>
      </g>
      <rect id="Rectangle_207" data-name="Rectangle 207" class="cls-5" width="1181" height="14" rx="7" transform="translate(2534.986 2923.071)"/>
      <g id="Group_29-2" data-name="Group 29" transform="translate(3150.989 2684.085) rotate(-16)">
        <path id="Path_18-2" data-name="Path 18" class="cls-42" d="M14.052,40.5S-1.094,37.284.063,27.376s20.183-7.138,19.658-17.091S9.907,0,9.907,0" transform="translate(49.23)"/>
        <path id="Path_19-2" data-name="Path 19" class="cls-42" d="M14.052,40.5S-1.094,37.284.063,27.376s20.183-7.138,19.658-17.091S9.907,0,9.907,0" transform="translate(24.615)"/>
        <path id="Path_22-2" data-name="Path 22" class="cls-42" d="M14.052,40.5S-1.094,37.284.063,27.376s20.183-7.138,19.658-17.091S9.907,0,9.907,0"/>
      </g>
    </g>
  </g>
</svg>
