<svg xmlns="http://www.w3.org/2000/svg" xmlns:xlink="http://www.w3.org/1999/xlink" width="1920" height="1080" viewBox="0 0 1920 1080">
  <defs>
    <style>
      .cls-1 {
        clip-path: url(#clip-Web_1920_1);
      }

      .cls-2 {
        fill: rgba(54,73,84,0.67);
      }

      .cls-17, .cls-18, .cls-3 {
        fill: #fff;
      }

      .cls-11, .cls-13, .cls-14, .cls-15, .cls-18, .cls-21, .cls-22, .cls-24, .cls-25, .cls-28, .cls-3, .cls-31, .cls-32, .cls-33, .cls-36, .cls-37, .cls-4 {
        stroke: #272727;
      }

      .cls-15, .cls-21, .cls-22, .cls-24, .cls-25, .cls-28, .cls-3, .cls-31 {
        stroke-width: 8px;
      }

      .cls-30, .cls-36, .cls-4 {
        fill: #84b1cb;
      }

      .cls-11, .cls-13, .cls-20, .cls-4 {
        stroke-width: 6px;
      }

      .cls-40, .cls-43, .cls-5 {
        fill: #272727;
      }

      .cls-6 {
        fill: rgba(255,255,255,0.51);
      }

      .cls-7 {
        fill: rgba(39,39,39,0.25);
      }

      .cls-16, .cls-31, .cls-8 {
        fill: #8e7258;
      }

      .cls-22, .cls-9 {
        fill: #ffebcd;
      }

      .cls-10, .cls-21, .cls-32 {
        fill: #ee982b;
      }

      .cls-11, .cls-13, .cls-14, .cls-15, .cls-19, .cls-20, .cls-27, .cls-42 {
        fill: none;
      }

      .cls-11, .cls-14, .cls-19, .cls-20 {
        stroke-linecap: round;
      }

      .cls-11, .cls-14 {
        stroke-linejoin: bevel;
      }

      .cls-12 {
        fill: rgba(255,255,255,0.25);
      }

      .cls-14, .cls-18, .cls-33 {
        stroke-width: 5px;
      }

      .cls-19 {
        stroke: rgba(39,39,39,0.2);
        stroke-width: 10px;
      }

      .cls-20 {
        stroke: rgba(255,255,255,0.2);
      }

      .cls-23, .cls-24, .cls-29, .cls-33, .cls-34 {
        fill: #576b76;
      }

      .cls-25 {
        fill: #85b9d8;
      }

      .cls-26 {
        fill: #7a8e9b;
      }

      .cls-28 {
        fill: #9aaebb;
      }

      .cls-32 {
        stroke-width: 3px;
      }

      .cls-34 {
        opacity: 0.8;
      }

      .cls-35 {
        fill: url(#linear-gradient);
      }

      .cls-36, .cls-37 {
        stroke-width: 15px;
      }

      .cls-37 {
        fill: #6e93a8;
      }

      .cls-38 {
        fill: rgba(39,39,39,0.3);
      }

      .cls-39 {
        fill: rgba(255,255,255,0.3);
      }

      .cls-40 {
        stroke: #707070;
        opacity: 0.4;
      }

      .cls-41, .cls-43 {
        stroke: none;
      }
    </style>
    <linearGradient id="linear-gradient" x1="0.5" y1="0.275" x2="0.5" y2="1" gradientUnits="objectBoundingBox">
      <stop offset="0" stop-color="#fff" stop-opacity="0"/>
      <stop offset="1" stop-color="#fceea3" stop-opacity="0.639"/>
    </linearGradient>
    <clipPath id="clip-Web_1920_1">
      <rect width="1920" height="1080"/>
    </clipPath>
  </defs>
  <g id="Web_1920_1" data-name="Web 1920 – 1" class="cls-1">
    <rect class="cls-17" width="1920" height="1080"/>
    <rect id="Rectangle_1" data-name="Rectangle 1" class="cls-2" width="1924" height="1080" transform="translate(-4)"/>
    <g id="Group_23" data-name="Group 23" transform="translate(-2 6)">
      <g id="Rectangle_21" data-name="Rectangle 21" class="cls-3" transform="translate(1034 437)">
        <rect class="cls-41" width="195" height="110" rx="14"/>
        <rect class="cls-42" x="4" y="4" width="187" height="102" rx="10"/>
      </g>
      <g id="Rectangle_22" data-name="Rectangle 22" class="cls-4" transform="translate(1049 451)">
        <rect class="cls-41" width="136" height="82" rx="14"/>
        <rect class="cls-42" x="3" y="3" width="130" height="76" rx="11"/>
      </g>
      <rect id="Rectangle_76" data-name="Rectangle 76" class="cls-5" width="13" height="27" rx="6.5" transform="translate(1217 515) rotate(90)"/>
      <rect id="Rectangle_77" data-name="Rectangle 77" class="cls-5" width="16" height="16" rx="8" transform="translate(1212 487) rotate(90)"/>
      <rect id="Rectangle_118" data-name="Rectangle 118" class="cls-6" width="59.229" height="6.651" rx="3.326" transform="matrix(0.629, -0.777, 0.777, 0.629, 1131.651, 521.013)"/>
      <rect id="Rectangle_119" data-name="Rectangle 119" class="cls-6" width="29.773" height="6.651" rx="3.326" transform="matrix(0.629, -0.777, 0.777, 0.629, 1148.121, 514.045)"/>
      <rect id="Rectangle_122" data-name="Rectangle 122" class="cls-7" width="4" height="95" transform="translate(1041 444)"/>
    </g>
    <rect id="Rectangle_20" data-name="Rectangle 20" class="cls-5" width="1408" height="6" rx="3" transform="translate(256 798)"/>
    <g id="szafka" transform="translate(1260.546 267.013)">
      <rect id="Rectangle_133" data-name="Rectangle 133" class="cls-7" width="236" height="76" rx="7" transform="translate(0.454 103.987)"/>
      <g id="Group_36" data-name="Group 36">
        <g id="Group_9" data-name="Group 9">
          <g id="Path_7" data-name="Path 7" class="cls-8" transform="translate(0 0)">
            <path class="cls-41" d="M 230.7993927001953 166.0914611816406 L 5.944408416748047 166.0914611816406 C 5.679316520690918 165.7365875244141 5.247920036315918 164.9798278808594 4.848461627960205 163.6644287109375 C 4.301328182220459 161.8625946044922 3.99999475479126 159.5983581542969 3.99999475479126 157.2888488769531 L 3.99999475479126 12.80258941650391 C 3.99999475479126 10.49308967590332 4.301328182220459 8.228856086730957 4.848461627960205 6.427022933959961 C 5.247920036315918 5.111625194549561 5.679316520690918 4.354855537414551 5.944408416748047 3.99998950958252 L 230.7993927001953 3.99998950958252 C 231.0644989013672 4.354855537414551 231.4958953857422 5.111625194549561 231.8953247070312 6.427022933959961 C 232.4424591064453 8.228856086730957 232.7437896728516 10.49305629730225 232.7437896728516 12.80258941650391 L 232.7437896728516 157.2888488769531 C 232.7437896728516 159.598388671875 232.4424591064453 161.8625946044922 231.8953247070312 163.6644287109375 C 231.4958953857422 164.9798278808594 231.0644989013672 165.7365875244141 230.7993927001953 166.0914611816406 Z"/>
            <path class="cls-43" d="M 8.556671142578125 7.999984741210938 C 8.261932373046875 9.130386352539062 8.000015258789062 10.76666259765625 8.000015258789062 12.80256652832031 L 8.000015258789062 157.2888793945312 C 8.000015258789062 159.3247833251953 8.261932373046875 160.9610595703125 8.556671142578125 162.0914611816406 L 228.1871185302734 162.0914611816406 C 228.4818572998047 160.9610748291016 228.7437744140625 159.3247833251953 228.7437744140625 157.2888793945312 L 228.7437744140625 12.80256652832031 C 228.7437744140625 10.76666259765625 228.4818572998047 9.13037109375 228.1871185302734 7.999984741210938 L 8.556671142578125 7.999984741210938 M 5.328628540039062 -1.52587890625e-05 L 231.4151306152344 -1.52587890625e-05 C 234.3580932617188 -1.52587890625e-05 236.7437744140625 5.731918334960938 236.7437744140625 12.80256652832031 L 236.7437744140625 157.2888793945312 C 236.7437744140625 164.3595275878906 234.3580932617188 170.0914611816406 231.4151306152344 170.0914611816406 L 5.328628540039062 170.0914611816406 C 2.385696411132812 170.0914611816406 1.52587890625e-05 164.3595275878906 1.52587890625e-05 157.2888793945312 L 1.52587890625e-05 12.80256652832031 C 1.52587890625e-05 5.731918334960938 2.385696411132812 -1.52587890625e-05 5.328628540039062 -1.52587890625e-05 Z"/>
          </g>
        </g>
        <g id="Group_10" data-name="Group 10" transform="translate(12.583 12.823)">
          <g id="Path_7-2" data-name="Path 7" class="cls-9">
            <path class="cls-41" d="M 103.650390625 140.1759490966797 L 4.628387451171875 140.1759490966797 C 4.321430683135986 138.8129730224609 4.000011920928955 136.4788818359375 4.000011920928955 133.3239593505859 L 4.000011920928955 10.85194492340088 C 4.000011920928955 7.697037696838379 4.321429252624512 5.362980842590332 4.6283860206604 4.00001049041748 L 103.6503982543945 4.00001049041748 C 103.9573516845703 5.362985610961914 104.2787704467773 7.697052001953125 104.2787704467773 10.85194492340088 L 104.2787704467773 133.3239593505859 C 104.2787704467773 136.4788818359375 103.9573516845703 138.8129730224609 103.650390625 140.1759490966797 Z"/>
            <path class="cls-43" d="M 8.103927612304688 8 C 8.040794372558594 8.834274291992188 7.999984741210938 9.790130615234375 7.999984741210938 10.85197448730469 L 7.999984741210938 133.323974609375 C 7.999984741210938 134.3858032226562 8.040794372558594 135.3416595458984 8.103927612304688 136.1759338378906 L 100.1748046875 136.1759338378906 C 100.2379455566406 135.3416442871094 100.2787475585938 134.3858184814453 100.2787475585938 133.323974609375 L 100.2787475585938 10.85197448730469 C 100.2787475585938 9.790115356445312 100.2379455566406 8.83428955078125 100.1748046875 8 L 8.103927612304688 8 M 2.437141418457031 0 L 105.8416213989258 0 C 107.1876220703125 0 108.2787475585938 4.858566284179688 108.2787475585938 10.85197448730469 L 108.2787475585938 133.323974609375 C 108.2787475585938 139.3173675537109 107.1876220703125 144.1759338378906 105.8416213989258 144.1759338378906 L 2.437141418457031 144.1759338378906 C 1.091148376464844 144.1759338378906 -1.52587890625e-05 139.3173675537109 -1.52587890625e-05 133.323974609375 L -1.52587890625e-05 10.85197448730469 C -1.52587890625e-05 4.858566284179688 1.091148376464844 0 2.437141418457031 0 Z"/>
          </g>
        </g>
        <g id="Group_11" data-name="Group 11" transform="translate(114.581 12.823)">
          <g id="Path_7-3" data-name="Path 7" class="cls-9" transform="translate(0)">
            <path class="cls-41" d="M 103.4533157348633 140.1759490966797 L 4.627063751220703 140.1759490966797 C 4.320649147033691 138.8122253417969 4.000010013580322 136.4783172607422 4.000010013580322 133.3239593505859 L 4.000010013580322 10.85194492340088 C 4.000010013580322 7.69762659072876 4.320648670196533 5.363721370697021 4.627063274383545 4.00001049041748 L 103.4533233642578 4.00001049041748 C 103.7597427368164 5.363721370697021 104.0803833007812 7.69762659072876 104.0803833007812 10.85194492340088 L 104.0803833007812 133.3239593505859 C 104.0803833007812 136.4783020019531 103.7597427368164 138.8122253417969 103.4533157348633 140.1759490966797 Z"/>
            <path class="cls-43" d="M 8.103713989257812 8 C 8.04071044921875 8.834396362304688 8 9.790176391601562 8 10.85197448730469 L 8 133.323974609375 C 8 134.3857574462891 8.04071044921875 135.3415374755859 8.103713989257812 136.1759338378906 L 99.97665405273438 136.1759338378906 C 100.0396575927734 135.3415374755859 100.0803680419922 134.3857574462891 100.0803680419922 133.323974609375 L 100.0803680419922 10.85197448730469 C 100.0803680419922 9.790176391601562 100.0396575927734 8.834396362304688 99.97665405273438 8 L 8.103713989257812 8 M 2.432685852050781 0 L 105.6476821899414 0 C 106.9912109375 0 108.0803680419922 4.858566284179688 108.0803680419922 10.85197448730469 L 108.0803680419922 133.323974609375 C 108.0803680419922 139.3173675537109 106.9912109375 144.1759338378906 105.6476821899414 144.1759338378906 L 2.432685852050781 144.1759338378906 C 1.089157104492188 144.1759338378906 0 139.3173675537109 0 133.323974609375 L 0 10.85197448730469 C 0 4.858566284179688 1.089157104492188 0 2.432685852050781 0 Z"/>
          </g>
        </g>
        <rect id="Rectangle_39" data-name="Rectangle 39" class="cls-5" width="13" height="36" rx="6.5" transform="translate(93.454 66.987)"/>
        <rect id="Rectangle_40" data-name="Rectangle 40" class="cls-5" width="13" height="36" rx="6.5" transform="translate(127.454 66.987)"/>
        <rect id="Rectangle_135" data-name="Rectangle 135" class="cls-7" width="13" height="36" rx="6" transform="translate(89.954 67.487)"/>
        <rect id="Rectangle_136" data-name="Rectangle 136" class="cls-7" width="13" height="36" rx="6" transform="translate(124.954 67.487)"/>
      </g>
    </g>
    <g id="garnek" transform="translate(843.244 499.813)">
      <g id="Path_12" data-name="Path 12" class="cls-10" transform="translate(61.66 5.806)">
        <path class="cls-41" d="M.955,0H41.478c.527,0,.955.257.955.573V7.039c0,.316-.428.573-.955.573H.955C.428,7.612,0,7.356,0,7.039V.573C0,.257.428,0,.955,0Z"/>
        <path class="cls-43" d="M 0.9550704956054688 -3.337860107421875e-06 L 41.47750091552734 -3.337860107421875e-06 C 42.00497817993164 -3.337860107421875e-06 42.43256759643555 0.2565302848815918 42.43256759643555 0.5729703903198242 L 42.43256759643555 7.039370059967041 C 42.43256759643555 7.355810165405273 42.00497817993164 7.612343788146973 41.47750091552734 7.612343788146973 L 0.9550704956054688 7.612343788146973 C 0.4276046752929688 7.612343788146973 3.814697265625e-06 7.355810165405273 3.814697265625e-06 7.039370059967041 L 3.814697265625e-06 0.5729703903198242 C 3.814697265625e-06 0.2565302848815918 0.4276046752929688 -3.337860107421875e-06 0.9550704956054688 -3.337860107421875e-06 Z"/>
      </g>
      <g id="Rectangle_95" data-name="Rectangle 95" class="cls-4" transform="translate(-1.244 -0.813)">
        <rect class="cls-41" width="64" height="50" rx="7"/>
        <rect class="cls-42" x="3" y="3" width="58" height="44" rx="4"/>
      </g>
      <g id="Group_29" data-name="Group 29" transform="translate(-901.244 -499.813)">
        <path id="Path_18" data-name="Path 18" class="cls-11" d="M899.726,347.448s10.466-2.221,9.667-9.058-13.948-4.926-13.585-11.793a7.142,7.142,0,0,1,6.782-7.1" transform="translate(12.939 142.56)"/>
        <path id="Path_19" data-name="Path 19" class="cls-11" d="M899.726,347.448s10.466-2.221,9.667-9.058-13.948-4.926-13.585-11.793a7.142,7.142,0,0,1,6.782-7.1" transform="translate(28.325 142.56)"/>
        <path id="Path_22" data-name="Path 22" class="cls-11" d="M899.726,347.448s10.466-2.221,9.667-9.058-13.948-4.926-13.585-11.793a7.142,7.142,0,0,1,6.782-7.1" transform="translate(43.711 142.56)"/>
      </g>
      <rect id="Rectangle_96" data-name="Rectangle 96" class="cls-7" width="17" height="42" transform="translate(3.756 3.187)"/>
      <rect id="Rectangle_97" data-name="Rectangle 97" class="cls-12" width="5" height="42" transform="translate(46.756 3.187)"/>
      <g id="Rectangle_111" data-name="Rectangle 111" class="cls-13" transform="translate(-1.244 -0.813)">
        <rect class="cls-41" width="64" height="50" rx="7"/>
        <rect class="cls-42" x="3" y="3" width="58" height="44" rx="4"/>
      </g>
    </g>
    <g id="Group_24" data-name="Group 24" transform="translate(-870 12)">
      <path id="Path_21" data-name="Path 21" class="cls-14" d="M897.785,336.259s5.29-1.332,4.886-5.432-7.049-2.954-6.866-7.072,3.428-4.256,3.428-4.256" transform="translate(535.116 140.33)"/>
      <path id="Path_20" data-name="Path 20" class="cls-14" d="M897.785,336.259s5.29-1.332,4.886-5.432-7.049-2.954-6.866-7.072,3.428-4.256,3.428-4.256" transform="translate(548.302 140.33)"/>
      <g id="Group_12" data-name="Group 12" transform="translate(1413.554 481.866)">
        <g id="Rectangle_43" data-name="Rectangle 43" class="cls-15" transform="translate(40.446 14.134)">
          <rect class="cls-41" width="30" height="32" rx="6"/>
          <rect class="cls-42" x="4" y="4" width="22" height="24" rx="2"/>
        </g>
        <path id="Subtraction_1" data-name="Subtraction 1" class="cls-16" d="M28,28a27.824,27.824,0,0,1-10.9-2.2,27.907,27.907,0,0,1-8.9-6,27.907,27.907,0,0,1-6-8.9A27.824,27.824,0,0,1,0,0H56a27.824,27.824,0,0,1-2.2,10.9,27.907,27.907,0,0,1-6,8.9,27.907,27.907,0,0,1-8.9,6A27.824,27.824,0,0,1,28,28Z" transform="translate(0.446 30.134)"/>
        <path id="Subtraction_2" data-name="Subtraction 2" class="cls-17" d="M28,0A29.683,29.683,0,0,0,17.1,2.043,28.118,28.118,0,0,0,8.2,7.615a25.9,25.9,0,0,0-6,8.264A24.252,24.252,0,0,0,0,26H56a24.252,24.252,0,0,0-2.2-10.12,25.9,25.9,0,0,0-6-8.264,28.118,28.118,0,0,0-8.9-5.572A29.683,29.683,0,0,0,28,0Z" transform="translate(0.446 4.134)"/>
        <g id="Ellipse_1" data-name="Ellipse 1" class="cls-13" transform="translate(0.446 2.134)">
          <circle class="cls-41" cx="28" cy="28" r="28"/>
          <circle class="cls-42" cx="28" cy="28" r="25"/>
        </g>
        <rect id="Rectangle_38" data-name="Rectangle 38" class="cls-5" width="10" height="56" rx="5" transform="translate(56.446 49.134) rotate(90)"/>
        <g id="Rectangle_42" data-name="Rectangle 42" class="cls-18" transform="translate(5.446 0.134)">
          <path class="cls-41" d="M1,0H41a2,2,0,0,1,2,2V12a2,2,0,0,1-2,2H9A9,9,0,0,1,0,5V1A1,1,0,0,1,1,0Z"/>
          <path class="cls-42" d="M4,2.5H40a.5.5,0,0,1,.5.5v8a.5.5,0,0,1-.5.5H9A6.5,6.5,0,0,1,2.5,5V4A1.5,1.5,0,0,1,4,2.5Z"/>
        </g>
        <rect id="Rectangle_134" data-name="Rectangle 134" class="cls-7" width="14" height="8" transform="translate(8.446 3.134)"/>
      </g>
      <path id="Path_29" data-name="Path 29" class="cls-19" d="M1422.926,512.415a21.768,21.768,0,0,0-7.5,16.256s0,.01,0,.114c-.121,4.816,1.687,11.565,7.505,19.554" transform="translate(9.882 -16.184)"/>
      <path id="Path_30" data-name="Path 30" class="cls-20" d="M1415.416,512.415s2.333,3.191,2.416,9.487a30.186,30.186,0,0,1-2.416,11.478" transform="translate(43 -11)"/>
    </g>
    <g id="zegar">
      <g id="Group_25" data-name="Group 25" transform="translate(3)">
        <g id="Ellipse_4" data-name="Ellipse 4" class="cls-21" transform="translate(578 297)">
          <ellipse class="cls-41" cx="56" cy="55.5" rx="56" ry="55.5"/>
          <ellipse class="cls-42" cx="56" cy="55.5" rx="52" ry="51.5"/>
        </g>
        <ellipse id="Ellipse_17" data-name="Ellipse 17" class="cls-7" cx="56" cy="55.5" rx="56" ry="55.5" transform="translate(576 300)"/>
        <g id="Ellipse_5" data-name="Ellipse 5" class="cls-22" transform="translate(588 307)">
          <ellipse class="cls-41" cx="45.5" cy="45" rx="45.5" ry="45"/>
          <ellipse class="cls-42" cx="45.5" cy="45" rx="41.5" ry="41"/>
        </g>
        <g id="Group_13" data-name="Group 13" transform="translate(608.168 322.007)">
          <rect id="Rectangle_46" data-name="Rectangle 46" class="cls-5" width="7" height="30" rx="3.5" transform="translate(29.832 29.993) rotate(90)"/>
          <rect id="Rectangle_47" data-name="Rectangle 47" class="cls-5" width="7" height="37" rx="3.5" transform="translate(22.832 -0.007)"/>
        </g>
        <rect id="Rectangle_107" data-name="Rectangle 107" class="cls-6" width="42.018" height="8.039" rx="4.019" transform="matrix(0.629, -0.777, 0.777, 0.629, 631, 376.437)"/>
        <rect id="Rectangle_108" data-name="Rectangle 108" class="cls-6" width="22.406" height="4.519" rx="2.259" transform="matrix(0.629, -0.777, 0.777, 0.629, 645.302, 375.635)"/>
      </g>
    </g>
    <g id="sloik" transform="translate(717)">
      <g id="Group_14" data-name="Group 14" transform="translate(687.716 495.717)">
        <path id="Path_24" data-name="Path 24" class="cls-23" d="M5.329,0H31.211a5.329,5.329,0,0,1,5.329,5.329V44.913a5.329,5.329,0,0,1-5.329,5.329H5.329A5.329,5.329,0,0,1,0,44.913V5.329A5.329,5.329,0,0,1,5.329,0Z" transform="translate(2.284 3.806)"/>
        <rect id="Rectangle_51" data-name="Rectangle 51" class="cls-17" width="37" height="9" transform="translate(2.284 12.283)"/>
        <g id="Rectangle_48" data-name="Rectangle 48" class="cls-15" transform="translate(2.284 4.283)">
          <rect class="cls-41" width="37" height="50" rx="7"/>
          <rect class="cls-42" x="4" y="4" width="29" height="42" rx="3"/>
        </g>
        <g id="Rectangle_49" data-name="Rectangle 49" class="cls-18" transform="translate(0.284 1.283)">
          <rect class="cls-41" width="41" height="10" rx="5"/>
          <rect class="cls-42" x="2.5" y="2.5" width="36" height="5" rx="2.5"/>
        </g>
      </g>
      <rect id="Rectangle_105" data-name="Rectangle 105" class="cls-7" width="7" height="36" transform="translate(695 506)"/>
      <rect id="Rectangle_106" data-name="Rectangle 106" class="cls-12" width="2" height="34" transform="translate(716 508)"/>
    </g>
    <g id="okap" transform="translate(-3 -12)">
      <g id="Rectangle_53" data-name="Rectangle 53" class="cls-24" transform="translate(930.932 194.5) rotate(90)">
        <rect class="cls-41" width="199.443" height="86.781" rx="13"/>
        <rect class="cls-42" x="4" y="4" width="191.443" height="78.781" rx="9"/>
      </g>
      <rect id="Rectangle_30" data-name="Rectangle 30" class="cls-6" width="170.351" height="8.986" rx="4.493" transform="translate(908.662 370.031) rotate(-90)"/>
      <rect id="Rectangle_109" data-name="Rectangle 109" class="cls-7" width="23" height="172" transform="translate(851 195)"/>
      <g id="Rectangle_110" data-name="Rectangle 110" class="cls-15" transform="translate(930.932 194.5) rotate(90)">
        <rect class="cls-41" width="199.443" height="86.781" rx="13"/>
        <rect class="cls-42" x="4" y="4" width="191.443" height="78.781" rx="9"/>
      </g>
      <g id="Rectangle_52" data-name="Rectangle 52" class="cls-24" transform="translate(760 367)">
        <rect class="cls-41" width="254" height="41" rx="13"/>
        <rect class="cls-42" x="4" y="4" width="246" height="33" rx="9"/>
      </g>
      <rect id="Rectangle_120" data-name="Rectangle 120" class="cls-7" width="107" height="38" transform="translate(767 370)"/>
      <rect id="Rectangle_121" data-name="Rectangle 121" class="cls-6" width="25.351" height="14.986" transform="translate(965.662 400.031) rotate(-90)"/>
    </g>
    <g id="szafka1">
      <path id="Path_6" data-name="Path 6" class="cls-16" d="M10.535,0H240.041a10.6,10.6,0,0,1,10.535,10.657V242.834a10.6,10.6,0,0,1-10.535,10.657H10.535A10.6,10.6,0,0,1,0,242.834V10.657A10.6,10.6,0,0,1,10.535,0Z" transform="translate(506.924 550.377)"/>
      <g id="Rectangle_4" data-name="Rectangle 4" class="cls-15" transform="translate(507 550)">
        <rect class="cls-41" width="253" height="254"/>
        <rect class="cls-42" x="4" y="4" width="245" height="246"/>
      </g>
      <path id="Union_4" data-name="Union 4" class="cls-7" d="M6.5,237.5V8H0V0H249V8H13.5V237.5Z" transform="translate(508.5 558.5)"/>
      <rect id="Rectangle_87" data-name="Rectangle 87" class="cls-7" width="18" height="223" rx="6" transform="translate(744.5 617.5) rotate(90)"/>
      <rect id="Rectangle_88" data-name="Rectangle 88" class="cls-7" width="18" height="222" rx="9" transform="translate(744.5 773.5) rotate(90)"/>
      <g id="Group_4" data-name="Group 4" transform="translate(521.731 561.795)">
        <g id="Path_1" data-name="Path 1" class="cls-9" transform="translate(0)">
          <path class="cls-41" d="M 218.0312042236328 67.29476165771484 L 5.020450592041016 67.29476165771484 C 4.182075500488281 67.29476165771484 3.500013113021851 66.47444915771484 3.500013113021851 65.46613311767578 L 3.500013113021851 5.328634738922119 C 3.500013113021851 4.320322036743164 4.182075500488281 3.500009536743164 5.020450592041016 3.500009536743164 L 218.0312042236328 3.500009536743164 C 218.8695678710938 3.500009536743164 219.5516662597656 4.320322036743164 219.5516662597656 5.328634738922119 L 219.5516662597656 65.46613311767578 C 219.5516662597656 66.47444915771484 218.8695678710938 67.29476165771484 218.0312042236328 67.29476165771484 Z"/>
          <path class="cls-43" d="M 7 6.999992370605469 L 7 63.79477691650391 L 216.0516510009766 63.79477691650391 L 216.0516510009766 6.999992370605469 L 7 6.999992370605469 M 5.020462036132812 -7.62939453125e-06 L 218.0311889648438 -7.62939453125e-06 C 220.8039398193359 -7.62939453125e-06 223.0516510009766 2.385704040527344 223.0516510009766 5.328636169433594 L 223.0516510009766 65.46613311767578 C 223.0516510009766 68.40906524658203 220.8039398193359 70.79477691650391 218.0311889648438 70.79477691650391 L 5.020462036132812 70.79477691650391 C 2.247756958007812 70.79477691650391 0 68.40906524658203 0 65.46613311767578 L 0 5.328636169433594 C 0 2.385704040527344 2.247756958007812 -7.62939453125e-06 5.020462036132812 -7.62939453125e-06 Z"/>
        </g>
      </g>
      <rect id="Rectangle_24" data-name="Rectangle 24" class="cls-5" width="13" height="36" rx="6.5" transform="translate(652 591) rotate(90)"/>
      <rect id="Rectangle_89" data-name="Rectangle 89" class="cls-7" width="13" height="36" rx="6" transform="translate(651 593) rotate(90)"/>
      <g id="Group_27" data-name="Group 27" transform="translate(-1)">
        <g id="Path_3" data-name="Path 3" class="cls-9" transform="translate(632.005 641.725)">
          <path class="cls-41" d="M 108.7362823486328 143.2945556640625 L 5.040758609771729 143.2945556640625 C 4.191171646118164 143.2945556640625 3.499997615814209 142.5365600585938 3.499997615814209 141.6048583984375 L 3.499997615814209 5.189712524414062 C 3.499997615814209 4.257995128631592 4.191171646118164 3.499995231628418 5.040758609771729 3.499995231628418 L 108.7362823486328 3.499995231628418 C 109.5858688354492 3.499995231628418 110.2770385742188 4.257995128631592 110.2770385742188 5.189712524414062 L 110.2770385742188 141.6048583984375 C 110.2770385742188 142.5365600585938 109.5858688354492 143.2945556640625 108.7362823486328 143.2945556640625 Z"/>
          <path class="cls-43" d="M 6.999992370605469 7 L 6.999992370605469 139.7945556640625 L 106.7770462036133 139.7945556640625 L 106.7770462036133 7 L 6.999992370605469 7 M 5.040740966796875 0 L 108.7362670898438 0 C 111.5202178955078 0 113.7770462036133 2.323501586914062 113.7770462036133 5.189697265625 L 113.7770462036133 141.6048583984375 C 113.7770462036133 144.4710540771484 111.5202178955078 146.7945556640625 108.7362670898438 146.7945556640625 L 5.040740966796875 146.7945556640625 C 2.256820678710938 146.7945556640625 -7.62939453125e-06 144.4710540771484 -7.62939453125e-06 141.6048583984375 L -7.62939453125e-06 5.189697265625 C -7.62939453125e-06 2.323501586914062 2.256820678710938 0 5.040740966796875 0 Z"/>
        </g>
        <g id="Path_2" data-name="Path 2" class="cls-9" transform="translate(522.731 641.725)">
          <path class="cls-41" d="M 109.5258712768555 143.2945556640625 L 5.077352046966553 143.2945556640625 C 4.20759105682373 143.2945556640625 3.500004053115845 142.5365600585938 3.500004053115845 141.6048583984375 L 3.500004053115845 5.189712524414062 C 3.500004053115845 4.257995128631592 4.20759105682373 3.499995231628418 5.077352046966553 3.499995231628418 L 109.5258712768555 3.499995231628418 C 110.395637512207 3.499995231628418 111.1032180786133 4.257995128631592 111.1032180786133 5.189712524414062 L 111.1032180786133 141.6048583984375 C 111.1032180786133 142.5365600585938 110.395637512207 143.2945556640625 109.5258712768555 143.2945556640625 Z"/>
          <path class="cls-43" d="M 6.999984741210938 7 L 6.999984741210938 139.7945556640625 L 107.6032104492188 139.7945556640625 L 107.6032104492188 7 L 6.999984741210938 7 M 5.077362060546875 0 L 109.5258636474609 0 C 112.3300094604492 0 114.6032104492188 2.323501586914062 114.6032104492188 5.189697265625 L 114.6032104492188 141.6048583984375 C 114.6032104492188 144.4710540771484 112.3300094604492 146.7945556640625 109.5258636474609 146.7945556640625 L 5.077362060546875 146.7945556640625 C 2.273216247558594 146.7945556640625 -1.52587890625e-05 144.4710540771484 -1.52587890625e-05 141.6048583984375 L -1.52587890625e-05 5.189697265625 C -1.52587890625e-05 2.323501586914062 2.273216247558594 0 5.077362060546875 0 Z"/>
        </g>
        <rect id="Rectangle_25" data-name="Rectangle 25" class="cls-5" width="13" height="35" rx="6.5" transform="translate(647 700)"/>
        <rect id="Rectangle_26" data-name="Rectangle 26" class="cls-5" width="13" height="35" rx="6.5" transform="translate(610 700)"/>
        <rect id="Rectangle_90" data-name="Rectangle 90" class="cls-7" width="13" height="35" rx="6" transform="translate(608 702)"/>
        <rect id="Rectangle_91" data-name="Rectangle 91" class="cls-7" width="13" height="35" rx="6" transform="translate(645 702)"/>
      </g>
      <g id="Path_4" data-name="Path 4" class="cls-9" transform="translate(499.031 546.287)">
        <path class="cls-41" d="M 271.5283203125 8.179690361022949 L 8.600468635559082 8.179690361022949 C 7.1453537940979 8.179690361022949 5.771276473999023 7.797651290893555 4.830545902252197 7.13153600692749 C 4.256814956665039 6.725305080413818 4.000007629394531 6.31561279296875 4.000007629394531 6.08984375 C 4.000007629394531 5.86407470703125 4.256814956665039 5.454382419586182 4.830545902252197 5.04815149307251 C 5.771276473999023 4.382036209106445 7.1453537940979 3.999997615814209 8.600468635559082 3.999997615814209 L 271.5283203125 3.999997615814209 C 272.9834289550781 3.999997615814209 274.3575134277344 4.382036209106445 275.2982482910156 5.04815149307251 C 275.8719787597656 5.454420566558838 276.1287841796875 5.86407470703125 276.1287841796875 6.08984375 C 276.1287841796875 6.31561279296875 275.8719787597656 6.725266933441162 275.2982482910156 7.13153600692749 C 274.3575134277344 7.797651290893555 272.9834289550781 8.179690361022949 271.5283203125 8.179690361022949 Z"/>
        <path class="cls-43" d="M 8.600433349609375 -2.002716064453125e-05 L 271.5282897949219 -2.002716064453125e-05 C 276.2781982421875 -2.002716064453125e-05 280.1288146972656 2.72652530670166 280.1288146972656 6.08984375 C 280.1288146972656 9.45316219329834 276.2781982421875 12.17970752716064 271.5282897949219 12.17970752716064 L 8.600433349609375 12.17970752716064 C 3.85052490234375 12.17970752716064 -3.0517578125e-05 9.45316219329834 -3.0517578125e-05 6.08984375 C -3.0517578125e-05 2.72652530670166 3.85052490234375 -2.002716064453125e-05 8.600433349609375 -2.002716064453125e-05 Z"/>
      </g>
    </g>
    <g id="lodowka">
      <g id="Group_28" data-name="Group 28" transform="translate(-1)">
        <g id="Rectangle_9" data-name="Rectangle 9" class="cls-25" transform="translate(308 289)">
          <path class="cls-41" d="M30,0H173a30,30,0,0,1,30,30V501a14,14,0,0,1-14,14H14A14,14,0,0,1,0,501V30A30,30,0,0,1,30,0Z"/>
          <path class="cls-42" d="M30,4H173a26,26,0,0,1,26,26V501a10,10,0,0,1-10,10H14A10,10,0,0,1,4,501V30A26,26,0,0,1,30,4Z"/>
        </g>
        <rect id="Rectangle_18" data-name="Rectangle 18" class="cls-5" width="13" height="51" rx="6.5" transform="translate(472 652)"/>
        <rect id="Rectangle_93" data-name="Rectangle 93" class="cls-7" width="13" height="51" rx="6" transform="translate(470 654)"/>
        <rect id="Rectangle_19" data-name="Rectangle 19" class="cls-5" width="13" height="73" rx="6.5" transform="translate(472 477)"/>
        <rect id="Rectangle_94" data-name="Rectangle 94" class="cls-7" width="13" height="73" rx="6" transform="translate(470 479)"/>
        <g id="Path_9" data-name="Path 9" class="cls-26" transform="translate(308 587.872)">
          <path class="cls-41" d="M 197.8700561523438 28.12835502624512 L 5.129970550537109 28.12835502624512 C 4.720913410186768 28.12835502624512 4.343257427215576 28.11928939819336 4 28.10421752929688 L 4 4.024139881134033 C 4.343257427215576 4.009067058563232 4.720913410186768 4.000001907348633 5.129970550537109 4.000001907348633 L 197.8700561523438 4.000001907348633 C 198.2791137695312 4.000001907348633 198.65673828125 4.009065628051758 199 4.024138450622559 L 199 28.10421752929688 C 198.65673828125 28.11929130554199 198.2791137695312 28.12835502624512 197.8700561523438 28.12835502624512 Z"/>
          <path class="cls-43" d="M 8 8.000011444091797 L 8 24.12834548950195 L 195 24.12834548950195 L 195 8.000011444091797 L 8 8.000011444091797 M 5.129959106445312 1.1444091796875e-05 L 197.8700256347656 1.1444091796875e-05 C 200.7032623291016 1.1444091796875e-05 203 0.3828449249267578 203 0.8551120758056641 L 203 31.27321243286133 C 203 31.74551200866699 200.7032623291016 32.12834548950195 197.8700256347656 32.12834548950195 L 5.129959106445312 32.12834548950195 C 2.296768188476562 32.12834548950195 0 31.74551200866699 0 31.27321243286133 L 0 0.8551120758056641 C 0 0.3828449249267578 2.296768188476562 1.1444091796875e-05 5.129959106445312 1.1444091796875e-05 Z"/>
        </g>
        <path id="Rectangle_83" data-name="Rectangle 83" class="cls-7" d="M30,0h3a0,0,0,0,1,0,0V512a0,0,0,0,1,0,0H0a0,0,0,0,1,0,0V30A30,30,0,0,1,30,0Z" transform="translate(316 289)"/>
        <path id="Rectangle_84" data-name="Rectangle 84" class="cls-12" d="M0,0H0A14,14,0,0,1,14,14V499a0,0,0,0,1,0,0H0a0,0,0,0,1,0,0V0A0,0,0,0,1,0,0Z" transform="translate(489 298)"/>
        <g id="Path_28" data-name="Path 28" class="cls-27" transform="translate(308 587.872)">
          <path class="cls-41" d="M5.13,0H197.87C200.7,0,203,.383,203,.855V31.273c0,.472-2.3.855-5.13.855H5.13C2.3,32.128,0,31.746,0,31.273V.855C0,.383,2.3,0,5.13,0Z"/>
          <path class="cls-43" d="M 8 8.000011444091797 L 8 24.12834548950195 L 195 24.12834548950195 L 195 8.000011444091797 L 8 8.000011444091797 M 5.129959106445312 1.1444091796875e-05 L 197.8700256347656 1.1444091796875e-05 C 200.7032623291016 1.1444091796875e-05 203 0.3828449249267578 203 0.8551120758056641 L 203 31.27321243286133 C 203 31.74551200866699 200.7032623291016 32.12834548950195 197.8700256347656 32.12834548950195 L 5.129959106445312 32.12834548950195 C 2.296768188476562 32.12834548950195 0 31.74551200866699 0 31.27321243286133 L 0 0.8551120758056641 C 0 0.3828449249267578 2.296768188476562 1.1444091796875e-05 5.129959106445312 1.1444091796875e-05 Z"/>
        </g>
        <g id="Rectangle_92" data-name="Rectangle 92" class="cls-15" transform="translate(308 289)">
          <path class="cls-41" d="M30,0H173a30,30,0,0,1,30,30V501a14,14,0,0,1-14,14H14A14,14,0,0,1,0,501V30A30,30,0,0,1,30,0Z"/>
          <path class="cls-42" d="M30,4H173a26,26,0,0,1,26,26V501a10,10,0,0,1-10,10H14A10,10,0,0,1,4,501V30A26,26,0,0,1,30,4Z"/>
        </g>
      </g>
    </g>
    <g id="piekarnik" transform="translate(-5)">
      <g id="Rectangle_23" data-name="Rectangle 23" class="cls-28" transform="translate(757 550)">
        <rect class="cls-41" width="253" height="254"/>
        <rect class="cls-42" x="4" y="4" width="245" height="246"/>
      </g>
      <g id="Path_10" data-name="Path 10" class="cls-29" transform="translate(753.564 546.287)">
        <path class="cls-41" d="M 252.3490905761719 8.17970085144043 L 7.99294900894165 8.17970085144043 C 6.746949195861816 8.17970085144043 5.570520401000977 7.827807903289795 4.765270709991455 7.214308261871338 C 4.286091804504395 6.84920072555542 4.000020503997803 6.428843975067139 4.000020503997803 6.08984375 C 4.000020503997803 5.750843524932861 4.286091804504395 5.33048677444458 4.765270709991455 4.965379238128662 C 5.570520401000977 4.351879596710205 6.746949195861816 3.99998664855957 7.99294900894165 3.99998664855957 L 252.3490905761719 3.99998664855957 C 253.5950622558594 3.99998664855957 254.7715148925781 4.351879596710205 255.5768127441406 4.965415000915527 C 256.0559997558594 5.33048677444458 256.342041015625 5.750843524932861 256.342041015625 6.08984375 C 256.342041015625 6.428843975067139 256.0559997558594 6.84920072555542 255.5768127441406 7.214272499084473 C 254.7715148925781 7.827807903289795 253.5950622558594 8.17970085144043 252.3490905761719 8.17970085144043 Z"/>
        <path class="cls-43" d="M 7.992935180664062 1.049041748046875e-05 L 252.3491058349609 1.049041748046875e-05 C 256.763427734375 1.049041748046875e-05 260.3420104980469 2.726510047912598 260.3420104980469 6.08984375 C 260.3420104980469 9.453176498413086 256.763427734375 12.17967700958252 252.3491058349609 12.17967700958252 L 7.992935180664062 12.17967700958252 C 3.57855224609375 12.17967700958252 -3.0517578125e-05 9.453176498413086 -3.0517578125e-05 6.08984375 C -3.0517578125e-05 2.726510047912598 3.57855224609375 1.049041748046875e-05 7.992935180664062 1.049041748046875e-05 Z"/>
      </g>
      <rect id="Rectangle_100" data-name="Rectangle 100" class="cls-7" width="8" height="249" transform="translate(1005.5 558.5) rotate(90)"/>
      <rect id="Rectangle_104" data-name="Rectangle 104" class="cls-7" width="23" height="220" rx="4" transform="translate(990.5 588.5) rotate(90)"/>
      <rect id="Rectangle_101" data-name="Rectangle 101" class="cls-7" width="28" height="197" rx="10" transform="translate(981.5 752.5) rotate(90)"/>
      <g id="Group_31" data-name="Group 31">
        <g id="Group_6" data-name="Group 6" transform="translate(784.251 625.739)">
          <g id="Path_7-4" data-name="Path 7" class="cls-30">
            <path class="cls-41" d="M 192.2523193359375 146.7243347167969 L 5.385573863983154 146.7243347167969 C 4.84985876083374 145.7524871826172 4.000002384185791 143.2552185058594 4.000002384185791 139.3795013427734 L 4.000002384185791 11.34484195709229 C 4.000002384185791 7.469137668609619 4.84985876083374 4.971861362457275 5.385573863983154 4.000008106231689 L 192.2523193359375 4.000008106231689 C 192.7880401611328 4.971861362457275 193.6378936767578 7.469137668609619 193.6378936767578 11.34484195709229 L 193.6378936767578 139.3795013427734 C 193.6378936767578 143.2552185058594 192.7880401611328 145.7524871826172 192.2523193359375 146.7243347167969 Z"/>
            <path class="cls-43" d="M 8.283889770507812 8.000015258789062 C 8.122879028320312 8.887298583984375 7.999984741210938 10.01931762695312 7.999984741210938 11.3448486328125 L 7.999984741210938 139.3795013427734 C 7.999984741210938 140.7050323486328 8.122879028320312 141.8370513916016 8.283889770507812 142.7243347167969 L 189.3539733886719 142.7243347167969 C 189.5149841308594 141.8370513916016 189.6378784179688 140.7050476074219 189.6378784179688 139.3795013427734 L 189.6378784179688 11.3448486328125 C 189.6378784179688 10.01930236816406 189.5149841308594 8.887298583984375 189.3539733886719 8.000015258789062 L 8.283889770507812 8.000015258789062 M 4.448440551757812 1.52587890625e-05 L 193.189453125 1.52587890625e-05 C 195.646240234375 1.52587890625e-05 197.6378784179688 5.079238891601562 197.6378784179688 11.3448486328125 L 197.6378784179688 139.3795013427734 C 197.6378784179688 145.6451110839844 195.646240234375 150.7243347167969 193.189453125 150.7243347167969 L 4.448440551757812 150.7243347167969 C 1.991653442382812 150.7243347167969 -1.52587890625e-05 145.6451110839844 -1.52587890625e-05 139.3795013427734 L -1.52587890625e-05 11.3448486328125 C -1.52587890625e-05 5.079238891601562 1.991653442382812 1.52587890625e-05 4.448440551757812 1.52587890625e-05 Z"/>
          </g>
        </g>
        <g id="Rectangle_78" data-name="Rectangle 78" class="cls-31" transform="translate(921 643) rotate(90)">
          <rect class="cls-41" width="16" height="76" rx="8"/>
          <rect class="cls-42" x="4" y="4" width="8" height="68" rx="4"/>
        </g>
        <rect id="Rectangle_102" data-name="Rectangle 102" class="cls-7" width="16" height="76" rx="8" transform="translate(920 646) rotate(90)"/>
        <rect id="Rectangle_31" data-name="Rectangle 31" class="cls-6" width="83.556" height="15.986" rx="7.993" transform="matrix(0.629, -0.777, 0.777, 0.629, 904.683, 752.718)"/>
        <rect id="Rectangle_99" data-name="Rectangle 99" class="cls-6" width="44.556" height="8.986" rx="4.493" transform="matrix(0.629, -0.777, 0.777, 0.629, 933.123, 751.123)"/>
      </g>
      <g id="Group_30" data-name="Group 30" transform="translate(-3 5)">
        <g id="Group_5" data-name="Group 5" transform="translate(773.055 561.795)">
          <g id="Path_7-5" data-name="Path 7" class="cls-9" transform="translate(0)">
            <path class="cls-41" d="M 216.0926818847656 38.36787414550781 L 4.975803375244141 38.36787414550781 C 4.308988571166992 38.36787414550781 3.796532869338989 38.21825790405273 3.499990701675415 38.08100891113281 L 3.499990701675415 3.78685998916626 C 3.796532869338989 3.649610757827759 4.308988571166992 3.499997615814209 4.975803375244141 3.499997615814209 L 216.0926818847656 3.499997615814209 C 216.7594909667969 3.499997615814209 217.2719421386719 3.649610757827759 217.5684967041016 3.78685998916626 L 217.5684967041016 38.08100891113281 C 217.2719421386719 38.21825790405273 216.7594909667969 38.36787414550781 216.0926818847656 38.36787414550781 Z"/>
            <path class="cls-43" d="M 6.999984741210938 7.000007629394531 L 6.999984741210938 34.86776351928711 L 214.0684967041016 34.85768127441406 L 214.0684967041016 7.000007629394531 L 6.999984741210938 7.000007629394531 M 4.975814819335938 7.62939453125e-06 L 216.0926666259766 7.62939453125e-06 C 218.8406982421875 7.62939453125e-06 221.0684967041016 1.410900115966797 221.0684967041016 3.151329040527344 L 221.0684967041016 38.7165412902832 C 221.0684967041016 40.45697021484375 218.8406982421875 41.86786270141602 216.0926666259766 41.86786270141602 L 4.975814819335938 41.86786270141602 C 2.227737426757812 41.86786270141602 -1.52587890625e-05 40.45697021484375 -1.52587890625e-05 38.7165412902832 L -1.52587890625e-05 3.151329040527344 C -1.52587890625e-05 1.410900115966797 2.227737426757812 7.62939453125e-06 4.975814819335938 7.62939453125e-06 Z"/>
          </g>
        </g>
        <rect id="Rectangle_112" data-name="Rectangle 112" class="cls-7" width="16" height="16" rx="8" transform="translate(805 576) rotate(90)"/>
        <rect id="Rectangle_113" data-name="Rectangle 113" class="cls-7" width="16" height="16" rx="8" transform="translate(831 576) rotate(90)"/>
        <rect id="Rectangle_114" data-name="Rectangle 114" class="cls-7" width="16" height="16" rx="8" transform="translate(950 576) rotate(90)"/>
        <rect id="Rectangle_115" data-name="Rectangle 115" class="cls-7" width="16" height="16" rx="8" transform="translate(975 576) rotate(90)"/>
        <g id="Rectangle_33" data-name="Rectangle 33" class="cls-32" transform="translate(976 575) rotate(90)">
          <rect class="cls-41" width="16" height="16" rx="8"/>
          <rect class="cls-42" x="1.5" y="1.5" width="13" height="13" rx="6.5"/>
        </g>
        <g id="Rectangle_80" data-name="Rectangle 80" class="cls-32" transform="translate(951 575) rotate(90)">
          <rect class="cls-41" width="16" height="16" rx="8"/>
          <rect class="cls-42" x="1.5" y="1.5" width="13" height="13" rx="6.5"/>
        </g>
        <g id="Rectangle_34" data-name="Rectangle 34" class="cls-33" transform="translate(921 575) rotate(90)">
          <rect class="cls-41" width="16" height="76" rx="8"/>
          <rect class="cls-42" x="2.5" y="2.5" width="11" height="71" rx="5.5"/>
        </g>
        <g id="Rectangle_79" data-name="Rectangle 79" class="cls-32" transform="translate(808 575) rotate(90)">
          <rect class="cls-41" width="16" height="16" rx="8"/>
          <rect class="cls-42" x="1.5" y="1.5" width="13" height="13" rx="6.5"/>
        </g>
        <g id="Rectangle_32" data-name="Rectangle 32" class="cls-32" transform="translate(833 575) rotate(90)">
          <rect class="cls-41" width="16" height="16" rx="8"/>
          <rect class="cls-42" x="1.5" y="1.5" width="13" height="13" rx="6.5"/>
        </g>
      </g>
    </g>
    <g id="Group_32" data-name="Group 32" transform="translate(-70 3)">
      <path id="Path_8" data-name="Path 8" class="cls-16" d="M10.657,0H242.834a10.657,10.657,0,0,1,10.657,10.657V242.834a10.657,10.657,0,0,1-10.657,10.657H10.657A10.657,10.657,0,0,1,0,242.834V10.657A10.657,10.657,0,0,1,10.657,0Z" transform="translate(1312.411 547.377)"/>
      <g id="Rectangle_12" data-name="Rectangle 12" class="cls-15" transform="translate(1312 547)">
        <rect class="cls-41" width="254" height="254"/>
        <rect class="cls-42" x="4" y="4" width="246" height="246"/>
      </g>
      <g id="Path_5" data-name="Path 5" class="cls-9" transform="translate(1309.366 543.287)">
        <path class="cls-41" d="M 257.0484924316406 8.179690361022949 L 8.141807556152344 8.179690361022949 C 5.572499752044678 8.179690361022949 4 6.826612949371338 4 6.08984375 C 4 5.353074550628662 5.572499752044678 3.999997615814209 8.141807556152344 3.999997615814209 L 257.0484924316406 3.999997615814209 C 259.6177978515625 3.999997615814209 261.1903076171875 5.353074550628662 261.1903076171875 6.08984375 C 261.1903076171875 6.826612949371338 259.6177978515625 8.179690361022949 257.0484924316406 8.179690361022949 Z"/>
        <path class="cls-43" d="M 8.141815185546875 1.049041748046875e-05 L 257.0484924316406 1.049041748046875e-05 C 261.5450744628906 1.049041748046875e-05 265.1903076171875 2.726510047912598 265.1903076171875 6.08984375 C 265.1903076171875 9.453176498413086 261.5450744628906 12.17967700958252 257.0484924316406 12.17967700958252 L 8.141815185546875 12.17967700958252 C 3.64520263671875 12.17967700958252 0 9.453176498413086 0 6.08984375 C 0 2.726510047912598 3.64520263671875 1.049041748046875e-05 8.141815185546875 1.049041748046875e-05 Z"/>
      </g>
      <rect id="Rectangle_117" data-name="Rectangle 117" class="cls-7" width="8" height="249" transform="translate(1564.5 555.5) rotate(90)"/>
      <rect id="Rectangle_127" data-name="Rectangle 127" class="cls-7" width="18" height="222" rx="6" transform="translate(1550.5 617.5) rotate(90)"/>
      <rect id="Rectangle_128" data-name="Rectangle 128" class="cls-7" width="18" height="222" rx="6" transform="translate(1550.5 694.5) rotate(90)"/>
      <rect id="Rectangle_129" data-name="Rectangle 129" class="cls-7" width="18" height="222" rx="6" transform="translate(1550.5 772.5) rotate(90)"/>
      <g id="Group_35" data-name="Group 35">
        <g id="Group_2" data-name="Group 2" transform="translate(1328.776 561.594)">
          <g id="Path_7-6" data-name="Path 7" class="cls-9">
            <path class="cls-41" d="M 215.6586608886719 66.79476165771484 L 4.965841770172119 66.79476165771484 C 4.508998394012451 66.79476165771484 3.999998331069946 66.24909973144531 3.999998331069946 65.46613311767578 L 3.999998331069946 5.328634738922119 C 3.999998331069946 4.545665740966797 4.508998394012451 4.000009536743164 4.965841770172119 4.000009536743164 L 215.6586608886719 4.000009536743164 C 216.1154937744141 4.000009536743164 216.6244964599609 4.545665740966797 216.6244964599609 5.328634738922119 L 216.6244964599609 65.46613311767578 C 216.6244964599609 66.24909973144531 216.1154937744141 66.79476165771484 215.6586608886719 66.79476165771484 Z"/>
            <path class="cls-43" d="M 8 7.999992370605469 L 8 62.79477691650391 L 212.6244964599609 62.79477691650391 L 212.6244964599609 7.999992370605469 L 8 7.999992370605469 M 4.9658203125 -7.62939453125e-06 L 215.6586456298828 -7.62939453125e-06 C 218.4012145996094 -7.62939453125e-06 220.6244964599609 2.385704040527344 220.6244964599609 5.328636169433594 L 220.6244964599609 65.46613311767578 C 220.6244964599609 68.40906524658203 218.4012145996094 70.79477691650391 215.6586456298828 70.79477691650391 L 4.9658203125 70.79477691650391 C 2.223281860351562 70.79477691650391 0 68.40906524658203 0 65.46613311767578 L 0 5.328636169433594 C 0 2.385704040527344 2.223281860351562 -7.62939453125e-06 4.9658203125 -7.62939453125e-06 Z"/>
          </g>
        </g>
        <rect id="Rectangle_27" data-name="Rectangle 27" class="cls-5" width="13" height="36" rx="6.5" transform="translate(1458 590) rotate(90)"/>
        <rect id="Rectangle_130" data-name="Rectangle 130" class="cls-7" width="13" height="36" rx="6" transform="translate(1458 592) rotate(90)"/>
      </g>
      <g id="Group_33" data-name="Group 33">
        <g id="Group_3" data-name="Group 3" transform="translate(1329 638)">
          <g id="Rectangle_15" data-name="Rectangle 15" class="cls-22">
            <rect class="cls-41" width="221" height="71" rx="7"/>
            <rect class="cls-42" x="4" y="4" width="213" height="63" rx="3"/>
          </g>
        </g>
        <rect id="Rectangle_28" data-name="Rectangle 28" class="cls-5" width="13" height="36" rx="6.5" transform="translate(1458 668) rotate(90)"/>
        <rect id="Rectangle_131" data-name="Rectangle 131" class="cls-7" width="13" height="36" rx="6" transform="translate(1458 670) rotate(90)"/>
      </g>
      <g id="Group_34" data-name="Group 34">
        <g id="Group_1" data-name="Group 1" transform="translate(1329 715)">
          <g id="Rectangle_16" data-name="Rectangle 16" class="cls-22">
            <rect class="cls-41" width="221" height="70" rx="7"/>
            <rect class="cls-42" x="4" y="4" width="213" height="62" rx="3"/>
          </g>
        </g>
        <rect id="Rectangle_29" data-name="Rectangle 29" class="cls-5" width="13" height="36" rx="6.5" transform="translate(1458 744) rotate(90)"/>
        <rect id="Rectangle_132" data-name="Rectangle 132" class="cls-7" width="13" height="36" rx="6" transform="translate(1458 747) rotate(90)"/>
      </g>
    </g>
    <g id="szafka_z_mikrofala" data-name="szafka z mikrofala" transform="translate(-7)">
      <path id="Path_14" data-name="Path 14" class="cls-16" d="M10.657,0H242.834a10.657,10.657,0,0,1,10.657,10.657V242.834a10.657,10.657,0,0,1-10.657,10.657H10.657A10.657,10.657,0,0,1,0,242.834V10.657A10.657,10.657,0,0,1,10.657,0Z" transform="translate(1004.01 550.377)"/>
      <g id="Rectangle_35" data-name="Rectangle 35" class="cls-15" transform="translate(1004 550)">
        <rect class="cls-41" width="254" height="254"/>
        <rect class="cls-42" x="4" y="4" width="246" height="246"/>
      </g>
      <g id="Path_17" data-name="Path 17" class="cls-9" transform="translate(1001.726 546.287)">
        <path class="cls-41" d="M 252.3490905761719 8.17970085144043 L 7.99294900894165 8.17970085144043 C 6.746949195861816 8.17970085144043 5.570520401000977 7.827807903289795 4.765270709991455 7.214308261871338 C 4.286091804504395 6.84920072555542 4.000020503997803 6.428843975067139 4.000020503997803 6.08984375 C 4.000020503997803 5.750843524932861 4.286091804504395 5.33048677444458 4.765270709991455 4.965379238128662 C 5.570520401000977 4.351879596710205 6.746949195861816 3.99998664855957 7.99294900894165 3.99998664855957 L 252.3490905761719 3.99998664855957 C 253.5950622558594 3.99998664855957 254.7715148925781 4.351879596710205 255.5768127441406 4.965415000915527 C 256.0559997558594 5.33048677444458 256.342041015625 5.750843524932861 256.342041015625 6.08984375 C 256.342041015625 6.428843975067139 256.0559997558594 6.84920072555542 255.5768127441406 7.214272499084473 C 254.7715148925781 7.827807903289795 253.5950622558594 8.17970085144043 252.3490905761719 8.17970085144043 Z"/>
        <path class="cls-43" d="M 7.992935180664062 1.049041748046875e-05 L 252.3491058349609 1.049041748046875e-05 C 256.763427734375 1.049041748046875e-05 260.3420104980469 2.726510047912598 260.3420104980469 6.08984375 C 260.3420104980469 9.453176498413086 256.763427734375 12.17967700958252 252.3491058349609 12.17967700958252 L 7.992935180664062 12.17967700958252 C 3.57855224609375 12.17967700958252 -3.0517578125e-05 9.453176498413086 -3.0517578125e-05 6.08984375 C -3.0517578125e-05 2.726510047912598 3.57855224609375 1.049041748046875e-05 7.992935180664062 1.049041748046875e-05 Z"/>
      </g>
      <rect id="Rectangle_116" data-name="Rectangle 116" class="cls-7" width="8" height="249" transform="translate(1254.5 558.5) rotate(90)"/>
      <g id="szafka_z_mikrofala-2" data-name="szafka z mikrofala">
        <rect id="Rectangle_126" data-name="Rectangle 126" class="cls-7" width="18" height="222" rx="6" transform="translate(1242.5 773.5) rotate(90)"/>
        <rect id="Rectangle_125" data-name="Rectangle 125" class="cls-7" width="18" height="222" rx="6" transform="translate(1242.5 617.5) rotate(90)"/>
        <g id="Group_8" data-name="Group 8" transform="translate(1020.198 564.594)">
          <g id="Path_1-2" data-name="Path 1" class="cls-9">
            <path class="cls-41" d="M 216.9341278076172 63.9965705871582 L 4.995192050933838 63.9965705871582 C 4.446442127227783 63.9965705871582 4.000004291534424 63.49504089355469 4.000004291534424 62.8785400390625 L 4.000004291534424 5.118009567260742 C 4.000004291534424 4.501541137695312 4.446442127227783 4.000009536743164 4.995192050933838 4.000009536743164 L 216.9341278076172 4.000009536743164 C 217.4828796386719 4.000009536743164 217.9293212890625 4.501541137695312 217.9293212890625 5.118009567260742 L 217.9293212890625 62.8785400390625 C 217.9293212890625 63.49504089355469 217.4828796386719 63.9965705871582 216.9341278076172 63.9965705871582 Z"/>
            <path class="cls-43" d="M 7.999984741210938 8.000003814697266 L 7.999984741210938 59.99657440185547 L 213.9293060302734 59.99657440185547 L 213.9293060302734 8.000003814697266 L 7.999984741210938 8.000003814697266 M 4.995193481445312 7.62939453125e-06 L 216.9341278076172 7.62939453125e-06 C 219.6929168701172 7.62939453125e-06 221.9293060302734 2.291435241699219 221.9293060302734 5.118003845214844 L 221.9293060302734 62.8785400390625 C 221.9293060302734 65.70518493652344 219.6929168701172 67.99657440185547 216.9341278076172 67.99657440185547 L 4.995193481445312 67.99657440185547 C 2.236404418945312 67.99657440185547 -1.52587890625e-05 65.70518493652344 -1.52587890625e-05 62.8785400390625 L -1.52587890625e-05 5.118003845214844 C -1.52587890625e-05 2.291435241699219 2.236404418945312 7.62939453125e-06 4.995193481445312 7.62939453125e-06 Z"/>
          </g>
        </g>
        <rect id="Rectangle_75" data-name="Rectangle 75" class="cls-5" width="13" height="36" rx="6.5" transform="translate(1150 591) rotate(90)"/>
        <rect id="Rectangle_123" data-name="Rectangle 123" class="cls-7" width="13" height="36" rx="6" transform="translate(1149 593) rotate(90)"/>
      </g>
      <g id="Path_16" data-name="Path 16" class="cls-9" transform="translate(1020.198 637.552)">
        <path class="cls-41" d="M 212.0970001220703 146.7243194580078 L 9.832317352294922 146.7243194580078 C 8.257972717285156 146.7243194580078 6.72594165802002 146.4618225097656 5.518441677093506 145.9852294921875 C 4.658814907073975 145.6459045410156 4.190348148345947 145.2856140136719 4.000004291534424 145.0931091308594 L 4.000004291534424 5.631242275238037 C 4.190348148345947 5.43873119354248 4.658814907073975 5.078454494476318 5.518441677093506 4.739136219024658 C 6.725973129272461 4.262511253356934 8.257972717285156 4.000010967254639 9.832317352294922 4.000010967254639 L 212.0970001220703 4.000010967254639 C 213.6713409423828 4.000010967254639 215.2033538818359 4.262511253356934 216.4108734130859 4.739136219024658 C 217.2705078125 5.078454494476318 217.7389678955078 5.43873119354248 217.9293212890625 5.631242275238037 L 217.9293212890625 145.0931091308594 C 217.7389678955078 145.2856140136719 217.2705078125 145.6459045410156 216.4108734130859 145.9852294921875 C 215.2033843994141 146.4618225097656 213.6713409423828 146.7243194580078 212.0970001220703 146.7243194580078 Z"/>
        <path class="cls-43" d="M 9.832305908203125 7.999984741210938 C 9.105377197265625 7.999984741210938 8.49151611328125 8.072708129882812 7.999984741210938 8.170623779296875 L 7.999984741210938 142.5537109375 C 8.49151611328125 142.6516265869141 9.105377197265625 142.7243499755859 9.832305908203125 142.7243499755859 L 212.0970153808594 142.7243499755859 C 212.8239288330078 142.7243499755859 213.4377746582031 142.6516265869141 213.9293060302734 142.5537109375 L 213.9293060302734 8.170608520507812 C 213.4377746582031 8.072708129882812 212.8239288330078 7.999984741210938 212.0970153808594 7.999984741210938 L 9.832305908203125 7.999984741210938 M 9.832305908203125 -1.52587890625e-05 L 212.0970153808594 -1.52587890625e-05 C 217.5272369384766 -1.52587890625e-05 221.9293060302734 2.385696411132812 221.9293060302734 5.328628540039062 L 221.9293060302734 145.3957061767578 C 221.9293060302734 148.3386383056641 217.5272369384766 150.7243499755859 212.0970153808594 150.7243499755859 L 9.832305908203125 150.7243499755859 C 4.402053833007812 150.7243499755859 -1.52587890625e-05 148.3386383056641 -1.52587890625e-05 145.3957061767578 L -1.52587890625e-05 5.328628540039062 C -1.52587890625e-05 2.385696411132812 4.402053833007812 -1.52587890625e-05 9.832305908203125 -1.52587890625e-05 Z"/>
      </g>
      <rect id="Rectangle_36" data-name="Rectangle 36" class="cls-5" width="12" height="35" rx="6" transform="translate(1215 697)"/>
      <rect id="Rectangle_124" data-name="Rectangle 124" class="cls-7" width="13" height="36" rx="6" transform="translate(1212.5 697.5)"/>
    </g>
    <rect id="Rectangle_74" data-name="Rectangle 74" class="cls-34" width="1920" height="1080"/>
    <g id="lodowkaaa" transform="translate(22.049 -227.906)">
      <rect id="Rectangle_155" data-name="Rectangle 155" class="cls-35" width="1019.5" height="991.923" transform="translate(937.451 288.906) rotate(90)"/>
      <g id="Group_44" data-name="Group 44" transform="translate(-163.049 289)">
        <g id="Rectangle_152" data-name="Rectangle 152" class="cls-36" transform="translate(0 -0.094)">
          <rect class="cls-41" width="363" height="1019" rx="17"/>
          <rect class="cls-42" x="7.5" y="7.5" width="348" height="1004" rx="9.5"/>
        </g>
        <g id="Group_43" data-name="Group 43" transform="translate(350)">
          <g id="Rectangle_153" data-name="Rectangle 153" class="cls-37" transform="translate(0 -0.094)">
            <rect class="cls-41" width="363" height="703" rx="14"/>
            <rect class="cls-42" x="7.5" y="7.5" width="348" height="688" rx="6.5"/>
          </g>
          <rect id="Rectangle_154" data-name="Rectangle 154" class="cls-5" width="17" height="100" rx="8.5" transform="translate(292 456.906)"/>
          <rect id="Rectangle_159" data-name="Rectangle 159" class="cls-38" width="18" height="100" rx="9" transform="translate(285 459.906)"/>
        </g>
      </g>
      <rect id="Rectangle_156" data-name="Rectangle 156" class="cls-38" width="305" height="998" transform="translate(-119.049 299.906)"/>
      <rect id="Rectangle_157" data-name="Rectangle 157" class="cls-38" width="103" height="684" transform="translate(192.951 299.906)"/>
      <rect id="Rectangle_158" data-name="Rectangle 158" class="cls-39" width="33" height="675" rx="4" transform="translate(502.951 302.906)"/>
    </g>
    <g id="Rectangle_164" data-name="Rectangle 164" class="cls-40" transform="translate(-2)">
      <rect class="cls-41" width="1925" height="61"/>
      <rect class="cls-42" x="0.5" y="0.5" width="1924" height="60"/>
    </g>
  </g>
</svg>
