<?xml version="1.0" encoding="UTF-8" standalone="no"?>
<svg
   xmlns:dc="http://purl.org/dc/elements/1.1/"
   xmlns:cc="http://creativecommons.org/ns#"
   xmlns:rdf="http://www.w3.org/1999/02/22-rdf-syntax-ns#"
   xmlns:svg="http://www.w3.org/2000/svg"
   xmlns="http://www.w3.org/2000/svg"
   xmlns:sodipodi="http://sodipodi.sourceforge.net/DTD/sodipodi-0.dtd"
   xmlns:inkscape="http://www.inkscape.org/namespaces/inkscape"
   inkscape:version="1.1-dev (f9311a1, 2019-12-25)"
   sodipodi:docname="food.svg"
   version="1.1"
   width="512"
   viewBox="0 0 512 512"
   height="512"
   enable-background="new 0 0 512 512"
   id="Capa_1">
  <metadata
     id="metadata170">
    <rdf:RDF>
      <cc:Work
         rdf:about="">
        <dc:format>image/svg+xml</dc:format>
        <dc:type
           rdf:resource="http://purl.org/dc/dcmitype/StillImage" />
      </cc:Work>
    </rdf:RDF>
  </metadata>
  <defs
     id="defs168" />
  <sodipodi:namedview
     inkscape:current-layer="Capa_1"
     inkscape:window-maximized="0"
     inkscape:window-y="23"
     inkscape:window-x="0"
     inkscape:cy="266.02522"
     inkscape:cx="-7.9563977"
     inkscape:zoom="0.46413366"
     inkscape:object-paths="true"
     showgrid="false"
     id="namedview166"
     inkscape:window-height="797"
     inkscape:window-width="1114"
     inkscape:pageshadow="2"
     inkscape:pageopacity="0"
     guidetolerance="10"
     gridtolerance="10"
     objecttolerance="10"
     borderopacity="1"
     inkscape:document-rotation="0"
     bordercolor="#666666"
     pagecolor="#ffffff" />
  <g
     id="g163">
    <path
       id="path135"
       d="m438.178 76.192c-47.536-48.158-110.952-75.201-178.567-76.147-7.212-.1-13.522 4.986-14.926 12.091-5.416 27.411-28.68 47.918-56.573 49.869-4.48.314-8.585 2.618-11.184 6.281-2.6 3.663-3.422 8.297-2.239 12.63 5.586 20.476 1.736 43.305-10.561 62.633-12.724 20-32.446 33.267-54.109 36.397-8.034 1.161-13.688 8.503-12.755 16.568.278 2.408.419 4.826.419 7.188 0 34.285-27.892 62.177-62.178 62.177-5.317 0-10.605-.674-15.714-2.004-4.73-1.233-9.763-.081-13.487 3.083-3.726 3.164-5.676 7.943-5.227 12.81 5.829 63.268 34.927 121.852 81.932 164.958 47.303 43.382 108.727 67.274 172.958 67.274 68.38 0 132.667-26.628 181.02-74.981 48.352-48.352 74.98-112.639 74.98-181.019 0-67.744-26.205-131.601-73.789-179.808zm-22.404 339.614c-42.687 42.686-99.44 66.194-159.807 66.194-56.702 0-110.927-21.09-152.684-59.384-36.79-33.739-61.153-78.204-69.795-126.759.671.015 1.344.022 2.016.022 49.797 0 90.498-39.694 92.127-89.102 24.934-7.147 46.979-23.816 61.809-47.125 13.689-21.518 19.664-46.432 17.21-70.384 29.678-7.629 53.879-29.733 64.052-58.777 55.345 3.547 106.87 27.006 146.125 66.776 42.007 42.557 65.141 98.93 65.141 158.733-.001 60.367-23.509 117.121-66.194 159.806z" />
    <path
       id="path137"
       d="m176.638 270.685c-28.681 0-52.015 23.334-52.015 52.015s23.334 52.015 52.015 52.015c28.682 0 52.016-23.334 52.016-52.015-.001-28.681-23.335-52.015-52.016-52.015zm0 74.03c-12.139 0-22.015-9.876-22.015-22.015s9.876-22.015 22.015-22.015c12.14 0 22.016 9.876 22.016 22.015-.001 12.139-9.877 22.015-22.016 22.015z" />
    <path
       id="path139"
       d="m301.777 182.914c30.281 0 54.917-24.636 54.917-54.917s-24.636-54.917-54.917-54.917-54.917 24.636-54.917 54.917 24.635 54.917 54.917 54.917zm0-79.834c13.739 0 24.917 11.178 24.917 24.917 0 13.74-11.178 24.917-24.917 24.917s-24.917-11.178-24.917-24.917c0-13.74 11.177-24.917 24.917-24.917z" />
    <path
       id="path141"
       d="m328.011 312.074c-27.751 0-50.328 22.577-50.328 50.328s22.577 50.328 50.328 50.328 50.328-22.577 50.328-50.328-22.577-50.328-50.328-50.328zm0 70.656c-11.209 0-20.328-9.119-20.328-20.328s9.119-20.328 20.328-20.328 20.328 9.119 20.328 20.328-9.119 20.328-20.328 20.328z" />
    <path
       id="path143"
       d="m448.725 234.768c0-27.751-22.577-50.328-50.328-50.328s-50.327 22.577-50.327 50.328 22.576 50.328 50.327 50.328 50.328-22.577 50.328-50.328zm-50.328 20.328c-11.208 0-20.327-9.119-20.327-20.328s9.119-20.328 20.327-20.328c11.209 0 20.328 9.119 20.328 20.328s-9.119 20.328-20.328 20.328z" />
    <path
       id="path145"
       d="m383.687 140.08c1.276 6.15 6.276 10.964 12.506 11.905 6.19.934 12.491-2.252 15.423-7.775 2.934-5.525 2.115-12.488-2.108-17.132-4.216-4.636-11.06-6.188-16.852-3.779-6.585 2.74-10.272 9.814-8.969 16.781z" />
    <path
       id="path147"
       d="m444.517 324.14c-1.176-6.147-6.34-10.972-12.496-11.898-6.185-.931-12.499 2.243-15.433 7.769-2.934 5.524-2.105 12.499 2.113 17.14 4.223 4.646 11.053 6.158 16.847 3.77 6.502-2.681 10.405-9.862 8.969-16.781z" />
    <path
       id="path149"
       d="m191.267 217.7c1.15 6.143 6.358 10.982 12.496 11.905 6.202.933 12.477-2.258 15.433-7.775 2.962-5.528 2.077-12.479-2.11-17.132-4.201-4.668-11.069-6.16-16.85-3.779-6.502 2.68-10.405 9.864-8.969 16.781z" />
    <path
       id="path151"
       d="m250.677 423.84c-1.29-6.153-6.263-10.962-12.505-11.909-6.185-.938-12.487 2.257-15.425 7.769-2.944 5.523-2.105 12.498 2.109 17.14 4.209 4.636 11.066 6.181 16.85 3.78 6.49-2.693 10.407-9.862 8.971-16.78z" />
    <path
       id="path153"
       d="m316.127 222.41c-1.955-5.978-7.261-10.301-13.613-10.626-6.261-.32-12.191 3.471-14.587 9.246-2.396 5.774-.878 12.66 3.779 16.853 4.671 4.206 11.583 5.054 17.132 2.107 6.271-3.331 9.302-10.803 7.289-17.58z" />
    <path
       id="path155"
       d="m279.137 295.89c5.225-3.44 7.747-10.067 6.222-16.118-1.528-6.067-6.839-10.667-13.073-11.271-6.231-.603-12.361 2.833-15.028 8.513-2.662 5.668-1.49 12.581 2.949 17.017 4.983 4.978 13.077 5.806 18.93 1.859z" />
    <path
       id="path157"
       d="m90.326 324.14c-1.176-6.147-6.34-10.972-12.496-11.898-6.189-.932-12.498 2.242-15.434 7.769-2.935 5.526-2.11 12.496 2.11 17.14 4.22 4.643 11.059 6.163 16.85 3.77 6.492-2.683 10.42-9.862 8.97-16.781z" />
    <path
       id="path159"
       d="m90.607 104.03c28.682 0 52.016-23.334 52.016-52.015-.001-28.681-23.335-52.015-52.016-52.015s-52.015 23.334-52.015 52.015 23.334 52.015 52.015 52.015zm0-74.03c12.14 0 22.016 9.876 22.016 22.015s-9.876 22.015-22.016 22.015c-12.139 0-22.015-9.876-22.015-22.015s9.876-22.015 22.015-22.015z" />
    <path
       id="path161"
       d="m1.736 169.21c2.898 5.531 9.277 8.706 15.435 7.772 6.197-.939 11.269-5.751 12.505-11.902 1.233-6.137-1.635-12.584-7.004-15.795-5.383-3.22-12.358-2.699-17.216 1.265-5.546 4.527-6.934 12.366-3.72 18.66z" />
  </g>
  <path
     inkscape:connector-curvature="0"
     id="path1001"
     d="M 234.56106,510.84888 C 177.99746,505.23207 129.72493,484.77788 88.16013,448.81539 41.897893,408.78861 11.762974,353.3557 2.7707474,291.7424 0.72218736,277.706 1.3128142,272.79676 5.6197427,268.0618 c 3.677723,-4.04324 8.6113623,-5.08022 16.2277023,-3.41085 8.119369,1.77962 21.152401,1.60807 28.6694,-0.37738 22.337127,-5.89986 38.687073,-21.91275 45.272914,-44.33961 1.253337,-4.268 1.625779,-7.85473 1.812414,-17.45397 0.173823,-8.94051 0.527994,-12.64883 1.362084,-14.26179 1.653683,-3.19786 6.005703,-6.72435 9.219933,-7.47101 12.58926,-2.92447 17.11933,-4.34683 23.08095,-7.24699 25.19574,-12.25701 43.10236,-38.37392 45.71371,-66.67372 0.64933,-7.037007 -0.0193,-18.27621 -1.37825,-23.169158 -1.21575,-4.377161 -0.93007,-10.32728 0.6439,-13.4112 2.64658,-5.185516 6.17344,-7.159666 14.93373,-8.359117 3.40057,-0.465602 8.42114,-1.536707 11.15685,-2.380234 20.19517,-6.226985 36.758,-23.598405 41.62474,-43.65686 1.69005,-6.9656005 4.14293,-11.0235985 8.04583,-13.310844 2.91057,-1.70570889 3.99939,-1.88635841 11.36625,-1.88579418 34.08691,0.002613 73.90384,9.96417718 107.44908,26.88206418 39.9136,20.129647 73.53037,50.056911 98.53992,87.724963 21.74328,32.74858 34.75422,67.82878 40.4301,109.00794 1.90165,13.79673 1.90165,49.66679 0,63.46352 -5.69014,41.28264 -18.59774,76.07765 -40.43771,109.00794 -43.16977,65.09136 -111.19613,106.03293 -189.14027,113.83381 -7.03755,0.70433 -39.36819,0.89936 -45.65196,0.27537 z m 53.01071,-30.77817 c 91.08004,-13.39224 164.3033,-78.64733 187.36692,-166.97763 5.04883,-19.33627 7.0778,-36.01722 7.0353,-57.83971 -0.0322,-16.51141 -0.7282,-24.69201 -3.36486,-39.54729 C 461.53236,119.49364 381.83342,43.614862 285.30128,31.663958 c -12.25848,-1.517628 -14.82936,-1.490841 -15.4018,0.16048 -1.48528,4.284581 -6.47506,14.061526 -9.58801,18.786695 -4.75999,7.225206 -14.94204,17.887494 -22.33141,23.384675 -6.84703,5.093716 -19.99589,11.787527 -26.74778,13.616733 l -4.66983,1.265141 -0.0679,12.071368 c -0.10247,18.22999 -3.17746,30.98491 -11.55017,47.90959 -10.67025,21.56893 -27.33468,38.82647 -47.99471,49.70291 -3.93665,2.07245 -9.94135,4.74123 -13.34377,5.93063 l -6.18624,2.16255 -0.53401,5.82024 c -0.77896,8.49001 -2.58782,16.03289 -5.87201,24.48597 -13.02279,33.51901 -44.130478,56.15057 -80.215223,58.35843 l -7.618863,0.46617 1.822582,8.63467 c 6.556371,31.0615 20.359733,60.91797 40.782987,88.21302 8.407991,11.23702 28.045317,31.55153 38.568517,39.89855 33.16486,26.3064 75.26702,43.88042 115.35428,48.15049 4.10647,0.43742 8.64224,0.9343 10.0795,1.10418 6.95051,0.82154 38.14618,-0.29857 47.7843,-1.71574 z"
     style="font-variation-settings:normal;opacity:1;vector-effect:none;fill:#0098c9;fill-opacity:1;stroke:#0098c9;stroke-width:3;stroke-linecap:butt;stroke-linejoin:miter;stroke-miterlimit:4;stroke-dasharray:none;stroke-dashoffset:0;stroke-opacity:1;paint-order:markers fill stroke;stop-color:#000000;stop-opacity:1" />
  <path
     inkscape:connector-curvature="0"
     id="path1021"
     d="M 78.151727,102.08499 C 58.713758,97.202863 43.073768,79.816835 39.917268,59.582055 34.836045,27.008823 60.866128,-0.94583801 94.333805,1.1421368 118.21091,2.6317767 136.85686,19.806736 141.45813,44.548773 c 2.77258,14.90882 -3.61922,33.419775 -15.31851,44.363094 -9.44977,8.839148 -20.22845,13.416223 -32.862883,13.954943 -5.647893,0.24082 -12.454146,-0.111 -15.12501,-0.78182 z M 98.353824,72.691195 c 9.308386,-3.889289 14.337586,-11.14388 14.337586,-20.681867 0,-18.766469 -22.172052,-29.327967 -36.028445,-17.161892 -5.820077,5.110094 -8.039865,9.664467 -8.039865,16.495511 0,10.198991 4.118614,16.759243 13.133895,20.920064 6.146895,2.836975 10.559329,2.950813 16.596829,0.428184 z"
     style="font-variation-settings:normal;opacity:1;vector-effect:none;fill:#0098c9;fill-opacity:1;stroke:#0098c9;stroke-width:2.99999;stroke-linecap:butt;stroke-linejoin:miter;stroke-miterlimit:4;stroke-dasharray:none;stroke-dashoffset:0;stroke-opacity:1;paint-order:markers fill stroke;stop-color:#000000;stop-opacity:1" />
  <path
     inkscape:connector-curvature="0"
     id="path1023"
     d="M 11.407456,176.28328 C 9.8653692,176.00349 6.9102428,174.08115 4.8405085,172.01142 1.7047612,168.87567 1.077355,167.2497 1.077355,162.25893 c 0,-7.5305 3.2861169,-12.0221 10.147208,-13.8696 6.872497,-1.85057 13.322035,1.27567 16.635737,8.06372 2.17006,4.44533 2.227952,5.36113 0.625423,9.89347 -2.583915,7.30792 -9.473527,11.31656 -17.078267,9.93676 z"
     style="font-variation-settings:normal;opacity:1;vector-effect:none;fill:#0098c9;fill-opacity:1;stroke:#0098c9;stroke-width:2.99999;stroke-linecap:butt;stroke-linejoin:miter;stroke-miterlimit:4;stroke-dasharray:none;stroke-dashoffset:0;stroke-opacity:1;paint-order:markers fill stroke;stop-color:#000000;stop-opacity:1" />
  <path
     inkscape:connector-curvature="0"
     id="path1025"
     d="m 158.26502,370.58928 c -19.47573,-8.19476 -30.73631,-23.12669 -32.82661,-43.52929 -1.51547,-14.79182 3.96034,-29.42933 15.22244,-40.69142 19.93934,-19.93935 51.5711,-20.06122 71.88285,-0.27696 15.09539,14.70337 19.50042,38.91397 10.61251,58.32771 -4.32288,9.44244 -14.41471,19.62025 -24.26069,24.46741 -7.28859,3.58816 -9.52724,4.06261 -20.75088,4.39785 -11.05097,0.33008 -13.46846,0.002 -19.87962,-2.6953 z m 29.71753,-28.7836 c 13.55439,-7.9434 14.50224,-27.80251 1.76728,-37.02766 -9.3502,-6.77326 -20.49423,-5.85742 -28.7112,2.35955 -8.06489,8.0649 -8.91095,19.70902 -2.12453,29.23966 5.97184,8.38668 19.65905,10.94273 29.06845,5.42845 z"
     style="font-variation-settings:normal;opacity:1;vector-effect:none;fill:#0098c9;fill-opacity:1;stroke:#0098c9;stroke-width:2.99999;stroke-linecap:butt;stroke-linejoin:miter;stroke-miterlimit:4;stroke-dasharray:none;stroke-dashoffset:0;stroke-opacity:1;paint-order:markers fill stroke;stop-color:#000000;stop-opacity:1" />
  <path
     inkscape:connector-curvature="0"
     id="path1027"
     d=""
     style="font-variation-settings:normal;opacity:1;vector-effect:none;fill:#ffff00;fill-opacity:1;stroke:#364954;stroke-width:2.99999;stroke-linecap:butt;stroke-linejoin:miter;stroke-miterlimit:4;stroke-dasharray:none;stroke-dashoffset:0;stroke-opacity:1;paint-order:markers fill stroke;stop-color:#000000;stop-opacity:1" />
  <path
     inkscape:connector-curvature="0"
     id="path1029"
     d="m 201.22929,228.17201 c -12.35884,-4.33534 -12.61187,-21.56319 -0.39169,-26.66911 9.67425,-4.04216 18.98894,2.53017 18.98894,13.39836 0,5.00729 -0.6211,6.59491 -3.83879,9.81261 -2.11134,2.11133 -4.59182,3.83878 -5.51219,3.83878 -0.92037,0 -2.4211,0.24978 -3.33495,0.55507 -0.91385,0.30528 -3.57394,-0.11578 -5.91132,-0.93571 z"
     style="font-variation-settings:normal;opacity:1;vector-effect:none;fill:#0098c9;fill-opacity:1;stroke:#0098c9;stroke-width:2.99999;stroke-linecap:butt;stroke-linejoin:miter;stroke-miterlimit:4;stroke-dasharray:none;stroke-dashoffset:0;stroke-opacity:1;paint-order:markers fill stroke;stop-color:#000000;stop-opacity:1" />
  <path
     inkscape:connector-curvature="0"
     id="path1031"
     d="m 70.631736,340.33981 c -10.765333,-4.76643 -12.398209,-18.21785 -3.070457,-25.294 5.525668,-4.19184 14.85836,-2.31895 19.809487,3.97539 8.307044,10.56069 -4.4219,26.77211 -16.73903,21.31861 z"
     style="font-variation-settings:normal;opacity:1;vector-effect:none;fill:#0098c9;fill-opacity:1;stroke:#0098c9;stroke-width:2.99999;stroke-linecap:butt;stroke-linejoin:miter;stroke-miterlimit:4;stroke-dasharray:none;stroke-dashoffset:0;stroke-opacity:1;paint-order:markers fill stroke;stop-color:#000000;stop-opacity:1" />
  <path
     inkscape:connector-curvature="0"
     id="path1033"
     d="m 226.88665,438.08363 c -1.79148,-1.40918 -3.90461,-4.72288 -4.69584,-7.36378 -1.22589,-4.09163 -1.09197,-5.51144 0.90568,-9.60202 5.8522,-11.98357 23.04771,-11.11402 26.48626,1.33937 1.61419,5.84612 0.46141,10.23594 -3.80958,14.50692 -3.05194,3.05194 -4.70343,3.68166 -9.65546,3.68166 -4.13672,0 -6.9755,-0.78793 -9.23106,-2.56215 z"
     style="font-variation-settings:normal;opacity:1;vector-effect:none;fill:#0098c9;fill-opacity:1;stroke:#0098c9;stroke-width:2.99999;stroke-linecap:butt;stroke-linejoin:miter;stroke-miterlimit:4;stroke-dasharray:none;stroke-dashoffset:0;stroke-opacity:1;paint-order:markers fill stroke;stop-color:#000000;stop-opacity:1" />
  <path
     inkscape:connector-curvature="0"
     id="path1035"
     d="m 266.10484,296.79038 c -12.35885,-4.33534 -12.61188,-21.5632 -0.3917,-26.66911 9.60051,-4.01135 18.98894,2.76147 18.98894,13.69863 0,4.45949 -0.73799,6.39162 -3.61957,9.47636 -1.99076,2.13112 -4.47125,3.87476 -5.51219,3.87476 -1.04094,0 -2.64032,0.24978 -3.55417,0.55506 -0.91385,0.30529 -3.57394,-0.11578 -5.91131,-0.9357 z"
     style="font-variation-settings:normal;opacity:1;vector-effect:none;fill:#0098c9;fill-opacity:1;stroke:#0098c9;stroke-width:2.99999;stroke-linecap:butt;stroke-linejoin:miter;stroke-miterlimit:4;stroke-dasharray:none;stroke-dashoffset:0;stroke-opacity:1;paint-order:markers fill stroke;stop-color:#000000;stop-opacity:1" />
  <path
     inkscape:connector-curvature="0"
     id="path1037"
     d="m 313.7539,410.14085 c -19.61806,-6.1311 -33.86125,-24.11584 -35.02542,-44.22627 -2.65618,-45.88398 50.72998,-70.73872 83.74151,-38.98714 26.95006,25.92145 16.21497,71.62369 -19.4297,82.71755 -8.59741,2.67582 -21.60629,2.89608 -29.28639,0.49586 z m 23.38513,-29.69209 c 14.64794,-7.39991 15.33537,-26.07395 1.30785,-35.5271 -5.00624,-3.3737 -14.51592,-3.83205 -20.05688,-0.96671 -14.44975,7.47226 -14.48044,28.79829 -0.0524,36.42801 6.83329,3.61353 11.74479,3.63071 18.80145,0.0658 z"
     style="font-variation-settings:normal;opacity:1;vector-effect:none;fill:#0098c9;fill-opacity:1;stroke:#0098c9;stroke-width:2.99999;stroke-linecap:butt;stroke-linejoin:miter;stroke-miterlimit:4;stroke-dasharray:none;stroke-dashoffset:0;stroke-opacity:1;paint-order:markers fill stroke;stop-color:#000000;stop-opacity:1" />
  <path
     inkscape:connector-curvature="0"
     id="path1039"
     d="m 287.42734,180.44232 c -9.08728,-2.44548 -17.12116,-7.34349 -24.74571,-15.08668 -19.51945,-19.8232 -20.25244,-52.02502 -1.66487,-73.141614 16.03772,-18.219814 42.58851,-23.568993 64.1334,-12.920933 11.23702,5.553639 20.572,15.112259 26.04754,26.671577 3.7407,7.89692 3.99415,9.30283 3.99415,22.15565 0,12.85283 -0.25345,14.25874 -3.99415,22.15566 -11.58731,24.46176 -38.19566,37.04875 -63.77036,30.16634 z m 21.32527,-28.06868 c 14.12921,-3.92372 22.12501,-21.03655 15.99556,-34.23417 -8.1698,-17.59082 -30.17314,-20.848301 -42.20746,-6.24858 -11.57406,14.04133 -5.13617,35.4296 12.14222,40.3395 5.8615,1.66562 8.49124,1.69239 14.06968,0.14325 z"
     style="font-variation-settings:normal;opacity:1;vector-effect:none;fill:#0098c9;fill-opacity:1;stroke:#0098c9;stroke-width:2.99999;stroke-linecap:butt;stroke-linejoin:miter;stroke-miterlimit:4;stroke-dasharray:none;stroke-dashoffset:0;stroke-opacity:1;paint-order:markers fill stroke;stop-color:#000000;stop-opacity:1" />
  <path
     inkscape:connector-curvature="0"
     id="path1041"
     d="m 294.38672,239.07573 c -1.87838,-1.0192 -4.26443,-3.49524 -5.30233,-5.50232 -6.60746,-12.77741 6.54509,-25.97554 19.30844,-19.37536 5.19207,2.68493 7.49942,6.64943 7.49942,12.88556 0,4.54751 -0.70981,6.17119 -4.24187,9.70325 -3.38727,3.38728 -5.20955,4.2318 -9.04514,4.19191 -2.64181,-0.0275 -6.34015,-0.88384 -8.21852,-1.90304 z"
     style="font-variation-settings:normal;opacity:1;vector-effect:none;fill:#0098c9;fill-opacity:1;stroke:#0098c9;stroke-width:2.99999;stroke-linecap:butt;stroke-linejoin:miter;stroke-miterlimit:4;stroke-dasharray:none;stroke-dashoffset:0;stroke-opacity:1;paint-order:markers fill stroke;stop-color:#000000;stop-opacity:1" />
  <path
     inkscape:connector-curvature="0"
     id="path1043"
     d="m 376.096,278.72743 c -18.39485,-9.1053 -27.26996,-25.24623 -26.02233,-47.32614 1.46263,-25.88495 18.32391,-43.08293 43.83188,-44.70716 16.33558,-1.04017 26.84023,2.11465 37.1335,11.15215 26.72914,23.4682 19.09228,68.66737 -13.9409,82.51002 -10.64174,4.45945 -30.27827,3.67935 -41.00215,-1.62887 z m 35.91989,-29.05288 c 5.51944,-4.6443 6.62897,-7.13657 6.62897,-14.89033 0,-7.75376 -1.10953,-10.24604 -6.62897,-14.89034 -9.27475,-7.80419 -19.75479,-7.5348 -28.0096,0.72001 -8.69214,8.69215 -8.69214,19.6485 0,28.34065 8.25481,8.25481 18.73485,8.5242 28.0096,0.72001 z"
     style="font-variation-settings:normal;opacity:1;vector-effect:none;fill:#0098c9;fill-opacity:1;stroke:#0098c9;stroke-width:3;stroke-linecap:butt;stroke-linejoin:miter;stroke-miterlimit:4;stroke-dasharray:none;stroke-dashoffset:0;stroke-opacity:1;paint-order:markers fill stroke;stop-color:#000000;stop-opacity:1" />
  <path
     inkscape:connector-curvature="0"
     id="path1045"
     d="m 421.27881,338.08053 c -3.29751,-2.30966 -4.7885,-5.56001 -4.7885,-10.43883 0,-17.18926 22.98681,-19.7528 27.02033,-3.01337 1.08684,4.51051 0.16773,7.05042 -4.09325,11.3114 -6.3127,6.3127 -11.33593,6.90557 -18.13858,2.1408 z"
     style="font-variation-settings:normal;opacity:1;vector-effect:none;fill:#0098c9;fill-opacity:1;stroke:#0098c9;stroke-width:3;stroke-linecap:butt;stroke-linejoin:miter;stroke-miterlimit:4;stroke-dasharray:none;stroke-dashoffset:0;stroke-opacity:1;paint-order:markers fill stroke;stop-color:#000000;stop-opacity:1" />
  <path
     inkscape:connector-curvature="0"
     id="path1047"
     d="m 389.84897,147.36849 c -10.35107,-8.14215 -5.0419,-23.54369 8.11589,-23.54369 8.25245,0 14.23126,5.52086 14.18335,13.09696 -0.0406,6.4237 -1.82903,9.23701 -7.90494,12.43511 -6.40026,3.36884 -7.8358,3.17054 -14.3943,-1.98838 z"
     style="font-variation-settings:normal;opacity:1;vector-effect:none;fill:#0098c9;fill-opacity:1;stroke:#0098c9;stroke-width:3;stroke-linecap:butt;stroke-linejoin:miter;stroke-miterlimit:4;stroke-dasharray:none;stroke-dashoffset:0;stroke-opacity:1;paint-order:markers fill stroke;stop-color:#000000;stop-opacity:1" />
</svg>
