<svg xmlns="http://www.w3.org/2000/svg" width="115.232" height="95.069" viewBox="0 0 115.232 95.069">
  <defs>
    <style>
      .cls-1 {
        fill: #74471c;
      }

      .cls-1, .cls-3, .cls-4, .cls-5 {
        stroke: #272727;
      }

      .cls-1, .cls-3, .cls-4 {
        stroke-width: 3px;
      }

      .cls-2 {
        fill: #ffea4a;
      }

      .cls-3 {
        fill: #e03f3f;
      }

      .cls-4 {
        fill: #007c4c;
      }

      .cls-5, .cls-7 {
        fill: #ffebcd;
      }

      .cls-5 {
        stroke-width: 5px;
      }

      .cls-11, .cls-6, .cls-8 {
        fill: #272727;
      }

      .cls-6 {
        opacity: 0.2;
      }

      .cls-7 {
        stroke-linecap: round;
      }

      .cls-11, .cls-9 {
        stroke: none;
      }

      .cls-10 {
        fill: none;
      }
    </style>
  </defs>
  <g id="burger" transform="translate(-523.767 -920)">
    <g id="Rectangle_140" data-name="Rectangle 140" class="cls-1" transform="translate(523.767 983.069)">
      <rect class="cls-9" width="114" height="13" rx="5"/>
      <rect class="cls-10" x="1.5" y="1.5" width="111" height="10" rx="3.5"/>
    </g>
    <g id="Union_5" data-name="Union 5" class="cls-2" transform="translate(523.767 975.184)">
      <path class="cls-9" d="M 76.63501739501953 18.24419403076172 L 68.03943634033203 10.00173854827881 L 67.60421752929688 9.584400177001953 L 67.00125122070312 9.584400177001953 L 5.542203426361084 9.584400177001953 C 3.313326358795166 9.584400177001953 1.500003337860107 7.771077156066895 1.500003337860107 5.542200088500977 C 1.500003337860107 3.313323020935059 3.313326358795166 1.5 5.542203426361084 1.5 L 109.6902008056641 1.5 C 111.9190826416016 1.5 113.7324066162109 3.313323020935059 113.7324066162109 5.542200088500977 C 113.7324066162109 7.771077156066895 111.9190826416016 9.584400177001953 109.6902008056641 9.584400177001953 L 86.26929473876953 9.584400177001953 L 85.66634368896484 9.584400177001953 L 85.23114013671875 10.00170803070068 L 76.63501739501953 18.24419403076172 Z"/>
      <path class="cls-11" d="M 76.63504791259766 16.16601371765137 L 84.19298553466797 8.918999671936035 L 85.06340026855469 8.084400177001953 L 86.26929473876953 8.084400177001953 L 109.6902008056641 8.084400177001953 C 111.0919876098633 8.084400177001953 112.2324066162109 6.943981647491455 112.2324066162109 5.542200088500977 C 112.2324066162109 4.14041805267334 111.0919876098633 3 109.6902008056641 3 L 5.542203426361084 3 C 4.140421390533447 3 3.000003337860107 4.14041805267334 3.000003337860107 5.542200088500977 C 3.000003337860107 6.943981647491455 4.140421390533447 8.084400177001953 5.542203426361084 8.084400177001953 L 67.00125885009766 8.084400177001953 L 68.20720672607422 8.084400177001953 L 69.07763671875 8.919073104858398 L 76.63504791259766 16.16601371765137 M 76.63500213623047 19.93680000305176 C 76.38571166992188 19.93680000305176 76.13640594482422 19.84410858154297 75.94289398193359 19.6587085723877 L 67.00125885009766 11.08440017700195 L 5.542203426361084 11.08440017700195 C 2.48129415512085 11.08440017700195 3.308105533506023e-06 8.603091239929199 3.308105533506023e-06 5.542200088500977 C 3.308105533506023e-06 2.481309175491333 2.48129415512085 1.525878090546939e-09 5.542203426361084 1.525878090546939e-09 L 109.6902008056641 1.525878090546939e-09 C 112.7511138916016 1.525878090546939e-09 115.2324066162109 2.481309175491333 115.2324066162109 5.542200088500977 C 115.2324066162109 8.603091239929199 112.7511138916016 11.08440017700195 109.6902008056641 11.08440017700195 L 86.26929473876953 11.08440017700195 L 77.32711029052734 19.6587085723877 C 77.13360595703125 19.84410858154297 76.88429260253906 19.93680000305176 76.63500213623047 19.93680000305176 Z"/>
    </g>
    <g id="Rectangle_141" data-name="Rectangle 141" class="cls-3" transform="translate(523.767 968.069)">
      <rect class="cls-9" width="114" height="10" rx="5"/>
      <rect class="cls-10" x="1.5" y="1.5" width="111" height="7" rx="3.5"/>
    </g>
    <g id="Rectangle_142" data-name="Rectangle 142" class="cls-4" transform="translate(523.767 961.069)">
      <rect class="cls-9" width="114" height="10" rx="5"/>
      <rect class="cls-10" x="1.5" y="1.5" width="111" height="7" rx="3.5"/>
    </g>
    <g id="Rectangle_143" data-name="Rectangle 143" class="cls-5" transform="translate(523.767 993.069)">
      <path class="cls-9" d="M2,0H113a2,2,0,0,1,2,2V2A20,20,0,0,1,95,22H20A20,20,0,0,1,0,2V2A2,2,0,0,1,2,0Z"/>
      <path class="cls-10" d="M2.972,2.5H112.028a.472.472,0,0,1,.472.472v0A16.528,16.528,0,0,1,95.972,19.5H19.028A16.528,16.528,0,0,1,2.5,2.972v0A.472.472,0,0,1,2.972,2.5Z"/>
    </g>
    <path id="Union_32" data-name="Union 32" class="cls-6" d="M-175.233,420.069a19.876,19.876,0,0,0,7.755-1.571,19.918,19.918,0,0,0,6.357-4.286,19.939,19.939,0,0,0,4.287-6.358,19.885,19.885,0,0,0,1.571-7.785,2,2,0,0,0-2-2h2v-31h51v32a20,20,0,0,1-20,20H-125a19.916,19.916,0,0,1-6.265,1Z" transform="translate(740.03 595)"/>
    <g id="Subtraction_4" data-name="Subtraction 4" class="cls-7" transform="translate(525.682 920)">
      <path class="cls-9" d="M 106.9731750488281 41.3984260559082 L 3.04812479019165 41.3984260559082 C 5.47347354888916 31.03076934814453 11.4849328994751 21.59105682373047 20.19380187988281 14.57054233551025 C 24.92340087890625 10.7578592300415 30.27338409423828 7.779759407043457 36.09511947631836 5.718959331512451 C 42.12905120849609 3.583025932312012 48.49316787719727 2.500009298324585 55.01068496704102 2.500009298324585 C 61.52820205688477 2.500009298324585 67.89231872558594 3.583025932312012 73.92625427246094 5.718959331512451 C 79.74798583984375 7.779759407043457 85.09795379638672 10.7578592300415 89.82755279541016 14.57054233551025 C 98.53640747070312 21.59103775024414 104.5477600097656 31.03015518188477 106.9731750488281 41.3984260559082 Z"/>
      <path class="cls-11" d="M 110.0200271606445 48.8984260559082 L 110.0207061767578 43.89854431152344 L 110.0200271606445 48.8984260559082 M 103.7015151977539 38.8984260559082 C 101.011100769043 30.28314590454102 95.66184997558594 22.48492050170898 88.25853729248047 16.51688194274902 C 83.74946594238281 12.88195419311523 78.64672088623047 10.04193687438965 73.09201049804688 8.075663566589355 C 67.32668304443359 6.034809112548828 61.24324798583984 5.000009059906006 55.01068496704102 5.000009059906006 C 48.77812194824219 5.000009059906006 42.69468307495117 6.034809112548828 36.92934036254883 8.075681686401367 C 31.37466621398926 10.04191875457764 26.27190399169922 12.88195419311523 21.7628116607666 16.51688194274902 C 14.3595495223999 22.48489379882812 9.010095596313477 30.28373718261719 6.319738388061523 38.8984260559082 L 103.7015151977539 38.8984260559082 M 110.0213775634766 43.8984260559082 L 110.0200271606445 43.8984260559082 L 110.0213775634766 43.8984260559082 Z M 110.0213775634766 43.8984260559082 L -5.942049938312266e-06 43.8984260559082 C 2.015285015106201 31.78755378723145 8.63010311126709 20.6812629699707 18.62479400634766 12.6242094039917 C 23.57492065429688 8.633754730224609 29.17210388183594 5.51757287979126 35.26088333129883 3.362263679504395 C 41.56344985961914 1.131227374076843 48.20824813842773 9.21325681702001e-06 55.01068496704102 9.21325681702001e-06 C 61.81314086914062 9.21325681702001e-06 68.45792388916016 1.131227374076843 74.76050567626953 3.362263679504395 C 80.84926605224609 5.51757287979126 86.44644927978516 8.633754730224609 91.39656066894531 12.6242094039917 C 101.3911361694336 20.68115425109863 108.0054702758789 31.78744506835938 110.0211563110352 43.89719009399414 L 110.0213775634766 43.8984260559082 Z"/>
    </g>
    <path id="Subtraction_15" data-name="Subtraction 15" class="cls-6" d="M-164.208,736.968h-46a48.793,48.793,0,0,0-17.779-29.849,53.578,53.578,0,0,0-10-6.369,66.069,66.069,0,0,1,18.768-2.681,65.893,65.893,0,0,1,19.75,2.98,58.831,58.831,0,0,1,16.636,8.206c9.994,7.139,16.609,16.981,18.625,27.711Z" transform="translate(794.914 224.931)"/>
    <g id="Group_37" data-name="Group 37" transform="translate(537.358 941.927)">
      <circle id="Ellipse_19" data-name="Ellipse 19" class="cls-8" cx="2.5" cy="2.5" r="2.5" transform="translate(0.409 8.142)"/>
      <circle id="Ellipse_20" data-name="Ellipse 20" class="cls-8" cx="3.5" cy="3.5" r="3.5" transform="translate(9.409 0.142)"/>
      <circle id="Ellipse_21" data-name="Ellipse 21" class="cls-8" cx="2" cy="2" r="2" transform="translate(10.409 9.142)"/>
    </g>
  </g>
</svg>
