<svg xmlns="http://www.w3.org/2000/svg" width="106" height="71" viewBox="0 0 106 71">
  <defs>
    <style>
      .cls-1 {
        fill: #ffd800;
      }

      .cls-1, .cls-3 {
        stroke: #272727;
        stroke-width: 5px;
      }

      .cls-2 {
        fill: #272727;
        opacity: 0.2;
      }

      .cls-3 {
        fill: #c41212;
      }

      .cls-4 {
        stroke: none;
      }

      .cls-5 {
        fill: none;
      }
    </style>
  </defs>
  <g id="Group_82" data-name="Group 82" transform="translate(931.424 -1460.802) rotate(90)">
    <g id="Group_39" data-name="Group 39" transform="translate(1453.187 825)">
      <g id="Rectangle_147" data-name="Rectangle 147" class="cls-1" transform="translate(11.615 23.424)">
        <rect class="cls-4" width="16" height="70" rx="5"/>
        <rect class="cls-5" x="2.5" y="2.5" width="11" height="65" rx="2.5"/>
      </g>
      <g id="Rectangle_148" data-name="Rectangle 148" class="cls-1" transform="translate(23.615 4.424)">
        <rect class="cls-4" width="16" height="70" rx="5"/>
        <rect class="cls-5" x="2.5" y="2.5" width="11" height="65" rx="2.5"/>
      </g>
      <g id="Rectangle_149" data-name="Rectangle 149" class="cls-1" transform="translate(34.615 9.424)">
        <rect class="cls-4" width="16" height="70" rx="5"/>
        <rect class="cls-5" x="2.5" y="2.5" width="11" height="65" rx="2.5"/>
      </g>
      <g id="Rectangle_150" data-name="Rectangle 150" class="cls-1" transform="translate(46.615 0.424)">
        <rect class="cls-4" width="16" height="70" rx="5"/>
        <rect class="cls-5" x="2.5" y="2.5" width="11" height="65" rx="2.5"/>
      </g>
      <g id="Rectangle_151" data-name="Rectangle 151" class="cls-1" transform="translate(58.615 16.424)">
        <rect class="cls-4" width="16" height="70" rx="5"/>
        <rect class="cls-5" x="2.5" y="2.5" width="11" height="65" rx="2.5"/>
      </g>
    </g>
    <rect id="Rectangle_147-2" data-name="Rectangle 147" class="cls-2" width="4" height="70" rx="2" transform="translate(1473.803 852.424)"/>
    <rect id="Rectangle_167" data-name="Rectangle 167" class="cls-2" width="7" height="70" rx="3.5" transform="translate(1484.803 831.424)"/>
    <rect id="Rectangle_168" data-name="Rectangle 168" class="cls-2" width="7" height="70" rx="3.5" transform="translate(1494.803 835.424)"/>
    <rect id="Rectangle_169" data-name="Rectangle 169" class="cls-2" width="7" height="70" rx="3.5" transform="translate(1505.803 827.424)"/>
    <rect id="Rectangle_170" data-name="Rectangle 170" class="cls-2" width="7" height="65" rx="3.5" transform="translate(1516.803 843.424)"/>
    <g id="Rectangle_145" data-name="Rectangle 145" class="cls-3" transform="translate(1460.803 868.424)">
      <path class="cls-4" d="M5,0H66a5,5,0,0,1,5,5V33A30,30,0,0,1,41,63H30A30,30,0,0,1,0,33V5A5,5,0,0,1,5,0Z"/>
      <path class="cls-5" d="M5,2.5H66A2.5,2.5,0,0,1,68.5,5V33A27.5,27.5,0,0,1,41,60.5H30A27.5,27.5,0,0,1,2.5,33V5A2.5,2.5,0,0,1,5,2.5Z"/>
    </g>
    <path id="Subtraction_12" data-name="Subtraction 12" class="cls-2" d="M630,160.011h0a31.49,31.49,0,0,0-26.469-48.585h-6A31.427,31.427,0,0,0,573.8,122.2V107.424a5.006,5.006,0,0,1,5-5h59a5.006,5.006,0,0,1,5,5v28A29.967,29.967,0,0,1,630,160.011Z" transform="translate(887 768)"/>
  </g>
</svg>
