<svg xmlns="http://www.w3.org/2000/svg" width="97" height="79.047" viewBox="0 0 97 79.047">
  <defs>
    <style>
      .cls-1 {
        fill: #b72020;
      }

      .cls-2, .cls-6 {
        fill: #272727;
      }

      .cls-2 {
        opacity: 0.2;
      }

      .cls-3, .cls-4 {
        fill: none;
      }

      .cls-3 {
        stroke: #272727;
        stroke-linecap: round;
        stroke-width: 6px;
      }

      .cls-5, .cls-6 {
        stroke: none;
      }
    </style>
  </defs>
  <g id="Group_80" data-name="Group 80" transform="translate(-1347.972 -833.56)">
    <g id="Union_6" data-name="Union 6" class="cls-1" transform="translate(1347.972 843.607)">
      <path class="cls-5" d="M 47.93576812744141 66 C 42.88664627075195 66 37.99869155883789 64.46487426757812 33.80030822753906 61.56056976318359 L 32.85276794433594 60.90509414672852 L 31.71004676818848 61.05238342285156 C 30.73856925964355 61.17761611938477 29.74638366699219 61.24110794067383 28.76109313964844 61.24110794067383 C 25.3249683380127 61.24110794067383 21.98953819274902 60.48855209350586 18.84747695922852 59.00432205200195 C 15.78676891326904 57.55854034423828 13.0317850112915 55.48186111450195 10.65903091430664 52.83200073242188 C 8.264923095703125 50.15827560424805 6.383077144622803 47.03898620605469 5.065769195556641 43.56078338623047 C 3.695030689239502 39.94150924682617 3 36.09246063232422 3 32.12055206298828 C 3 28.14864540100098 3.695030689239502 24.29960060119629 5.065769195556641 20.68032264709473 C 6.383077144622803 17.20212364196777 8.264923095703125 14.08283042907715 10.65903091430664 11.40910816192627 C 13.0317850112915 8.759245872497559 15.78676891326904 6.682569026947021 18.84747695922852 5.2367844581604 C 21.98953819274902 3.752553939819336 25.3249683380127 3 28.76109313964844 3 C 35.30056762695312 3 41.53763198852539 5.778122901916504 46.3233528137207 10.82260036468506 L 48.49980163574219 13.11673831939697 L 50.67620086669922 10.82255363464355 C 55.46167755126953 5.778107643127441 61.69857025146484 3 68.23798370361328 3 C 71.67435455322266 3 75.00995635986328 3.752569198608398 78.15216827392578 5.236800193786621 C 81.21298217773438 6.682584762573242 83.96806335449219 8.759261131286621 86.34087371826172 11.40913867950439 C 88.73501586914062 14.08284568786621 90.61688995361328 17.20212364196777 91.93421173095703 20.68032264709473 C 93.30496978759766 24.29958534240723 94 28.14863014221191 94 32.12055206298828 C 94 36.09247589111328 93.30496978759766 39.94152450561523 91.93421173095703 43.56078338623047 C 90.61688995361328 47.03898620605469 88.73501586914062 50.15826034545898 86.34087371826172 52.83197021484375 C 83.96806335449219 55.48184585571289 81.21298217773438 57.55852127075195 78.15216827392578 59.00430679321289 C 75.00995635986328 60.4885368347168 71.67435455322266 61.24110794067383 68.23798370361328 61.24110794067383 C 66.97473907470703 61.24110794067383 65.70550537109375 61.13678359985352 64.46555328369141 60.93104553222656 L 63.25263214111328 60.72980117797852 L 62.24732208251953 61.43764495849609 C 58.00839996337891 64.42237091064453 53.05953979492188 66 47.93576812744141 66 Z"/>
      <path class="cls-6" d="M 47.93576431274414 63 C 52.43788909912109 63 56.78950881958008 61.61152648925781 60.52018356323242 58.98471069335938 L 62.53074645996094 57.56903457641602 L 64.95654296875 57.97150802612305 C 66.02713012695312 58.14914703369141 67.12314605712891 58.24110794067383 68.23798370361328 58.24110794067383 C 80.78900146484375 58.24110794067383 91 46.52347183227539 91 32.12054443359375 C 91 17.71763610839844 80.78900146484375 6 68.23798370361328 6 C 62.5299072265625 6 57.06596374511719 8.445945739746094 52.85265350341797 12.88725471496582 L 48.49983596801758 17.47561836242676 L 44.14692687988281 12.88734531402588 C 39.93338012695312 8.445981979370117 34.46925354003906 6 28.7610912322998 6 C 16.2105827331543 6 6 17.71763610839844 6 32.12054443359375 C 6 46.52347183227539 16.2105827331543 58.24110794067383 28.7610912322998 58.24110794067383 C 29.62910842895508 58.24110794067383 30.48454475402832 58.18552780151367 31.3265266418457 58.07699966430664 L 33.61196517944336 57.78239822387695 L 35.50703811645508 59.09336471557617 C 39.20154571533203 61.64910888671875 43.49932861328125 63 47.93576431274414 63 M 47.93576431274414 69 C 42.08172607421875 69 36.63650894165039 67.17041778564453 32.09358215332031 64.02776336669922 C 30.99985504150391 64.16874694824219 29.8886547088623 64.24111175537109 28.7610912322998 64.24111175537109 C 12.87716388702393 64.24111175537109 0 49.86027145385742 0 32.12054443359375 C 0 14.38081836700439 12.87716388702393 0 28.7610912322998 0 C 36.40296173095703 0 43.34892654418945 3.328490972518921 48.4997444152832 8.757818222045898 C 53.65034484863281 3.328490972518921 60.59610748291016 0 68.23798370361328 0 C 84.12285614013672 0 97 14.38081836700439 97 32.12054443359375 C 97 49.86027145385742 84.12285614013672 64.24111175537109 68.23798370361328 64.24111175537109 C 66.78948974609375 64.24111175537109 65.36547088623047 64.12138366699219 63.97449111938477 63.89059829711914 C 59.39260101318359 67.11678314208984 53.87416458129883 69 47.93576431274414 69 Z"/>
    </g>
    <path id="Intersection_7" data-name="Intersection 7" class="cls-2" d="M649.557-35.757a53.177,53.177,0,0,0,7.2-6.748,45.484,45.484,0,0,0,5.716-8.075,37.959,37.959,0,0,0,4.871-18.5,37.2,37.2,0,0,0-1.423-10.174,40.169,40.169,0,0,0-4.067-9.416q-.661-1.12-1.4-2.215a21.652,21.652,0,0,1,10.092-2.5c13.234,0,23.964,12.088,23.964,27s-10.729,27-23.964,27a21.483,21.483,0,0,1-3.552-.294,22.985,22.985,0,0,1-13.363,4.3A22.886,22.886,0,0,1,649.557-35.757Z" transform="translate(750.466 942.001)"/>
    <path id="Path_31" data-name="Path 31" class="cls-3" d="M1395.18,851.486s-3.8-13.746,6.871-17.907" transform="translate(1.966 3.867)"/>
    <g id="Union_22" data-name="Union 22" class="cls-4" transform="translate(1347.972 843.607)">
      <path class="cls-5" d="M32.094,64.028a26.046,26.046,0,0,1-3.332.213C12.877,64.241,0,49.86,0,32.121S12.877,0,28.761,0A27.143,27.143,0,0,1,48.5,8.758,27.142,27.142,0,0,1,68.238,0C84.123,0,97,14.381,97,32.121S84.123,64.241,68.238,64.241a26.03,26.03,0,0,1-4.263-.351,27.726,27.726,0,0,1-31.881.137Z"/>
      <path class="cls-6" d="M 47.93576431274414 63 C 52.43788909912109 63 56.78950881958008 61.61152648925781 60.52018356323242 58.98471069335938 L 62.53074645996094 57.56903457641602 L 64.95654296875 57.97150802612305 C 66.02713012695312 58.14914703369141 67.12314605712891 58.24110794067383 68.23798370361328 58.24110794067383 C 80.78900146484375 58.24110794067383 91 46.52347183227539 91 32.12054443359375 C 91 17.71763610839844 80.78900146484375 6 68.23798370361328 6 C 62.5299072265625 6 57.06596374511719 8.445945739746094 52.85265350341797 12.88725471496582 L 48.49983596801758 17.47561836242676 L 44.14692687988281 12.88734531402588 C 39.93338012695312 8.445981979370117 34.46925354003906 6 28.7610912322998 6 C 16.2105827331543 6 6 17.71763610839844 6 32.12054443359375 C 6 46.52347183227539 16.2105827331543 58.24110794067383 28.7610912322998 58.24110794067383 C 29.62910842895508 58.24110794067383 30.48454475402832 58.18552780151367 31.3265266418457 58.07699966430664 L 33.61196517944336 57.78239822387695 L 35.50703811645508 59.09336471557617 C 39.20154571533203 61.64910888671875 43.49932861328125 63 47.93576431274414 63 M 47.93576431274414 69 C 42.08172607421875 69 36.63650894165039 67.17041778564453 32.09358215332031 64.02776336669922 C 30.99985504150391 64.16874694824219 29.8886547088623 64.24111175537109 28.7610912322998 64.24111175537109 C 12.87716388702393 64.24111175537109 0 49.86027145385742 0 32.12054443359375 C 0 14.38081836700439 12.87716388702393 0 28.7610912322998 0 C 36.40296173095703 0 43.34892654418945 3.328490972518921 48.4997444152832 8.757818222045898 C 53.65034484863281 3.328490972518921 60.59610748291016 0 68.23798370361328 0 C 84.12285614013672 0 97 14.38081836700439 97 32.12054443359375 C 97 49.86027145385742 84.12285614013672 64.24111175537109 68.23798370361328 64.24111175537109 C 66.78948974609375 64.24111175537109 65.36547088623047 64.12138366699219 63.97449111938477 63.89059829711914 C 59.39260101318359 67.11678314208984 53.87416458129883 69 47.93576431274414 69 Z"/>
    </g>
  </g>
</svg>
