<svg xmlns="http://www.w3.org/2000/svg" width="189.5" height="278.5" viewBox="0 0 189.5 278.5">
  <defs>
    <style>
      .cls-1, .cls-7 {
        fill: #ffebcd;
      }

      .cls-2, .cls-3, .cls-9 {
        fill: #272727;
      }

      .cls-2 {
        opacity: 0.2;
      }

      .cls-10, .cls-4 {
        fill: none;
      }

      .cls-4, .cls-5, .cls-6, .cls-7 {
        stroke: #272727;
      }

      .cls-4 {
        stroke-linecap: round;
      }

      .cls-4, .cls-6 {
        stroke-width: 6px;
      }

      .cls-5 {
        fill: #007c4c;
      }

      .cls-5, .cls-7 {
        stroke-width: 8px;
      }

      .cls-6 {
        fill: #b72020;
      }

      .cls-8, .cls-9 {
        stroke: none;
      }
    </style>
  </defs>
  <g id="ludek2" transform="translate(-864.5 1363.5) rotate(-90)">
    <g id="Union_2" data-name="Union 2" class="cls-1" transform="translate(916 866)">
      <path class="cls-8" d="M 345.9996032714844 184.0001220703125 L 219.9995880126953 184.0001220703125 C 213.6529235839844 184.0001220703125 207.4982299804688 182.7579803466797 201.7064971923828 180.3082275390625 C 196.1102905273438 177.9411926269531 191.0835876464844 174.5517272949219 186.7659606933594 170.2339477539062 C 182.4483337402344 165.9162139892578 179.0589599609375 160.8894195556641 176.6920013427734 155.2931213378906 C 174.2422943115234 149.5012817382812 173.0001983642578 143.3465270996094 173.0001983642578 136.9998168945312 L 173.0001983642578 73.99978637695312 C 173.0001983642578 67.65308380126953 174.2422943115234 61.49838638305664 176.6919555664062 55.70661926269531 C 179.0589294433594 50.11045455932617 182.4482879638672 45.0837516784668 186.7659301757812 40.76612091064453 C 191.0835266113281 36.44852066040039 196.1102600097656 33.05915451049805 201.7064208984375 30.69218635559082 C 207.4981994628906 28.24251937866211 213.6528930664062 27.00041961669922 219.9995880126953 27.00041961669922 L 276.0331726074219 27.00041961669922 L 279.7787475585938 27.00041961669922 L 280.0245361328125 23.26288604736328 C 280.2073059082031 20.48395347595215 281.4303283691406 17.89848709106445 283.4683837890625 15.98278713226318 C 285.5147094726562 14.0593204498291 288.1893615722656 13.00002002716064 290.9996948242188 13.00002002716064 C 293.8104553222656 13.00002002716064 296.4854125976562 14.0593204498291 298.5318298339844 15.98282051086426 C 300.5699157714844 17.89848709106445 301.7929992675781 20.48391914367676 301.9757690429688 23.26292037963867 L 302.2215576171875 27.00041961669922 L 305.9671325683594 27.00041961669922 L 345.9996032714844 27.00041961669922 C 352.3465270996094 27.00041961669922 358.5014343261719 28.24251937866211 364.2933044433594 30.69222068786621 C 369.8895874023438 33.05915451049805 374.9164428710938 36.44852066040039 379.2341003417969 40.76615524291992 C 383.5517578125 45.0837516784668 386.941162109375 50.11045455932617 389.3081359863281 55.7066535949707 C 391.7578125 61.49838638305664 392.9999389648438 67.65308380126953 392.9999389648438 73.99978637695312 L 392.9999389648438 136.9998168945312 C 392.9999389648438 143.3465270996094 391.7578125 149.5012817382812 389.3081359863281 155.2931213378906 C 386.9411315917969 160.8894195556641 383.5517272949219 165.9162139892578 379.2340698242188 170.2339477539062 C 374.9163513183594 174.5516815185547 369.8895568847656 177.9411468505859 364.2932739257812 180.3081817626953 C 358.5013732910156 182.7579803466797 352.3464965820312 184.0001220703125 345.9996032714844 184.0001220703125 Z"/>
      <path class="cls-9" d="M 345.9996032714844 180.0001220703125 C 369.7100524902344 180.0001220703125 388.9999084472656 160.7102661132812 388.9999084472656 136.9998016357422 L 388.9999084472656 73.99980163574219 C 388.9999084472656 50.28987503051758 369.7100524902344 31.00041007995605 345.9996032714844 31.00041007995605 L 305.9671325683594 31.00041007995605 L 298.4759521484375 31.00041007995605 L 297.984375 23.52537536621094 C 297.7437438964844 19.86630249023438 294.6756896972656 17.0000171661377 290.9996948242188 17.0000171661377 C 287.32421875 17.0000171661377 284.2565612792969 19.86630249023438 284.0159301757812 23.52537536621094 L 283.5243530273438 31.00041007995605 L 276.0331726074219 31.00041007995605 L 219.9996032714844 31.00041007995605 C 196.2896728515625 31.00041007995605 177.0001983642578 50.28987503051758 177.0001983642578 73.99980163574219 L 177.0001983642578 136.9998016357422 C 177.0001983642578 160.7102661132812 196.2896728515625 180.0001220703125 219.9996032714844 180.0001220703125 L 345.9996032714844 180.0001220703125 M 345.9996032714844 188.0001220703125 L 219.9996032714844 188.0001220703125 C 191.8332061767578 188.0001220703125 169.0001983642578 165.1661987304688 169.0001983642578 136.9998016357422 L 169.0001983642578 73.99980163574219 C 169.0001983642578 45.83341217041016 191.8332061767578 23.00041007995605 219.9996032714844 23.00041007995605 L 276.0331726074219 23.00041007995605 C 276.5473327636719 15.18176746368408 283.0518188476562 9.000018119812012 290.9996948242188 9.000018119812012 C 298.9484558105469 9.000018119812012 305.4529418945312 15.18176746368408 305.9671325683594 23.00041007995605 L 345.9996032714844 23.00041007995605 C 374.1669311523438 23.00041007995605 396.9999084472656 45.83341217041016 396.9999084472656 73.99980163574219 L 396.9999084472656 136.9998016357422 C 396.9999084472656 165.1661987304688 374.1669311523438 188.0001220703125 345.9996032714844 188.0001220703125 Z"/>
    </g>
    <path id="Union_35" data-name="Union 35" class="cls-2" d="M-791.664,748a50.7,50.7,0,0,1-19.852-4.008,50.842,50.842,0,0,1-16.211-10.93,50.832,50.832,0,0,1-10.93-16.211A50.678,50.678,0,0,1-842.665,697V640.043A50.921,50.921,0,0,1-840.091,624a50.768,50.768,0,0,1,5.656-11.75V665.21a50.677,50.677,0,0,0,4.008,19.851,50.823,50.823,0,0,0,10.93,16.211,50.827,50.827,0,0,0,16.211,10.93,50.69,50.69,0,0,0,19.851,4.008h98.248a50.7,50.7,0,0,0,19.852-4.008,50.856,50.856,0,0,0,16.211-10.93,50.941,50.941,0,0,0,8.592-11.4,27.24,27.24,0,0,1-.787-6.593,27.055,27.055,0,0,1,.875-6.935,27.043,27.043,0,0,1-.875-6.934,26.568,26.568,0,0,1,1.142-7.859,26.562,26.562,0,0,1-1.142-7.858,25.7,25.7,0,0,1,1.627-9.246,25.7,25.7,0,0,1-1.627-9.246,26.707,26.707,0,0,1,1.059-7.587,26.7,26.7,0,0,1-1.059-7.586c0-.6.019-1.2.055-1.791a23.748,23.748,0,0,1-2.8-11.7c0-9.045,4.176-16.377,9.327-16.377s9.327,7.332,9.327,16.377q0,.909-.055,1.791a23.746,23.746,0,0,1,2.8,11.7,26.7,26.7,0,0,1-1.059,7.586,26.707,26.707,0,0,1,1.059,7.587,25.7,25.7,0,0,1-1.627,9.246,25.7,25.7,0,0,1,1.627,9.246,26.562,26.562,0,0,1-1.142,7.858,26.568,26.568,0,0,1,1.142,7.859,27.043,27.043,0,0,1-.875,6.934,27.055,27.055,0,0,1,.875,6.935,25.993,25.993,0,0,1-1.466,8.818,25.99,25.99,0,0,1,1.466,8.818c0,5.485-1.535,10.339-3.892,13.312a26.553,26.553,0,0,1,1.149,7.882c0,9.045-4.176,16.377-9.327,16.377-2.414,0-4.614-1.611-6.271-4.254a50.8,50.8,0,0,1-15,9.759A50.69,50.69,0,0,1-675.859,748Z" transform="translate(1927.665 306)"/>
    <rect id="Rectangle_58" data-name="Rectangle 58" class="cls-3" width="16" height="16" rx="8" transform="translate(1258 940) rotate(90)"/>
    <path id="Path_25" data-name="Path 25" class="cls-4" d="M2.008-11.348s5.955-6.944,15.117-6.944,18.309,6.944,18.309,6.944" transform="translate(1253.276 930.45) rotate(90)"/>
    <g id="Group_17" data-name="Group 17" transform="translate(2187 -482) rotate(90)">
      <circle id="Ellipse_6" data-name="Ellipse 6" class="cls-3" cx="17" cy="17" r="17" transform="translate(1404 864)"/>
      <circle id="Ellipse_11" data-name="Ellipse 11" class="cls-3" cx="17" cy="17" r="17" transform="translate(1387 864)"/>
      <circle id="Ellipse_12" data-name="Ellipse 12" class="cls-3" cx="17" cy="17" r="17" transform="translate(1373 869)"/>
      <circle id="Ellipse_7" data-name="Ellipse 7" class="cls-3" cx="17" cy="17" r="17" transform="translate(1424 864)"/>
      <circle id="Ellipse_8" data-name="Ellipse 8" class="cls-3" cx="17" cy="17" r="17" transform="translate(1441 864)"/>
      <circle id="Ellipse_9" data-name="Ellipse 9" class="cls-3" cx="17" cy="17" r="17" transform="translate(1456 864)"/>
      <circle id="Ellipse_10" data-name="Ellipse 10" class="cls-3" cx="17" cy="17" r="17" transform="translate(1476 864)"/>
      <circle id="Ellipse_13" data-name="Ellipse 13" class="cls-3" cx="17" cy="17" r="17" transform="translate(1498 869)"/>
    </g>
    <g id="Group_16" data-name="Group 16" transform="translate(2237.5 -558.5) rotate(90)">
      <g id="Rectangle_70" data-name="Rectangle 70" class="cls-5" transform="translate(1423 906)">
        <rect class="cls-8" width="74" height="26" rx="13"/>
        <rect class="cls-10" x="4" y="4" width="66" height="18" rx="9"/>
      </g>
      <g id="Rectangle_69" data-name="Rectangle 69" class="cls-5" transform="translate(1473 874)">
        <rect class="cls-8" width="133.626" height="58" rx="13"/>
        <rect class="cls-10" x="4" y="4" width="125.626" height="50" rx="9"/>
      </g>
    </g>
    <g id="Ellipse_33" data-name="Ellipse 33" class="cls-6" transform="translate(1191 948.5)">
      <circle class="cls-8" cx="17.5" cy="17.5" r="17.5"/>
      <circle class="cls-10" cx="17.5" cy="17.5" r="14.5"/>
    </g>
    <rect id="Rectangle_191" data-name="Rectangle 191" class="cls-2" width="46" height="77" transform="translate(1313 964.5)"/>
    <g id="Rectangle_217" data-name="Rectangle 217" class="cls-7" transform="translate(1149 890)">
      <rect class="cls-8" width="10" height="59" rx="5"/>
      <rect class="cls-10" x="4" y="4" width="2" height="51" rx="1"/>
    </g>
  </g>
</svg>
