<svg xmlns="http://www.w3.org/2000/svg" width="189.5" height="447.5" viewBox="0 0 189.5 447.5">
  <defs>
    <style>
      .cls-1 {
        fill: #ffebcd;
      }

      .cls-2, .cls-3, .cls-9 {
        fill: #272727;
      }

      .cls-2 {
        opacity: 0.2;
      }

      .cls-10, .cls-4 {
        fill: none;
      }

      .cls-4, .cls-5, .cls-6, .cls-7 {
        stroke: #272727;
      }

      .cls-4 {
        stroke-linecap: round;
      }

      .cls-4, .cls-5, .cls-7 {
        stroke-width: 6px;
      }

      .cls-5 {
        fill: #fff;
      }

      .cls-6 {
        fill: #007c4c;
        stroke-width: 8px;
      }

      .cls-7 {
        fill: #b72020;
      }

      .cls-8, .cls-9 {
        stroke: none;
      }
    </style>
  </defs>
  <g id="ludek2" transform="translate(-864.5 1363.5) rotate(-90)">
    <g id="Union_2" data-name="Union 2" class="cls-1" transform="translate(916 866)">
      <path class="cls-8" d="M 345.9995727539062 184.0001068115234 L 51.00032424926758 184.0001068115234 C 44.65464019775391 184.0001068115234 38.49995422363281 182.7577362060547 32.70727157592773 180.3075256347656 C 27.11011123657227 177.9402618408203 22.08337593078613 174.5511627197266 17.76663780212402 170.234375 C 13.4483757019043 165.9161529541016 10.05869102478027 160.8893737792969 7.691638469696045 155.2936859130859 C 5.242059707641602 149.5024719238281 4.000006675720215 143.3478393554688 4.000006675720215 137.0006866455078 L 4.000006675720215 74.00068664550781 C 4.000006675720215 67.65379333496094 5.242112159729004 61.4987907409668 7.691743850708008 55.70663070678711 C 10.05869102478027 50.11026382446289 13.44832229614258 45.08363342285156 17.7663745880127 40.7663688659668 C 22.08453369140625 36.44821166992188 27.1112174987793 33.05884170532227 32.70711135864258 30.69215774536133 C 38.49848175048828 28.24247360229492 44.65311050415039 27.00042152404785 51.00032424926758 27.00042152404785 L 58.99914932250977 27.00042152404785 L 59.00000762939453 120.0006332397461 C 59.00000762939453 125.0758972167969 60.97663879394531 129.8470458984375 64.5657958984375 133.4351043701172 C 68.15426635742188 137.0235290527344 72.92552947998047 139 78.00032043457031 139 L 234.9999084472656 139 C 240.0746917724609 139 244.8460083007812 137.0235290527344 248.4348449707031 133.4346313476562 C 252.0235290527344 129.8470001220703 254.0002136230469 125.0758972167969 254.0002136230469 120.0005798339844 L 254.0002136230469 27.00042152404785 L 276.0331726074219 27.00042152404785 L 279.7787475585938 27.00042152404785 L 280.0245361328125 23.26289558410645 C 280.207275390625 20.48394775390625 281.4303283691406 17.89847373962402 283.4683837890625 15.98273754119873 C 285.5146789550781 14.05931663513184 288.1893310546875 13.00000095367432 290.9996948242188 13.00000095367432 C 293.8104858398438 13.00000095367432 296.4854431152344 14.05931663513184 298.5318603515625 15.98278999328613 C 300.5699157714844 17.89847373962402 301.7929992675781 20.48389625549316 301.9757385253906 23.26289558410645 L 302.2215270996094 27.00042152404785 L 305.9671020507812 27.00042152404785 L 345.9995727539062 27.00042152404785 C 352.3465881347656 27.00042152404785 358.5016479492188 28.24252700805664 364.293701171875 30.69215774536133 C 369.8895263671875 33.05884170532227 374.916259765625 36.44821166992188 379.2342224121094 40.76610565185547 C 383.5514831542969 45.08342361450195 386.9408874511719 50.11021041870117 389.3082580566406 55.70684432983398 C 391.7577819824219 61.4987907409668 392.9999084472656 67.65379333496094 392.9999084472656 74.00068664550781 L 392.9999084472656 137.0006866455078 C 392.9999084472656 143.3478393554688 391.7578430175781 149.5024719238281 389.3082275390625 155.2937316894531 C 386.9414672851562 160.8889007568359 383.552001953125 165.9157409667969 379.2339477539062 170.2346343994141 C 374.9174194335938 174.5511627197266 369.8906860351562 177.9402618408203 364.2936401367188 180.3074798583984 C 358.5001220703125 182.7577362060547 352.3451232910156 184.0001068115234 345.9995727539062 184.0001068115234 Z"/>
      <path class="cls-9" d="M 345.9996032714844 180.0001068115234 C 351.806884765625 180.0001068115234 357.4377136230469 178.8639984130859 362.7354736328125 176.6234588623047 C 367.855712890625 174.4578704833984 372.455078125 171.3566436767578 376.4051818847656 167.4065246582031 C 380.3572998046875 163.4536437988281 383.4590759277344 158.8539886474609 385.6242370605469 153.7354583740234 C 387.8641967773438 148.4399871826172 388.9999084472656 142.8095855712891 388.9999084472656 137.0007019042969 L 388.9999084472656 74.00070190429688 C 388.9999084472656 68.19199371337891 387.8641357421875 62.56117248535156 385.6242980957031 57.26522827148438 C 383.45849609375 52.14511108398438 380.3569030761719 47.5456428527832 376.4057312011719 43.59458160400391 C 372.4539489746094 39.64275741577148 367.8546752929688 36.54129028320312 362.735595703125 34.37622833251953 C 357.4391784667969 32.13616943359375 351.8083801269531 31.00040626525879 345.9996032714844 31.00040626525879 L 305.9671325683594 31.00040626525879 L 298.4759521484375 31.00040626525879 L 297.984375 23.52534675598145 C 297.7437133789062 19.86628913879395 294.6757202148438 16.9999942779541 290.9997253417969 16.9999942779541 C 287.3241882324219 16.9999942779541 284.2565307617188 19.86623001098633 284.0159606933594 23.52528953552246 L 283.5244140625 31.00040626525879 L 276.033203125 31.00040626525879 L 258.0001831054688 31.00040626525879 L 258.0001831054688 120.0005798339844 C 258.0001831054688 126.1445236206055 255.6073608398438 131.9202880859375 251.2632446289062 136.2631683349609 C 246.9187774658203 140.6074676513672 241.14306640625 143 234.9998931884766 143 L 78.00030517578125 143 C 71.85713195800781 143 66.08142852783203 140.6074676513672 61.73772048950195 136.2638702392578 C 57.39283752441406 131.9202880859375 55.0000114440918 126.1445236206055 55.0000114440918 120.0006408691406 L 54.99920272827148 31.00040626525879 L 51.00030899047852 31.00040626525879 C 45.19142532348633 31.00040626525879 39.56101226806641 32.13616943359375 34.2652473449707 34.37622833251953 C 29.14613151550293 36.54129028320312 24.54677772521973 39.64281845092773 20.59448432922363 43.59511184692383 C 16.64260101318359 47.54623031616211 13.54101276397705 52.14540481567383 11.37583637237549 57.2647590637207 C 9.135777473449707 62.56117248535156 8.00001335144043 68.19193267822266 8.00001335144043 74.00070190429688 L 8.00001335144043 137.0007019042969 C 8.00001335144043 142.8095855712891 9.135777473449707 148.4399871826172 11.37565994262695 153.7353515625 C 13.54095458984375 158.8541717529297 16.64277839660645 163.4536437988281 20.59507179260254 167.4059295654297 C 24.54571914672852 171.3566436767578 29.14507102966309 174.4578247070312 34.26554107666016 176.6235198974609 C 39.56254196166992 178.8640594482422 45.19289398193359 180.0001068115234 51.00030899047852 180.0001068115234 L 345.9996032714844 180.0001068115234 M 345.9996032714844 188.0001068115234 L 51.00030899047852 188.0001068115234 C 44.11530685424805 188.0001068115234 37.43642425537109 186.6510009765625 31.14901351928711 183.9915313720703 C 25.07583618164062 181.4228820800781 19.62177848815918 177.7463989257812 14.93818950653076 173.0628204345703 C 10.25371932983398 168.3782958984375 6.57630729675293 162.9242858886719 4.007719039916992 156.8519897460938 C 1.348189473152161 150.5645751953125 1.304716261074645e-05 143.8856964111328 1.304716261074645e-05 137.0007019042969 L 1.304716261074645e-05 74.00070190429688 C 1.304716261074645e-05 67.11569976806641 1.348189473152161 60.43681716918945 4.007719039916992 54.14852523803711 C 6.57630729675293 48.07528686523438 10.25371932983398 42.62128829956055 14.93818950653076 37.93770217895508 C 19.62177848815918 33.25411224365234 25.07583618164062 29.57670021057129 31.14901351928711 27.00811195373535 C 37.43642425537109 24.34858322143555 44.11530685424805 23.00040626525879 51.00030899047852 23.00040626525879 L 62.99913024902344 23.00040626525879 L 63.0000114440918 120.0005798339844 C 63.0000114440918 124.0065231323242 64.56060028076172 127.7738800048828 67.39377593994141 130.6062316894531 C 70.22701263427734 133.4394073486328 73.99348449707031 135 78.00030517578125 135 L 234.9998931884766 135 C 239.0067138671875 135 242.773193359375 133.4394073486328 245.6064300537109 130.6062316894531 C 248.4396057128906 127.7738800048828 250.0001831054688 124.0065231323242 250.0001831054688 120.0005798339844 L 250.0001831054688 23.00040626525879 L 276.033203125 23.00040626525879 C 276.5473022460938 15.18175888061523 283.0518493652344 8.999994277954102 290.9997253417969 8.999994277954102 C 298.948486328125 8.999994277954102 305.4529418945312 15.18175888061523 305.9671325683594 23.00040626525879 L 345.9996032714844 23.00040626525879 C 352.8846130371094 23.00040626525879 359.5635375976562 24.34858322143555 365.8518371582031 27.00811195373535 C 371.9250183105469 29.57670021057129 377.3789978027344 33.25411224365234 382.0625915527344 37.93770217895508 C 386.7462463378906 42.62128829956055 390.4236145019531 48.07622909545898 392.9922485351562 54.14852523803711 C 395.6517333984375 60.43681716918945 396.9999084472656 67.11569976806641 396.9999084472656 74.00070190429688 L 396.9999084472656 137.0007019042969 C 396.9999084472656 143.8848114013672 395.6517333984375 150.5645751953125 392.9922485351562 156.8519897460938 C 390.4236145019531 162.9242858886719 386.7462463378906 168.3782958984375 382.0625915527344 173.0628204345703 C 377.3789978027344 177.7463989257812 371.9250183105469 181.4228820800781 365.8518371582031 183.9915313720703 C 359.5635375976562 186.6510009765625 352.8846130371094 188.0001068115234 345.9996032714844 188.0001068115234 Z"/>
    </g>
    <path id="Union_35" data-name="Union 35" class="cls-2" d="M-791.664,750a50.69,50.69,0,0,1-19.851-4.008,50.8,50.8,0,0,1-16.211-10.93,50.825,50.825,0,0,1-10.93-16.211A50.671,50.671,0,0,1-842.665,699V640.029a50.685,50.685,0,0,1,4.008-19.852,50.825,50.825,0,0,1,10.93-16.211c.074-.074.148-.148.222-.22-.106,1.342-.16,2.718-.16,4.09v58.972a50.671,50.671,0,0,0,4.008,19.851,50.807,50.807,0,0,0,10.93,16.211A50.8,50.8,0,0,0-796.516,713.8a50.676,50.676,0,0,0,19.852,4.009h263a50.668,50.668,0,0,0,19.851-4.009A50.838,50.838,0,0,0-477.6,702.869q1.039-1.04,2.012-2.129a16.228,16.228,0,0,1,2.6-7.351,16.218,16.218,0,0,1-2.672-8.93,16.179,16.179,0,0,1,1.595-7.022,16.181,16.181,0,0,1-1.595-7.022,16.194,16.194,0,0,1,2.082-7.958,16.2,16.2,0,0,1-2.082-7.959,16.224,16.224,0,0,1,2.966-9.363,16.224,16.224,0,0,1-2.966-9.363,16.188,16.188,0,0,1,1.931-7.682,16.192,16.192,0,0,1-1.931-7.683,16.334,16.334,0,0,1,.1-1.814,16.337,16.337,0,0,1-5.1-11.843,16.8,16.8,0,0,1,17-16.585,16.8,16.8,0,0,1,17,16.585,16.537,16.537,0,0,1-.1,1.814,16.339,16.339,0,0,1,5.1,11.844,16.2,16.2,0,0,1-1.93,7.683,16.2,16.2,0,0,1,1.93,7.682,16.23,16.23,0,0,1-2.966,9.363,16.23,16.23,0,0,1,2.966,9.363,16.2,16.2,0,0,1-2.081,7.959,16.194,16.194,0,0,1,2.081,7.958,16.193,16.193,0,0,1-1.594,7.022,16.191,16.191,0,0,1,1.594,7.022,16.211,16.211,0,0,1-2.672,8.93,16.211,16.211,0,0,1,2.672,8.93,16.427,16.427,0,0,1-6.742,13.227q-.094.274-.191.547a16.2,16.2,0,0,1,1.933,7.689,16.8,16.8,0,0,1-17,16.585,17.529,17.529,0,0,1-2.84-.23,50.742,50.742,0,0,1-10.308,5.855A50.7,50.7,0,0,1-496.665,750Z" transform="translate(1760.665 304)"/>
    <rect id="Rectangle_58" data-name="Rectangle 58" class="cls-3" width="16" height="16" rx="8" transform="translate(1258 940) rotate(90)"/>
    <path id="Path_25" data-name="Path 25" class="cls-4" d="M2.008-11.348s5.955-6.944,15.117-6.944,18.309,6.944,18.309,6.944" transform="translate(1253.276 930.45) rotate(90)"/>
    <g id="Rectangle_60" data-name="Rectangle 60" class="cls-5" transform="translate(972 896)">
      <rect class="cls-8" width="25" height="27" rx="7"/>
      <rect class="cls-10" x="3" y="3" width="19" height="21" rx="4"/>
    </g>
    <g id="Rectangle_64" data-name="Rectangle 64" class="cls-5" transform="translate(1149 896)">
      <rect class="cls-8" width="25" height="27" rx="7"/>
      <rect class="cls-10" x="3" y="3" width="19" height="21" rx="4"/>
    </g>
    <g id="Rectangle_61" data-name="Rectangle 61" class="cls-5" transform="translate(972 917)">
      <rect class="cls-8" width="25" height="27" rx="7"/>
      <rect class="cls-10" x="3" y="3" width="19" height="21" rx="4"/>
    </g>
    <g id="Rectangle_65" data-name="Rectangle 65" class="cls-5" transform="translate(1149 917)">
      <rect class="cls-8" width="25" height="27" rx="7"/>
      <rect class="cls-10" x="3" y="3" width="19" height="21" rx="4"/>
    </g>
    <g id="Rectangle_62" data-name="Rectangle 62" class="cls-5" transform="translate(972 938)">
      <rect class="cls-8" width="25" height="27" rx="7"/>
      <rect class="cls-10" x="3" y="3" width="19" height="21" rx="4"/>
    </g>
    <g id="Rectangle_66" data-name="Rectangle 66" class="cls-5" transform="translate(1149 938)">
      <rect class="cls-8" width="25" height="27" rx="7"/>
      <rect class="cls-10" x="3" y="3" width="19" height="21" rx="4"/>
    </g>
    <g id="Rectangle_63" data-name="Rectangle 63" class="cls-5" transform="translate(972 960)">
      <rect class="cls-8" width="25" height="27" rx="7"/>
      <rect class="cls-10" x="3" y="3" width="19" height="21" rx="4"/>
    </g>
    <g id="Rectangle_67" data-name="Rectangle 67" class="cls-5" transform="translate(1149 960)">
      <rect class="cls-8" width="25" height="27" rx="7"/>
      <rect class="cls-10" x="3" y="3" width="19" height="21" rx="4"/>
    </g>
    <g id="Group_17" data-name="Group 17" transform="translate(2187 -482) rotate(90)">
      <circle id="Ellipse_6" data-name="Ellipse 6" class="cls-3" cx="17" cy="17" r="17" transform="translate(1404 864)"/>
      <circle id="Ellipse_11" data-name="Ellipse 11" class="cls-3" cx="17" cy="17" r="17" transform="translate(1387 864)"/>
      <circle id="Ellipse_12" data-name="Ellipse 12" class="cls-3" cx="17" cy="17" r="17" transform="translate(1373 869)"/>
      <circle id="Ellipse_7" data-name="Ellipse 7" class="cls-3" cx="17" cy="17" r="17" transform="translate(1424 864)"/>
      <circle id="Ellipse_8" data-name="Ellipse 8" class="cls-3" cx="17" cy="17" r="17" transform="translate(1441 864)"/>
      <circle id="Ellipse_9" data-name="Ellipse 9" class="cls-3" cx="17" cy="17" r="17" transform="translate(1456 864)"/>
      <circle id="Ellipse_10" data-name="Ellipse 10" class="cls-3" cx="17" cy="17" r="17" transform="translate(1476 864)"/>
      <circle id="Ellipse_13" data-name="Ellipse 13" class="cls-3" cx="17" cy="17" r="17" transform="translate(1498 869)"/>
    </g>
    <g id="Group_16" data-name="Group 16" transform="translate(2237.5 -558.5) rotate(90)">
      <g id="Rectangle_70" data-name="Rectangle 70" class="cls-6" transform="translate(1423 906)">
        <rect class="cls-8" width="74" height="26" rx="13"/>
        <rect class="cls-10" x="4" y="4" width="66" height="18" rx="9"/>
      </g>
      <g id="Rectangle_69" data-name="Rectangle 69" class="cls-6" transform="translate(1473 874)">
        <rect class="cls-8" width="133.626" height="58" rx="13"/>
        <rect class="cls-10" x="4" y="4" width="125.626" height="50" rx="9"/>
      </g>
    </g>
    <g id="Ellipse_33" data-name="Ellipse 33" class="cls-7" transform="translate(1191 948.5)">
      <circle class="cls-8" cx="17.5" cy="17.5" r="17.5"/>
      <circle class="cls-10" cx="17.5" cy="17.5" r="14.5"/>
    </g>
    <rect id="Rectangle_183" data-name="Rectangle 183" class="cls-2" width="19" height="10" transform="translate(1152 909.5)"/>
    <rect id="Rectangle_184" data-name="Rectangle 184" class="cls-2" width="19" height="12" transform="translate(1152 928.5)"/>
    <rect id="Rectangle_185" data-name="Rectangle 185" class="cls-2" width="19" height="14" transform="translate(1152 946.5)"/>
    <rect id="Rectangle_186" data-name="Rectangle 186" class="cls-2" width="19" height="17" transform="translate(1152 965.5)"/>
    <rect id="Rectangle_187" data-name="Rectangle 187" class="cls-2" width="19" height="10" transform="translate(978 909.5)"/>
    <rect id="Rectangle_188" data-name="Rectangle 188" class="cls-2" width="19" height="12" transform="translate(978 928.5)"/>
    <rect id="Rectangle_189" data-name="Rectangle 189" class="cls-2" width="19" height="14" transform="translate(978 946.5)"/>
    <rect id="Rectangle_190" data-name="Rectangle 190" class="cls-2" width="19" height="17" transform="translate(978 965.5)"/>
    <rect id="Rectangle_191" data-name="Rectangle 191" class="cls-2" width="46" height="77" transform="translate(1313 964.5)"/>
  </g>
</svg>
