<svg xmlns="http://www.w3.org/2000/svg" width="1181" height="293.009" viewBox="0 0 1181 293.009">
  <g id="Group_77" data-name="Group 77" transform="translate(-2534.986 -2656.757)">
    <g id="Rectangle_208" data-name="Rectangle 208" transform="translate(2677.986 2860.071)" fill="#ffebcd" stroke="#272727" stroke-width="8">
      <rect width="92" height="50" stroke="none"/>
      <rect x="4" y="4" width="84" height="42" fill="none"/>
    </g>
    <rect id="Rectangle_210" data-name="Rectangle 210" width="91" height="30" transform="translate(2698.986 2880.071)" fill="#272727" opacity="0.2"/>
    <path id="Rectangle_209" data-name="Rectangle 209" d="M8.526,0h0a42.63,42.63,0,0,1,42.63,42.63V112.3A17.052,17.052,0,0,1,34.1,129.353H21.315A21.315,21.315,0,0,1,0,108.038V8.526A8.526,8.526,0,0,1,8.526,0Z" transform="matrix(0.951, -0.309, 0.309, 0.951, 2625.887, 2814.896)" fill="#272727"/>
    <g id="Group_75" data-name="Group 75" transform="translate(3672.148 2656.757) rotate(90)">
      <g id="Group_23" data-name="Group 23" transform="translate(128.056 280.96)">
        <g id="Rectangle_21" data-name="Rectangle 21" transform="translate(0 0)" fill="#fff" stroke="#272727" stroke-width="8">
          <rect width="142.508" height="80.389" rx="14" stroke="none"/>
          <rect x="4" y="4" width="134.508" height="72.389" rx="10" fill="none"/>
        </g>
        <g id="Rectangle_22" data-name="Rectangle 22" transform="translate(10.962 10.231)" fill="#84b1cb" stroke="#272727" stroke-width="6">
          <rect width="99.39" height="59.926" rx="14" stroke="none"/>
          <rect x="3" y="3" width="93.39" height="53.926" rx="11" fill="none"/>
        </g>
        <rect id="Rectangle_76" data-name="Rectangle 76" width="9.501" height="19.732" rx="4.75" transform="translate(133.738 57.003) rotate(90)" fill="#272727"/>
        <rect id="Rectangle_77" data-name="Rectangle 77" width="11.693" height="11.693" rx="5.846" transform="translate(130.084 36.54) rotate(90)" fill="#272727"/>
        <rect id="Rectangle_118" data-name="Rectangle 118" width="43.285" height="4.861" rx="2.43" transform="matrix(0.629, -0.777, 0.777, 0.629, 71.364, 61.398)" fill="rgba(255,255,255,0.51)"/>
        <rect id="Rectangle_119" data-name="Rectangle 119" width="21.758" height="4.861" rx="2.43" transform="matrix(0.629, -0.777, 0.777, 0.629, 83.401, 56.305)" fill="rgba(255,255,255,0.51)"/>
        <rect id="Rectangle_122" data-name="Rectangle 122" width="2.923" height="69.427" transform="translate(5.116 5.116)" fill="rgba(39,39,39,0.25)"/>
      </g>
      <g id="Path_39" data-name="Path 39" transform="translate(209.015 128.623) rotate(7)" fill="#ffebcd">
        <path d="M 34.43330764770508 168.2189025878906 C 17.10092735290527 168.2189025878906 2.999998092651367 156.3975219726562 2.999998092651367 141.8670959472656 L 2.999998092651367 29.35180854797363 C 2.999998092651367 14.82137966156006 17.10092735290527 2.999998807907104 34.43330764770508 2.999998807907104 C 51.58478927612305 2.999998807907104 65.57193756103516 14.57676315307617 65.86203765869141 28.89859771728516 C 65.23184204101562 30.89094924926758 62.77775573730469 38.84929275512695 60.29168701171875 49.59878540039062 C 58.632568359375 56.77264022827148 57.30995178222656 63.68942642211914 56.36054611206055 70.15699768066406 C 55.16740417480469 78.28488159179688 54.56245040893555 85.73294830322266 54.56245040893555 92.29433441162109 C 54.56245040893555 98.88583374023438 55.17226028442383 105.6609954833984 56.37497329711914 112.4316177368164 C 57.33566665649414 117.8398818969727 58.67504501342773 123.2592163085938 60.35590362548828 128.5390777587891 C 62.67465972900391 135.8227081298828 64.98630523681641 140.7918090820312 65.85592651367188 142.5593872070312 C 65.41653442382812 156.7711181640625 51.48958206176758 168.2189025878906 34.43330764770508 168.2189025878906 Z" stroke="none"/>
        <path d="M 34.43330764770508 6 C 18.75514221191406 6 6.000003814697266 16.4755859375 6.000003814697266 29.351806640625 L 6.000003814697266 141.8670959472656 C 6.000003814697266 154.7433166503906 18.75514221191406 165.2189025878906 34.43330764770508 165.2189025878906 C 49.57464218139648 165.2189025878906 61.9897346496582 155.4477996826172 62.82218551635742 143.1803894042969 C 60.19099807739258 137.6658935546875 51.56244659423828 117.6470794677734 51.56244659423828 92.29434204101562 C 51.56244659423828 65.87299346923828 60.95866012573242 34.51768493652344 62.84720993041992 28.48324584960938 C 62.28902435302734 16.0078125 49.75741577148438 6 34.43330764770508 6 M 34.43330764770508 0 C 53.45030975341797 0 68.86661529541016 13.14125061035156 68.86661529541016 29.351806640625 C 68.86661529541016 29.351806640625 57.56244659423828 64.16550445556641 57.56244659423828 92.29434204101562 C 57.56244659423828 120.4231414794922 68.86661529541016 141.8670959472656 68.86661529541016 141.8670959472656 C 68.86661529541016 158.0776519775391 53.45030975341797 171.2189025878906 34.43330764770508 171.2189025878906 C 15.41630935668945 171.2189025878906 0 158.0776519775391 0 141.8670959472656 L 0 29.351806640625 C 0 13.14125061035156 15.41630935668945 0 34.43330764770508 0 Z" stroke="none" fill="#272727"/>
      </g>
      <path id="Subtraction_22" data-name="Subtraction 22" d="M17.635,170.552a40.766,40.766,0,0,1-4.953-.3A39.461,39.461,0,0,1,0,166.494a33.381,33.381,0,0,0,15.319-8.837,26.208,26.208,0,0,0,7.335-15.065,97.56,97.56,0,0,1-3.875-14.821,122.845,122.845,0,0,1-1.941-16.078,112.513,112.513,0,0,1,.637-19.682,151.517,151.517,0,0,1,4.4-21.325c1.709-6.225,3.84-12.851,6.333-19.693,4.259-11.689,8.121-20,8.16-20.078a26.282,26.282,0,0,0-3.927-17.152,31.92,31.92,0,0,0-5.951-7.036A36.075,36.075,0,0,0,18.45,1.339,38.661,38.661,0,0,1,28.6,0a40.785,40.785,0,0,1,4.951.3A39.392,39.392,0,0,1,46.57,4.227a35.164,35.164,0,0,1,10.1,7.577,29.483,29.483,0,0,1,6.187,10.16,25.5,25.5,0,0,1,1.294,11.67c-.039.083-3.9,8.387-8.16,20.078C53.5,60.554,51.365,67.18,49.656,73.405a151.514,151.514,0,0,0-4.4,21.325,112.512,112.512,0,0,0-.637,19.682,122.838,122.838,0,0,0,1.941,16.078,96.673,96.673,0,0,0,3.875,14.821,25.452,25.452,0,0,1-3.523,10.131,28.8,28.8,0,0,1-7.255,7.989A36.43,36.43,0,0,1,17.635,170.552Z" transform="matrix(1, 0.017, -0.017, 1, 207.483, 128.275)" fill="#272727" opacity="0.2"/>
      <g id="Group_55" data-name="Group 55" transform="matrix(1, -0.017, 0.017, 1, 134.296, 2.417)">
        <g id="ludek2" transform="translate(0 206.453) rotate(-90)">
          <g id="Union_2" data-name="Union 2" transform="translate(0 6.943)" fill="#ffebcd">
            <path d="M 118.5471038818359 127.5458068847656 L 51.00030517578125 127.5458068847656 C 44.65317916870117 127.5458068847656 38.49850463867188 126.3037567138672 32.70727920532227 123.8541259765625 C 27.11120414733887 121.4873046875 22.08448028564453 118.0979309082031 17.76663017272949 113.7800750732422 C 13.44817924499512 109.4616317749023 10.05850410461426 104.4346008300781 7.691754341125488 98.83867645263672 C 5.242054462432861 93.04730224609375 4.000004291534424 86.89263153076172 4.000004291534424 80.54550170898438 L 4.000004291534424 61.96230316162109 C 4.000004291534424 50.11615371704102 8.420754432678223 38.80102920532227 16.44787979125977 30.10130310058594 C 23.430908203125 22.53339385986328 32.59117126464844 17.51843452453613 42.5930061340332 15.71197605133057 L 42.5930061340332 61.14780426025391 C 42.5930061340332 63.88887786865234 44.82302856445312 66.11890411376953 47.56410598754883 66.11890411376953 C 50.30467987060547 66.11890411376953 52.53430557250977 63.88887786865234 52.53430557250977 61.14780426025391 L 52.53430557250977 14.96200370788574 L 91.24470520019531 14.96200370788574 L 95.24470520019531 14.96200370788574 L 95.24470520019531 10.96200370788574 L 95.24470520019531 9.706503868103027 C 95.24470520019531 6.559928417205811 97.80503082275391 4.000003337860107 100.9521026611328 4.000003337860107 C 104.0986785888672 4.000003337860107 106.6586074829102 6.559928417205811 106.6586074829102 9.706503868103027 L 106.6586074829102 10.96200370788574 L 106.6586074829102 14.96200370788574 L 110.6586074829102 14.96200370788574 L 118.5471038818359 14.96200370788574 C 124.8940048217773 14.96200370788574 131.0490264892578 16.20410346984863 136.8412017822266 18.65377807617188 C 142.4375 21.02067756652832 147.4641265869141 24.41025352478027 151.7814025878906 28.72835350036621 C 156.0995330810547 33.04647827148438 159.4889068603516 38.07320404052734 161.8556518554688 43.66912841796875 C 164.3053588867188 49.46050262451172 165.5474090576172 55.61517715454102 165.5474090576172 61.96230316162109 L 165.5474090576172 80.54550170898438 C 165.5474090576172 86.89263153076172 164.3053588867188 93.04730224609375 161.8557281494141 98.83853149414062 C 159.4890747070312 104.4342041015625 156.099609375 109.4613037109375 151.7814025878906 113.7803497314453 C 147.4638366699219 118.0979309082031 142.4371032714844 121.4873046875 136.8411865234375 123.8540496826172 C 131.0490264892578 126.3037033081055 124.8940048217773 127.5458068847656 118.5471038818359 127.5458068847656 Z" stroke="none"/>
            <path d="M 118.547119140625 123.5458145141602 C 124.3557891845703 123.5458145141602 129.9866180419922 122.4100189208984 135.2830505371094 120.1700210571289 C 140.4021453857422 118.0049591064453 145.00146484375 114.903434753418 148.9526977539062 110.9522247314453 C 152.9049682617188 106.9991683959961 156.0066680908203 102.3993453979492 158.1717376708984 97.28025817871094 C 160.4116821289062 91.98475646972656 161.5474090576172 86.35434722900391 161.5474090576172 80.54549407958984 L 161.5474090576172 61.96231460571289 C 161.5474090576172 56.15346145629883 160.4116821289062 50.52305221557617 158.1716156005859 45.22725677490234 C 156.0065612792969 40.10816955566406 152.905029296875 35.50884628295898 148.9527282714844 31.55652046203613 C 145.0016174316406 27.60463905334473 140.4024353027344 24.50302124023438 135.2831420898438 22.33784484863281 C 129.9866180419922 20.09778594970703 124.3557891845703 18.96199226379395 118.547119140625 18.96199226379395 L 110.6585845947266 18.96199226379395 L 102.6585845947266 18.96199226379395 L 102.6585845947266 10.96199131011963 L 102.6585845947266 9.706491470336914 C 102.6585845947266 8.765521049499512 101.8930587768555 7.999991893768311 100.9521179199219 7.999991893768311 C 100.0106430053711 7.999991893768311 99.24470520019531 8.765521049499512 99.24470520019531 9.706491470336914 L 99.24470520019531 10.96199131011963 L 99.24470520019531 18.96199226379395 L 91.24470520019531 18.96199226379395 L 56.53429412841797 18.96199226379395 L 56.53429412841797 61.1478157043457 C 56.53429412841797 66.09449005126953 52.51029205322266 70.11890411376953 47.56411743164062 70.11890411376953 C 42.61743927001953 70.11890411376953 38.59299850463867 66.09449005126953 38.59299850463867 61.1478157043457 L 38.59299850463867 20.77821350097656 C 31.29325294494629 22.9731559753418 24.66211318969727 27.09757995605469 19.38767433166504 32.81381607055664 C 12.04423427581787 40.77257919311523 7.999998569488525 51.12437438964844 7.999998569488525 61.96231460571289 L 7.999998569488525 80.54549407958984 C 7.999998569488525 86.35434722900391 9.135733604431152 91.98475646972656 11.37579250335693 97.28054809570312 C 13.54085159301758 102.3996353149414 16.64267539978027 106.9992599487305 20.59505653381348 110.9516677856445 C 24.54685211181641 114.9034652709961 29.14614486694336 118.0049362182617 34.26555633544922 120.1701354980469 C 39.56105804443359 122.4100799560547 45.19144058227539 123.5458145141602 51.00029373168945 123.5458145141602 L 118.547119140625 123.5458145141602 M 118.547119140625 131.5458221435547 L 51.00029373168945 131.5458221435547 C 44.11529159545898 131.5458221435547 37.43640899658203 130.1976165771484 31.14899826049805 127.5381088256836 C 25.07579231262207 124.9695205688477 19.62179183959961 121.292106628418 14.93820476531982 116.6085205078125 C 10.25370407104492 111.9239883422852 6.576292991638184 106.4699935913086 4.007704734802246 100.3968124389648 C 1.348204493522644 94.10940551757812 -1.353544348603464e-06 87.43048858642578 -1.353544348603464e-06 80.54549407958984 L -1.353544348603464e-06 61.96231460571289 C -1.353544348603464e-06 49.10848999023438 4.796998500823975 36.82981491088867 13.50811672210693 27.38881492614746 C 22.16879272460938 18.0026969909668 33.91829299926758 12.23549175262451 46.59299850463867 11.15010929107666 L 46.59299850463867 61.1478157043457 C 46.59299850463867 61.68328475952148 47.02861785888672 62.11890411376953 47.56411743164062 62.11890411376953 C 48.09870529174805 62.11890411376953 48.53429412841797 61.68328475952148 48.53429412841797 61.1478157043457 L 48.53429412841797 11.02049160003662 C 49.35779190063477 10.98181533813477 50.18670272827148 10.96199131011963 51.00029373168945 10.96199131011963 L 91.24470520019531 10.96199131011963 L 91.24470520019531 9.706491470336914 C 91.24470520019531 4.346109390258789 95.59078979492188 -8.322323083120864e-06 100.9521179199219 -8.322323083120864e-06 C 106.3125 -8.322323083120864e-06 110.6585845947266 4.346109390258789 110.6585845947266 9.706491470336914 L 110.6585845947266 10.96199131011963 L 118.547119140625 10.96199131011963 C 125.4321136474609 10.96199131011963 132.1109924316406 12.3101978302002 138.3993225097656 14.96969795227051 C 144.4725036621094 17.53831481933594 149.9264984130859 21.2156982421875 154.6101226806641 25.90019798278809 C 159.293701171875 30.58381462097168 162.9711151123047 36.03781509399414 165.5397033691406 42.11099243164062 C 168.1992034912109 48.39840316772461 169.5474090576172 55.07731628417969 169.5474090576172 61.96231460571289 L 169.5474090576172 80.54549407958984 C 169.5474090576172 87.43048858642578 168.1992034912109 94.10940551757812 165.5397033691406 100.3968124389648 C 162.9711151123047 106.4699935913086 159.293701171875 111.9239883422852 154.6101226806641 116.6085205078125 C 149.9264984130859 121.292106628418 144.4725036621094 124.9695205688477 138.3993225097656 127.5381088256836 C 132.1109924316406 130.1976165771484 125.4321136474609 131.5458221435547 118.547119140625 131.5458221435547 Z" stroke="none" fill="#272727"/>
          </g>
          <g id="Group_17" data-name="Group 17" transform="translate(176.856 19.366) rotate(90)">
            <circle id="Ellipse_6" data-name="Ellipse 6" cx="12.424" cy="12.424" r="12.424" transform="translate(22.655 0)" fill="#272727"/>
            <circle id="Ellipse_11" data-name="Ellipse 11" cx="12.424" cy="12.424" r="12.424" transform="translate(10.231 0)" fill="#272727"/>
            <circle id="Ellipse_12" data-name="Ellipse 12" cx="12.424" cy="12.424" r="12.424" transform="translate(0 3.654)" fill="#272727"/>
            <circle id="Ellipse_7" data-name="Ellipse 7" cx="12.424" cy="12.424" r="12.424" transform="translate(37.271 0)" fill="#272727"/>
            <circle id="Ellipse_8" data-name="Ellipse 8" cx="12.424" cy="12.424" r="12.424" transform="translate(49.695 0)" fill="#272727"/>
            <circle id="Ellipse_9" data-name="Ellipse 9" cx="12.424" cy="12.424" r="12.424" transform="translate(60.657 0)" fill="#272727"/>
            <circle id="Ellipse_10" data-name="Ellipse 10" cx="12.424" cy="12.424" r="12.424" transform="translate(75.273 0)" fill="#272727"/>
            <circle id="Ellipse_13" data-name="Ellipse 13" cx="12.424" cy="12.424" r="12.424" transform="translate(91.351 3.654)" fill="#272727"/>
          </g>
          <path id="Union_36" data-name="Union 36" d="M50.081,120.576A50.957,50.957,0,0,1,0,69.584V51a51.635,51.635,0,0,1,.383-6.267v2.93A50.955,50.955,0,0,0,50.468,98.654c.3.005.611.008.914.008H118.93a50.839,50.839,0,0,0,28.647-8.794,12.344,12.344,0,0,1,1.651-5.389,12.451,12.451,0,0,1-.588-11.344,12.455,12.455,0,0,1,.332-10.882,12.438,12.438,0,0,1,.6-12.581,12.443,12.443,0,0,1-.781-12.227,12.371,12.371,0,0,1-1.244-5.426,12.54,12.54,0,0,1,.073-1.358,12.424,12.424,0,1,1,21.12-8.873,12.556,12.556,0,0,1-.074,1.359,12.432,12.432,0,0,1,2.483,14.3,12.439,12.439,0,0,1-.78,12.227,12.435,12.435,0,0,1,.6,12.581,12.447,12.447,0,0,1,.332,10.882,12.444,12.444,0,0,1-.588,11.344,12.429,12.429,0,0,1-3.5,16.34A12.426,12.426,0,0,1,145.491,112.9a50.832,50.832,0,0,1-26.944,7.685H50.884C50.618,120.583,50.348,120.58,50.081,120.576ZM48.534,29.035V.059l.189-.009.194-.008V28.265a.962.962,0,0,1-.382.771v0Z" transform="translate(0.808 13.534)" fill="#272727" opacity="0.2"/>
          <g id="Group_16" data-name="Group 16" transform="translate(206.453 0) rotate(90)">
            <g id="Rectangle_70" data-name="Rectangle 70" transform="translate(0 23.386)" fill="#007c4c" stroke="#272727" stroke-width="8">
              <rect width="54.08" height="19.001" rx="9.501" stroke="none"/>
              <rect x="4" y="4" width="46.08" height="11.001" rx="5.501" fill="none"/>
            </g>
            <g id="Rectangle_69" data-name="Rectangle 69" transform="translate(36.54)" fill="#007c4c" stroke="#272727" stroke-width="8">
              <rect width="97.655" height="42.387" rx="13" stroke="none"/>
              <rect x="4" y="4" width="89.655" height="34.387" rx="9" fill="none"/>
            </g>
          </g>
          <g id="Ellipse_33" data-name="Ellipse 33" transform="translate(80.389 61.388)" fill="#b72020" stroke="#272727" stroke-width="6">
            <circle cx="12.789" cy="12.789" r="12.789" stroke="none"/>
            <circle cx="12.789" cy="12.789" r="9.789" fill="none"/>
          </g>
        </g>
        <rect id="Rectangle_162" data-name="Rectangle 162" width="15.347" height="5.116" rx="2.558" transform="translate(44.228 78.18) rotate(34)" fill="#272727"/>
        <path id="Path_34" data-name="Path 34" d="M0,0A16.843,16.843,0,0,0,10.808,3.83C17.5,3.83,24.428,0,24.428,0" transform="translate(49.072 67.675) rotate(34)" fill="none" stroke="#272727" stroke-linecap="round" stroke-width="6"/>
        <rect id="Rectangle_216" data-name="Rectangle 216" width="24.117" height="36.54" transform="translate(106.372 3.11)" fill="#272727" opacity="0.2"/>
      </g>
      <path id="Path_38" data-name="Path 38" d="M75.273,0H195.732c42.422,1.539,100.13,33.427,112.014,75.273s-25.831,88.954-75.273,75.273H75.273A75.273,75.273,0,0,1,75.273,0Z" transform="translate(120.017 523.847) rotate(-90)" fill="#272727"/>
      <rect id="Rectangle_204" data-name="Rectangle 204" width="501.41" height="101.582" rx="46" transform="translate(173.366 940.407) rotate(-90)" fill="#272727"/>
      <rect id="Rectangle_205" data-name="Rectangle 205" width="286.552" height="108.89" rx="54.445" transform="translate(0 626.454) rotate(-47)" fill="#272727"/>
      <rect id="Rectangle_206" data-name="Rectangle 206" width="316.516" height="108.89" rx="54.445" transform="translate(85.356 550.879) rotate(49)" fill="#272727"/>
      <rect id="Rectangle_203" data-name="Rectangle 203" width="151.353" height="139.584" rx="69.792" transform="translate(128.018 427.342)" fill="#272727"/>
      <ellipse id="Ellipse_111" data-name="Ellipse 111" cx="106.698" cy="97.563" rx="106.698" ry="97.563" transform="translate(82.015 538.463) rotate(-90)" fill="#272727"/>
      <g id="Rectangle_201" data-name="Rectangle 201" transform="matrix(0.358, 0.934, -0.934, 0.358, 218.451, 354.165)" fill="#ffebcd" stroke="#272727" stroke-width="8">
        <rect width="59.926" height="182.702" rx="29.963" stroke="none"/>
        <rect x="4" y="4" width="51.926" height="174.702" rx="25.963" fill="none"/>
      </g>
      <rect id="Rectangle_211" data-name="Rectangle 211" width="59.926" height="195.857" rx="29.963" transform="matrix(0.358, 0.934, -0.934, 0.358, 230.875, 349.78)" fill="#272727" opacity="0.2"/>
      <g id="Rectangle_200" data-name="Rectangle 200" transform="translate(187.783 234.059) rotate(8)" fill="#ffebcd" stroke="#272727" stroke-width="8">
        <rect width="59.926" height="191.472" rx="29.963" stroke="none"/>
        <rect x="4" y="4" width="51.926" height="183.472" rx="25.963" fill="none"/>
      </g>
    </g>
    <rect id="Rectangle_207" data-name="Rectangle 207" width="1181" height="14" rx="7" transform="translate(2534.986 2923.071)" fill="#272727"/>
    <g id="Group_29" data-name="Group 29" transform="translate(3150.989 2684.085) rotate(-16)">
      <path id="Path_18" data-name="Path 18" d="M14.052,40.5S-1.094,37.284.063,27.376s20.183-7.138,19.658-17.091S9.907,0,9.907,0" transform="translate(49.23)" fill="none" stroke="#272727" stroke-linecap="round" stroke-linejoin="bevel" stroke-width="8"/>
      <path id="Path_19" data-name="Path 19" d="M14.052,40.5S-1.094,37.284.063,27.376s20.183-7.138,19.658-17.091S9.907,0,9.907,0" transform="translate(24.615)" fill="none" stroke="#272727" stroke-linecap="round" stroke-linejoin="bevel" stroke-width="8"/>
      <path id="Path_22" data-name="Path 22" d="M14.052,40.5S-1.094,37.284.063,27.376s20.183-7.138,19.658-17.091S9.907,0,9.907,0" fill="none" stroke="#272727" stroke-linecap="round" stroke-linejoin="bevel" stroke-width="8"/>
    </g>
  </g>
</svg>
