<svg xmlns="http://www.w3.org/2000/svg" width="176" height="56" viewBox="0 0 176 56">
  <defs>
    <style>
      .cls-1 {
        fill: #ee982b;
      }

      .cls-2, .cls-6 {
        fill: #272727;
      }

      .cls-2 {
        opacity: 0.2;
      }

      .cls-3 {
        fill: #007c4c;
      }

      .cls-4 {
        fill: none;
        stroke: #272727;
        stroke-linecap: round;
        stroke-width: 6px;
      }

      .cls-5, .cls-6 {
        stroke: none;
      }
    </style>
  </defs>
  <g id="marchewka" transform="translate(176 0.114) rotate(90)">
    <g id="Polygon_1" data-name="Polygon 1" class="cls-1" transform="translate(2.886)">
      <path class="cls-5" d="M 42.70375061035156 124.5000076293945 L 7.296244144439697 124.5000076293945 C 6.245582580566406 124.5000076293945 5.260259628295898 124.0345764160156 4.592921257019043 123.2230682373047 C 3.925582647323608 122.4115447998047 3.659228801727295 121.3548889160156 3.862151861190796 120.3239898681641 L 21.56589126586914 30.38894653320312 C 21.97576713562012 28.30680847167969 23.60858345031738 27.5649471282959 24.99999809265137 27.5649471282959 C 26.39141273498535 27.5649471282959 28.02422904968262 28.30680847167969 28.43410491943359 30.38894653320312 L 46.13785934448242 120.3239898681641 C 46.34078216552734 121.3548736572266 46.07442855834961 122.4115447998047 45.40708923339844 123.2230682373047 C 44.7397346496582 124.0345764160156 43.75441360473633 124.5000076293945 42.70375061035156 124.5000076293945 Z"/>
      <path class="cls-6" d="M 24.99999809265137 30.06494140625 C 24.74168968200684 30.06494140625 24.49159812927246 30.13763427734375 24.33101654052734 30.2593994140625 C 24.26941680908203 30.30612182617188 24.10576248168945 30.43019866943359 24.01883506774902 30.87179565429688 L 6.315071105957031 120.8068389892578 C 6.239669799804688 121.1899108886719 6.386997222900391 121.4687042236328 6.523872375488281 121.6351623535156 C 6.660743713378906 121.8015975952148 6.905834197998047 122 7.296253204345703 122 L 42.70374298095703 122 C 43.09416198730469 122 43.33925247192383 121.8015975952148 43.47612380981445 121.6351623535156 C 43.61299896240234 121.4687042236328 43.76032638549805 121.1899108886719 43.6849250793457 120.8068542480469 L 25.98116111755371 30.87179565429688 C 25.89423370361328 30.43021392822266 25.7305793762207 30.30610656738281 25.6689624786377 30.2593994140625 C 25.50837898254395 30.13763427734375 25.2583065032959 30.06494140625 24.99999809265137 30.06494140625 M 24.99999809265137 25.06494140625 C 27.6258487701416 25.06494140625 30.2516975402832 26.67864990234375 30.88701629638672 29.90607452392578 L 48.59077835083008 119.8411254882812 C 49.32063293457031 123.5488357543945 46.48261642456055 127 42.70374298095703 127 L 7.296253204345703 127 C 3.517379760742188 127 0.6793632507324219 123.5488357543945 1.409217834472656 119.8411254882812 L 19.11297988891602 29.90607452392578 C 19.74829864501953 26.67864990234375 22.37414741516113 25.06494140625 24.99999809265137 25.06494140625 Z"/>
    </g>
    <path id="Union_30" data-name="Union 30" class="cls-2" d="M-738.938-681.295a5.952,5.952,0,0,0,1.415-5.159l-.57-2.893a14.283,14.283,0,0,0-5.139-.947,14.137,14.137,0,0,0-8.383,2.719A14.128,14.128,0,0,0-760-690.294a14.124,14.124,0,0,0-9.983,4.078,14.217,14.217,0,0,0-1.257,1.417,6,6,0,0,1-3.469-6.654l.435-2.209a17.5,17.5,0,0,1,10.725-3.632,17.481,17.481,0,0,1,10.431,3.414,17.481,17.481,0,0,1,10.431-3.414,17.867,17.867,0,0,1,3.078.266l-15.622-79.36a5.989,5.989,0,0,0-1.5-3,5.714,5.714,0,0,1,2.278-2.88,6.129,6.129,0,0,1,3.332-.96,6.133,6.133,0,0,1,3.69,1.21,5.882,5.882,0,0,1,2.2,3.631l17.7,89.935a5.978,5.978,0,0,1-1.253,4.97,5.979,5.979,0,0,1-4.634,2.189Z" transform="translate(779 811.294)"/>
    <g id="Union_3" data-name="Union 3" class="cls-3" transform="translate(-0.114 117)">
      <path class="cls-5" d="M 28.54895973205566 56.5 C 24.5213794708252 56.5 20.73566055297852 54.94013977050781 17.88917922973633 52.10774993896484 C 15.04601955413818 49.27867889404297 13.48021984100342 45.51794052124023 13.48021984100342 41.5182991027832 C 13.48021984100342 39.34461975097656 13.93745040893555 37.24932098388672 14.83922004699707 35.29058837890625 L 16.04810905456543 32.66474914550781 L 13.27538013458252 31.8471794128418 C 10.22513961791992 30.94778060913086 7.480690002441406 29.05488967895508 5.54757022857666 26.51717948913574 C 3.553829908370972 23.89987945556641 2.5 20.77547073364258 2.5 17.4817008972168 C 2.5 13.48206043243408 4.065800189971924 9.721320152282715 6.908959865570068 6.892250061035156 C 9.755439758300781 4.059860229492188 13.54115962982178 2.5 17.56874084472656 2.5 C 20.81926918029785 2.5 23.91415023803711 3.512320041656494 26.51878929138184 5.427529811859131 L 27.99979019165039 6.516510009765625 L 29.48077964782715 5.427519798278809 C 32.08538055419922 3.512320041656494 35.18040084838867 2.5 38.43125915527344 2.5 C 42.45848846435547 2.5 46.24409103393555 4.059869766235352 49.0906982421875 6.892280101776123 C 51.93407821655273 9.721460342407227 53.5 13.48219013214111 53.5 17.4817008972168 C 53.5 20.62461090087891 52.53223037719727 23.63241004943848 50.70130920410156 26.1799201965332 C 48.90586090087891 28.67807960510254 46.42937088012695 30.54579925537109 43.53958129882812 31.58116912841797 L 40.91912078857422 32.5200309753418 L 42.13307189941406 35.02494812011719 C 43.11819839477539 37.05772018432617 43.61771011352539 39.24240112304688 43.61771011352539 41.5182991027832 C 43.61771011352539 45.5178108215332 42.05178833007812 49.27854156494141 39.20840835571289 52.10771942138672 C 36.36178970336914 54.94012069702148 32.57619094848633 56.5 28.54895973205566 56.5 Z"/>
      <path class="cls-6" d="M 17.56874847412109 5 C 14.20658874511719 5 11.04711151123047 6.301376342773438 8.672325134277344 8.664398193359375 C 6.304187774658203 11.02080154418945 5 14.15217590332031 5 17.4817008972168 C 5 20.22348785400391 5.877037048339844 22.82405090332031 7.536289215087891 25.00225067138672 C 9.1494140625 27.11988830566406 11.43870162963867 28.69919967651367 13.98241424560547 29.44923782348633 L 19.52787399291992 31.0843620300293 L 17.11011123657227 36.33605194091797 C 16.3603630065918 37.9645881652832 15.9802131652832 39.70815277099609 15.9802131652832 41.5182991027832 C 15.9802131652832 44.84781265258789 17.28440093994141 47.97920227050781 19.65254974365234 50.33560180664062 C 22.02733612060547 52.69862365722656 25.18681335449219 54 28.5489616394043 54 C 31.91078758239746 54 35.07015228271484 52.69860076904297 37.44507598876953 50.33553695678711 C 39.81340026855469 47.97902679443359 41.11769866943359 44.84767532348633 41.11769866943359 41.5182991027832 C 41.11769866943359 39.62318801879883 40.70240020751953 37.80532455444336 39.88333892822266 36.11522674560547 L 37.45545196533203 31.10540008544922 L 42.69635009765625 29.22767448425293 C 45.10684967041016 28.3640251159668 47.17292404174805 26.80559921264648 48.67123794555664 24.72087478637695 C 50.19472503662109 22.60112380981445 51 20.09785079956055 51 17.4817008972168 C 51 14.15232467651367 49.69570159912109 11.02097320556641 47.32736206054688 8.664463043212891 C 44.95243835449219 6.301399230957031 41.79307556152344 5 38.43125152587891 5 C 35.71698760986328 5 33.13408660888672 5.84429931640625 30.96178817749023 7.441623687744141 L 27.99979972839355 9.619625091552734 L 25.03778839111328 7.441650390625 C 22.86545181274414 5.844310760498047 20.28269958496094 5 17.56874847412109 5 M 17.56874847412109 0 C 21.47423934936523 0 25.08258819580078 1.268386840820312 27.99977493286133 3.413414001464844 C 30.91692543029785 1.268386840820312 34.52536010742188 0 38.43125152587891 0 C 48.13368606567383 0 56 7.826351165771484 56 17.4817008972168 C 56 25.05717468261719 51.15611267089844 31.50790023803711 44.3828010559082 33.93467712402344 C 45.49447631835938 36.22856140136719 46.11769866943359 38.80123901367188 46.11769866943359 41.5182991027832 C 46.11769866943359 51.17364883422852 38.25139999389648 59 28.5489616394043 59 C 18.84553909301758 59 10.9802131652832 51.17364883422852 10.9802131652832 41.5182991027832 C 10.9802131652832 38.92321014404297 11.54878616333008 36.45963668823242 12.56831359863281 34.24510192871094 C 5.300823211669922 32.10221099853516 0 25.40777587890625 0 17.4817008972168 C 0 7.826351165771484 7.865310668945312 0 17.56874847412109 0 Z"/>
    </g>
    <path id="Subtraction_8" data-name="Subtraction 8" class="cls-2" d="M-546.565-579a17.5,17.5,0,0,1-12.423-5.12,17.324,17.324,0,0,1-5.145-12.362,17.283,17.283,0,0,1,1.588-7.274,17.508,17.508,0,0,1-5.029-2.409,17.594,17.594,0,0,1-3.979-3.8,17.271,17.271,0,0,1-3.559-10.55,17.324,17.324,0,0,1,5.146-12.362A17.5,17.5,0,0,1-557.545-638a17.487,17.487,0,0,1,10.431,3.414A17.483,17.483,0,0,1-536.683-638a17.5,17.5,0,0,1,12.423,5.12,17.323,17.323,0,0,1,5.146,12.362,17.362,17.362,0,0,1-.972,5.747,17.388,17.388,0,0,1-2.7,4.944,13.743,13.743,0,0,0,.669-4.247,13.741,13.741,0,0,0-4.135-9.848A14.124,14.124,0,0,0-536.232-628a14.135,14.135,0,0,0-8.383,2.72A14.128,14.128,0,0,0-553-628a14.123,14.123,0,0,0-9.983,4.079,13.742,13.742,0,0,0-4.135,9.848,13.681,13.681,0,0,0,2.859,8.4,14.225,14.225,0,0,0,7.24,4.949,13.659,13.659,0,0,0-1.276,5.794,13.739,13.739,0,0,0,4.135,9.847A14.125,14.125,0,0,0-544.172-581a14.123,14.123,0,0,0,9.982-4.079,13.74,13.74,0,0,0,4.135-9.847,13.633,13.633,0,0,0-1.394-6.041,14.186,14.186,0,0,0,1.663-.714,17.4,17.4,0,0,1,.79,5.2,17.323,17.323,0,0,1-5.146,12.362A17.5,17.5,0,0,1-546.565-579Z" transform="translate(575 755)"/>
    <line id="Line_1" data-name="Line 1" class="cls-4" x2="13.2" transform="translate(12.65 105.05)"/>
    <line id="Line_2" data-name="Line 2" class="cls-4" x2="9.9" transform="translate(29.15 86.35)"/>
    <path id="Path_27" data-name="Path 27" class="cls-4" d="M0,0H5.412" transform="translate(20.35 65.45)"/>
  </g>
</svg>
