<svg xmlns="http://www.w3.org/2000/svg" width="138" height="115" viewBox="0 0 138 115">
  <defs>
    <style>
      .cls-1 {
        fill: #ee982b;
      }

      .cls-2, .cls-7 {
        fill: #272727;
      }

      .cls-2 {
        opacity: 0.2;
      }

      .cls-3 {
        fill: #ffebcd;
      }

      .cls-3, .cls-4, .cls-5 {
        stroke: #272727;
      }

      .cls-3, .cls-5 {
        stroke-width: 5px;
      }

      .cls-4, .cls-8 {
        fill: none;
      }

      .cls-4 {
        stroke-linecap: round;
        stroke-width: 6px;
      }

      .cls-5 {
        fill: #b72020;
      }

      .cls-6, .cls-7 {
        stroke: none;
      }
    </style>
  </defs>
  <g id="Group_81" data-name="Group 81" transform="translate(1013.953 -1169.399) rotate(90)">
    <g id="Polygon_3" data-name="Polygon 3" class="cls-1" transform="translate(1172.399 875.953)">
      <path class="cls-6" d="M 99.20198059082031 120.4999923706055 L 10.79803371429443 120.4999923706055 C 9.243782997131348 120.4999923706055 7.867483139038086 119.7520141601562 7.022033214569092 118.4478302001953 C 6.176599979400635 117.1436614990234 6.055583477020264 115.5819473266602 6.690033435821533 114.1630935668945 L 50.89199829101562 15.31139469146729 C 51.63763427734375 13.64386177062988 53.17333221435547 12.64832782745361 55 12.64832782745361 C 56.8266487121582 12.64832782745361 58.36235046386719 13.64386177062988 59.10800170898438 15.31141090393066 L 103.3099822998047 114.1630935668945 C 103.9444351196289 115.5819244384766 103.8234176635742 117.1436614990234 102.9779663085938 118.4478454589844 C 102.1325149536133 119.7520141601562 100.756217956543 120.4999923706055 99.20198059082031 120.4999923706055 Z"/>
      <path class="cls-7" d="M 55 15.14830780029297 C 54.51578140258789 15.14830780029297 53.63470077514648 15.30207061767578 53.17422103881836 16.3319091796875 L 8.972236633300781 115.1835708618164 C 8.586181640625 116.0469512939453 8.898979187011719 116.7472839355469 9.119796752929688 117.0879287719727 C 9.340621948242188 117.4285507202148 9.852279663085938 117.9999847412109 10.79801940917969 117.9999847412109 L 99.20198059082031 117.9999847412109 C 100.1477203369141 117.9999847412109 100.6593780517578 117.4285507202148 100.8802032470703 117.0879287719727 C 101.1009979248047 116.7473068237305 101.4138031005859 116.0469512939453 101.0277404785156 115.1835861206055 L 56.82577896118164 16.3319091796875 C 56.36529922485352 15.30207061767578 55.48421859741211 15.14830780029297 55 15.14830780029297 M 54.99999237060547 10.14830780029297 C 57.57765579223633 10.14830780029297 60.15531921386719 11.52916717529297 61.39023971557617 14.29088592529297 L 105.5922012329102 113.1425704956055 C 107.6628036499023 117.7731704711914 104.2744216918945 122.9999847412109 99.20198059082031 122.9999847412109 L 10.79801940917969 122.9999847412109 C 5.725578308105469 122.9999847412109 2.337196350097656 117.7731704711914 4.407783508300781 113.1425704956055 L 48.60976028442383 14.29088592529297 C 49.84466934204102 11.52916717529297 52.42232894897461 10.14830780029297 54.99999237060547 10.14830780029297 Z"/>
    </g>
    <path id="Union_31" data-name="Union 31" class="cls-2" d="M520.7,895.659a7,7,0,0,1-6.39-9.858l1.852-4.143H588.1a7,7,0,0,0,6.658-9.16,12,12,0,1,1-8.338-18.744l-8.777-19.627a12,12,0,1,1-5.754-12.867l-14.363-32.12.98-2.19a7,7,0,0,1,12.781,0l44.2,98.852a7,7,0,0,1-6.39,9.858Z" transform="translate(662.5 104.294)"/>
    <g id="Rectangle_144" data-name="Rectangle 144" class="cls-3" transform="translate(1169.399 987.953)">
      <rect class="cls-6" width="115" height="26" rx="13"/>
      <rect class="cls-8" x="2.5" y="2.5" width="110" height="21" rx="10.5"/>
    </g>
    <path id="Subtraction_17" data-name="Subtraction 17" class="cls-2" d="M559.98,973.911l0,0a13,13,0,0,1,8.921-22.456h89a13,13,0,0,1,10,21.31c0-.091,0-.189,0-.311a13,13,0,0,0-13-13h-82a13,13,0,0,0-13,13,13.185,13.185,0,0,0,.081,1.455Z" transform="translate(613.5 36.5)"/>
    <circle id="Ellipse_107" data-name="Ellipse 107" class="cls-2" cx="12" cy="12" r="12" transform="translate(1197.399 956.953)"/>
    <line id="Line_3" data-name="Line 3" class="cls-4" y2="6.465" transform="translate(1186.739 1001.401)"/>
    <line id="Line_6" data-name="Line 6" class="cls-4" y2="4.11" transform="translate(1207.933 1006.111)"/>
    <line id="Line_4" data-name="Line 4" class="cls-4" y2="6.465" transform="translate(1242.08 991.981)"/>
    <line id="Line_5" data-name="Line 5" class="cls-4" y2="6.465" transform="translate(1260.919 1001.401)"/>
    <g id="Ellipse_23" data-name="Ellipse 23" class="cls-5" transform="translate(1214.399 924.953)">
      <circle class="cls-6" cx="12" cy="12" r="12"/>
      <circle class="cls-8" cx="12" cy="12" r="9.5"/>
    </g>
    <g id="Ellipse_22" data-name="Ellipse 22" class="cls-5" transform="translate(1195.399 957.953)">
      <circle class="cls-6" cx="12" cy="12" r="12"/>
      <circle class="cls-8" cx="12" cy="12" r="9.5"/>
    </g>
    <g id="Ellipse_24" data-name="Ellipse 24" class="cls-5" transform="translate(1234.399 957.953)">
      <ellipse class="cls-6" cx="11.5" cy="12" rx="11.5" ry="12"/>
      <ellipse class="cls-8" cx="11.5" cy="12" rx="9" ry="9.5"/>
    </g>
  </g>
</svg>
