<svg xmlns="http://www.w3.org/2000/svg" width="209.738" height="35" viewBox="0 0 209.738 35">
  <g id="Group_85" data-name="Group 85" transform="translate(-38.627 -8.548)">
    <g id="Rectangle_218" data-name="Rectangle 218" transform="translate(45.952 10.464)" fill="#b72020" stroke="#272727" stroke-width="3">
      <rect width="202.413" height="29.698" rx="14.849" stroke="none"/>
      <rect x="1.5" y="1.5" width="199.413" height="26.698" rx="13.349" fill="none"/>
    </g>
    <g id="Union_38" data-name="Union 38" transform="translate(38.627 8.548)" fill="#901b1b" stroke-linecap="round">
      <path d="M 18.95336151123047 32.89262771606445 L 18.8543872833252 32.79495620727539 L 18.75541496276855 32.89262771606445 L 4.309003829956055 18.63743591308594 L 4.112677574157715 18.4207649230957 C 3.888067722320557 18.17288589477539 3.673867702484131 17.91190528869629 3.476017713546753 17.64509582519531 L 3.468429803848267 17.63486289978027 L 3.45299768447876 17.6138858795166 C 2.031387567520142 15.68146514892578 1.347937703132629 13.29828548431396 1.528537631034851 10.90335559844971 C 1.7110276222229 8.483255386352539 2.771517753601074 6.203065395355225 4.514657497406006 4.48282527923584 C 6.463957786560059 2.559345245361328 9.057497978210449 1.50000536441803 11.81744766235352 1.50000536441803 C 14.05569744110107 1.50000536441803 16.18239784240723 2.191615343093872 17.96762847900391 3.500065326690674 L 18.85439682006836 4.150005340576172 L 19.74113845825195 3.500025272369385 C 21.52618789672852 2.191595315933228 23.65282821655273 1.50000536441803 25.89113807678223 1.50000536441803 C 28.65120697021484 1.50000536441803 31.24481773376465 2.559345245361328 33.19418716430664 4.482885360717773 C 34.93714904785156 6.20295524597168 35.99751663208008 8.483095169067383 36.17990875244141 10.90323543548584 C 36.36039733886719 13.29810523986816 35.67698669433594 15.68132495880127 34.25557708740234 17.61389541625977 L 34.23625183105469 17.64017295837402 L 34.23214721679688 17.64570617675781 C 34.03428649902344 17.91251564025879 33.82025909423828 18.17332458496094 33.59598922729492 18.42088508605957 L 33.4001579284668 18.63705444335938 L 18.95336151123047 32.89262771606445 Z" stroke="none"/>
      <path d="M 18.95340347290039 30.78525161743164 L 32.31674575805664 17.59879302978516 L 32.48431777954102 17.41381454467773 C 32.67581939697266 17.20242500305176 32.85849761962891 16.97983551025391 33.02727890014648 16.75222587585449 L 33.03125 16.74686813354492 L 33.04722595214844 16.72514533996582 C 34.25637817382812 15.0811653137207 34.83771896362305 13.05360507965088 34.68414688110352 11.01596546173096 C 34.52898788452148 8.957115173339844 33.62563705444336 7.016105175018311 32.14061737060547 5.550595283508301 C 30.47376823425293 3.90582537651062 28.25432777404785 3.00000524520874 25.89113807678223 3.00000524520874 C 23.97394752502441 3.00000524520874 22.15395736694336 3.59125542640686 20.62790679931641 4.709835529327393 L 18.85443687438965 6.009775161743164 L 17.08089828491211 4.70990514755249 C 15.55465793609619 3.591275215148926 13.73458766937256 3.00000524520874 11.81744766235352 3.00000524520874 C 9.454378128051758 3.00000524520874 7.235007762908936 3.90582537651062 5.568277835845947 5.550475120544434 C 4.0830078125 7.0162353515625 3.179537773132324 8.957315444946289 3.024287700653076 11.01614570617676 C 2.870637655258179 13.05377578735352 3.451987743377686 15.08122539520264 4.661257743835449 16.72500610351562 L 4.675871849060059 16.74487113952637 L 4.680887699127197 16.75163459777832 C 4.849637508392334 16.97919464111328 5.032447814941406 17.20190620422363 5.224247455596924 17.41357612609863 L 5.392441749572754 17.59919929504395 L 18.75537109375 30.78525161743164 L 18.8543872833252 30.68753623962402 L 18.95340347290039 30.78525161743164 M 18.95330810546875 35.00000381469727 L 18.8543872833252 34.90238571166992 L 18.75546836853027 35.00000381469727 L 2.987657785415649 19.44090461730957 L 3.001117706298828 19.42795562744141 C 2.74076771736145 19.140625 2.497617721557617 18.84397506713867 2.271137714385986 18.53855514526367 L 2.239787578582764 18.50762557983398 L 2.244727611541748 18.50275611877441 C -1.10989236831665 13.94274520874023 -0.7046123147010803 7.526105403900146 3.4610276222229 3.415175199508667 C 5.768252372741699 1.138516426086426 8.793079376220703 1.018676812236663e-06 11.81744861602783 1.018676812236663e-06 C 14.29449558258057 1.018676812236663e-06 16.77104949951172 0.7633025050163269 18.85435676574707 2.290225267410278 C 20.93721389770508 0.7635094523429871 23.41437911987305 1.018676812236663e-06 25.89113807678223 1.018676812236663e-06 C 28.9158992767334 1.018676812236663e-06 31.94026756286621 1.138263702392578 34.24774932861328 3.415175199508667 C 38.41338729858398 7.526105403900146 38.81782913208008 13.94264507293701 35.46393585205078 18.50264549255371 L 35.46898651123047 18.50762557983398 L 35.43700790405273 18.5391845703125 C 35.21075820922852 18.84428596496582 34.96769714355469 19.14090538024902 34.70765686035156 19.42795562744141 L 34.72111892700195 19.44090461730957 L 18.95330810546875 35.00000381469727 Z" stroke="none" fill="#272727"/>
    </g>
  </g>
</svg>
