<svg xmlns="http://www.w3.org/2000/svg" xmlns:xlink="http://www.w3.org/1999/xlink" width="1920" height="1080" viewBox="0 0 1920 1080">
  <defs>
    <style>
      .cls-1 {
        clip-path: url(#clip-Web_1920_2);
      }

      .cls-2 {
        fill: rgba(54,73,84,0.67);
      }

      .cls-17, .cls-18, .cls-3, .cls-35, .cls-39 {
        fill: #fff;
      }

      .cls-11, .cls-13, .cls-14, .cls-15, .cls-18, .cls-21, .cls-22, .cls-24, .cls-25, .cls-28, .cls-3, .cls-31, .cls-32, .cls-33, .cls-35, .cls-36, .cls-37, .cls-38, .cls-39, .cls-4 {
        stroke: #272727;
      }

      .cls-15, .cls-21, .cls-22, .cls-24, .cls-25, .cls-28, .cls-3, .cls-31, .cls-36 {
        stroke-width: 8px;
      }

      .cls-30, .cls-4 {
        fill: #84b1cb;
      }

      .cls-11, .cls-13, .cls-20, .cls-35, .cls-37, .cls-38, .cls-4 {
        stroke-width: 6px;
      }

      .cls-40, .cls-41, .cls-44, .cls-5 {
        fill: #272727;
      }

      .cls-6 {
        fill: rgba(255,255,255,0.51);
      }

      .cls-7 {
        fill: rgba(39,39,39,0.25);
      }

      .cls-16, .cls-31, .cls-8 {
        fill: #8e7258;
      }

      .cls-22, .cls-9 {
        fill: #ffebcd;
      }

      .cls-10, .cls-21, .cls-32 {
        fill: #ee982b;
      }

      .cls-11, .cls-13, .cls-14, .cls-15, .cls-19, .cls-20, .cls-27, .cls-38, .cls-43 {
        fill: none;
      }

      .cls-11, .cls-14, .cls-19, .cls-20, .cls-38 {
        stroke-linecap: round;
      }

      .cls-11, .cls-14 {
        stroke-linejoin: bevel;
      }

      .cls-12 {
        fill: rgba(255,255,255,0.25);
      }

      .cls-14, .cls-18, .cls-33 {
        stroke-width: 5px;
      }

      .cls-19 {
        stroke: rgba(39,39,39,0.2);
        stroke-width: 10px;
      }

      .cls-20 {
        stroke: rgba(255,255,255,0.2);
      }

      .cls-23, .cls-24, .cls-29, .cls-33, .cls-34 {
        fill: #576b76;
      }

      .cls-25 {
        fill: #85b9d8;
      }

      .cls-26 {
        fill: #7a8e9b;
      }

      .cls-28 {
        fill: #9aaebb;
      }

      .cls-32 {
        stroke-width: 3px;
      }

      .cls-34 {
        opacity: 0.95;
      }

      .cls-36 {
        fill: #007c4c;
      }

      .cls-37 {
        fill: #b72020;
      }

      .cls-39 {
        stroke-width: 7px;
        font-size: 125px;
      }

      .cls-39, .cls-40 {
        font-family: Quicksand-Bold, Quicksand;
        font-weight: 700;
      }

      .cls-39, .cls-40, .cls-41 {
        letter-spacing: 0.02em;
      }

      .cls-40 {
        font-size: 60px;
      }

      .cls-41 {
        font-size: 36px;
        font-family: Quicksand-Medium, Quicksand;
        font-weight: 500;
      }

      .cls-42, .cls-44 {
        stroke: none;
      }
    </style>
    <clipPath id="clip-Web_1920_2">
      <rect width="1920" height="1080"/>
    </clipPath>
  </defs>
  <g id="Web_1920_2" data-name="Web 1920 – 2" class="cls-1">
    <rect class="cls-17" width="1920" height="1080"/>
    <rect id="Rectangle_1" data-name="Rectangle 1" class="cls-2" width="1924" height="1080" transform="translate(-4)"/>
    <g id="Group_23" data-name="Group 23" transform="translate(-2 6)">
      <g id="Rectangle_21" data-name="Rectangle 21" class="cls-3" transform="translate(1034 437)">
        <rect class="cls-42" width="195" height="110" rx="14"/>
        <rect class="cls-43" x="4" y="4" width="187" height="102" rx="10"/>
      </g>
      <g id="Rectangle_22" data-name="Rectangle 22" class="cls-4" transform="translate(1049 451)">
        <rect class="cls-42" width="136" height="82" rx="14"/>
        <rect class="cls-43" x="3" y="3" width="130" height="76" rx="11"/>
      </g>
      <rect id="Rectangle_76" data-name="Rectangle 76" class="cls-5" width="13" height="27" rx="6.5" transform="translate(1217 515) rotate(90)"/>
      <rect id="Rectangle_77" data-name="Rectangle 77" class="cls-5" width="16" height="16" rx="8" transform="translate(1212 487) rotate(90)"/>
      <rect id="Rectangle_118" data-name="Rectangle 118" class="cls-6" width="59.229" height="6.651" rx="3.326" transform="matrix(0.629, -0.777, 0.777, 0.629, 1131.651, 521.013)"/>
      <rect id="Rectangle_119" data-name="Rectangle 119" class="cls-6" width="29.773" height="6.651" rx="3.326" transform="matrix(0.629, -0.777, 0.777, 0.629, 1148.121, 514.045)"/>
      <rect id="Rectangle_122" data-name="Rectangle 122" class="cls-7" width="4" height="95" transform="translate(1041 444)"/>
    </g>
    <rect id="Rectangle_20" data-name="Rectangle 20" class="cls-5" width="1408" height="6" rx="3" transform="translate(256 798)"/>
    <g id="szafka" transform="translate(1260.546 267.013)">
      <rect id="Rectangle_133" data-name="Rectangle 133" class="cls-7" width="236" height="76" rx="7" transform="translate(0.454 103.987)"/>
      <g id="Group_36" data-name="Group 36">
        <g id="Group_9" data-name="Group 9">
          <g id="Path_7" data-name="Path 7" class="cls-8" transform="translate(0 0)">
            <path class="cls-42" d="M 230.7993927001953 166.0914611816406 L 5.944408416748047 166.0914611816406 C 5.679316520690918 165.7365875244141 5.247920036315918 164.9798278808594 4.848461627960205 163.6644287109375 C 4.301328182220459 161.8625946044922 3.99999475479126 159.5983581542969 3.99999475479126 157.2888488769531 L 3.99999475479126 12.80258941650391 C 3.99999475479126 10.49308967590332 4.301328182220459 8.228856086730957 4.848461627960205 6.427022933959961 C 5.247920036315918 5.111625194549561 5.679316520690918 4.354855537414551 5.944408416748047 3.99998950958252 L 230.7993927001953 3.99998950958252 C 231.0644989013672 4.354855537414551 231.4958953857422 5.111625194549561 231.8953247070312 6.427022933959961 C 232.4424591064453 8.228856086730957 232.7437896728516 10.49305629730225 232.7437896728516 12.80258941650391 L 232.7437896728516 157.2888488769531 C 232.7437896728516 159.598388671875 232.4424591064453 161.8625946044922 231.8953247070312 163.6644287109375 C 231.4958953857422 164.9798278808594 231.0644989013672 165.7365875244141 230.7993927001953 166.0914611816406 Z"/>
            <path class="cls-44" d="M 8.556671142578125 7.999984741210938 C 8.261932373046875 9.130386352539062 8.000015258789062 10.76666259765625 8.000015258789062 12.80256652832031 L 8.000015258789062 157.2888793945312 C 8.000015258789062 159.3247833251953 8.261932373046875 160.9610595703125 8.556671142578125 162.0914611816406 L 228.1871185302734 162.0914611816406 C 228.4818572998047 160.9610748291016 228.7437744140625 159.3247833251953 228.7437744140625 157.2888793945312 L 228.7437744140625 12.80256652832031 C 228.7437744140625 10.76666259765625 228.4818572998047 9.13037109375 228.1871185302734 7.999984741210938 L 8.556671142578125 7.999984741210938 M 5.328628540039062 -1.52587890625e-05 L 231.4151306152344 -1.52587890625e-05 C 234.3580932617188 -1.52587890625e-05 236.7437744140625 5.731918334960938 236.7437744140625 12.80256652832031 L 236.7437744140625 157.2888793945312 C 236.7437744140625 164.3595275878906 234.3580932617188 170.0914611816406 231.4151306152344 170.0914611816406 L 5.328628540039062 170.0914611816406 C 2.385696411132812 170.0914611816406 1.52587890625e-05 164.3595275878906 1.52587890625e-05 157.2888793945312 L 1.52587890625e-05 12.80256652832031 C 1.52587890625e-05 5.731918334960938 2.385696411132812 -1.52587890625e-05 5.328628540039062 -1.52587890625e-05 Z"/>
          </g>
        </g>
        <g id="Group_10" data-name="Group 10" transform="translate(12.583 12.823)">
          <g id="Path_7-2" data-name="Path 7" class="cls-9">
            <path class="cls-42" d="M 103.650390625 140.1759490966797 L 4.628387451171875 140.1759490966797 C 4.321430683135986 138.8129730224609 4.000011920928955 136.4788818359375 4.000011920928955 133.3239593505859 L 4.000011920928955 10.85194492340088 C 4.000011920928955 7.697037696838379 4.321429252624512 5.362980842590332 4.6283860206604 4.00001049041748 L 103.6503982543945 4.00001049041748 C 103.9573516845703 5.362985610961914 104.2787704467773 7.697052001953125 104.2787704467773 10.85194492340088 L 104.2787704467773 133.3239593505859 C 104.2787704467773 136.4788818359375 103.9573516845703 138.8129730224609 103.650390625 140.1759490966797 Z"/>
            <path class="cls-44" d="M 8.103927612304688 8 C 8.040794372558594 8.834274291992188 7.999984741210938 9.790130615234375 7.999984741210938 10.85197448730469 L 7.999984741210938 133.323974609375 C 7.999984741210938 134.3858032226562 8.040794372558594 135.3416595458984 8.103927612304688 136.1759338378906 L 100.1748046875 136.1759338378906 C 100.2379455566406 135.3416442871094 100.2787475585938 134.3858184814453 100.2787475585938 133.323974609375 L 100.2787475585938 10.85197448730469 C 100.2787475585938 9.790115356445312 100.2379455566406 8.83428955078125 100.1748046875 8 L 8.103927612304688 8 M 2.437141418457031 0 L 105.8416213989258 0 C 107.1876220703125 0 108.2787475585938 4.858566284179688 108.2787475585938 10.85197448730469 L 108.2787475585938 133.323974609375 C 108.2787475585938 139.3173675537109 107.1876220703125 144.1759338378906 105.8416213989258 144.1759338378906 L 2.437141418457031 144.1759338378906 C 1.091148376464844 144.1759338378906 -1.52587890625e-05 139.3173675537109 -1.52587890625e-05 133.323974609375 L -1.52587890625e-05 10.85197448730469 C -1.52587890625e-05 4.858566284179688 1.091148376464844 0 2.437141418457031 0 Z"/>
          </g>
        </g>
        <g id="Group_11" data-name="Group 11" transform="translate(114.581 12.823)">
          <g id="Path_7-3" data-name="Path 7" class="cls-9" transform="translate(0)">
            <path class="cls-42" d="M 103.4533157348633 140.1759490966797 L 4.627063751220703 140.1759490966797 C 4.320649147033691 138.8122253417969 4.000010013580322 136.4783172607422 4.000010013580322 133.3239593505859 L 4.000010013580322 10.85194492340088 C 4.000010013580322 7.69762659072876 4.320648670196533 5.363721370697021 4.627063274383545 4.00001049041748 L 103.4533233642578 4.00001049041748 C 103.7597427368164 5.363721370697021 104.0803833007812 7.69762659072876 104.0803833007812 10.85194492340088 L 104.0803833007812 133.3239593505859 C 104.0803833007812 136.4783020019531 103.7597427368164 138.8122253417969 103.4533157348633 140.1759490966797 Z"/>
            <path class="cls-44" d="M 8.103713989257812 8 C 8.04071044921875 8.834396362304688 8 9.790176391601562 8 10.85197448730469 L 8 133.323974609375 C 8 134.3857574462891 8.04071044921875 135.3415374755859 8.103713989257812 136.1759338378906 L 99.97665405273438 136.1759338378906 C 100.0396575927734 135.3415374755859 100.0803680419922 134.3857574462891 100.0803680419922 133.323974609375 L 100.0803680419922 10.85197448730469 C 100.0803680419922 9.790176391601562 100.0396575927734 8.834396362304688 99.97665405273438 8 L 8.103713989257812 8 M 2.432685852050781 0 L 105.6476821899414 0 C 106.9912109375 0 108.0803680419922 4.858566284179688 108.0803680419922 10.85197448730469 L 108.0803680419922 133.323974609375 C 108.0803680419922 139.3173675537109 106.9912109375 144.1759338378906 105.6476821899414 144.1759338378906 L 2.432685852050781 144.1759338378906 C 1.089157104492188 144.1759338378906 0 139.3173675537109 0 133.323974609375 L 0 10.85197448730469 C 0 4.858566284179688 1.089157104492188 0 2.432685852050781 0 Z"/>
          </g>
        </g>
        <rect id="Rectangle_39" data-name="Rectangle 39" class="cls-5" width="13" height="36" rx="6.5" transform="translate(93.454 66.987)"/>
        <rect id="Rectangle_40" data-name="Rectangle 40" class="cls-5" width="13" height="36" rx="6.5" transform="translate(127.454 66.987)"/>
        <rect id="Rectangle_135" data-name="Rectangle 135" class="cls-7" width="13" height="36" rx="6" transform="translate(89.954 67.487)"/>
        <rect id="Rectangle_136" data-name="Rectangle 136" class="cls-7" width="13" height="36" rx="6" transform="translate(124.954 67.487)"/>
      </g>
    </g>
    <g id="garnek" transform="translate(843.244 499.813)">
      <g id="Path_12" data-name="Path 12" class="cls-10" transform="translate(61.66 5.806)">
        <path class="cls-42" d="M.955,0H41.478c.527,0,.955.257.955.573V7.039c0,.316-.428.573-.955.573H.955C.428,7.612,0,7.356,0,7.039V.573C0,.257.428,0,.955,0Z"/>
        <path class="cls-44" d="M 0.9550704956054688 -3.337860107421875e-06 L 41.47750091552734 -3.337860107421875e-06 C 42.00497817993164 -3.337860107421875e-06 42.43256759643555 0.2565302848815918 42.43256759643555 0.5729703903198242 L 42.43256759643555 7.039370059967041 C 42.43256759643555 7.355810165405273 42.00497817993164 7.612343788146973 41.47750091552734 7.612343788146973 L 0.9550704956054688 7.612343788146973 C 0.4276046752929688 7.612343788146973 3.814697265625e-06 7.355810165405273 3.814697265625e-06 7.039370059967041 L 3.814697265625e-06 0.5729703903198242 C 3.814697265625e-06 0.2565302848815918 0.4276046752929688 -3.337860107421875e-06 0.9550704956054688 -3.337860107421875e-06 Z"/>
      </g>
      <g id="Rectangle_95" data-name="Rectangle 95" class="cls-4" transform="translate(-1.244 -0.813)">
        <rect class="cls-42" width="64" height="50" rx="7"/>
        <rect class="cls-43" x="3" y="3" width="58" height="44" rx="4"/>
      </g>
      <g id="Group_29" data-name="Group 29" transform="translate(-901.244 -499.813)">
        <path id="Path_18" data-name="Path 18" class="cls-11" d="M899.726,347.448s10.466-2.221,9.667-9.058-13.948-4.926-13.585-11.793a7.142,7.142,0,0,1,6.782-7.1" transform="translate(12.939 142.56)"/>
        <path id="Path_19" data-name="Path 19" class="cls-11" d="M899.726,347.448s10.466-2.221,9.667-9.058-13.948-4.926-13.585-11.793a7.142,7.142,0,0,1,6.782-7.1" transform="translate(28.325 142.56)"/>
        <path id="Path_22" data-name="Path 22" class="cls-11" d="M899.726,347.448s10.466-2.221,9.667-9.058-13.948-4.926-13.585-11.793a7.142,7.142,0,0,1,6.782-7.1" transform="translate(43.711 142.56)"/>
      </g>
      <rect id="Rectangle_96" data-name="Rectangle 96" class="cls-7" width="17" height="42" transform="translate(3.756 3.187)"/>
      <rect id="Rectangle_97" data-name="Rectangle 97" class="cls-12" width="5" height="42" transform="translate(46.756 3.187)"/>
      <g id="Rectangle_111" data-name="Rectangle 111" class="cls-13" transform="translate(-1.244 -0.813)">
        <rect class="cls-42" width="64" height="50" rx="7"/>
        <rect class="cls-43" x="3" y="3" width="58" height="44" rx="4"/>
      </g>
    </g>
    <g id="Group_24" data-name="Group 24" transform="translate(-870 12)">
      <path id="Path_21" data-name="Path 21" class="cls-14" d="M897.785,336.259s5.29-1.332,4.886-5.432-7.049-2.954-6.866-7.072,3.428-4.256,3.428-4.256" transform="translate(535.116 140.33)"/>
      <path id="Path_20" data-name="Path 20" class="cls-14" d="M897.785,336.259s5.29-1.332,4.886-5.432-7.049-2.954-6.866-7.072,3.428-4.256,3.428-4.256" transform="translate(548.302 140.33)"/>
      <g id="Group_12" data-name="Group 12" transform="translate(1413.554 481.866)">
        <g id="Rectangle_43" data-name="Rectangle 43" class="cls-15" transform="translate(40.446 14.134)">
          <rect class="cls-42" width="30" height="32" rx="6"/>
          <rect class="cls-43" x="4" y="4" width="22" height="24" rx="2"/>
        </g>
        <path id="Subtraction_1" data-name="Subtraction 1" class="cls-16" d="M28,28a27.824,27.824,0,0,1-10.9-2.2,27.907,27.907,0,0,1-8.9-6,27.907,27.907,0,0,1-6-8.9A27.824,27.824,0,0,1,0,0H56a27.824,27.824,0,0,1-2.2,10.9,27.907,27.907,0,0,1-6,8.9,27.907,27.907,0,0,1-8.9,6A27.824,27.824,0,0,1,28,28Z" transform="translate(0.446 30.134)"/>
        <path id="Subtraction_2" data-name="Subtraction 2" class="cls-17" d="M28,0A29.683,29.683,0,0,0,17.1,2.043,28.118,28.118,0,0,0,8.2,7.615a25.9,25.9,0,0,0-6,8.264A24.252,24.252,0,0,0,0,26H56a24.252,24.252,0,0,0-2.2-10.12,25.9,25.9,0,0,0-6-8.264,28.118,28.118,0,0,0-8.9-5.572A29.683,29.683,0,0,0,28,0Z" transform="translate(0.446 4.134)"/>
        <g id="Ellipse_1" data-name="Ellipse 1" class="cls-13" transform="translate(0.446 2.134)">
          <circle class="cls-42" cx="28" cy="28" r="28"/>
          <circle class="cls-43" cx="28" cy="28" r="25"/>
        </g>
        <rect id="Rectangle_38" data-name="Rectangle 38" class="cls-5" width="10" height="56" rx="5" transform="translate(56.446 49.134) rotate(90)"/>
        <g id="Rectangle_42" data-name="Rectangle 42" class="cls-18" transform="translate(5.446 0.134)">
          <path class="cls-42" d="M1,0H41a2,2,0,0,1,2,2V12a2,2,0,0,1-2,2H9A9,9,0,0,1,0,5V1A1,1,0,0,1,1,0Z"/>
          <path class="cls-43" d="M4,2.5H40a.5.5,0,0,1,.5.5v8a.5.5,0,0,1-.5.5H9A6.5,6.5,0,0,1,2.5,5V4A1.5,1.5,0,0,1,4,2.5Z"/>
        </g>
        <rect id="Rectangle_134" data-name="Rectangle 134" class="cls-7" width="14" height="8" transform="translate(8.446 3.134)"/>
      </g>
      <path id="Path_29" data-name="Path 29" class="cls-19" d="M1422.926,512.415a21.768,21.768,0,0,0-7.5,16.256s0,.01,0,.114c-.121,4.816,1.687,11.565,7.505,19.554" transform="translate(9.882 -16.184)"/>
      <path id="Path_30" data-name="Path 30" class="cls-20" d="M1415.416,512.415s2.333,3.191,2.416,9.487a30.186,30.186,0,0,1-2.416,11.478" transform="translate(43 -11)"/>
    </g>
    <g id="zegar">
      <g id="Group_25" data-name="Group 25" transform="translate(3)">
        <g id="Ellipse_4" data-name="Ellipse 4" class="cls-21" transform="translate(578 297)">
          <ellipse class="cls-42" cx="56" cy="55.5" rx="56" ry="55.5"/>
          <ellipse class="cls-43" cx="56" cy="55.5" rx="52" ry="51.5"/>
        </g>
        <ellipse id="Ellipse_17" data-name="Ellipse 17" class="cls-7" cx="56" cy="55.5" rx="56" ry="55.5" transform="translate(576 300)"/>
        <g id="Ellipse_5" data-name="Ellipse 5" class="cls-22" transform="translate(588 307)">
          <ellipse class="cls-42" cx="45.5" cy="45" rx="45.5" ry="45"/>
          <ellipse class="cls-43" cx="45.5" cy="45" rx="41.5" ry="41"/>
        </g>
        <g id="Group_13" data-name="Group 13" transform="translate(608.168 322.007)">
          <rect id="Rectangle_46" data-name="Rectangle 46" class="cls-5" width="7" height="30" rx="3.5" transform="translate(29.832 29.993) rotate(90)"/>
          <rect id="Rectangle_47" data-name="Rectangle 47" class="cls-5" width="7" height="37" rx="3.5" transform="translate(22.832 -0.007)"/>
        </g>
        <rect id="Rectangle_107" data-name="Rectangle 107" class="cls-6" width="42.018" height="8.039" rx="4.019" transform="matrix(0.629, -0.777, 0.777, 0.629, 631, 376.437)"/>
        <rect id="Rectangle_108" data-name="Rectangle 108" class="cls-6" width="22.406" height="4.519" rx="2.259" transform="matrix(0.629, -0.777, 0.777, 0.629, 645.302, 375.635)"/>
      </g>
    </g>
    <g id="sloik" transform="translate(717)">
      <g id="Group_14" data-name="Group 14" transform="translate(687.716 495.717)">
        <path id="Path_24" data-name="Path 24" class="cls-23" d="M5.329,0H31.211a5.329,5.329,0,0,1,5.329,5.329V44.913a5.329,5.329,0,0,1-5.329,5.329H5.329A5.329,5.329,0,0,1,0,44.913V5.329A5.329,5.329,0,0,1,5.329,0Z" transform="translate(2.284 3.806)"/>
        <rect id="Rectangle_51" data-name="Rectangle 51" class="cls-17" width="37" height="9" transform="translate(2.284 12.283)"/>
        <g id="Rectangle_48" data-name="Rectangle 48" class="cls-15" transform="translate(2.284 4.283)">
          <rect class="cls-42" width="37" height="50" rx="7"/>
          <rect class="cls-43" x="4" y="4" width="29" height="42" rx="3"/>
        </g>
        <g id="Rectangle_49" data-name="Rectangle 49" class="cls-18" transform="translate(0.284 1.283)">
          <rect class="cls-42" width="41" height="10" rx="5"/>
          <rect class="cls-43" x="2.5" y="2.5" width="36" height="5" rx="2.5"/>
        </g>
      </g>
      <rect id="Rectangle_105" data-name="Rectangle 105" class="cls-7" width="7" height="36" transform="translate(695 506)"/>
      <rect id="Rectangle_106" data-name="Rectangle 106" class="cls-12" width="2" height="34" transform="translate(716 508)"/>
    </g>
    <g id="okap" transform="translate(-3 -12)">
      <g id="Rectangle_53" data-name="Rectangle 53" class="cls-24" transform="translate(930.932 194.5) rotate(90)">
        <rect class="cls-42" width="199.443" height="86.781" rx="13"/>
        <rect class="cls-43" x="4" y="4" width="191.443" height="78.781" rx="9"/>
      </g>
      <rect id="Rectangle_30" data-name="Rectangle 30" class="cls-6" width="170.351" height="8.986" rx="4.493" transform="translate(908.662 370.031) rotate(-90)"/>
      <rect id="Rectangle_109" data-name="Rectangle 109" class="cls-7" width="23" height="172" transform="translate(851 195)"/>
      <g id="Rectangle_110" data-name="Rectangle 110" class="cls-15" transform="translate(930.932 194.5) rotate(90)">
        <rect class="cls-42" width="199.443" height="86.781" rx="13"/>
        <rect class="cls-43" x="4" y="4" width="191.443" height="78.781" rx="9"/>
      </g>
      <g id="Rectangle_52" data-name="Rectangle 52" class="cls-24" transform="translate(760 367)">
        <rect class="cls-42" width="254" height="41" rx="13"/>
        <rect class="cls-43" x="4" y="4" width="246" height="33" rx="9"/>
      </g>
      <rect id="Rectangle_120" data-name="Rectangle 120" class="cls-7" width="107" height="38" transform="translate(767 370)"/>
      <rect id="Rectangle_121" data-name="Rectangle 121" class="cls-6" width="25.351" height="14.986" transform="translate(965.662 400.031) rotate(-90)"/>
    </g>
    <g id="szafka1">
      <path id="Path_6" data-name="Path 6" class="cls-16" d="M10.535,0H240.041a10.6,10.6,0,0,1,10.535,10.657V242.834a10.6,10.6,0,0,1-10.535,10.657H10.535A10.6,10.6,0,0,1,0,242.834V10.657A10.6,10.6,0,0,1,10.535,0Z" transform="translate(506.924 550.377)"/>
      <g id="Rectangle_4" data-name="Rectangle 4" class="cls-15" transform="translate(507 550)">
        <rect class="cls-42" width="253" height="254"/>
        <rect class="cls-43" x="4" y="4" width="245" height="246"/>
      </g>
      <path id="Union_4" data-name="Union 4" class="cls-7" d="M6.5,237.5V8H0V0H249V8H13.5V237.5Z" transform="translate(508.5 558.5)"/>
      <rect id="Rectangle_87" data-name="Rectangle 87" class="cls-7" width="18" height="223" rx="6" transform="translate(744.5 617.5) rotate(90)"/>
      <rect id="Rectangle_88" data-name="Rectangle 88" class="cls-7" width="18" height="222" rx="9" transform="translate(744.5 773.5) rotate(90)"/>
      <g id="Group_4" data-name="Group 4" transform="translate(521.731 561.795)">
        <g id="Path_1" data-name="Path 1" class="cls-9" transform="translate(0)">
          <path class="cls-42" d="M 218.0312042236328 67.29476165771484 L 5.020450592041016 67.29476165771484 C 4.182075500488281 67.29476165771484 3.500013113021851 66.47444915771484 3.500013113021851 65.46613311767578 L 3.500013113021851 5.328634738922119 C 3.500013113021851 4.320322036743164 4.182075500488281 3.500009536743164 5.020450592041016 3.500009536743164 L 218.0312042236328 3.500009536743164 C 218.8695678710938 3.500009536743164 219.5516662597656 4.320322036743164 219.5516662597656 5.328634738922119 L 219.5516662597656 65.46613311767578 C 219.5516662597656 66.47444915771484 218.8695678710938 67.29476165771484 218.0312042236328 67.29476165771484 Z"/>
          <path class="cls-44" d="M 7 6.999992370605469 L 7 63.79477691650391 L 216.0516510009766 63.79477691650391 L 216.0516510009766 6.999992370605469 L 7 6.999992370605469 M 5.020462036132812 -7.62939453125e-06 L 218.0311889648438 -7.62939453125e-06 C 220.8039398193359 -7.62939453125e-06 223.0516510009766 2.385704040527344 223.0516510009766 5.328636169433594 L 223.0516510009766 65.46613311767578 C 223.0516510009766 68.40906524658203 220.8039398193359 70.79477691650391 218.0311889648438 70.79477691650391 L 5.020462036132812 70.79477691650391 C 2.247756958007812 70.79477691650391 0 68.40906524658203 0 65.46613311767578 L 0 5.328636169433594 C 0 2.385704040527344 2.247756958007812 -7.62939453125e-06 5.020462036132812 -7.62939453125e-06 Z"/>
        </g>
      </g>
      <rect id="Rectangle_24" data-name="Rectangle 24" class="cls-5" width="13" height="36" rx="6.5" transform="translate(652 591) rotate(90)"/>
      <rect id="Rectangle_89" data-name="Rectangle 89" class="cls-7" width="13" height="36" rx="6" transform="translate(651 593) rotate(90)"/>
      <g id="Group_27" data-name="Group 27" transform="translate(-1)">
        <g id="Path_3" data-name="Path 3" class="cls-9" transform="translate(632.005 641.725)">
          <path class="cls-42" d="M 108.7362823486328 143.2945556640625 L 5.040758609771729 143.2945556640625 C 4.191171646118164 143.2945556640625 3.499997615814209 142.5365600585938 3.499997615814209 141.6048583984375 L 3.499997615814209 5.189712524414062 C 3.499997615814209 4.257995128631592 4.191171646118164 3.499995231628418 5.040758609771729 3.499995231628418 L 108.7362823486328 3.499995231628418 C 109.5858688354492 3.499995231628418 110.2770385742188 4.257995128631592 110.2770385742188 5.189712524414062 L 110.2770385742188 141.6048583984375 C 110.2770385742188 142.5365600585938 109.5858688354492 143.2945556640625 108.7362823486328 143.2945556640625 Z"/>
          <path class="cls-44" d="M 6.999992370605469 7 L 6.999992370605469 139.7945556640625 L 106.7770462036133 139.7945556640625 L 106.7770462036133 7 L 6.999992370605469 7 M 5.040740966796875 0 L 108.7362670898438 0 C 111.5202178955078 0 113.7770462036133 2.323501586914062 113.7770462036133 5.189697265625 L 113.7770462036133 141.6048583984375 C 113.7770462036133 144.4710540771484 111.5202178955078 146.7945556640625 108.7362670898438 146.7945556640625 L 5.040740966796875 146.7945556640625 C 2.256820678710938 146.7945556640625 -7.62939453125e-06 144.4710540771484 -7.62939453125e-06 141.6048583984375 L -7.62939453125e-06 5.189697265625 C -7.62939453125e-06 2.323501586914062 2.256820678710938 0 5.040740966796875 0 Z"/>
        </g>
        <g id="Path_2" data-name="Path 2" class="cls-9" transform="translate(522.731 641.725)">
          <path class="cls-42" d="M 109.5258712768555 143.2945556640625 L 5.077352046966553 143.2945556640625 C 4.20759105682373 143.2945556640625 3.500004053115845 142.5365600585938 3.500004053115845 141.6048583984375 L 3.500004053115845 5.189712524414062 C 3.500004053115845 4.257995128631592 4.20759105682373 3.499995231628418 5.077352046966553 3.499995231628418 L 109.5258712768555 3.499995231628418 C 110.395637512207 3.499995231628418 111.1032180786133 4.257995128631592 111.1032180786133 5.189712524414062 L 111.1032180786133 141.6048583984375 C 111.1032180786133 142.5365600585938 110.395637512207 143.2945556640625 109.5258712768555 143.2945556640625 Z"/>
          <path class="cls-44" d="M 6.999984741210938 7 L 6.999984741210938 139.7945556640625 L 107.6032104492188 139.7945556640625 L 107.6032104492188 7 L 6.999984741210938 7 M 5.077362060546875 0 L 109.5258636474609 0 C 112.3300094604492 0 114.6032104492188 2.323501586914062 114.6032104492188 5.189697265625 L 114.6032104492188 141.6048583984375 C 114.6032104492188 144.4710540771484 112.3300094604492 146.7945556640625 109.5258636474609 146.7945556640625 L 5.077362060546875 146.7945556640625 C 2.273216247558594 146.7945556640625 -1.52587890625e-05 144.4710540771484 -1.52587890625e-05 141.6048583984375 L -1.52587890625e-05 5.189697265625 C -1.52587890625e-05 2.323501586914062 2.273216247558594 0 5.077362060546875 0 Z"/>
        </g>
        <rect id="Rectangle_25" data-name="Rectangle 25" class="cls-5" width="13" height="35" rx="6.5" transform="translate(647 700)"/>
        <rect id="Rectangle_26" data-name="Rectangle 26" class="cls-5" width="13" height="35" rx="6.5" transform="translate(610 700)"/>
        <rect id="Rectangle_90" data-name="Rectangle 90" class="cls-7" width="13" height="35" rx="6" transform="translate(608 702)"/>
        <rect id="Rectangle_91" data-name="Rectangle 91" class="cls-7" width="13" height="35" rx="6" transform="translate(645 702)"/>
      </g>
      <g id="Path_4" data-name="Path 4" class="cls-9" transform="translate(499.031 546.287)">
        <path class="cls-42" d="M 271.5283203125 8.179690361022949 L 8.600468635559082 8.179690361022949 C 7.1453537940979 8.179690361022949 5.771276473999023 7.797651290893555 4.830545902252197 7.13153600692749 C 4.256814956665039 6.725305080413818 4.000007629394531 6.31561279296875 4.000007629394531 6.08984375 C 4.000007629394531 5.86407470703125 4.256814956665039 5.454382419586182 4.830545902252197 5.04815149307251 C 5.771276473999023 4.382036209106445 7.1453537940979 3.999997615814209 8.600468635559082 3.999997615814209 L 271.5283203125 3.999997615814209 C 272.9834289550781 3.999997615814209 274.3575134277344 4.382036209106445 275.2982482910156 5.04815149307251 C 275.8719787597656 5.454420566558838 276.1287841796875 5.86407470703125 276.1287841796875 6.08984375 C 276.1287841796875 6.31561279296875 275.8719787597656 6.725266933441162 275.2982482910156 7.13153600692749 C 274.3575134277344 7.797651290893555 272.9834289550781 8.179690361022949 271.5283203125 8.179690361022949 Z"/>
        <path class="cls-44" d="M 8.600433349609375 -2.002716064453125e-05 L 271.5282897949219 -2.002716064453125e-05 C 276.2781982421875 -2.002716064453125e-05 280.1288146972656 2.72652530670166 280.1288146972656 6.08984375 C 280.1288146972656 9.45316219329834 276.2781982421875 12.17970752716064 271.5282897949219 12.17970752716064 L 8.600433349609375 12.17970752716064 C 3.85052490234375 12.17970752716064 -3.0517578125e-05 9.45316219329834 -3.0517578125e-05 6.08984375 C -3.0517578125e-05 2.72652530670166 3.85052490234375 -2.002716064453125e-05 8.600433349609375 -2.002716064453125e-05 Z"/>
      </g>
    </g>
    <g id="lodowka">
      <g id="Group_28" data-name="Group 28" transform="translate(-1)">
        <g id="Rectangle_9" data-name="Rectangle 9" class="cls-25" transform="translate(308 289)">
          <path class="cls-42" d="M30,0H173a30,30,0,0,1,30,30V501a14,14,0,0,1-14,14H14A14,14,0,0,1,0,501V30A30,30,0,0,1,30,0Z"/>
          <path class="cls-43" d="M30,4H173a26,26,0,0,1,26,26V501a10,10,0,0,1-10,10H14A10,10,0,0,1,4,501V30A26,26,0,0,1,30,4Z"/>
        </g>
        <rect id="Rectangle_18" data-name="Rectangle 18" class="cls-5" width="13" height="51" rx="6.5" transform="translate(472 652)"/>
        <rect id="Rectangle_93" data-name="Rectangle 93" class="cls-7" width="13" height="51" rx="6" transform="translate(470 654)"/>
        <rect id="Rectangle_19" data-name="Rectangle 19" class="cls-5" width="13" height="73" rx="6.5" transform="translate(472 477)"/>
        <rect id="Rectangle_94" data-name="Rectangle 94" class="cls-7" width="13" height="73" rx="6" transform="translate(470 479)"/>
        <g id="Path_9" data-name="Path 9" class="cls-26" transform="translate(308 587.872)">
          <path class="cls-42" d="M 197.8700561523438 28.12835502624512 L 5.129970550537109 28.12835502624512 C 4.720913410186768 28.12835502624512 4.343257427215576 28.11928939819336 4 28.10421752929688 L 4 4.024139881134033 C 4.343257427215576 4.009067058563232 4.720913410186768 4.000001907348633 5.129970550537109 4.000001907348633 L 197.8700561523438 4.000001907348633 C 198.2791137695312 4.000001907348633 198.65673828125 4.009065628051758 199 4.024138450622559 L 199 28.10421752929688 C 198.65673828125 28.11929130554199 198.2791137695312 28.12835502624512 197.8700561523438 28.12835502624512 Z"/>
          <path class="cls-44" d="M 8 8.000011444091797 L 8 24.12834548950195 L 195 24.12834548950195 L 195 8.000011444091797 L 8 8.000011444091797 M 5.129959106445312 1.1444091796875e-05 L 197.8700256347656 1.1444091796875e-05 C 200.7032623291016 1.1444091796875e-05 203 0.3828449249267578 203 0.8551120758056641 L 203 31.27321243286133 C 203 31.74551200866699 200.7032623291016 32.12834548950195 197.8700256347656 32.12834548950195 L 5.129959106445312 32.12834548950195 C 2.296768188476562 32.12834548950195 0 31.74551200866699 0 31.27321243286133 L 0 0.8551120758056641 C 0 0.3828449249267578 2.296768188476562 1.1444091796875e-05 5.129959106445312 1.1444091796875e-05 Z"/>
        </g>
        <path id="Rectangle_83" data-name="Rectangle 83" class="cls-7" d="M30,0h3a0,0,0,0,1,0,0V512a0,0,0,0,1,0,0H0a0,0,0,0,1,0,0V30A30,30,0,0,1,30,0Z" transform="translate(316 289)"/>
        <path id="Rectangle_84" data-name="Rectangle 84" class="cls-12" d="M0,0H0A14,14,0,0,1,14,14V499a0,0,0,0,1,0,0H0a0,0,0,0,1,0,0V0A0,0,0,0,1,0,0Z" transform="translate(489 298)"/>
        <g id="Path_28" data-name="Path 28" class="cls-27" transform="translate(308 587.872)">
          <path class="cls-42" d="M5.13,0H197.87C200.7,0,203,.383,203,.855V31.273c0,.472-2.3.855-5.13.855H5.13C2.3,32.128,0,31.746,0,31.273V.855C0,.383,2.3,0,5.13,0Z"/>
          <path class="cls-44" d="M 8 8.000011444091797 L 8 24.12834548950195 L 195 24.12834548950195 L 195 8.000011444091797 L 8 8.000011444091797 M 5.129959106445312 1.1444091796875e-05 L 197.8700256347656 1.1444091796875e-05 C 200.7032623291016 1.1444091796875e-05 203 0.3828449249267578 203 0.8551120758056641 L 203 31.27321243286133 C 203 31.74551200866699 200.7032623291016 32.12834548950195 197.8700256347656 32.12834548950195 L 5.129959106445312 32.12834548950195 C 2.296768188476562 32.12834548950195 0 31.74551200866699 0 31.27321243286133 L 0 0.8551120758056641 C 0 0.3828449249267578 2.296768188476562 1.1444091796875e-05 5.129959106445312 1.1444091796875e-05 Z"/>
        </g>
        <g id="Rectangle_92" data-name="Rectangle 92" class="cls-15" transform="translate(308 289)">
          <path class="cls-42" d="M30,0H173a30,30,0,0,1,30,30V501a14,14,0,0,1-14,14H14A14,14,0,0,1,0,501V30A30,30,0,0,1,30,0Z"/>
          <path class="cls-43" d="M30,4H173a26,26,0,0,1,26,26V501a10,10,0,0,1-10,10H14A10,10,0,0,1,4,501V30A26,26,0,0,1,30,4Z"/>
        </g>
      </g>
    </g>
    <g id="piekarnik" transform="translate(-5)">
      <g id="Rectangle_23" data-name="Rectangle 23" class="cls-28" transform="translate(757 550)">
        <rect class="cls-42" width="253" height="254"/>
        <rect class="cls-43" x="4" y="4" width="245" height="246"/>
      </g>
      <g id="Path_10" data-name="Path 10" class="cls-29" transform="translate(753.564 546.287)">
        <path class="cls-42" d="M 252.3490905761719 8.17970085144043 L 7.99294900894165 8.17970085144043 C 6.746949195861816 8.17970085144043 5.570520401000977 7.827807903289795 4.765270709991455 7.214308261871338 C 4.286091804504395 6.84920072555542 4.000020503997803 6.428843975067139 4.000020503997803 6.08984375 C 4.000020503997803 5.750843524932861 4.286091804504395 5.33048677444458 4.765270709991455 4.965379238128662 C 5.570520401000977 4.351879596710205 6.746949195861816 3.99998664855957 7.99294900894165 3.99998664855957 L 252.3490905761719 3.99998664855957 C 253.5950622558594 3.99998664855957 254.7715148925781 4.351879596710205 255.5768127441406 4.965415000915527 C 256.0559997558594 5.33048677444458 256.342041015625 5.750843524932861 256.342041015625 6.08984375 C 256.342041015625 6.428843975067139 256.0559997558594 6.84920072555542 255.5768127441406 7.214272499084473 C 254.7715148925781 7.827807903289795 253.5950622558594 8.17970085144043 252.3490905761719 8.17970085144043 Z"/>
        <path class="cls-44" d="M 7.992935180664062 1.049041748046875e-05 L 252.3491058349609 1.049041748046875e-05 C 256.763427734375 1.049041748046875e-05 260.3420104980469 2.726510047912598 260.3420104980469 6.08984375 C 260.3420104980469 9.453176498413086 256.763427734375 12.17967700958252 252.3491058349609 12.17967700958252 L 7.992935180664062 12.17967700958252 C 3.57855224609375 12.17967700958252 -3.0517578125e-05 9.453176498413086 -3.0517578125e-05 6.08984375 C -3.0517578125e-05 2.726510047912598 3.57855224609375 1.049041748046875e-05 7.992935180664062 1.049041748046875e-05 Z"/>
      </g>
      <rect id="Rectangle_100" data-name="Rectangle 100" class="cls-7" width="8" height="249" transform="translate(1005.5 558.5) rotate(90)"/>
      <rect id="Rectangle_104" data-name="Rectangle 104" class="cls-7" width="23" height="220" rx="4" transform="translate(990.5 588.5) rotate(90)"/>
      <rect id="Rectangle_101" data-name="Rectangle 101" class="cls-7" width="28" height="197" rx="10" transform="translate(981.5 752.5) rotate(90)"/>
      <g id="Group_31" data-name="Group 31">
        <g id="Group_6" data-name="Group 6" transform="translate(784.251 625.739)">
          <g id="Path_7-4" data-name="Path 7" class="cls-30">
            <path class="cls-42" d="M 192.2523193359375 146.7243347167969 L 5.385573863983154 146.7243347167969 C 4.84985876083374 145.7524871826172 4.000002384185791 143.2552185058594 4.000002384185791 139.3795013427734 L 4.000002384185791 11.34484195709229 C 4.000002384185791 7.469137668609619 4.84985876083374 4.971861362457275 5.385573863983154 4.000008106231689 L 192.2523193359375 4.000008106231689 C 192.7880401611328 4.971861362457275 193.6378936767578 7.469137668609619 193.6378936767578 11.34484195709229 L 193.6378936767578 139.3795013427734 C 193.6378936767578 143.2552185058594 192.7880401611328 145.7524871826172 192.2523193359375 146.7243347167969 Z"/>
            <path class="cls-44" d="M 8.283889770507812 8.000015258789062 C 8.122879028320312 8.887298583984375 7.999984741210938 10.01931762695312 7.999984741210938 11.3448486328125 L 7.999984741210938 139.3795013427734 C 7.999984741210938 140.7050323486328 8.122879028320312 141.8370513916016 8.283889770507812 142.7243347167969 L 189.3539733886719 142.7243347167969 C 189.5149841308594 141.8370513916016 189.6378784179688 140.7050476074219 189.6378784179688 139.3795013427734 L 189.6378784179688 11.3448486328125 C 189.6378784179688 10.01930236816406 189.5149841308594 8.887298583984375 189.3539733886719 8.000015258789062 L 8.283889770507812 8.000015258789062 M 4.448440551757812 1.52587890625e-05 L 193.189453125 1.52587890625e-05 C 195.646240234375 1.52587890625e-05 197.6378784179688 5.079238891601562 197.6378784179688 11.3448486328125 L 197.6378784179688 139.3795013427734 C 197.6378784179688 145.6451110839844 195.646240234375 150.7243347167969 193.189453125 150.7243347167969 L 4.448440551757812 150.7243347167969 C 1.991653442382812 150.7243347167969 -1.52587890625e-05 145.6451110839844 -1.52587890625e-05 139.3795013427734 L -1.52587890625e-05 11.3448486328125 C -1.52587890625e-05 5.079238891601562 1.991653442382812 1.52587890625e-05 4.448440551757812 1.52587890625e-05 Z"/>
          </g>
        </g>
        <g id="Rectangle_78" data-name="Rectangle 78" class="cls-31" transform="translate(921 643) rotate(90)">
          <rect class="cls-42" width="16" height="76" rx="8"/>
          <rect class="cls-43" x="4" y="4" width="8" height="68" rx="4"/>
        </g>
        <rect id="Rectangle_102" data-name="Rectangle 102" class="cls-7" width="16" height="76" rx="8" transform="translate(920 646) rotate(90)"/>
        <rect id="Rectangle_31" data-name="Rectangle 31" class="cls-6" width="83.556" height="15.986" rx="7.993" transform="matrix(0.629, -0.777, 0.777, 0.629, 904.683, 752.718)"/>
        <rect id="Rectangle_99" data-name="Rectangle 99" class="cls-6" width="44.556" height="8.986" rx="4.493" transform="matrix(0.629, -0.777, 0.777, 0.629, 933.123, 751.123)"/>
      </g>
      <g id="Group_30" data-name="Group 30" transform="translate(-3 5)">
        <g id="Group_5" data-name="Group 5" transform="translate(773.055 561.795)">
          <g id="Path_7-5" data-name="Path 7" class="cls-9" transform="translate(0)">
            <path class="cls-42" d="M 216.0926818847656 38.36787414550781 L 4.975803375244141 38.36787414550781 C 4.308988571166992 38.36787414550781 3.796532869338989 38.21825790405273 3.499990701675415 38.08100891113281 L 3.499990701675415 3.78685998916626 C 3.796532869338989 3.649610757827759 4.308988571166992 3.499997615814209 4.975803375244141 3.499997615814209 L 216.0926818847656 3.499997615814209 C 216.7594909667969 3.499997615814209 217.2719421386719 3.649610757827759 217.5684967041016 3.78685998916626 L 217.5684967041016 38.08100891113281 C 217.2719421386719 38.21825790405273 216.7594909667969 38.36787414550781 216.0926818847656 38.36787414550781 Z"/>
            <path class="cls-44" d="M 6.999984741210938 7.000007629394531 L 6.999984741210938 34.86776351928711 L 214.0684967041016 34.85768127441406 L 214.0684967041016 7.000007629394531 L 6.999984741210938 7.000007629394531 M 4.975814819335938 7.62939453125e-06 L 216.0926666259766 7.62939453125e-06 C 218.8406982421875 7.62939453125e-06 221.0684967041016 1.410900115966797 221.0684967041016 3.151329040527344 L 221.0684967041016 38.7165412902832 C 221.0684967041016 40.45697021484375 218.8406982421875 41.86786270141602 216.0926666259766 41.86786270141602 L 4.975814819335938 41.86786270141602 C 2.227737426757812 41.86786270141602 -1.52587890625e-05 40.45697021484375 -1.52587890625e-05 38.7165412902832 L -1.52587890625e-05 3.151329040527344 C -1.52587890625e-05 1.410900115966797 2.227737426757812 7.62939453125e-06 4.975814819335938 7.62939453125e-06 Z"/>
          </g>
        </g>
        <rect id="Rectangle_112" data-name="Rectangle 112" class="cls-7" width="16" height="16" rx="8" transform="translate(805 576) rotate(90)"/>
        <rect id="Rectangle_113" data-name="Rectangle 113" class="cls-7" width="16" height="16" rx="8" transform="translate(831 576) rotate(90)"/>
        <rect id="Rectangle_114" data-name="Rectangle 114" class="cls-7" width="16" height="16" rx="8" transform="translate(950 576) rotate(90)"/>
        <rect id="Rectangle_115" data-name="Rectangle 115" class="cls-7" width="16" height="16" rx="8" transform="translate(975 576) rotate(90)"/>
        <g id="Rectangle_33" data-name="Rectangle 33" class="cls-32" transform="translate(976 575) rotate(90)">
          <rect class="cls-42" width="16" height="16" rx="8"/>
          <rect class="cls-43" x="1.5" y="1.5" width="13" height="13" rx="6.5"/>
        </g>
        <g id="Rectangle_80" data-name="Rectangle 80" class="cls-32" transform="translate(951 575) rotate(90)">
          <rect class="cls-42" width="16" height="16" rx="8"/>
          <rect class="cls-43" x="1.5" y="1.5" width="13" height="13" rx="6.5"/>
        </g>
        <g id="Rectangle_34" data-name="Rectangle 34" class="cls-33" transform="translate(921 575) rotate(90)">
          <rect class="cls-42" width="16" height="76" rx="8"/>
          <rect class="cls-43" x="2.5" y="2.5" width="11" height="71" rx="5.5"/>
        </g>
        <g id="Rectangle_79" data-name="Rectangle 79" class="cls-32" transform="translate(808 575) rotate(90)">
          <rect class="cls-42" width="16" height="16" rx="8"/>
          <rect class="cls-43" x="1.5" y="1.5" width="13" height="13" rx="6.5"/>
        </g>
        <g id="Rectangle_32" data-name="Rectangle 32" class="cls-32" transform="translate(833 575) rotate(90)">
          <rect class="cls-42" width="16" height="16" rx="8"/>
          <rect class="cls-43" x="1.5" y="1.5" width="13" height="13" rx="6.5"/>
        </g>
      </g>
    </g>
    <g id="Group_32" data-name="Group 32" transform="translate(-70 3)">
      <path id="Path_8" data-name="Path 8" class="cls-16" d="M10.657,0H242.834a10.657,10.657,0,0,1,10.657,10.657V242.834a10.657,10.657,0,0,1-10.657,10.657H10.657A10.657,10.657,0,0,1,0,242.834V10.657A10.657,10.657,0,0,1,10.657,0Z" transform="translate(1312.411 547.377)"/>
      <g id="Rectangle_12" data-name="Rectangle 12" class="cls-15" transform="translate(1312 547)">
        <rect class="cls-42" width="254" height="254"/>
        <rect class="cls-43" x="4" y="4" width="246" height="246"/>
      </g>
      <g id="Path_5" data-name="Path 5" class="cls-9" transform="translate(1309.366 543.287)">
        <path class="cls-42" d="M 257.0484924316406 8.179690361022949 L 8.141807556152344 8.179690361022949 C 5.572499752044678 8.179690361022949 4 6.826612949371338 4 6.08984375 C 4 5.353074550628662 5.572499752044678 3.999997615814209 8.141807556152344 3.999997615814209 L 257.0484924316406 3.999997615814209 C 259.6177978515625 3.999997615814209 261.1903076171875 5.353074550628662 261.1903076171875 6.08984375 C 261.1903076171875 6.826612949371338 259.6177978515625 8.179690361022949 257.0484924316406 8.179690361022949 Z"/>
        <path class="cls-44" d="M 8.141815185546875 1.049041748046875e-05 L 257.0484924316406 1.049041748046875e-05 C 261.5450744628906 1.049041748046875e-05 265.1903076171875 2.726510047912598 265.1903076171875 6.08984375 C 265.1903076171875 9.453176498413086 261.5450744628906 12.17967700958252 257.0484924316406 12.17967700958252 L 8.141815185546875 12.17967700958252 C 3.64520263671875 12.17967700958252 0 9.453176498413086 0 6.08984375 C 0 2.726510047912598 3.64520263671875 1.049041748046875e-05 8.141815185546875 1.049041748046875e-05 Z"/>
      </g>
      <rect id="Rectangle_117" data-name="Rectangle 117" class="cls-7" width="8" height="249" transform="translate(1564.5 555.5) rotate(90)"/>
      <rect id="Rectangle_127" data-name="Rectangle 127" class="cls-7" width="18" height="222" rx="6" transform="translate(1550.5 617.5) rotate(90)"/>
      <rect id="Rectangle_128" data-name="Rectangle 128" class="cls-7" width="18" height="222" rx="6" transform="translate(1550.5 694.5) rotate(90)"/>
      <rect id="Rectangle_129" data-name="Rectangle 129" class="cls-7" width="18" height="222" rx="6" transform="translate(1550.5 772.5) rotate(90)"/>
      <g id="Group_35" data-name="Group 35">
        <g id="Group_2" data-name="Group 2" transform="translate(1328.776 561.594)">
          <g id="Path_7-6" data-name="Path 7" class="cls-9">
            <path class="cls-42" d="M 215.6586608886719 66.79476165771484 L 4.965841770172119 66.79476165771484 C 4.508998394012451 66.79476165771484 3.999998331069946 66.24909973144531 3.999998331069946 65.46613311767578 L 3.999998331069946 5.328634738922119 C 3.999998331069946 4.545665740966797 4.508998394012451 4.000009536743164 4.965841770172119 4.000009536743164 L 215.6586608886719 4.000009536743164 C 216.1154937744141 4.000009536743164 216.6244964599609 4.545665740966797 216.6244964599609 5.328634738922119 L 216.6244964599609 65.46613311767578 C 216.6244964599609 66.24909973144531 216.1154937744141 66.79476165771484 215.6586608886719 66.79476165771484 Z"/>
            <path class="cls-44" d="M 8 7.999992370605469 L 8 62.79477691650391 L 212.6244964599609 62.79477691650391 L 212.6244964599609 7.999992370605469 L 8 7.999992370605469 M 4.9658203125 -7.62939453125e-06 L 215.6586456298828 -7.62939453125e-06 C 218.4012145996094 -7.62939453125e-06 220.6244964599609 2.385704040527344 220.6244964599609 5.328636169433594 L 220.6244964599609 65.46613311767578 C 220.6244964599609 68.40906524658203 218.4012145996094 70.79477691650391 215.6586456298828 70.79477691650391 L 4.9658203125 70.79477691650391 C 2.223281860351562 70.79477691650391 0 68.40906524658203 0 65.46613311767578 L 0 5.328636169433594 C 0 2.385704040527344 2.223281860351562 -7.62939453125e-06 4.9658203125 -7.62939453125e-06 Z"/>
          </g>
        </g>
        <rect id="Rectangle_27" data-name="Rectangle 27" class="cls-5" width="13" height="36" rx="6.5" transform="translate(1458 590) rotate(90)"/>
        <rect id="Rectangle_130" data-name="Rectangle 130" class="cls-7" width="13" height="36" rx="6" transform="translate(1458 592) rotate(90)"/>
      </g>
      <g id="Group_33" data-name="Group 33">
        <g id="Group_3" data-name="Group 3" transform="translate(1329 638)">
          <g id="Rectangle_15" data-name="Rectangle 15" class="cls-22">
            <rect class="cls-42" width="221" height="71" rx="7"/>
            <rect class="cls-43" x="4" y="4" width="213" height="63" rx="3"/>
          </g>
        </g>
        <rect id="Rectangle_28" data-name="Rectangle 28" class="cls-5" width="13" height="36" rx="6.5" transform="translate(1458 668) rotate(90)"/>
        <rect id="Rectangle_131" data-name="Rectangle 131" class="cls-7" width="13" height="36" rx="6" transform="translate(1458 670) rotate(90)"/>
      </g>
      <g id="Group_34" data-name="Group 34">
        <g id="Group_1" data-name="Group 1" transform="translate(1329 715)">
          <g id="Rectangle_16" data-name="Rectangle 16" class="cls-22">
            <rect class="cls-42" width="221" height="70" rx="7"/>
            <rect class="cls-43" x="4" y="4" width="213" height="62" rx="3"/>
          </g>
        </g>
        <rect id="Rectangle_29" data-name="Rectangle 29" class="cls-5" width="13" height="36" rx="6.5" transform="translate(1458 744) rotate(90)"/>
        <rect id="Rectangle_132" data-name="Rectangle 132" class="cls-7" width="13" height="36" rx="6" transform="translate(1458 747) rotate(90)"/>
      </g>
    </g>
    <g id="szafka_z_mikrofala" data-name="szafka z mikrofala" transform="translate(-7)">
      <path id="Path_14" data-name="Path 14" class="cls-16" d="M10.657,0H242.834a10.657,10.657,0,0,1,10.657,10.657V242.834a10.657,10.657,0,0,1-10.657,10.657H10.657A10.657,10.657,0,0,1,0,242.834V10.657A10.657,10.657,0,0,1,10.657,0Z" transform="translate(1004.01 550.377)"/>
      <g id="Rectangle_35" data-name="Rectangle 35" class="cls-15" transform="translate(1004 550)">
        <rect class="cls-42" width="254" height="254"/>
        <rect class="cls-43" x="4" y="4" width="246" height="246"/>
      </g>
      <g id="Path_17" data-name="Path 17" class="cls-9" transform="translate(1001.726 546.287)">
        <path class="cls-42" d="M 252.3490905761719 8.17970085144043 L 7.99294900894165 8.17970085144043 C 6.746949195861816 8.17970085144043 5.570520401000977 7.827807903289795 4.765270709991455 7.214308261871338 C 4.286091804504395 6.84920072555542 4.000020503997803 6.428843975067139 4.000020503997803 6.08984375 C 4.000020503997803 5.750843524932861 4.286091804504395 5.33048677444458 4.765270709991455 4.965379238128662 C 5.570520401000977 4.351879596710205 6.746949195861816 3.99998664855957 7.99294900894165 3.99998664855957 L 252.3490905761719 3.99998664855957 C 253.5950622558594 3.99998664855957 254.7715148925781 4.351879596710205 255.5768127441406 4.965415000915527 C 256.0559997558594 5.33048677444458 256.342041015625 5.750843524932861 256.342041015625 6.08984375 C 256.342041015625 6.428843975067139 256.0559997558594 6.84920072555542 255.5768127441406 7.214272499084473 C 254.7715148925781 7.827807903289795 253.5950622558594 8.17970085144043 252.3490905761719 8.17970085144043 Z"/>
        <path class="cls-44" d="M 7.992935180664062 1.049041748046875e-05 L 252.3491058349609 1.049041748046875e-05 C 256.763427734375 1.049041748046875e-05 260.3420104980469 2.726510047912598 260.3420104980469 6.08984375 C 260.3420104980469 9.453176498413086 256.763427734375 12.17967700958252 252.3491058349609 12.17967700958252 L 7.992935180664062 12.17967700958252 C 3.57855224609375 12.17967700958252 -3.0517578125e-05 9.453176498413086 -3.0517578125e-05 6.08984375 C -3.0517578125e-05 2.726510047912598 3.57855224609375 1.049041748046875e-05 7.992935180664062 1.049041748046875e-05 Z"/>
      </g>
      <rect id="Rectangle_116" data-name="Rectangle 116" class="cls-7" width="8" height="249" transform="translate(1254.5 558.5) rotate(90)"/>
      <g id="szafka_z_mikrofala-2" data-name="szafka z mikrofala">
        <rect id="Rectangle_126" data-name="Rectangle 126" class="cls-7" width="18" height="222" rx="6" transform="translate(1242.5 773.5) rotate(90)"/>
        <rect id="Rectangle_125" data-name="Rectangle 125" class="cls-7" width="18" height="222" rx="6" transform="translate(1242.5 617.5) rotate(90)"/>
        <g id="Group_8" data-name="Group 8" transform="translate(1020.198 564.594)">
          <g id="Path_1-2" data-name="Path 1" class="cls-9">
            <path class="cls-42" d="M 216.9341278076172 63.9965705871582 L 4.995192050933838 63.9965705871582 C 4.446442127227783 63.9965705871582 4.000004291534424 63.49504089355469 4.000004291534424 62.8785400390625 L 4.000004291534424 5.118009567260742 C 4.000004291534424 4.501541137695312 4.446442127227783 4.000009536743164 4.995192050933838 4.000009536743164 L 216.9341278076172 4.000009536743164 C 217.4828796386719 4.000009536743164 217.9293212890625 4.501541137695312 217.9293212890625 5.118009567260742 L 217.9293212890625 62.8785400390625 C 217.9293212890625 63.49504089355469 217.4828796386719 63.9965705871582 216.9341278076172 63.9965705871582 Z"/>
            <path class="cls-44" d="M 7.999984741210938 8.000003814697266 L 7.999984741210938 59.99657440185547 L 213.9293060302734 59.99657440185547 L 213.9293060302734 8.000003814697266 L 7.999984741210938 8.000003814697266 M 4.995193481445312 7.62939453125e-06 L 216.9341278076172 7.62939453125e-06 C 219.6929168701172 7.62939453125e-06 221.9293060302734 2.291435241699219 221.9293060302734 5.118003845214844 L 221.9293060302734 62.8785400390625 C 221.9293060302734 65.70518493652344 219.6929168701172 67.99657440185547 216.9341278076172 67.99657440185547 L 4.995193481445312 67.99657440185547 C 2.236404418945312 67.99657440185547 -1.52587890625e-05 65.70518493652344 -1.52587890625e-05 62.8785400390625 L -1.52587890625e-05 5.118003845214844 C -1.52587890625e-05 2.291435241699219 2.236404418945312 7.62939453125e-06 4.995193481445312 7.62939453125e-06 Z"/>
          </g>
        </g>
        <rect id="Rectangle_75" data-name="Rectangle 75" class="cls-5" width="13" height="36" rx="6.5" transform="translate(1150 591) rotate(90)"/>
        <rect id="Rectangle_123" data-name="Rectangle 123" class="cls-7" width="13" height="36" rx="6" transform="translate(1149 593) rotate(90)"/>
      </g>
      <g id="Path_16" data-name="Path 16" class="cls-9" transform="translate(1020.198 637.552)">
        <path class="cls-42" d="M 212.0970001220703 146.7243194580078 L 9.832317352294922 146.7243194580078 C 8.257972717285156 146.7243194580078 6.72594165802002 146.4618225097656 5.518441677093506 145.9852294921875 C 4.658814907073975 145.6459045410156 4.190348148345947 145.2856140136719 4.000004291534424 145.0931091308594 L 4.000004291534424 5.631242275238037 C 4.190348148345947 5.43873119354248 4.658814907073975 5.078454494476318 5.518441677093506 4.739136219024658 C 6.725973129272461 4.262511253356934 8.257972717285156 4.000010967254639 9.832317352294922 4.000010967254639 L 212.0970001220703 4.000010967254639 C 213.6713409423828 4.000010967254639 215.2033538818359 4.262511253356934 216.4108734130859 4.739136219024658 C 217.2705078125 5.078454494476318 217.7389678955078 5.43873119354248 217.9293212890625 5.631242275238037 L 217.9293212890625 145.0931091308594 C 217.7389678955078 145.2856140136719 217.2705078125 145.6459045410156 216.4108734130859 145.9852294921875 C 215.2033843994141 146.4618225097656 213.6713409423828 146.7243194580078 212.0970001220703 146.7243194580078 Z"/>
        <path class="cls-44" d="M 9.832305908203125 7.999984741210938 C 9.105377197265625 7.999984741210938 8.49151611328125 8.072708129882812 7.999984741210938 8.170623779296875 L 7.999984741210938 142.5537109375 C 8.49151611328125 142.6516265869141 9.105377197265625 142.7243499755859 9.832305908203125 142.7243499755859 L 212.0970153808594 142.7243499755859 C 212.8239288330078 142.7243499755859 213.4377746582031 142.6516265869141 213.9293060302734 142.5537109375 L 213.9293060302734 8.170608520507812 C 213.4377746582031 8.072708129882812 212.8239288330078 7.999984741210938 212.0970153808594 7.999984741210938 L 9.832305908203125 7.999984741210938 M 9.832305908203125 -1.52587890625e-05 L 212.0970153808594 -1.52587890625e-05 C 217.5272369384766 -1.52587890625e-05 221.9293060302734 2.385696411132812 221.9293060302734 5.328628540039062 L 221.9293060302734 145.3957061767578 C 221.9293060302734 148.3386383056641 217.5272369384766 150.7243499755859 212.0970153808594 150.7243499755859 L 9.832305908203125 150.7243499755859 C 4.402053833007812 150.7243499755859 -1.52587890625e-05 148.3386383056641 -1.52587890625e-05 145.3957061767578 L -1.52587890625e-05 5.328628540039062 C -1.52587890625e-05 2.385696411132812 4.402053833007812 -1.52587890625e-05 9.832305908203125 -1.52587890625e-05 Z"/>
      </g>
      <rect id="Rectangle_36" data-name="Rectangle 36" class="cls-5" width="12" height="35" rx="6" transform="translate(1215 697)"/>
      <rect id="Rectangle_124" data-name="Rectangle 124" class="cls-7" width="13" height="36" rx="6" transform="translate(1212.5 697.5)"/>
    </g>
    <rect id="Rectangle_74" data-name="Rectangle 74" class="cls-34" width="1920" height="1080" transform="translate(-9)"/>
    <g id="Group_55" data-name="Group 55" transform="translate(-46 -128)">
      <g id="ludek2" transform="translate(476.5 1638.5) rotate(-90)">
        <g id="Union_2" data-name="Union 2" class="cls-9" transform="translate(916 866)">
          <path class="cls-42" d="M 345.9995727539062 184.0001068115234 L 51.00032424926758 184.0001068115234 C 44.65464019775391 184.0001068115234 38.49995422363281 182.7577362060547 32.70727157592773 180.3075256347656 C 27.11011123657227 177.9402618408203 22.08337593078613 174.5511627197266 17.76663780212402 170.234375 C 13.4483757019043 165.9161529541016 10.05869102478027 160.8893737792969 7.691638469696045 155.2936859130859 C 5.242059707641602 149.5024719238281 4.000006675720215 143.3478393554688 4.000006675720215 137.0006866455078 L 4.000006675720215 74.00068664550781 C 4.000006675720215 67.65379333496094 5.242112159729004 61.4987907409668 7.691743850708008 55.70663452148438 C 10.05869102478027 50.11026382446289 13.44832229614258 45.08363342285156 17.7663745880127 40.7663688659668 C 22.08453369140625 36.44821166992188 27.1112174987793 33.05884552001953 32.70711135864258 30.69215965270996 C 38.49848175048828 28.24247550964355 44.65311050415039 27.00042343139648 51.00032424926758 27.00042343139648 L 82.99946594238281 27.00042343139648 L 83.00032043457031 120.0006332397461 C 83.00032043457031 125.0758972167969 84.97695159912109 129.8470611572266 88.56610870361328 133.4351043701172 C 92.15326690673828 137.0233764648438 96.92437744140625 139 101.9996948242188 139 L 195.0003204345703 139 C 200.0756378173828 139 204.8467407226562 137.0233764648438 208.4347991943359 133.4342193603516 C 212.0230560302734 129.8470611572266 213.9996948242188 125.0758972167969 213.9996948242188 120.0005798339844 L 213.9996948242188 27.00042343139648 L 276.0003356933594 27.00042343139648 L 280.0003356933594 27.00042343139648 L 280.0003356933594 23.00042343139648 C 280.0003356933594 20.06210708618164 281.14453125 17.29963302612305 283.22216796875 15.22194862365723 C 285.2996826171875 13.14431762695312 288.0617980957031 12.00010681152344 290.9996948242188 12.00010681152344 C 293.9380187988281 12.00010681152344 296.700439453125 13.14431762695312 298.7781066894531 15.22200107574463 C 300.8558044433594 17.29968643188477 302 20.06210708618164 302 23.00042343139648 L 302 27.00042343139648 L 306 27.00042343139648 L 345.9995727539062 27.00042343139648 C 352.3465881347656 27.00042343139648 358.5016479492188 28.24252700805664 364.293701171875 30.69215965270996 C 369.8895263671875 33.05884552001953 374.916259765625 36.44821166992188 379.2342224121094 40.76610565185547 C 383.5514831542969 45.08342361450195 386.9408874511719 50.11021041870117 389.3082580566406 55.70684432983398 C 391.7577819824219 61.4987907409668 392.9999084472656 67.65379333496094 392.9999084472656 74.00068664550781 L 392.9999084472656 137.0006866455078 C 392.9999084472656 143.3478393554688 391.7578430175781 149.5024719238281 389.3082275390625 155.2937316894531 C 386.9414672851562 160.8889007568359 383.552001953125 165.9157409667969 379.2339477539062 170.2346343994141 C 374.9174194335938 174.5511627197266 369.8906860351562 177.9402618408203 364.2936401367188 180.3074798583984 C 358.5001220703125 182.7577362060547 352.3451232910156 184.0001068115234 345.9995727539062 184.0001068115234 Z"/>
          <path class="cls-44" d="M 345.9996032714844 180.0001068115234 C 351.806884765625 180.0001068115234 357.4377136230469 178.8639831542969 362.735595703125 176.6233978271484 C 367.8556518554688 174.4579315185547 372.4549560546875 171.356689453125 376.4052429199219 167.4064636230469 C 380.3572387695312 163.4537506103516 383.4590148925781 158.8541107177734 385.6242370605469 153.7353973388672 C 387.8641967773438 148.4399871826172 388.9999084472656 142.8096313476562 388.9999084472656 137.0007019042969 L 388.9999084472656 74.00069427490234 C 388.9999084472656 68.19198608398438 387.8641357421875 62.56116485595703 385.6242980957031 57.26522445678711 C 383.45849609375 52.14510726928711 380.3569030761719 47.54563522338867 376.4057312011719 43.59457778930664 C 372.4539489746094 39.64275360107422 367.8546752929688 36.54128265380859 362.735595703125 34.37622451782227 C 357.4391784667969 32.13616561889648 351.8083801269531 31.00040054321289 345.9996032714844 31.00040054321289 L 306 31.00040054321289 L 298 31.00040054321289 L 298 23.00040054321289 C 298 19.14040184020996 294.8597106933594 16.00010681152344 290.9997253417969 16.00010681152344 C 287.1402587890625 16.00010681152344 284.0003051757812 19.14040184020996 284.0003051757812 23.00040054321289 L 284.0003051757812 31.00040054321289 L 276.0003051757812 31.00040054321289 L 217.9997253417969 31.00040054321289 L 217.9997253417969 120.0005798339844 C 217.9997253417969 126.1446380615234 215.6068420410156 131.9204559326172 211.2635955810547 136.2622222900391 C 206.9200744628906 140.6071014404297 201.1443023681641 142.9999847412109 195.0003051757812 142.9999847412109 L 101.9997177124023 142.9999847412109 C 95.85572052001953 142.9999847412109 90.0799560546875 140.6071014404297 85.73818969726562 136.2639923095703 C 81.3931884765625 131.9204559326172 79.00030517578125 126.1446380615234 79.00030517578125 120.0006332397461 L 78.99949645996094 31.00040054321289 L 51.00030899047852 31.00040054321289 C 45.19142532348633 31.00040054321289 39.56101226806641 32.13616561889648 34.2652473449707 34.37622451782227 C 29.14613151550293 36.54128265380859 24.54677772521973 39.6428108215332 20.59448432922363 43.59510803222656 C 16.64260101318359 47.54622268676758 13.54101276397705 52.14540100097656 11.37583637237549 57.26475524902344 C 9.135777473449707 62.56116485595703 8.00001335144043 68.19193267822266 8.00001335144043 74.00069427490234 L 8.00001335144043 137.0007019042969 C 8.00001335144043 142.8096313476562 9.135719299316406 148.4399871826172 11.37565994262695 153.7353363037109 C 13.54095458984375 158.8542785644531 16.64283752441406 163.4537506103516 20.59507179260254 167.4059295654297 C 24.54577827453613 171.356689453125 29.1451301574707 174.4578704833984 34.26554107666016 176.6235198974609 C 39.56254196166992 178.8640441894531 45.19289398193359 180.0001068115234 51.00030899047852 180.0001068115234 L 345.9996032714844 180.0001068115234 M 345.9996032714844 188.0001068115234 L 51.00030899047852 188.0001068115234 C 44.11530685424805 188.0001068115234 37.43642425537109 186.6509857177734 31.14901351928711 183.9915161132812 C 25.07583618164062 181.4229278564453 19.62177848815918 177.7463989257812 14.93818950653076 173.0628051757812 C 10.25371932983398 168.3783416748047 6.57630729675293 162.9242858886719 4.007719039916992 156.8519897460938 C 1.348189473152161 150.5646362304688 1.304716261074645e-05 143.8856964111328 1.304716261074645e-05 137.0007019042969 L 1.304716261074645e-05 74.00069427490234 C 1.304716261074645e-05 67.11569213867188 1.348189473152161 60.43681335449219 4.007719039916992 54.14851760864258 C 6.57630729675293 48.07528305053711 10.25371932983398 42.62128448486328 14.93818950653076 37.93769454956055 C 19.62177848815918 33.25410842895508 25.07583618164062 29.57669448852539 31.14901351928711 27.00810623168945 C 37.43642425537109 24.34857749938965 44.11530685424805 23.00040054321289 51.00030899047852 23.00040054321289 L 86.99942779541016 23.00040054321289 L 87.00030517578125 120.0005798339844 C 87.00030517578125 124.0065155029297 88.56089782714844 127.7739334106445 91.39412689208984 130.6062316894531 C 94.22642517089844 133.4394073486328 97.99289703369141 134.9999847412109 101.9997177124023 134.9999847412109 L 195.0003051757812 134.9999847412109 C 199.0071258544922 134.9999847412109 202.7736053466797 133.4394073486328 205.6058959960938 130.6062316894531 C 208.4391326904297 127.7739334106445 209.9997253417969 124.0065155029297 209.9997253417969 120.0005798339844 L 209.9997253417969 23.00040054321289 L 276.0003051757812 23.00040054321289 C 276.0003051757812 14.71587181091309 282.716064453125 8.000106811523438 290.9997253417969 8.000106811523438 C 299.2841796875 8.000106811523438 306 14.71587181091309 306 23.00040054321289 L 345.9996032714844 23.00040054321289 C 352.8846130371094 23.00040054321289 359.5635375976562 24.34857749938965 365.8518371582031 27.00810623168945 C 371.9250183105469 29.57669448852539 377.3789978027344 33.25410842895508 382.0625915527344 37.93769454956055 C 386.7462463378906 42.62128448486328 390.4236145019531 48.07622528076172 392.9922485351562 54.14851760864258 C 395.6517333984375 60.43681335449219 396.9999084472656 67.11569213867188 396.9999084472656 74.00069427490234 L 396.9999084472656 137.0007019042969 C 396.9999084472656 143.8848114013672 395.6517333984375 150.5646362304688 392.9922485351562 156.8519897460938 C 390.4236145019531 162.9242858886719 386.7462463378906 168.3783416748047 382.0625915527344 173.0628051757812 C 377.3789978027344 177.7463989257812 371.9250183105469 181.4229278564453 365.8518371582031 183.9915161132812 C 359.5635375976562 186.6509857177734 352.8846130371094 188.0001068115234 345.9996032714844 188.0001068115234 Z"/>
        </g>
        <g id="Rectangle_60" data-name="Rectangle 60" class="cls-35" transform="translate(996 896)">
          <rect class="cls-42" width="25" height="27" rx="7"/>
          <rect class="cls-43" x="3" y="3" width="19" height="21" rx="4"/>
        </g>
        <g id="Rectangle_64" data-name="Rectangle 64" class="cls-35" transform="translate(1109 896)">
          <rect class="cls-42" width="25" height="27" rx="7"/>
          <rect class="cls-43" x="3" y="3" width="19" height="21" rx="4"/>
        </g>
        <g id="Rectangle_61" data-name="Rectangle 61" class="cls-35" transform="translate(996 917)">
          <rect class="cls-42" width="25" height="27" rx="7"/>
          <rect class="cls-43" x="3" y="3" width="19" height="21" rx="4"/>
        </g>
        <g id="Rectangle_65" data-name="Rectangle 65" class="cls-35" transform="translate(1109 917)">
          <rect class="cls-42" width="25" height="27" rx="7"/>
          <rect class="cls-43" x="3" y="3" width="19" height="21" rx="4"/>
        </g>
        <g id="Rectangle_62" data-name="Rectangle 62" class="cls-35" transform="translate(996 938)">
          <rect class="cls-42" width="25" height="27" rx="7"/>
          <rect class="cls-43" x="3" y="3" width="19" height="21" rx="4"/>
        </g>
        <g id="Rectangle_66" data-name="Rectangle 66" class="cls-35" transform="translate(1109 938)">
          <rect class="cls-42" width="25" height="27" rx="7"/>
          <rect class="cls-43" x="3" y="3" width="19" height="21" rx="4"/>
        </g>
        <g id="Rectangle_63" data-name="Rectangle 63" class="cls-35" transform="translate(996 960)">
          <rect class="cls-42" width="25" height="27" rx="7"/>
          <rect class="cls-43" x="3" y="3" width="19" height="21" rx="4"/>
        </g>
        <g id="Rectangle_67" data-name="Rectangle 67" class="cls-35" transform="translate(1109 960)">
          <rect class="cls-42" width="25" height="27" rx="7"/>
          <rect class="cls-43" x="3" y="3" width="19" height="21" rx="4"/>
        </g>
        <g id="Group_17" data-name="Group 17" transform="translate(2187 -482) rotate(90)">
          <circle id="Ellipse_6" data-name="Ellipse 6" class="cls-5" cx="17" cy="17" r="17" transform="translate(1404 864)"/>
          <circle id="Ellipse_11" data-name="Ellipse 11" class="cls-5" cx="17" cy="17" r="17" transform="translate(1387 864)"/>
          <circle id="Ellipse_12" data-name="Ellipse 12" class="cls-5" cx="17" cy="17" r="17" transform="translate(1373 869)"/>
          <circle id="Ellipse_7" data-name="Ellipse 7" class="cls-5" cx="17" cy="17" r="17" transform="translate(1424 864)"/>
          <circle id="Ellipse_8" data-name="Ellipse 8" class="cls-5" cx="17" cy="17" r="17" transform="translate(1441 864)"/>
          <circle id="Ellipse_9" data-name="Ellipse 9" class="cls-5" cx="17" cy="17" r="17" transform="translate(1456 864)"/>
          <circle id="Ellipse_10" data-name="Ellipse 10" class="cls-5" cx="17" cy="17" r="17" transform="translate(1476 864)"/>
          <circle id="Ellipse_13" data-name="Ellipse 13" class="cls-5" cx="17" cy="17" r="17" transform="translate(1498 869)"/>
        </g>
        <g id="Group_16" data-name="Group 16" transform="translate(2237.5 -558.5) rotate(90)">
          <g id="Rectangle_70" data-name="Rectangle 70" class="cls-36" transform="translate(1423 906)">
            <rect class="cls-42" width="74" height="26" rx="13"/>
            <rect class="cls-43" x="4" y="4" width="66" height="18" rx="9"/>
          </g>
          <g id="Rectangle_69" data-name="Rectangle 69" class="cls-36" transform="translate(1473 874)">
            <rect class="cls-42" width="133.626" height="58" rx="13"/>
            <rect class="cls-43" x="4" y="4" width="125.626" height="50" rx="9"/>
          </g>
        </g>
        <g id="Ellipse_33" data-name="Ellipse 33" class="cls-37" transform="translate(1191 948.5)">
          <circle class="cls-42" cx="17.5" cy="17.5" r="17.5"/>
          <circle class="cls-43" cx="17.5" cy="17.5" r="14.5"/>
        </g>
        <g id="Rectangle_160" data-name="Rectangle 160" class="cls-22" transform="translate(1190.5 1046.5)">
          <rect class="cls-42" width="51" height="28" rx="14"/>
          <rect class="cls-43" x="4" y="4" width="43" height="20" rx="10"/>
        </g>
      </g>
      <g id="ludek2-2" data-name="ludek2" transform="translate(516 722.5) rotate(-90)">
        <g id="Union_2-2" data-name="Union 2" class="cls-9" transform="translate(0 0)">
          <path class="cls-42" d="M 290.9996948242188 176 C 288.0617980957031 176 285.2996826171875 174.8557891845703 283.22216796875 172.7781524658203 C 281.14453125 170.7004699707031 280.0003356933594 167.9380493164062 280.0003356933594 164.9997406005859 L 280.0003356933594 160.9997406005859 L 276.0003356933594 160.9997406005859 L 254.0002136230469 160.9997406005859 L 254.0002136230469 67.99952697753906 C 254.0002136230469 62.92420959472656 252.0235290527344 58.15310668945312 248.4343719482422 54.56499862670898 C 244.8460083007812 50.97657775878906 240.0746917724609 49.00010681152344 234.9999084472656 49.00010681152344 L 78.00032043457031 49.00010681152344 C 72.92552947998047 49.00010681152344 68.15426635742188 50.97657775878906 64.56537628173828 54.56547546386719 C 60.97663879394531 58.15305328369141 59.00000762939453 62.92420959472656 59.00000762939453 67.99952697753906 L 59.00000762939453 161.0009307861328 L 51.00090026855469 160.9997406005859 C 44.65321731567383 160.9997406005859 38.49853134155273 159.7576904296875 32.70732116699219 157.3079986572266 C 27.1112174987793 154.9412689208984 22.08453369140625 151.5518951416016 17.76663780212402 147.2339935302734 C 13.44832229614258 142.9164733886719 10.05869102478027 137.8898468017578 7.691743850708008 132.2934722900391 C 5.242059707641602 126.5020523071289 4.000006675720215 120.3471069335938 4.000006675720215 113.9994201660156 L 4.000006675720215 50.99942016601562 C 4.000006675720215 44.65231704711914 5.242059707641602 38.49768447875977 7.691690921783447 32.70636749267578 C 10.05869102478027 27.11073684692383 13.4483757019043 22.08394813537598 17.76663780212402 17.76573753356934 C 22.08337593078613 13.44894695281982 27.11011123657227 10.05984210968018 32.7071647644043 7.692631721496582 C 38.49995422363281 5.242368221282959 44.65464019775391 4 51.00032424926758 4 L 345.9995727539062 4 C 352.3451232910156 4 358.5001220703125 5.242368221282959 364.293701171875 7.692631721496582 C 369.8906860351562 10.05984210968018 374.9174194335938 13.44894695281982 379.2342224121094 17.76573753356934 C 383.552001953125 22.0843677520752 386.9414672851562 27.11120986938477 389.3082580566406 32.7064208984375 C 391.7578430175781 38.49768447875977 392.9999084472656 44.65231704711914 392.9999084472656 50.99942016601562 L 392.9999084472656 113.9994201660156 C 392.9999084472656 120.3471069335938 391.7578430175781 126.5020523071289 389.3082275390625 132.2933654785156 C 386.9408874511719 137.889892578125 383.5514831542969 142.9166870117188 379.2342224121094 147.2339935302734 C 374.916259765625 151.5518951416016 369.8895263671875 154.9412689208984 364.293701171875 157.3079528808594 C 358.5015258789062 159.7576293945312 352.3465270996094 160.9997406005859 345.9995727539062 160.9997406005859 L 306 160.9997406005859 L 302 160.9997406005859 L 302 164.9997406005859 C 302 167.9380493164062 300.8558044433594 170.7004699707031 298.7781066894531 172.7781066894531 C 296.700439453125 174.8557891845703 293.9380187988281 176 290.9996948242188 176 Z"/>
          <path class="cls-44" d="M 290.9997253417969 172 C 294.8597106933594 172 298 168.8597106933594 298 164.9997100830078 L 298 156.9997100830078 L 306 156.9997100830078 L 345.9996032714844 156.9997100830078 C 351.8083801269531 156.9997100830078 357.4391784667969 155.8639373779297 362.735595703125 153.6238861083984 C 367.8546752929688 151.4588165283203 372.4539489746094 148.3573455810547 376.4057922363281 144.4055328369141 C 380.3569030761719 140.4544677734375 383.45849609375 135.8549957275391 385.6242370605469 130.7350616455078 C 387.8641967773438 125.4395904541016 388.9999084472656 119.8088836669922 388.9999084472656 113.9994125366211 L 388.9999084472656 50.99941253662109 C 388.9999084472656 45.19052886962891 387.8641967773438 39.56011581420898 385.6242980957031 34.26482391357422 C 383.4590759277344 29.1461181640625 380.3572998046875 24.54647064208984 376.4057312011719 20.59417724609375 C 372.4549560546875 16.64341163635254 367.8556518554688 13.54217624664307 362.7356567382812 11.37670612335205 C 357.4377136230469 9.136117935180664 351.806884765625 8 345.9996032714844 8 L 51.00030899047852 8 C 45.19289398193359 8 39.56254196166992 9.136058807373047 34.2652473449707 11.37670612335205 C 29.1451301574707 13.54223537445068 24.54577827453613 16.64341163635254 20.59507179260254 20.59411811828613 C 16.64277839660645 24.54647064208984 13.54095458984375 29.14594078063965 11.37565994262695 34.26470565795898 C 9.135777473449707 39.56011581420898 8.00001335144043 45.19052886962891 8.00001335144043 50.99941253662109 L 8.00001335144043 113.9994125366211 C 8.00001335144043 119.8088836669922 9.135777473449707 125.4395904541016 11.37583637237549 130.7353515625 C 13.54101276397705 135.8547058105469 16.64260101318359 140.4538879394531 20.59507179260254 144.4055328369141 C 24.54677772521973 148.3572998046875 29.14613151550293 151.4588165283203 34.26560211181641 153.6240539550781 C 39.56101226806641 155.8639373779297 45.19142532348633 156.9997100830078 51.00030899047852 156.9997100830078 L 55.0000114440918 156.9997100830078 L 55.0000114440918 67.99952697753906 C 55.0000114440918 61.85552978515625 57.39289474487305 56.07970428466797 61.73695373535156 51.73694229125977 C 66.08142852783203 47.39264678955078 71.85713195800781 45.00011825561523 78.00030517578125 45.00011825561523 L 234.9998931884766 45.00011825561523 C 241.14306640625 45.00011825561523 246.9187774658203 47.39264678955078 251.2624206542969 51.73617553710938 C 255.6072998046875 56.07970428466797 258.0001831054688 61.85552978515625 258.0001831054688 67.99952697753906 L 258.0001831054688 156.9997100830078 L 276.0003051757812 156.9997100830078 L 284.0003051757812 156.9997100830078 L 284.0003051757812 164.9997100830078 C 284.0003051757812 168.8597106933594 287.1402587890625 172 290.9997253417969 172 M 290.9997253417969 180 C 282.716064453125 180 276.0003051757812 173.2842407226562 276.0003051757812 164.9997100830078 L 250.0001831054688 164.9997100830078 L 250.0001831054688 67.99952697753906 C 250.0001831054688 63.99358749389648 248.4396057128906 60.22617721557617 245.6064300537109 57.39388275146484 C 242.773193359375 54.56070709228516 239.0067138671875 53.00011825561523 234.9998931884766 53.00011825561523 L 78.00030517578125 53.00011825561523 C 73.99348449707031 53.00011825561523 70.22701263427734 54.56070709228516 67.39377593994141 57.39388275146484 C 64.56060028076172 60.22617721557617 63.0000114440918 63.99358749389648 63.0000114440918 67.99952697753906 L 63.0000114440918 164.9997100830078 L 63.0000114440918 165.0015258789062 L 62.99913024902344 165.0015258789062 L 51.00030899047852 164.9997100830078 C 44.11530685424805 164.9997100830078 37.43642425537109 163.6515350341797 31.14901351928711 160.9920043945312 C 25.07583618164062 158.4234161376953 19.62177848815918 154.7460021972656 14.93818950653076 150.0624084472656 C 10.25371932983398 145.3788299560547 6.57630729675293 139.9248199462891 4.007719039916992 133.8515930175781 C 1.348189473152161 127.5641784667969 1.304716261074645e-05 120.8844146728516 1.304716261074645e-05 113.9994125366211 L 1.304716261074645e-05 50.99941253662109 C 1.304716261074645e-05 44.11529541015625 1.348189473152161 37.43552780151367 4.007719039916992 31.14811706542969 C 6.57630729675293 25.0758228302002 10.25371932983398 19.62182426452637 14.93818950653076 14.93729400634766 C 19.62177848815918 10.25370597839355 25.07583618164062 6.577176570892334 31.14901351928711 4.008588314056396 C 37.43642425537109 1.349117636680603 44.11530685424805 0 51.00030899047852 0 L 345.9996032714844 0 C 352.8846130371094 0 359.5635375976562 1.349117636680603 365.8518371582031 4.008588314056396 C 371.9250183105469 6.577176570892334 377.3789978027344 10.25370597839355 382.0625915527344 14.93729400634766 C 386.7462463378906 19.62182426452637 390.4236145019531 25.0758228302002 392.9922485351562 31.14811706542969 C 395.6517333984375 37.43552780151367 396.9999084472656 44.11529541015625 396.9999084472656 50.99941253662109 L 396.9999084472656 113.9994125366211 C 396.9999084472656 120.8844146728516 395.6517333984375 127.5641784667969 392.9922485351562 133.8515930175781 C 390.4236145019531 139.9238891601562 386.7462463378906 145.3788299560547 382.0625915527344 150.0624084472656 C 377.3789978027344 154.7460021972656 371.9250183105469 158.4234161376953 365.8518371582031 160.9920043945312 C 359.5635375976562 163.6515350341797 352.8846130371094 164.9997100830078 345.9996032714844 164.9997100830078 L 306 164.9997100830078 C 306 173.2842407226562 299.2841796875 180 290.9997253417969 180 Z"/>
        </g>
        <rect id="Rectangle_58" data-name="Rectangle 58" class="cls-5" width="16" height="16" rx="8" transform="translate(333.656 118.699) rotate(-124)"/>
        <path id="Path_25" data-name="Path 25" class="cls-38" d="M0,0S5.955,6.944,15.117,6.944,33.426,0,33.426,0" transform="translate(356.629 112.301) rotate(-124)"/>
        <g id="Rectangle_60-2" data-name="Rectangle 60" class="cls-35" transform="translate(56 131)">
          <rect class="cls-42" width="25" height="27" rx="7"/>
          <rect class="cls-43" x="3" y="3" width="19" height="21" rx="4"/>
        </g>
        <g id="Rectangle_64-2" data-name="Rectangle 64" class="cls-35" transform="translate(233 131)">
          <rect class="cls-42" width="25" height="27" rx="7"/>
          <rect class="cls-43" x="3" y="3" width="19" height="21" rx="4"/>
        </g>
        <g id="Rectangle_61-2" data-name="Rectangle 61" class="cls-35" transform="translate(56 110)">
          <rect class="cls-42" width="25" height="27" rx="7"/>
          <rect class="cls-43" x="3" y="3" width="19" height="21" rx="4"/>
        </g>
        <g id="Rectangle_65-2" data-name="Rectangle 65" class="cls-35" transform="translate(233 110)">
          <rect class="cls-42" width="25" height="27" rx="7"/>
          <rect class="cls-43" x="3" y="3" width="19" height="21" rx="4"/>
        </g>
        <g id="Rectangle_62-2" data-name="Rectangle 62" class="cls-35" transform="translate(56 89)">
          <rect class="cls-42" width="25" height="27" rx="7"/>
          <rect class="cls-43" x="3" y="3" width="19" height="21" rx="4"/>
        </g>
        <g id="Rectangle_66-2" data-name="Rectangle 66" class="cls-35" transform="translate(233 89)">
          <rect class="cls-42" width="25" height="27" rx="7"/>
          <rect class="cls-43" x="3" y="3" width="19" height="21" rx="4"/>
        </g>
        <g id="Rectangle_63-2" data-name="Rectangle 63" class="cls-35" transform="translate(56 67)">
          <rect class="cls-42" width="25" height="27" rx="7"/>
          <rect class="cls-43" x="3" y="3" width="19" height="21" rx="4"/>
        </g>
        <g id="Rectangle_67-2" data-name="Rectangle 67" class="cls-35" transform="translate(233 67)">
          <rect class="cls-42" width="25" height="27" rx="7"/>
          <rect class="cls-43" x="3" y="3" width="19" height="21" rx="4"/>
        </g>
        <g id="Group_17-2" data-name="Group 17" transform="translate(368 163) rotate(-90)">
          <ellipse id="Ellipse_6-2" data-name="Ellipse 6" class="cls-5" cx="17" cy="17" rx="17" ry="17" transform="translate(31 5)"/>
          <ellipse id="Ellipse_11-2" data-name="Ellipse 11" class="cls-5" cx="17" cy="17" rx="17" ry="17" transform="translate(14 5)"/>
          <ellipse id="Ellipse_12-2" data-name="Ellipse 12" class="cls-5" cx="17" cy="17" rx="17" ry="17"/>
          <ellipse id="Ellipse_7-2" data-name="Ellipse 7" class="cls-5" cx="17" cy="17" rx="17" ry="17" transform="translate(51 5)"/>
          <ellipse id="Ellipse_8-2" data-name="Ellipse 8" class="cls-5" cx="17" cy="17" rx="17" ry="17" transform="translate(68 5)"/>
          <ellipse id="Ellipse_9-2" data-name="Ellipse 9" class="cls-5" cx="17" cy="17" rx="17" ry="17" transform="translate(83 5)"/>
          <ellipse id="Ellipse_10-2" data-name="Ellipse 10" class="cls-5" cx="17" cy="17" rx="17" ry="17" transform="translate(103 5)"/>
          <ellipse id="Ellipse_13-2" data-name="Ellipse 13" class="cls-5" cx="17" cy="17" rx="17" ry="17" transform="translate(125)"/>
        </g>
        <g id="Group_16-2" data-name="Group 16" transform="translate(389.5 189.5) rotate(-90)">
          <g id="Rectangle_70-2" data-name="Rectangle 70" class="cls-36">
            <rect class="cls-42" width="74" height="26" rx="13"/>
            <rect class="cls-43" x="4" y="4" width="66" height="18" rx="9"/>
          </g>
          <g id="Rectangle_69-2" data-name="Rectangle 69" class="cls-36" transform="translate(50)">
            <rect class="cls-42" width="133.626" height="58" rx="13"/>
            <rect class="cls-43" x="4" y="4" width="125.626" height="50" rx="9"/>
          </g>
        </g>
        <g id="Ellipse_33-2" data-name="Ellipse 33" class="cls-37" transform="translate(275 70.5)">
          <ellipse class="cls-42" cx="17.5" cy="17.5" rx="17.5" ry="17.5"/>
          <ellipse class="cls-43" cx="17.5" cy="17.5" rx="14.5" ry="14.5"/>
        </g>
        <g id="Rectangle_161" data-name="Rectangle 161" class="cls-22" transform="translate(282.5 -20)">
          <rect class="cls-42" width="51" height="28" rx="11"/>
          <rect class="cls-43" x="4" y="4" width="43" height="20" rx="7"/>
        </g>
      </g>
      <text id="V_EAT_AMINS" data-name="V(EAT)AMINS" class="cls-39" transform="translate(601 617)"><tspan x="0" y="0">V(EAT)AMINS</tspan></text>
      <text id="minigra" class="cls-40" transform="translate(893 698)"><tspan x="0" y="0">minigra</tspan></text>
      <rect id="Rectangle_162" data-name="Rectangle 162" class="cls-5" width="16" height="16" rx="8" transform="translate(1416.654 375.58) rotate(34)"/>
      <path id="Path_34" data-name="Path 34" class="cls-38" d="M0,6.944S5.955,0,15.117,0,33.426,6.944,33.426,6.944" transform="translate(1417.988 360.114) rotate(34)"/>
      <text id="Poruszaj_Vitamenem_w_górę_i_w_dół_ekranu_tak_aby_zjadał_tylko_zdrowe_produkty_a_unikał_tych_niezdrowych._Uważaj_bo_im_więcej_fast_foodów_zje_tym_wolniej_będzie_się_poruszał_Zobaczymy_jak_długo_zdołasz_utrzymać_Vitamena_przy_zdrowiu_" data-name="Poruszaj Vitamenem w górę i w dół ekranu tak, aby zjadał tylko zdrowe produkty a unikał tych niezdrowych. Uważaj, bo im więcej fast foodów zje, tym wolniej będzie się poruszał! Zobaczymy, jak długo zdołasz utrzymać Vitamena przy zdrowiu! " class="cls-41" transform="translate(406 760)"><tspan x="37.802" y="36">Poruszaj Vitamenem w górę i w dół ekranu tak, aby zjadał tylko </tspan><tspan x="23.978" y="81">zdrowe produkty a unikał tych niezdrowych. Uważaj, bo im więcej </tspan><tspan x="29.324" y="126">fast foodów zje, tym wolniej będzie się poruszał! Zobaczymy, jak </tspan><tspan x="178.022" y="171">długo zdołasz utrzymać Vitamena przy zdrowiu! </tspan></text>
    </g>
  </g>
</svg>
