<?xml version="1.0" encoding="UTF-8" standalone="no"?>
<svg
   xmlns:dc="http://purl.org/dc/elements/1.1/"
   xmlns:cc="http://creativecommons.org/ns#"
   xmlns:rdf="http://www.w3.org/1999/02/22-rdf-syntax-ns#"
   xmlns:svg="http://www.w3.org/2000/svg"
   xmlns="http://www.w3.org/2000/svg"
   xmlns:sodipodi="http://sodipodi.sourceforge.net/DTD/sodipodi-0.dtd"
   xmlns:inkscape="http://www.inkscape.org/namespaces/inkscape"
   inkscape:version="1.1-dev (f9311a1, 2019-12-25)"
   sodipodi:docname="001-healing.svg"
   id="svg18"
   version="1.1"
   width="512pt"
   viewBox="-7 0 512 512.0005"
   height="512pt">
  <metadata
     id="metadata24">
    <rdf:RDF>
      <cc:Work
         rdf:about="">
        <dc:format>image/svg+xml</dc:format>
        <dc:type
           rdf:resource="http://purl.org/dc/dcmitype/StillImage" />
      </cc:Work>
    </rdf:RDF>
  </metadata>
  <defs
     id="defs22" />
  <sodipodi:namedview
     inkscape:current-layer="svg18"
     inkscape:window-maximized="0"
     inkscape:window-y="23"
     inkscape:window-x="0"
     inkscape:cy="325.24197"
     inkscape:cx="180.26292"
     inkscape:zoom="0.88920681"
     showgrid="false"
     id="namedview20"
     inkscape:window-height="797"
     inkscape:window-width="1355"
     inkscape:pageshadow="2"
     inkscape:pageopacity="0"
     guidetolerance="10"
     gridtolerance="10"
     objecttolerance="10"
     borderopacity="1"
     inkscape:document-rotation="0"
     bordercolor="#666666"
     pagecolor="#ffffff" />
  <path
     style="fill:#0098c9;fill-opacity:1"
     id="path10"
     d="m269.546875 163.925781c1.453125 1.25 3.042969 2.226563 4.707031 2.960938v28.453125c0 4.144531 3.355469 7.5 7.5 7.5 4.140625 0 7.5-3.355469 7.5-7.5v-28.453125c1.664063-.734375 3.253906-1.710938 4.703125-2.960938 23.097657-19.851562 36.339844-48.6875 36.339844-79.109375 0-8.375-.996094-16.710937-2.960937-24.777344-.980469-4.023437-5.039063-6.480468-9.0625-5.511718-4.023438.984375-6.492188 5.039062-5.511719 9.0625 1.683593 6.90625 2.539062 14.046875 2.539062 21.226562 0 23.730469-9.417969 46.328125-26.046875 63.019532v-78.433594c0-4.144532-3.359375-7.5-7.5-7.5-4.144531 0-7.5 3.355468-7.5 7.5v78.433594c-16.628906-16.691407-26.046875-39.289063-26.046875-63.019532 0-27.269531 12.226563-52.683594 33.546875-69.75 7.074219 5.664063 13.230469 12.339844 18.296875 19.835938 2.320313 3.433594 6.984375 4.335937 10.414063 2.015625 3.433594-2.316407 4.335937-6.980469 2.015625-10.414063-5.941407-8.792968-13.167969-16.613281-21.476563-23.246094-5.449218-4.34375-13.054687-4.34375-18.5 0-24.976562 19.929688-39.296875 49.65625-39.296875 81.558594 0 30.421875 13.246094 59.257813 36.339844 79.109375zm0 0" />
  <path
     style="fill:#0098c9;fill-opacity:1"
     id="path12"
     d="m338.675781 236.21875c1.917969 0 3.835938-.730469 5.300781-2.191406l20.132813-20.125c1.695313.65625 3.511719 1.089844 5.417969 1.234375 2.632812.195312 5.261718.296875 7.878906.296875 27.59375 0 54.121094-10.902344 73.777344-30.546875 22.566406-22.5625 33.464844-53.707031 29.902344-85.445313-.777344-6.925781-6.15625-12.308594-13.085938-13.082031-31.75-3.5625-62.90625 7.332031-85.472656 29.890625-21.519532 21.511719-32.546875 51.265625-30.261719 81.628906.144531 1.90625.578125 3.71875 1.230469 5.417969l-20.125 20.121094c-2.929688 2.929687-2.929688 7.679687-.003906 10.605469 1.46875 1.464843 3.386718 2.195312 5.308593 2.195312zm54.457031-109.359375c16.914063-16.910156 39.460938-26.164063 63.0625-26.164063 3.316407 0 6.65625.183594 10 .554688 3.007813 27.132812-6.328124 53.742188-25.617187 73.027344-16.785156 16.777344-39.429687 26.09375-62.988281 26.148437l55.472656-55.453125c2.929688-2.929687 2.929688-7.675781.003906-10.605468-2.929687-2.929688-7.675781-2.929688-10.609375-.003907l-55.480469 55.464844c.046876-23.554687 9.375-46.191406 26.15625-62.96875zm0 0" />
  <path
     style="fill:#0098c9;fill-opacity:1"
     id="path14"
     d="m113.578125 184.886719c19.65625 19.644531 46.183594 30.546875 73.777344 30.546875 2.617187 0 5.25-.101563 7.878906-.296875 1.90625-.144531 3.722656-.578125 5.421875-1.234375l20.128906 20.125c1.464844 1.460937 3.382813 2.191406 5.300782 2.191406 1.921874 0 3.839843-.730469 5.304687-2.195312 2.929687-2.929688 2.929687-7.679688 0-10.605469l-20.128906-20.121094c.65625-1.699219 1.089843-3.511719 1.230469-5.417969 2.289062-30.367187-8.742188-60.117187-30.261719-81.628906-22.566407-22.558594-53.71875-33.453125-85.472657-29.894531-6.925781.777343-12.308593 6.15625-13.082031 13.082031-3.5625 31.742188 7.335938 62.886719 29.902344 85.449219zm-15.011719-83.636719c27.15625-3.003906 53.769532 6.324219 73.0625 25.609375 16.785156 16.773437 26.109375 39.410156 26.160156 62.964844l-55.484374-55.460938c-2.929688-2.929687-7.679688-2.929687-10.605469 0-2.929688 2.929688-2.929688 7.679688 0 10.609375l55.476562 55.453125c-23.570312-.054687-46.207031-9.371093-62.988281-26.148437-19.292969-19.28125-28.625-45.894532-25.621094-73.027344zm0 0" />
  <path
     style="fill:#0098c9;stroke:#0098c9;fill-opacity:1;stroke-opacity:1"
     id="path16"
     d="m492.273438 262.019531c-7.519532-7.832031-18.058594-12.320312-28.90625-12.320312-9.519532 0-18.753907 3.402343-25.988282 9.585937-.070312.0625-.140625.121094-.210937.1875l-94.6875 87.179688c-.652344.527344-1.46875.816406-2.308594.816406h-71.136719c-4.140625 0-7.507812-3.371094-7.507812-7.511719 0-2.003906.78125-3.890625 2.183594-5.300781 1.425781-1.417969 3.316406-2.203125 5.324218-2.203125h50.816406c17.292969 0 31.363282-14.058594 31.363282-31.34375 0-8.371094-3.257813-16.242187-9.1875-22.183594-5.929688-5.910156-13.804688-9.167969-22.175782-9.167969h-126.15625c-27.9375 0-54.378906 10.6875-74.460937 30.097657l-44.035156 42.574219-.183594-.183594c-5.957031-5.953125-15.644531-5.953125-21.601563 0l-48.9375 48.921875c-2.886718 2.882812-4.476562 6.71875-4.476562 10.800781s1.589844 7.917969 4.476562 10.800781l94.796876 94.765625c2.980468 2.976563 6.890624 4.464844 10.800781 4.464844 3.914062 0 7.828125-1.488281 10.804687-4.464844l48.9375-48.921875c2.886719-2.882812 4.476563-6.71875 4.476563-10.800781 0-2.894531-.8125-5.65625-2.308594-8.054688 9.363281-8.425781 21.363281-13.042968 34.035156-13.042968h144.890625c11.84375 0 23.105469-5.113282 30.894532-14.027344l111.035156-127.066406c5.996094-6.871094 5.753906-17.015625-.566406-23.601563zm-10.730469 13.734375-111.03125 127.0625c-4.941407 5.652344-12.085938 8.894532-19.601563 8.894532h-144.890625c-16.539062 0-32.183593 6.085937-44.34375 17.160156l-46.363281-46.347656c-2.933594-2.929688-7.679688-2.925782-10.609375.003906-2.925781 2.929687-2.925781 7.675781.003906 10.605468l51.46875 51.449219c.015625.015625.027344.035157.042969.050781.023438.023438.050781.042969.074219.066407l2.917969 2.921875c.027343.023437.082031.078125.082031.191406s-.054688.167969-.082031.195312l-48.933594 48.917969c-.109375.109375-.289063.109375-.398438 0l-94.800781-94.765625c-.023437-.023437-.078125-.078125-.078125-.191406s.054688-.167969.082031-.191406l48.933594-48.921875c.109375-.109375.289063-.109375.398437 0l17.441407 17.433593c2.929687 2.929688 7.679687 2.929688 10.605469 0 2.929687-2.929687 2.925781-7.679687 0-10.605468l-6.652344-6.648438 43.847656-42.394531c17.273438-16.691406 40.011719-25.882813 64.035156-25.882813h126.160156c4.371094 0 8.484376 1.703126 11.570313 4.777344 3.089844 3.097656 4.792969 7.207032 4.792969 11.574219 0 9.011719-7.339844 16.34375-16.363282 16.34375h-50.820312c-6 0-11.648438 2.335937-15.925781 6.597656-4.242188 4.253907-6.582031 9.902344-6.582031 15.90625 0 12.410157 10.097656 22.511719 22.507812 22.511719h71.140625c4.441406 0 8.75-1.59375 12.128906-4.480469.070313-.058593.140625-.121093.207031-.183593l94.710938-87.199219c4.507812-3.808594 10.238281-5.90625 16.148438-5.90625 6.886718 0 13.3125 2.738281 18.085937 7.707031.898437.933594.9375 2.375.089844 3.347656zm0 0" />
  <path
     transform="matrix(0.75000034,0,0,0.75000034,-7,0)"
     inkscape:connector-curvature="0"
     id="path26"
     d="m 293.07272,300.24656 -14.35059,-14.19926 -20.60859,-0.22482 c -22.68099,-0.24741 -32.18185,-2.02787 -51.06843,-9.57016 -32.91821,-13.14577 -60.92295,-40.65684 -75.34648,-74.01826 -6.9874,-16.16174 -9.63996,-28.84809 -10.28046,-49.16801 -0.78715,-24.97263 1.47861,-31.62149 12.24365,-35.9288 7.10597,-2.84325 31.77702,-2.60976 46.75143,0.44245 49.44403,10.07812 88.90149,44.78905 104.89708,92.27854 5.0004,14.84572 6.92887,28.51222 6.53795,46.33236 l -0.36264,16.53052 14.33862,14.49255 c 16.03031,16.20242 16.90298,18.09323 11.05134,23.94487 -5.84373,5.84374 -7.7534,4.96828 -23.80288,-10.91198 z m -71.61516,-71.58908 c -34.82991,-34.88389 -38.4956,-38.90457 -38.4956,-42.22354 0,-4.93531 4.26842,-9.18904 9.22078,-9.18904 3.36157,0 7.22005,3.5189 42.17973,38.46757 21.16383,21.15716 38.72402,38.22323 39.02266,37.92459 0.29863,-0.29862 0.0597,-5.6792 -0.53099,-11.95683 -4.5708,-48.57787 -38.66349,-89.68364 -85.51554,-103.10662 -12.29557,-3.52264 -30.51489,-5.66173 -39.77576,-4.66998 l -7.1739,0.76826 -0.76825,7.1739 c -1.5743,14.70058 3.19911,39.77995 10.73454,56.39899 8.10995,17.88611 25.05159,37.87277 41.35142,48.78378 18.78685,12.57579 40.4181,19.83461 59.8339,20.07849 l 8.41262,0.10571 z"
     style="opacity:0;fill:#222b00;stroke-width:1" />
  <path
     transform="matrix(0.75000034,0,0,0.75000034,-7,0)"
     inkscape:connector-curvature="0"
     id="path28"
     d="M 149.78632,680.99421 C 147.47727,680.31512 125.05431,658.60848 78.736356,612.21402 12.083102,545.45069 11.048723,544.34661 10.301995,539.16856 8.8362981,529.00496 9.5350196,528.06796 45.149159,492.4375 63.219608,474.35877 79.9271,458.0392 82.276921,456.1718 c 7.995775,-6.35424 17.391799,-6.7577 24.637869,-1.05794 l 2.96831,2.33487 32.32218,-31.35156 c 17.77721,-17.24335 36.11771,-34.1888 40.75668,-37.65654 15.03098,-11.23602 30.58884,-18.61867 50.87186,-24.14011 l 11.54331,-3.14232 98.25441,-0.34299 c 108.92317,-0.38024 104.6901,-0.63566 115.37622,6.96188 15.55502,11.05922 21.75047,30.74587 15.19215,48.27456 -3.3567,8.97158 -12.43267,18.54973 -21.57962,22.77364 l -7.06475,3.26239 -41.21313,0.5623 c -38.09538,0.51976 -41.38722,0.72 -43.51442,2.64695 -3.06778,2.77898 -4.08701,7.9695 -2.37605,12.10013 2.73202,6.59567 2.94451,6.62028 57.16802,6.62028 h 49.46025 L 528.8509,405.2571 c 35.07387,-32.31813 66.05921,-60.39856 68.85631,-62.40095 14.40298,-10.31087 36.61909,-12.0085 52.47526,-4.00986 6.97569,3.51889 15.2267,10.61494 18.15735,15.6157 3.83923,6.55115 4.13942,15.27112 0.72495,21.05822 -2.8894,4.89716 -149.48852,173.03442 -155.84247,178.73862 -2.5791,2.31538 -7.51977,5.71869 -10.97924,7.56292 -12.88157,6.86712 -10.70976,6.74832 -123.70235,6.76656 -98.19914,0.0159 -103.39938,0.11826 -111.52532,2.19653 -9.68902,2.47804 -15.88911,5.36908 -23.67151,11.03782 -3.92929,2.86212 -5.19892,4.43713 -4.64555,5.76293 2.37533,5.69094 2.85788,10.15606 1.60594,14.85978 -1.16498,4.37698 -5.42605,9.08143 -36.35092,40.13339 -22.47364,22.56597 -36.67344,35.97015 -39.61236,37.39287 -4.85513,2.35032 -9.04033,2.64437 -14.55467,1.02258 z m 39.92369,-51.09917 33.16182,-33.17611 -37.94851,-37.96082 c -34.46652,-34.47771 -37.94849,-38.3003 -37.94849,-41.66076 0,-4.94878 4.25402,-9.2207 9.18207,-9.2207 3.295,0 6.87498,3.20665 35.78243,32.05104 17.66661,17.62807 32.50415,32.05103 32.9723,32.05103 0.46816,0 3.4697,-2.0698 6.6701,-4.59957 7.36313,-5.82022 18.60244,-11.49869 29.17878,-14.74208 8.22798,-2.52324 8.30166,-2.52521 116.75686,-3.11871 l 108.52369,-0.59389 5.71989,-2.58958 c 3.14595,-1.42427 8.27691,-5.21979 11.40214,-8.43448 8.61087,-8.85739 148.92919,-169.79946 149.64914,-171.64431 0.94422,-2.41958 -8.01133,-9.769 -14.55054,-11.94098 -7.56458,-2.51255 -18.91393,-1.8488 -25.81555,1.50977 -3.37655,1.64315 -27.52794,23.11095 -69.54927,61.82131 -35.40701,32.6172 -66.47978,60.56918 -69.05059,62.1155 l -4.67419,2.8115 H 415.1914 c -60.09057,0 -57.74739,0.27512 -66.72366,-7.8344 -13.2248,-11.9478 -12.94187,-31.38018 0.63083,-43.32734 8.49075,-7.47386 11.25023,-7.87624 54.20752,-7.90434 34.43802,-0.0225 38.15729,-0.20918 42.38,-2.12679 9.06772,-4.11782 14.41616,-15.84614 11.7409,-25.74605 -1.67374,-6.19374 -8.10985,-13.34644 -13.4007,-14.89271 -2.7972,-0.81749 -34.90283,-1.08093 -101.37145,-0.83179 l -97.27771,0.36462 -8.99678,2.59746 c -30.00993,8.66417 -38.31162,14.70224 -92.77932,67.48122 l -20.80506,20.16002 5.90414,6.24388 c 6.64454,7.02688 7.49788,10.79668 3.57332,15.78594 -1.76,2.23747 -3.33949,2.96315 -6.44954,2.96315 -3.75635,0 -5.28349,-1.16172 -17.35726,-13.20403 l -13.238538,-13.20405 -33.446118,33.44612 -33.446117,33.44611 63.532994,63.54046 c 34.943149,34.94726 63.790929,63.54046 64.106179,63.54046 0.31525,0 15.49599,-14.92925 33.73498,-33.1761 z"
     style="opacity:0;fill:#484537;stroke-width:1" />
  <path
     transform="matrix(0.75000034,0,0,0.75000034,-7,0)"
     inkscape:connector-curvature="0"
     id="path853"
     d="m 454.27628,311.23561 c -1.78402,-1.78402 -2.76037,-4.03704 -2.76037,-6.36979 0,-3.11616 1.95723,-5.58751 14.32198,-18.08403 l 14.32199,-14.47459 -0.3285,-15.98618 c -0.22256,-10.83064 0.23301,-19.13097 1.41263,-25.7375 7.74283,-43.36417 34.30342,-79.86334 72.5678,-99.72158 22.39337,-11.62158 37.56023,-15.27711 63.58227,-15.32461 16.75853,-0.0306 18.30365,0.14494 22.51127,2.55743 2.48473,1.42464 5.77418,4.42257 7.30989,6.66206 2.60648,3.801 2.8175,5.16938 3.17307,20.57597 0.57868,25.07347 -3.68184,44.02191 -14.77219,65.69873 -21.58867,42.19646 -62.57272,69.87814 -110.95881,74.94447 -7.73779,0.81018 -15.22689,0.94225 -19.98518,0.35243 -4.18551,-0.51882 -8.17656,-0.95824 -8.869,-0.9765 -0.69245,-0.0182 -7.95764,6.41921 -16.14488,14.30545 -13.18851,12.70365 -15.32691,14.33862 -18.75374,14.33862 -2.60714,0 -4.76758,-0.89973 -6.62823,-2.76038 z M 542.35793,263.892 c 18.59854,-4.70281 37.46499,-15.03198 52.41819,-28.69837 14.22841,-13.00397 28.2628,-36.38551 33.16084,-55.2466 3.12759,-12.04354 5.038,-29.98957 4.11248,-38.63193 l -0.77692,-7.25475 h -12.69604 c -34.48341,0 -63.841,12.28883 -86.88029,36.36733 -19.1907,20.05633 -30.03552,43.64403 -32.89377,71.54464 -0.59917,5.84884 -0.84013,10.88353 -0.53546,11.18821 0.30468,0.30467 17.88764,-16.75292 39.07326,-37.90576 34.85065,-34.79674 38.86867,-38.45971 42.18758,-38.45971 5.17182,0 9.18903,4.24945 9.18903,9.72025 0,4.0145 -1.69665,5.90431 -38.51747,42.90234 l -38.51747,38.70286 10.12138,-0.79518 c 5.56676,-0.43734 14.81636,-1.98234 20.55466,-3.43333 z"
     style="opacity:0;fill:#0098c9;fill-opacity:1;stroke:#0098c9;stroke-width:1;stroke-opacity:1" />
</svg>
