<?xml version="1.0" encoding="UTF-8" standalone="no"?>
<svg
   xmlns:dc="http://purl.org/dc/elements/1.1/"
   xmlns:cc="http://creativecommons.org/ns#"
   xmlns:rdf="http://www.w3.org/1999/02/22-rdf-syntax-ns#"
   xmlns:svg="http://www.w3.org/2000/svg"
   xmlns="http://www.w3.org/2000/svg"
   xmlns:sodipodi="http://sodipodi.sourceforge.net/DTD/sodipodi-0.dtd"
   xmlns:inkscape="http://www.inkscape.org/namespaces/inkscape"
   inkscape:version="1.1-dev (f9311a1, 2019-12-25)"
   sodipodi:docname="002-exercise.svg"
   id="svg857"
   version="1.1"
   width="511pt"
   viewBox="-28 0 511 511.99956"
   height="511pt">
  <metadata
     id="metadata863">
    <rdf:RDF>
      <cc:Work
         rdf:about="">
        <dc:format>image/svg+xml</dc:format>
        <dc:type
           rdf:resource="http://purl.org/dc/dcmitype/StillImage" />
      </cc:Work>
    </rdf:RDF>
  </metadata>
  <defs
     id="defs861" />
  <sodipodi:namedview
     inkscape:current-layer="svg857"
     inkscape:window-maximized="0"
     inkscape:window-y="23"
     inkscape:window-x="0"
     inkscape:cy="340.66667"
     inkscape:cx="82.156887"
     inkscape:zoom="0.8007434"
     showgrid="false"
     id="namedview859"
     inkscape:window-height="733"
     inkscape:window-width="1272"
     inkscape:pageshadow="2"
     inkscape:pageopacity="0"
     guidetolerance="10"
     gridtolerance="10"
     objecttolerance="10"
     borderopacity="1"
     inkscape:document-rotation="0"
     bordercolor="#666666"
     pagecolor="#ffffff" />
  <path
     style="stroke-width:0.999999;fill:#0098c9;fill-opacity:1"
     inkscape:connector-curvature="0"
     id="path855"
     d="m 453.80859,209.60156 c -1.30859,-2.24609 -3.6875,-3.65625 -6.28515,-3.72656 l -169.60938,-4.46094 c 2.46875,-1.48047 4.76953,-3.27344 6.85547,-5.35937 l 15.03516,-15.03907 c 13.76172,-13.76562 13.76172,-36.16406 0,-49.92968 -6.66797,-6.67188 -15.53906,-10.34375 -24.97266,-10.34375 -9.43359,0 -18.30078,3.67187 -24.96875,10.34375 L 234.82813,146.125 c -5.33985,5.34375 -8.60157,11.98828 -9.79297,18.92578 l -43.94922,-45.82031 c -2.86328,-2.98828 -7.60938,-3.08594 -10.60156,-0.21875 -2.98829,2.86328 -3.08985,7.61328 -0.22266,10.60156 l 9.52734,9.93359 -13.08593,9.42579 -64.00391,-78.957038 c 2.84375,-0.230469 5.46875,-1.257807 7.66406,-2.859372 L 149.5,107.96484 c 1.47266,1.53516 3.44141,2.3086 5.41406,2.3086 1.86719,0 3.73438,-0.69531 5.19141,-2.08594 2.98828,-2.86719 3.08594,-7.61719 0.21875,-10.605471 l -43.79688,-45.667967 -1.51171,-42.125 C 114.98047,5.546875 112.27734,1.832031 108.22656,0.50000001 104.08594,-0.859375 99.621094,0.60937501 97.105469,4.140625 L 8.214844,128.5 c -10.683594,14.94141 -10.226563,35.42187 1.085937,49.875 l 57.191407,80.67187 c 2.054687,2.90625 5.019531,5.61329 8.976562,8.19532 -0.207031,1.98437 -0.3125,3.98047 -0.292969,5.99218 l 2.382813,220.17188 C 77.667969,503.66016 86.097656,512 96.351562,512 h 41.015628 c 6.33594,0 11.64453,-4.12891 13.20312,-10.27344 1.5586,-6.14453 -1.13672,-12.30469 -6.71093,-15.32812 -0.20313,-0.10938 -0.41016,-0.21094 -0.625,-0.30078 l -23.53125,-10.06641 c -1.33594,-0.57422 -2.14063,-1.98047 -1.95313,-3.42188 l 8.08594,-63.69531 c 0.51953,-4.10937 -2.38672,-7.86328 -6.4961,-8.38672 -4.09765,-0.51953 -7.86328,2.38672 -8.38671,6.4961 l -1.19922,9.45312 H 91.726562 L 90.179688,273.07422 c -0.03125,-2.67578 0.21875,-5.30469 0.726562,-7.85938 0.04687,-0.18359 0.08984,-0.37109 0.125,-0.55859 1.558594,-7.26953 5.246094,-13.89844 10.78516,-19.18359 2.99609,-2.85938 3.10547,-7.60547 0.24609,-10.60157 -2.855469,-2.99609 -7.605469,-3.10937 -10.601562,-0.25 -5.046876,4.81641 -9.027344,10.57422 -11.796876,16.86329 -0.421874,-0.44141 -0.722656,-0.8125 -0.929687,-1.10547 L 21.429688,169.54688 c -0.07422,-0.10547 -0.152344,-0.21094 -0.234376,-0.3125 -7.316406,-9.25 -7.636718,-22.41797 -0.773437,-32.01172 l 38.75,-54.214848 8.558594,6.773436 -23.46875,44.019532 c -0.07031,0.12891 -0.136719,0.26172 -0.199219,0.39453 -3.804688,8.28125 -1.636719,18.21485 5.269531,24.15625 l 84.019529,72.29297 -18.67968,147.13672 c -0.52344,4.10938 2.38671,7.86328 6.49609,8.38672 0.31641,0.0391 0.63672,0.0586 0.95312,0.0586 3.71875,0 6.94922,-2.76562 7.42969,-6.55468 l 11.89453,-93.69532 h 40.40235 c 22.99609,0 43.5039,-1.91797 61.53125,-25.42968 l 5.48828,-6.19922 169.83203,-10.375 c 0.0586,-0.004 0.11328,-0.008 0.16797,-0.0117 10.95703,-0.91406 21.28125,-6.28906 28.32812,-14.7461 0.32422,-0.39453 0.60938,-0.82031 0.85157,-1.26953 l 5.89453,-11.03906 c 1.22656,-2.29297 1.17578,-5.05859 -0.13282,-7.30469 z m -345.95703,221.875 -4.98437,39.24219 c -1.02344,8.05469 3.47656,15.91016 10.9375,19.10156 L 130.58594,497 H 96.351562 c -2.070312,0 -3.769531,-1.68359 -3.792968,-3.75391 L 91.890625,431.47656 Z M 245.4375,156.73047 260.46875,141.69141 c 3.83984,-3.83594 8.9375,-5.94922 14.36328,-5.94922 5.42969,0 10.52734,2.11328 14.36328,5.94922 7.91797,7.91797 7.91797,20.80078 0,28.71875 l -15.03125,15.03906 c -3.83984,3.83594 -8.9375,5.94922 -14.36328,5.94922 -5.42578,0 -10.52734,-2.11328 -14.36328,-5.94922 -7.91797,-7.91797 -7.91797,-20.80078 0,-28.71875 z M 67.902344,70.792971 100.55469,25.109375 l 1.07422,29.871094 c -0.0234,0.05469 -0.0742,0.09766 -0.13672,0.09766 h -5.105471 c -0.753907,0 -1.496094,0.0625 -2.21875,0.164063 -0.121094,0.0078 -0.234375,0.02734 -0.355469,0.04297 -0.0625,0.01172 -0.125,0.01563 -0.1875,0.02344 -0.03125,0.0039 -0.05859,0.01172 -0.08594,0.01953 -0.140624,0.02344 -0.273437,0.05078 -0.40625,0.08203 -3.371093,0.652344 -6.488281,2.339844 -8.875,4.808594 -0.05469,0.05078 -0.109374,0.105469 -0.160156,0.15625 -0.03906,0.04297 -0.08203,0.08203 -0.121094,0.121094 -0.08203,0.08984 -0.15625,0.183594 -0.234374,0.273437 -0.03125,0.03516 -0.0625,0.07031 -0.09375,0.105469 -1.027344,1.167969 -1.898438,2.460938 -2.566407,3.867188 l -6.183593,11.593749 z m -10.28125,69.828119 32.9375,-61.769527 88.046876,108.621097 c -1.29688,18.03515 -16.25,32.33593 -34.53906,32.60547 L 59.117188,146.98438 c -1.824219,-1.56641 -2.421876,-4.16016 -1.496094,-6.36329 z m 187.226566,98.94532 c -1.98438,0.12109 -3.84375,1.02734 -5.16016,2.51562 l -7.72266,8.72656 c -0.12109,0.14063 -0.23828,0.28125 -0.34765,0.42579 -10.40235,13.65234 -20.05469,19.74218 -49.77344,19.74218 h -38.49609 l 4.58203,-36.08593 c 25.60547,-2.23438 45.76562,-23.78125 45.76562,-49.96094 0,-1.71875 -0.59375,-3.38672 -1.67578,-4.72266 l -15.85547,-19.5625 14.10938,-10.16406 45.79297,47.74219 c 10.30468,11.52343 25.05859,18.13672 40.51171,18.16406 l 17.31641,0.45703 0.39453,19.70313 z m 172.84765,-10.5586 -108.42187,6.6211 -0.3711,-18.39453 125.94922,3.3125 c -4.4375,4.83203 -10.61719,7.89453 -17.15625,8.46093 z m 0,0" />
</svg>
