<?xml version="1.0" encoding="UTF-8" standalone="no"?>
<svg
   xmlns:osb="http://www.openswatchbook.org/uri/2009/osb"
   xmlns:dc="http://purl.org/dc/elements/1.1/"
   xmlns:cc="http://creativecommons.org/ns#"
   xmlns:rdf="http://www.w3.org/1999/02/22-rdf-syntax-ns#"
   xmlns:svg="http://www.w3.org/2000/svg"
   xmlns="http://www.w3.org/2000/svg"
   xmlns:sodipodi="http://sodipodi.sourceforge.net/DTD/sodipodi-0.dtd"
   xmlns:inkscape="http://www.inkscape.org/namespaces/inkscape"
   version="1.1"
   id="Capa_1"
   x="0px"
   y="0px"
   viewBox="0 0 511 511"
   style="enable-background:new 0 0 511 511;"
   xml:space="preserve"
   sodipodi:docname="arrow_up.svg"
   inkscape:version="1.1-dev (f9311a1, 2019-12-25)"><metadata
   id="metadata880"><rdf:RDF><cc:Work
       rdf:about=""><dc:format>image/svg+xml</dc:format><dc:type
         rdf:resource="http://purl.org/dc/dcmitype/StillImage" /></cc:Work></rdf:RDF></metadata><defs
   id="defs878"><linearGradient
     id="linearGradient910"
     osb:paint="solid"><stop
       style="stop-color:#000000;stop-opacity:1;"
       offset="0"
       id="stop908" /></linearGradient><filter
     inkscape:collect="always"
     style="color-interpolation-filters:sRGB"
     id="filter2856"
     x="-1.1865597"
     width="3.3731194"
     y="-1.2137483"
     height="3.4274966"><feGaussianBlur
       inkscape:collect="always"
       stdDeviation="183.65493"
       id="feGaussianBlur2858" /></filter></defs><sodipodi:namedview
   pagecolor="#ffffff"
   bordercolor="#666666"
   inkscape:document-rotation="0"
   borderopacity="1"
   objecttolerance="10"
   gridtolerance="10"
   guidetolerance="10"
   inkscape:pageopacity="0"
   inkscape:pageshadow="2"
   inkscape:window-width="1395"
   inkscape:window-height="797"
   id="namedview876"
   showgrid="false"
   inkscape:zoom="0.86356062"
   inkscape:cx="253.04732"
   inkscape:cy="260.40536"
   inkscape:window-x="0"
   inkscape:window-y="23"
   inkscape:window-maximized="0"
   inkscape:current-layer="Capa_1" />

<g
   id="g845">
</g>
<g
   id="g847">
</g>
<g
   id="g849">
</g>
<g
   id="g851">
</g>
<g
   id="g853">
</g>
<g
   id="g855">
</g>
<g
   id="g857">
</g>
<g
   id="g859">
</g>
<g
   id="g861">
</g>
<g
   id="g863">
</g>
<g
   id="g865">
</g>
<g
   id="g867">
</g>
<g
   id="g869">
</g>
<g
   id="g871">
</g>
<g
   id="g873">
</g>
<path
   style="font-variation-settings:normal;opacity:1;vector-effect:none;fill:#0098c9;fill-opacity:1;stroke:#364954;stroke-width:3;stroke-linecap:butt;stroke-linejoin:miter;stroke-miterlimit:4;stroke-dasharray:none;stroke-dashoffset:0;stroke-opacity:1;paint-order:markers fill stroke;stop-color:#000000;stop-opacity:1"
   d="M 85.209892,397.95786 C 80.225141,396.13582 64.571912,372.64282 54.685403,352.14546 40.678313,323.10506 33.899956,295.35829 32.79922,262.55577 30.989474,208.62435 47.505036,158.72534 81.194725,116.33685 135.10926,48.501388 224.46361,18.163232 309.16098,38.936304 c 28.08641,6.888536 56.46157,20.360272 79.86296,37.916694 14.3558,10.770151 18.54645,14.91459 18.54645,18.341957 0,4.146519 -2.78924,7.120595 -6.67807,7.120595 -2.61592,0 -4.63934,-1.20791 -11.0282,-6.583422 C 355.88493,67.142448 312.97063,49.977692 268.67565,47.259473 159.52637,40.561386 64.461478,118.15654 48.640997,226.85914 c -2.198188,15.10375 -2.209058,42.59731 -0.02256,57.04961 5.476821,36.20058 18.414664,67.72755 39.611908,96.52639 7.793554,10.58843 8.373069,14.29823 2.692431,17.23581 -1.444611,0.74703 -2.751755,1.32526 -2.904766,1.28495 -0.153011,-0.0403 -1.416667,-0.48943 -2.808123,-0.99804 z"
   id="path882"
   inkscape:connector-curvature="0" /><path
   style="font-variation-settings:normal;opacity:1;vector-effect:none;fill:#0098c9;fill-opacity:1;stroke:#364954;stroke-width:3;stroke-linecap:butt;stroke-linejoin:miter;stroke-miterlimit:4;stroke-dasharray:none;stroke-dashoffset:0;stroke-opacity:1;paint-order:markers fill stroke;stop-color:#000000;stop-opacity:1"
   d="m 242.31685,478.24948 c -40.55612,-2.88234 -76.17151,-14.74035 -109.16213,-36.34511 -12.9078,-8.45301 -27.88229,-20.65045 -29.37555,-23.92779 -1.40596,-3.08574 1.08194,-8.45317 4.29159,-9.25874 3.46442,-0.86951 5.31937,0.0655 13.23445,6.67146 32.19287,26.8681 70.09646,42.94143 112.65613,47.77276 13.45765,1.52771 43.81824,0.55918 56.63183,-1.8066 21.32249,-3.93678 37.99902,-9.35539 56.16763,-18.25025 41.66534,-20.39819 75.71453,-54.24242 95.85072,-95.27373 13.79542,-28.11078 20.19365,-53.72548 21.30079,-85.27571 1.6654,-47.45882 -12.29163,-92.58719 -40.59379,-131.25518 -4.06594,-5.55512 -7.39262,-10.91389 -7.39262,-11.9084 0,-2.46873 4.95088,-7.2357 7.51485,-7.2357 6.9085,0 29.53307,35.69322 40.3269,63.62096 9.99722,25.86662 14.50283,50.90075 14.44859,80.27958 -0.0688,37.25381 -7.29113,67.6254 -23.84331,100.26619 -28.48555,56.17335 -78.37144,97.06964 -139.27681,114.17867 -22.44415,6.30483 -50.72263,9.31516 -72.77927,7.74759 z"
   id="path884"
   inkscape:connector-curvature="0" /><path
   style="font-variation-settings:normal;opacity:1;vector-effect:none;fill:#0098c9;fill-opacity:1;stroke:#0098c9;stroke-width:3;stroke-linecap:butt;stroke-linejoin:miter;stroke-miterlimit:4;stroke-dasharray:none;stroke-dashoffset:0;stroke-opacity:1;paint-order:markers fill stroke;stop-color:#000000;stop-opacity:1"
   d="m 231.17617,475.60719 c -35.47044,-4.44754 -67.39058,-15.82707 -95.09823,-33.90251 -17.29859,-11.28495 -31.1629,-22.80449 -31.1629,-25.89255 0,-2.53348 2.76288,-5.64225 5.01447,-5.64225 1.26352,0 6.1068,3.15683 11.95499,7.79223 35.34849,28.01795 74.08697,43.63343 116.72684,47.05262 16.26046,1.30389 42.77215,-0.21699 58.2566,-3.34195 23.15243,-4.67248 48.98369,-14.95379 69.5289,-27.67375 24.85979,-15.39121 49.2192,-39.25135 65.55781,-64.21414 7.08523,-10.82511 18.22282,-33.56911 22.50402,-45.95534 13.1779,-38.12585 14.68115,-81.71279 4.21223,-122.13429 -6.2066,-23.96423 -18.83785,-50.67227 -33.15772,-70.11002 -2.04163,-2.77129 -4.71439,-6.78724 -5.93947,-8.92434 l -2.22745,-3.88565 2.23682,-2.38099 c 1.23026,-1.30955 2.96084,-2.38099 3.84574,-2.38099 3.57128,0 15.25501,15.7103 25.4655,34.24167 14.76092,26.79011 23.51775,54.35501 26.52929,83.50941 1.57799,15.27641 0.61704,47.72119 -1.83313,61.8925 -7.51623,43.47234 -28.26113,83.91346 -59.46293,115.91991 -18.6758,19.15741 -35.23957,31.32443 -59.01124,43.34704 -31.01062,15.68373 -60.1254,22.84738 -96.08843,23.6424 -11.57651,0.25591 -20.65551,-0.0567 -27.85171,-0.95901 z"
   id="path896"
   inkscape:connector-curvature="0" /><path
   style="font-variation-settings:normal;opacity:1;vector-effect:none;fill:#0098c9;fill-opacity:1;stroke:none;stroke-width:3;stroke-linecap:butt;stroke-linejoin:miter;stroke-miterlimit:4;stroke-dasharray:none;stroke-dashoffset:0;stroke-opacity:1;paint-order:markers fill stroke;stop-color:#000000;stop-opacity:1"
   d="M 84.242431,395.31981 C 78.328213,390.66769 64.632632,369.0955 55.653417,350.28868 45.906746,329.87444 40.799172,313.80061 36.920735,291.33588 c -2.747791,-15.91579 -2.970676,-53.45102 -0.413265,-69.5962 7.683107,-48.50419 29.781227,-90.97289 65.25555,-125.409695 35.32075,-34.287713 79.44576,-55.099406 129.0704,-60.876432 15.36822,-1.789083 43.88571,-1.305763 58.16764,0.985837 36.29816,5.824202 69.62711,19.82011 98.88858,41.526532 17.24733,12.794225 20.66237,17.408204 16.00459,21.623436 -2.65617,2.403802 -4.97134,1.426122 -14.42746,-6.092678 C 334.75234,49.991875 268.61102,35.41616 202.62173,52.321209 161.19076,62.93494 122.58078,87.159385 95.415981,119.58361 70.553485,149.25978 54.340044,184.47435 47.755494,223.09917 c -2.000295,11.73368 -2.744995,39.36143 -1.423646,52.81607 3.424552,34.87047 15.663592,68.03804 36.695302,99.44358 5.400346,8.06406 9.818811,15.6207 9.818811,16.79253 0,2.07141 -3.047427,5.02106 -5.18752,5.02106 -0.583446,0 -2.120651,-0.83367 -3.41601,-1.8526 z"
   id="path898"
   inkscape:connector-curvature="0" /><path
   style="font-variation-settings:normal;opacity:1;vector-effect:none;fill:#0098c9;fill-opacity:1;stroke:#0098c9;stroke-width:3;stroke-linecap:butt;stroke-linejoin:miter;stroke-miterlimit:4;stroke-dasharray:none;stroke-dashoffset:0;stroke-opacity:1;paint-order:markers fill stroke;stop-color:#000000;stop-opacity:1;filter:url(#filter2856)"
   d="M 82.167742,393.14264 C 74.380664,385.01559 60.442036,361.73829 52.386435,343.4083 37.493775,309.52102 31.626515,271.40944 35.314676,232.51639 43.404312,147.20812 103.32862,72.587798 185.59645,45.379096 c 69.73498,-23.063679 144.69906,-10.614681 203.95916,33.87072 11.55879,8.676966 16.15799,13.387249 16.15799,16.54825 0,2.404748 -2.62619,5.217734 -4.87126,5.217734 -0.81164,0 -7.46316,-4.498485 -14.78115,-9.996633 -32.41101,-24.350993 -63.63114,-37.78571 -101.07147,-43.493295 -13.08727,-1.995088 -41.97163,-2.244939 -54.74195,-0.47352 -63.07521,8.749401 -114.80099,40.58192 -149.060222,91.733038 -32.841022,49.03362 -43.80035,110.67315 -29.62208,166.6061 6.577425,25.94778 15.647676,45.81691 33.02787,72.35024 4.538943,6.92934 8.252623,13.48563 8.252623,14.56952 0,2.0579 -3.155424,4.86116 -5.471863,4.86116 -0.739835,0 -3.082696,-1.8134 -5.206356,-4.02977 z"
   id="path2854"
   inkscape:connector-curvature="0" /><path
   style="font-variation-settings:normal;opacity:1;vector-effect:none;fill:#0098c9;fill-opacity:1;stroke:#0098c9;stroke-width:3;stroke-linecap:butt;stroke-linejoin:miter;stroke-miterlimit:4;stroke-dasharray:none;stroke-dashoffset:0;stroke-opacity:1;paint-order:markers fill stroke;stop-color:#000000;stop-opacity:1"
   d="M 81.750769,396.63887 C 77.229701,392.55435 67.173406,377.84352 59.585575,364.21454 46.411587,340.55192 37.943591,315.76995 33.731254,288.55071 31.677128,275.27737 31.389037,237.79614 33.242448,224.95595 37.346752,196.52187 46.277285,169.89575 59.671878,146.15737 93.703103,85.846028 150.81533,45.942436 220.09182,34.073989 c 10.74841,-1.841417 15.69236,-2.137548 35.6867,-2.137548 26.05195,0 37.93277,1.471128 59.40327,7.355539 27.292,7.479908 55.84326,21.913335 78.94683,39.909745 10.52594,8.199132 14.37016,12.669446 14.37016,16.7106 0,5.798555 -5.78739,9.305795 -11.0355,6.687685 -1.5219,-0.75922 -7.2859,-4.932685 -12.80892,-9.274375 C 355.44532,70.364151 322.52878,56.019045 285.95121,50.310565 272.87089,48.269183 241.41358,47.974401 228.85519,49.775527 136.56953,63.011133 66.127684,131.43266 50.521383,222.9946 c -1.998301,11.724 -2.751368,40.50269 -1.398065,53.42747 3.951743,37.74133 16.117062,68.67768 41.431656,105.36053 6.443734,9.33747 6.800813,13.97019 1.296197,16.81674 -4.001537,2.06927 -6.088288,1.66423 -10.100402,-1.96047 z m 9.031839,-0.91169 c 1.134844,-0.79487 2.05501,-2.36153 2.044813,-3.48146 -0.0102,-1.11994 -4.002584,-8.09399 -8.87197,-15.4979 C 54.908485,332.58181 43.101545,290.39895 46.21521,241.91257 48.640667,204.14305 60.155746,170.18714 81.187548,138.78539 115.40695,87.693733 167.42209,55.679373 230.24777,47.041548 c 12.8058,-1.760653 41.69193,-1.505086 54.74195,0.484324 37.4413,5.707734 68.24812,18.960144 100.97939,43.4391 7.39153,5.527955 14.09384,10.050828 14.89403,10.050828 2.35333,0 4.85046,-2.876416 4.85046,-5.587191 0,-3.056278 -4.97825,-7.933623 -17.82396,-17.462687 C 329.48898,34.643793 254.11068,22.536742 185.35675,45.435657 117.0648,68.18071 62.444393,124.85709 42.810583,193.34744 c -11.934178,41.63104 -11.284742,90.01136 1.73907,129.55372 8.277986,25.13328 25.868723,57.97916 37.618089,70.24148 4.205549,4.38915 5.488783,4.77414 8.614866,2.58454 z"
   id="path2862"
   inkscape:connector-curvature="0" /><path
   style="font-variation-settings:normal;opacity:1;vector-effect:none;fill:#0098c9;fill-opacity:1;stroke:#0098c9;stroke-width:3;stroke-linecap:butt;stroke-linejoin:miter;stroke-miterlimit:4;stroke-dasharray:none;stroke-dashoffset:0;stroke-opacity:1;paint-order:markers fill stroke;stop-color:#000000;stop-opacity:1"
   d="m 233.96134,477.36167 c -44.3834,-5.63434 -81.60348,-20.47132 -114.65625,-45.70525 -14.37243,-10.97254 -17.36632,-15.36447 -13.87321,-20.35157 2.395,-3.41935 5.91475,-2.64663 13.53906,2.97235 41.92522,30.89811 73.71983,44.42125 114.89316,48.86731 12.84073,1.38659 38.82393,0.70078 53.65878,-1.41628 33.47044,-4.77652 70.72851,-21.19165 98.22549,-43.27609 15.90115,-12.77116 33.16573,-31.70985 44.36527,-48.66725 7.59932,-11.50627 19.35399,-35.80479 23.80331,-49.20471 15.60263,-46.99018 13.19912,-101.04017 -6.53861,-147.03965 -6.02225,-14.03507 -11.29127,-23.60418 -21.21067,-38.52088 -11.35119,-17.06983 -10.92257,-16.01643 -7.83031,-19.24405 5.58664,-5.83119 9.85915,-2.62634 22.78287,17.08966 13.42842,20.48596 24.1112,44.63659 29.99924,67.8195 4.73748,18.65282 6.08032,30.20319 6.07943,52.29177 -9.2e-4,23.03808 -1.10291,36.03534 -4.27564,50.42843 -12.22062,55.43889 -47.27108,106.58103 -94.13636,137.35442 -28.68891,18.83814 -60.53124,30.8911 -93.29988,35.31587 -7.76426,1.04842 -45.90033,2.00054 -51.52568,1.28642 z"
   id="path2864"
   inkscape:connector-curvature="0" /><path
   style="font-variation-settings:normal;opacity:1;vector-effect:none;fill:#0098c9;fill-opacity:1;stroke:#0098c9;stroke-width:3;stroke-linecap:butt;stroke-linejoin:miter;stroke-miterlimit:4;stroke-dasharray:none;stroke-dashoffset:0;stroke-opacity:1;paint-order:markers fill stroke;stop-color:#000000;stop-opacity:1"
   d="m 234.76048,324.84022 -2.19173,-1.77451 -0.24949,-69.24738 c -0.13722,-38.08605 -0.55717,-69.24737 -0.93322,-69.24737 -0.37606,0 -15.72149,15.04411 -34.10097,33.43136 -37.20283,37.21856 -36.48954,36.67976 -47.71854,36.04527 -5.38328,-0.30419 -7.19151,-0.84848 -10.4672,-3.15072 -5.33595,-3.75025 -8.90938,-9.10327 -10.18983,-15.26443 -0.89223,-4.29314 -0.80596,-5.99307 0.54184,-10.67649 l 1.60304,-5.57035 55.37341,-55.46348 c 31.69193,-31.74349 56.77406,-56.1397 58.6485,-57.04465 4.72293,-2.28015 14.06177,-2.71285 18.8753,-0.87454 3.12766,1.19446 15.22038,12.83479 60.15345,57.90304 60.38969,60.57138 58.3988,58.26261 58.3988,67.72314 0,8.56703 -5.61346,17.25561 -13.46167,20.83615 -4.63892,2.11639 -14.09767,2.26722 -18.82973,0.30026 -2.324,-0.96601 -14.37601,-12.33985 -36.89049,-34.81465 -18.39137,-18.35895 -33.74463,-33.37991 -34.11835,-33.37991 -0.37374,0 -0.67951,2.03253 -0.67951,4.51675 0,5.88963 -2.56916,9.40911 -6.86849,9.40911 -1.95654,0 -3.73104,-0.75672 -5.03876,-2.14872 -1.90004,-2.0225 -2.01861,-3.02693 -2.01861,-17.0993 0,-8.22281 0.27141,-15.65787 0.60314,-16.52233 0.91695,-2.38954 5.80995,-4.13336 8.64065,-3.07944 1.2986,0.48349 20.33664,18.82244 42.30674,40.75322 42.8616,42.78486 41.53594,41.71424 47.70261,38.52534 3.59705,-1.86011 5.20648,-5.98901 3.88971,-9.97885 -1.3814,-4.18568 -106.16799,-108.97052 -109.87368,-109.87184 -1.40419,-0.34153 -3.49307,-0.38039 -4.64196,-0.0864 -1.14888,0.29404 -26.42432,24.89202 -56.16763,54.66217 -52.53701,52.58442 -54.07875,54.22831 -54.07875,57.66186 0,6.52989 6.67246,10.81354 12.3622,7.93641 1.11532,-0.56399 19.85477,-18.80687 41.64322,-40.53973 35.32734,-35.23722 39.93036,-39.5143 42.52545,-39.5143 1.75799,0 3.71663,0.80645 4.94738,2.03705 l 2.0373,2.03706 0.26078,77.72717 c 0.14342,42.74994 0.0284,78.6778 -0.25571,79.83967 -1.31165,5.36473 -7.46602,7.46404 -11.7392,4.00432 z"
   id="path2866"
   inkscape:connector-curvature="0" /><path
   style="font-variation-settings:normal;opacity:1;vector-effect:none;fill:#0098c9;fill-opacity:1;stroke:#0098c9;stroke-width:3;stroke-linecap:butt;stroke-linejoin:miter;stroke-miterlimit:4;stroke-dasharray:none;stroke-dashoffset:0;stroke-opacity:1;paint-order:markers fill stroke;stop-color:#000000;stop-opacity:1"
   d="m 250.84342,398.03455 c -8.08165,-1.58571 -14.92871,-7.86519 -17.30643,-15.87181 -1.74018,-5.85984 -2.01607,-30.04156 -0.38361,-33.62441 2.34928,-5.1561 10.40733,-5.1561 12.7566,0 0.63088,1.38462 1.04883,7.86229 1.04883,16.25551 v 13.95359 l 2.71375,2.71375 c 4.39763,4.39763 10.72382,3.50432 13.52347,-1.90961 1.21806,-2.35546 1.4022,-12.96434 1.4022,-80.78466 v -78.07312 l 2.38252,-2.38252 c 1.92179,-1.92179 2.95408,-2.27215 5.33824,-1.81178 1.62565,0.3139 3.68684,1.45131 4.58041,2.52757 1.5193,1.8299 1.62469,7.08832 1.62469,81.066 0,88.00694 0.24886,84.38657 -6.26146,91.09003 -5.59253,5.75844 -13.72759,8.36064 -21.41921,6.85146 z"
   id="path2868"
   inkscape:connector-curvature="0" /><path
   style="font-variation-settings:normal;opacity:1;vector-effect:none;fill:#0098c9;fill-opacity:1;stroke:#0098c9;stroke-width:3;stroke-linecap:butt;stroke-linejoin:miter;stroke-miterlimit:4;stroke-dasharray:none;stroke-dashoffset:0;stroke-opacity:1;paint-order:markers fill stroke;stop-color:#000000;stop-opacity:1"
   d="m 222.06182,476.98528 c -35.18503,-6.1676 -65.69071,-18.20939 -93.42863,-36.87994 -8.963,-6.03305 -21.61132,-16.52654 -23.68677,-19.65136 -4.35793,-6.56137 -0.39407,-13.98119 6.42379,-12.02449 1.52556,0.43784 5.34906,2.61612 8.49667,4.84064 12.86911,9.09504 29.05281,19.69799 36.00806,23.59113 23.16249,12.96498 47.96908,21.03844 74.77125,24.33477 13.31502,1.63758 42.73779,1.16071 56.41161,-0.91429 44.09145,-6.69088 87.6481,-29.51852 118.25565,-61.97668 14.69885,-15.58759 24.96949,-30.09273 34.20483,-48.30718 13.95938,-27.53147 20.35667,-50.29565 22.61275,-80.46539 2.16343,-28.93059 -3.04275,-62.48721 -13.97243,-90.05993 -5.4659,-13.78904 -12.09259,-26.28748 -22.7129,-42.8383 -6.13231,-9.55666 -10.02603,-16.43639 -10.02794,-17.71813 -0.005,-3.11837 4.21682,-6.81607 7.78155,-6.81607 3.89837,0 8.5131,4.61879 16.66355,16.67822 18.59816,27.51785 30.80517,57.64593 36.62634,90.39736 2.1449,12.06774 2.12083,59.77337 -0.0367,72.70576 -11.25194,67.44557 -53.25522,126.76721 -113.08797,159.71531 -26.4586,14.56995 -57.78514,24.31983 -84.48234,26.29374 -18.14606,1.34167 -46.58735,0.88859 -56.82039,-0.90517 z"
   id="path2870"
   inkscape:connector-curvature="0" /></svg>
